<?xml version="1.0" encoding="utf-8"?>
<!-- Generator: Adobe Illustrator 26.0.2, SVG Export Plug-In . SVG Version: 6.00 Build 0)  -->
<svg version="1.1" id="Capa_1" xmlns="http://www.w3.org/2000/svg" xmlns:xlink="http://www.w3.org/1999/xlink" x="0px" y="0px"
	 viewBox="0 0 492 316" style="enable-background:new 0 0 492 316;" xml:space="preserve">
<style type="text/css">
	.st0{clip-path:url(#SVGID_00000170994702631732274590000001247504658604507800_);}
	.st1{fill:#61D2E7;}
	.st2{fill:#5A9378;}
	.st3{fill:none;stroke:#326A6B;stroke-width:3;stroke-linecap:round;stroke-linejoin:round;}
	.st4{fill:#70C09D;}
	.st5{fill:#7BD68A;}
	.st6{fill:#EAA253;}
	.st7{fill:#CE843A;}
	.st8{fill:#36353D;}
	.st9{fill:#FFFFFF;}
	.st10{fill:#F1E3E0;}
	.st11{fill:#D62B04;}
	.st12{fill:#F1C5BC;}
	.st13{fill:#F13005;}
	.st14{fill:none;stroke:#C3D4FC;stroke-width:2;stroke-miterlimit:10;}
	.st15{fill:#C3D4FC;}
	.st16{fill:#FFBC00;}
	.st17{fill:#DCE5F7;}
	.st18{fill:#E6F5FF;}
	.st19{fill:#605D8C;}
	.st20{fill:#9A9AD8;}
	.st21{fill:#D89B21;}
	.st22{fill:#EDCB3A;}
	.st23{fill:#FF5050;}
	.st24{fill:#FFEA92;}
	.st25{fill:#326A6B;}
	.st26{fill:#A8456D;}
	.st27{fill:#323244;}
	.st28{fill:#6093CB;}
	.st29{fill:#94BBFF;}
	.st30{fill:#7DA3DB;}
	.st31{fill:#414193;}
	.st32{fill:none;stroke:#9A9AE8;stroke-width:2;stroke-linecap:round;stroke-linejoin:round;}
	.st33{fill:#D83563;}
	.st34{fill:none;stroke:#9A9AE8;stroke-linecap:round;stroke-linejoin:round;}
</style>
<g>
	<defs>
		<rect id="SVGID_1_" x="86.3" y="10.4" width="319.3" height="295.1"/>
	</defs>
	<clipPath id="SVGID_00000003825514252116918980000000757328526382212239_">
		<use xlink:href="#SVGID_1_"  style="overflow:visible;"/>
	</clipPath>
	<g style="clip-path:url(#SVGID_00000003825514252116918980000000757328526382212239_);">
		<path class="st1" d="M252.7,300.4c71.6,0,129.6-57.9,129.6-129.3c0-71.4-58-129.3-129.6-129.3S123.1,99.7,123.1,171.1
			C123.1,242.5,181.1,300.4,252.7,300.4z"/>
		<path class="st2" d="M199.6,214c5,10.9,12.6,51.1,1.6,56.1c-10.9,5-36.2-27.2-41.2-38.1c-1.2-2.6-2-5.4-2.1-8.3
			c-0.1-2.9,0.3-5.8,1.3-8.5c1-2.7,2.5-5.2,4.5-7.3c2-2.1,4.3-3.8,7-5c2.6-1.2,5.5-1.9,8.4-1.9c2.9-0.1,5.8,0.4,8.5,1.4
			c2.7,1,5.2,2.6,7.2,4.6C196.8,209,198.5,211.4,199.6,214z"/>
		<path class="st3" d="M177.3,213.3c0,0,17.9,49.4,21.2,65.7"/>
		<path class="st4" d="M161.9,237.8c8.6,4.8,33.1,27.5,28.3,36.1c-4.8,8.6-37-0.3-45.6-5.1c-2.1-1.1-3.9-2.7-5.3-4.5
			c-1.5-1.8-2.5-3.9-3.2-6.2c-0.6-2.3-0.8-4.6-0.6-6.9c0.3-2.3,1-4.6,2.1-6.6c1.1-2,2.7-3.8,4.5-5.3s3.9-2.5,6.2-3.2
			c2.3-0.6,4.6-0.8,6.9-0.5C157.5,235.9,159.8,236.6,161.9,237.8L161.9,237.8z"/>
		<path class="st3" d="M146.2,247.5c15.7,7.1,29.5,17.9,40.1,31.5"/>
		<path class="st5" d="M304.5,305.4H86.3c0,0,18.3-20.9,40.5-11.1c0,0,4.3-25.2,24.8-30.6c20.5-5.4,30.4,6.5,30.4,6.5
			s6.5-10.3,17.4-5.4c0,0,5.4-16.5,20.2-19.9c14.8-3.4,27.3,7.4,26.2,17.9c0,0,22.8-2.6,25.3,21.9
			C271.1,284.8,293.3,279,304.5,305.4z"/>
		<path class="st6" d="M255.1,279.2h-65.4v26.4h65.4V279.2z"/>
		<path class="st7" d="M255.1,281.8l-65.4,5.3v-7.9h65.4V281.8z"/>
		<path class="st6" d="M257.5,273.4h-70.1v6.5h70.1V273.4z"/>
		<path class="st8" d="M360.9,29.6H255.1c-10.7,0-19.5,8.7-19.5,19.5V286c0,10.7,8.7,19.5,19.5,19.5h105.8
			c10.7,0,19.5-8.7,19.5-19.5V49.1C380.3,38.3,371.6,29.6,360.9,29.6z"/>
		<path class="st9" d="M360.9,35.4H255.1c-7.6,0-13.7,6.1-13.7,13.7V286c0,7.6,6.1,13.7,13.7,13.7h105.8c7.6,0,13.7-6.1,13.7-13.7
			V49.1C374.6,41.5,368.4,35.4,360.9,35.4z"/>
		<path class="st10" d="M363.6,10.5H255.4l-34.1,30.9h176.4L363.6,10.5z"/>
		<path class="st11" d="M234.5,60.8c3.2,0,6.2-1.3,8.4-3.5c2.2-2.2,3.5-5.3,3.5-8.4v-7.5h-25.2l1.5,9.4c0.4,2.8,1.9,5.4,4,7.2
			C228.9,59.8,231.6,60.8,234.5,60.8z"/>
		<path class="st11" d="M284.3,60.8c3.3,0,6.6-1.3,8.9-3.7c2.4-2.4,3.7-5.6,3.7-8.9v-6.8h-25.3v6.8c0,1.7,0.3,3.3,1,4.8
			c0.6,1.5,1.6,2.9,2.7,4.1c1.2,1.2,2.6,2.1,4.1,2.7C281,60.4,282.6,60.8,284.3,60.8z"/>
		<path class="st12" d="M259,60.8c1.7,0,3.3-0.3,4.8-1c1.5-0.6,2.9-1.6,4.1-2.7c1.2-1.2,2.1-2.6,2.7-4.1c0.6-1.5,1-3.2,1-4.8v-6.8
			h-25.3v6.8c0,3.4,1.3,6.6,3.7,8.9C252.5,59.5,255.7,60.8,259,60.8z"/>
		<path class="st12" d="M309.5,60.7c1.7,0,3.3-0.3,4.8-1c1.5-0.6,2.9-1.6,4.1-2.7c1.2-1.2,2.1-2.6,2.7-4.1c0.6-1.5,1-3.2,1-4.8v-6.8
			h-25.3v6.8c0,3.4,1.3,6.6,3.7,8.9C303,59.4,306.2,60.7,309.5,60.7z"/>
		<path class="st12" d="M359.8,60.8c3.4,0,6.6-1.3,9-3.7c2.4-2.4,3.7-5.6,3.7-8.9v-6.8h-25.4v6.8c0,1.7,0.3,3.3,1,4.9
			c0.6,1.5,1.6,2.9,2.8,4.1c1.2,1.2,2.6,2.1,4.1,2.7C356.5,60.5,358.2,60.8,359.8,60.8z"/>
		<path class="st11" d="M334.7,60.8c3.3,0,6.6-1.3,8.9-3.7c2.4-2.4,3.7-5.6,3.7-8.9v-6.8h-25.3v6.8c0,3.4,1.3,6.6,3.7,8.9
			C328.1,59.4,331.4,60.8,334.7,60.8z"/>
		<path class="st11" d="M372.5,41.3v7.5c0,3.2,1.3,6.2,3.5,8.4c2.2,2.2,5.3,3.5,8.4,3.5c2.8,0,5.6-1,7.8-2.9c2.2-1.8,3.6-4.4,4-7.2
			l1.5-9.4L372.5,41.3z"/>
		<path class="st13" d="M363.6,10.5h-1.5c-3.7,0-13.5,0.2-14,0l24.4,30.8h25.2L363.6,10.5z"/>
		<path class="st13" d="M317.2,10.4l4.9,30.9h25.3l-14.7-30.9H317.2z"/>
		<path class="st13" d="M271.6,41.3h25.3l4.9-30.9h-15.5L271.6,41.3z"/>
		<path class="st13" d="M221.2,41.3h25.3l24.4-30.9h-15.5L221.2,41.3z"/>
		<path class="st14" d="M297.2,77.9h-38c-4.3,0-7.8,3.5-7.8,7.8v38c0,4.3,3.5,7.8,7.8,7.8h38c4.3,0,7.8-3.5,7.8-7.8v-38
			C305,81.4,301.5,77.9,297.2,77.9z"/>
		<path class="st15" d="M283.9,146.5H252v5.7h31.8V146.5z"/>
		<path class="st15" d="M283.9,153.8H252v1.6h31.8V153.8z"/>
		<path class="st15" d="M273.5,156.6H252v1.6h21.5V156.6z"/>
		<path class="st16" d="M255.8,141.6l-2.4,0.9l0.1-2.6l-1.6-2l2.5-0.7l1.4-2.1l1.4,2.1l2.4,0.7l-1.6,2l0.1,2.6L255.8,141.6z"/>
		<path class="st16" d="M267,141.6l-2.4,0.9l0.1-2.6l-1.6-2l2.4-0.7l1.4-2.1l1.4,2.1l2.4,0.7l-1.6,2l0.1,2.6L267,141.6z"/>
		<path class="st15" d="M278.2,141.6l-2.4,0.9l0.1-2.6l-1.6-2l2.4-0.7l1.4-2.1l1.4,2.1l2.4,0.7l-1.6,2l0.1,2.6L278.2,141.6z"/>
		<path class="st15" d="M289.4,141.6l-2.4,0.9l0.1-2.6l-1.6-2l2.4-0.7l1.4-2.1l1.4,2.1l2.4,0.7l-1.6,2l0.1,2.6L289.4,141.6z"/>
		<path class="st15" d="M300.6,141.6l-2.4,0.9l0.1-2.6l-1.6-2l2.5-0.7l1.4-2.1l1.4,2.1l2.5,0.7l-1.6,2l0.1,2.6L300.6,141.6z"/>
		<path class="st15" d="M258.5,83c0-0.4-0.1-0.8-0.3-1.1c-0.2-0.3-0.5-0.6-0.9-0.7c-0.4-0.2-0.8-0.2-1.1-0.1c-0.4,0.1-0.7,0.3-1,0.5
			c-0.3,0.3-0.5,0.6-0.5,1c-0.1,0.4,0,0.8,0.1,1.1c0.2,0.4,0.4,0.7,0.7,0.9c0.3,0.2,0.7,0.3,1.1,0.3c0.4,0,0.7-0.1,1-0.3l1.1,1.1
			l0.6-0.6l-1-1C258.4,83.9,258.5,83.5,258.5,83z M255.4,83c0-0.2,0.1-0.4,0.2-0.6c0.1-0.2,0.3-0.3,0.5-0.4c0.2-0.1,0.4-0.1,0.7-0.1
			c0.2,0,0.4,0.2,0.6,0.3c0.2,0.2,0.3,0.4,0.3,0.6c0,0.2,0,0.4-0.1,0.7c-0.1,0.2-0.2,0.4-0.4,0.5c-0.2,0.1-0.4,0.2-0.6,0.2
			c-0.3,0-0.6-0.1-0.8-0.3C255.5,83.6,255.4,83.3,255.4,83z"/>
		<path class="st15" d="M274,126.8c0.4,0,0.8-0.4,0.8-0.8c0-0.4-0.4-0.8-0.8-0.8c-0.4,0-0.8,0.4-0.8,0.8
			C273.3,126.4,273.6,126.8,274,126.8z"/>
		<path class="st17" d="M278.6,126c0,0.2,0,0.3-0.1,0.4s-0.2,0.2-0.4,0.3c-0.1,0.1-0.3,0.1-0.5,0c-0.2,0-0.3-0.1-0.4-0.2
			c-0.1-0.1-0.2-0.2-0.2-0.4c0-0.2,0-0.3,0-0.5s0.2-0.3,0.3-0.4c0.1-0.1,0.3-0.1,0.4-0.1c0.2,0,0.4,0.1,0.6,0.2
			C278.5,125.6,278.6,125.8,278.6,126z"/>
		<path class="st17" d="M281.6,126.8c0.4,0,0.8-0.4,0.8-0.8c0-0.4-0.4-0.8-0.8-0.8c-0.4,0-0.8,0.4-0.8,0.8
			C280.8,126.4,281.2,126.8,281.6,126.8z"/>
		<path class="st18" d="M277.7,118.3c12.2,0,22.1-0.7,22.1-1.5c0-0.8-9.9-1.5-22.1-1.5c-12.2,0-22.1,0.7-22.1,1.5
			C255.6,117.7,265.5,118.3,277.7,118.3z"/>
		<path class="st8" d="M270.2,104.7c-2-3.7,0-5.4,2.9-6c2.9-0.6,5.1,3.4,5.1,3.4L270.2,104.7z"/>
		<path class="st19" d="M260.1,114.8c-1.6-4.5-1.5-9.4,0.1-13.9c0.2-0.4,0.4-0.8,0.8-1c0.4-0.3,0.8-0.4,1.3-0.4h0.6
			c0.5,0,1,0.2,1.3,0.5c0.4,0.3,0.7,0.7,0.8,1.2c0.1,0.5,0.4,0.9,0.7,1.3c0.4,0.3,0.8,0.6,1.3,0.7l3.5,0.7c0.5,0.1,1,0.1,1.4-0.1
			c0.5-0.2,0.8-0.4,1.1-0.8l1-1.2c0.4-0.5,1.1-0.9,1.8-1c0.7-0.1,1.4,0,2,0.3l12,6.9c0.2,0.1,0.5,0.2,0.8,0.3l2.9,0.7
			c0.5,0.1,0.9,0.3,1.2,0.6c0.4,0.3,0.7,0.6,0.9,1c0.2,0.4,0.4,0.9,0.4,1.3c0,0.5,0,0.9-0.2,1.4l-0.4,1.6L260.1,114.8z"/>
		<path class="st20" d="M264.6,106.9l2.4,0.1c0.5,0,1,0,1.4-0.2c0.5-0.2,0.9-0.4,1.2-0.7c0.4-0.3,0.7-0.7,0.9-1.1
			c0.2-0.4,0.3-0.9,0.4-1.4c-0.1,0-0.2,0-0.4,0L267,103c-0.5-0.1-0.9-0.3-1.3-0.7c-0.4-0.3-0.6-0.8-0.7-1.3
			c-0.1-0.5-0.4-0.9-0.8-1.2c-0.4-0.3-0.9-0.5-1.4-0.5h-0.6c-0.5,0-0.9,0.1-1.3,0.4c-0.4,0.3-0.6,0.6-0.8,1c-1.1,3-1.4,6.1-1.1,9.2
			l1.6,0.1c0.3,0,0.6-0.1,0.9-0.3c0.2-0.2,0.4-0.5,0.4-0.8c0.1-0.6,0.4-1.2,0.9-1.6C263.4,107.1,264,106.9,264.6,106.9z"/>
		<path class="st20" d="M276.3,103.6c0.5,0,0.9-0.4,0.9-0.9s-0.4-0.9-0.9-0.9c-0.5,0-0.9,0.4-0.9,0.9S275.8,103.6,276.3,103.6z"/>
		<path class="st20" d="M280,104.4c0,0.2-0.1,0.3-0.1,0.5c-0.1,0.1-0.2,0.3-0.4,0.3c-0.2,0.1-0.3,0.1-0.5,0.1s-0.3-0.1-0.5-0.2
			s-0.2-0.3-0.2-0.5c0-0.2,0-0.3,0.1-0.5c0.1-0.2,0.2-0.3,0.3-0.4c0.1-0.1,0.3-0.1,0.5-0.1c0.2,0,0.5,0.1,0.6,0.3
			C279.9,103.9,280,104.1,280,104.4z"/>
		<path class="st20" d="M281.9,107c0.5,0,0.9-0.4,0.9-0.9s-0.4-0.9-0.9-0.9c-0.5,0-0.9,0.4-0.9,0.9S281.4,107,281.9,107z"/>
		<path class="st20" d="M284.7,108.7c0.5,0,0.9-0.4,0.9-0.9c0-0.5-0.4-0.9-0.9-0.9c-0.5,0-0.9,0.4-0.9,0.9
			C283.8,108.3,284.2,108.7,284.7,108.7z"/>
		<path class="st9" d="M293.8,114.7l-1-0.3c0.1-0.7,0.1-1.4-0.3-2c-0.3-0.6-0.8-1.1-1.5-1.3h-6.6l-12-7.8l0.5-0.8l11.7,7.7h6.6
			c0.9,0.3,1.6,1,2.1,1.8C293.9,112.8,294,113.8,293.8,114.7z"/>
		<path class="st8" d="M260.2,116.4h34.4c0.1,0,0.3,0,0.4-0.1c0.1-0.1,0.3-0.1,0.4-0.2c0.1-0.1,0.2-0.2,0.2-0.4
			c0.1-0.1,0.1-0.3,0.1-0.4V115c0-0.1,0-0.3-0.1-0.4c-0.1-0.1-0.1-0.3-0.2-0.4c-0.1-0.1-0.2-0.2-0.4-0.2c-0.1-0.1-0.3-0.1-0.4-0.1
			h-33.4c-0.3,0-0.6,0.1-0.8,0.3c-0.2,0.2-0.3,0.5-0.3,0.8C260,115.7,260.1,116.5,260.2,116.4z"/>
		<path class="st14" d="M357.2,77.9h-38c-4.3,0-7.8,3.5-7.8,7.8v38c0,4.3,3.5,7.8,7.8,7.8h38c4.3,0,7.8-3.5,7.8-7.8v-38
			C365,81.4,361.5,77.9,357.2,77.9z"/>
		<path class="st15" d="M343.9,146.5H312v5.7h31.8V146.5z"/>
		<path class="st15" d="M343.9,153.8H312v1.6h31.8V153.8z"/>
		<path class="st15" d="M333.5,156.6H312v1.6h21.5V156.6z"/>
		<path class="st16" d="M315.8,141.6l-2.4,0.9l0.1-2.6l-1.6-2l2.4-0.7l1.4-2.1l1.4,2.1l2.4,0.7l-1.6,2l0.1,2.6L315.8,141.6z"/>
		<path class="st16" d="M327,141.6l-2.4,0.9l0.1-2.6l-1.6-2l2.5-0.7l1.4-2.1l1.4,2.1l2.5,0.7l-1.6,2l0.1,2.6L327,141.6z"/>
		<path class="st16" d="M338.2,141.6l-2.4,0.9l0.1-2.6l-1.6-2l2.5-0.7l1.4-2.1l1.4,2.1l2.4,0.7l-1.6,2l0.1,2.6L338.2,141.6z"/>
		<path class="st15" d="M349.4,141.6l-2.4,0.9l0.1-2.6l-1.6-2l2.5-0.7l1.4-2.1l1.4,2.1l2.5,0.7l-1.6,2l0.1,2.6L349.4,141.6z"/>
		<path class="st15" d="M360.6,141.6l-2.4,0.9l0.1-2.6l-1.6-2l2.4-0.7l1.4-2.1l1.4,2.1l2.5,0.7l-1.6,2l0.1,2.6L360.6,141.6z"/>
		<path class="st15" d="M318.5,83c0-0.4-0.1-0.8-0.3-1.1c-0.2-0.3-0.5-0.6-0.9-0.7c-0.4-0.2-0.8-0.2-1.1-0.1c-0.4,0.1-0.7,0.3-1,0.5
			c-0.3,0.3-0.5,0.6-0.5,1c-0.1,0.4,0,0.8,0.1,1.1c0.1,0.4,0.4,0.7,0.7,0.9c0.3,0.2,0.7,0.3,1.1,0.3c0.4,0,0.7-0.1,1-0.3l1,1.1
			l0.6-0.6l-1-1C318.4,83.9,318.5,83.5,318.5,83z M315.4,83c0-0.2,0.1-0.4,0.2-0.6c0.1-0.2,0.3-0.3,0.5-0.4c0.2-0.1,0.4-0.1,0.7-0.1
			c0.2,0,0.4,0.2,0.6,0.3c0.2,0.2,0.3,0.4,0.3,0.6c0,0.2,0,0.4-0.1,0.7c-0.1,0.2-0.2,0.4-0.4,0.5c-0.2,0.1-0.4,0.2-0.6,0.2
			c-0.1,0-0.3,0-0.4-0.1c-0.1-0.1-0.3-0.1-0.4-0.2c-0.1-0.1-0.2-0.2-0.3-0.4C315.4,83.3,315.4,83.2,315.4,83L315.4,83z"/>
		<path class="st15" d="M334.8,126c0,0.2-0.1,0.4-0.2,0.6c-0.1,0.1-0.3,0.2-0.6,0.2c-0.2,0-0.4-0.1-0.6-0.2
			c-0.1-0.1-0.2-0.3-0.2-0.6c0-0.2,0.1-0.4,0.2-0.6c0.1-0.1,0.3-0.2,0.6-0.2c0.2,0,0.4,0.1,0.6,0.2
			C334.7,125.6,334.8,125.8,334.8,126z"/>
		<path class="st17" d="M337.8,126.8c0.4,0,0.8-0.4,0.8-0.8c0-0.4-0.4-0.8-0.8-0.8c-0.4,0-0.8,0.4-0.8,0.8
			C337,126.4,337.4,126.8,337.8,126.8z"/>
		<path class="st17" d="M341.6,126.8c0.4,0,0.8-0.4,0.8-0.8c0-0.4-0.4-0.8-0.8-0.8c-0.4,0-0.8,0.4-0.8,0.8
			C340.8,126.4,341.1,126.8,341.6,126.8z"/>
		<path class="st18" d="M339,118.3c12.2,0,22.1-0.7,22.1-1.5c0-0.8-9.9-1.5-22.1-1.5c-12.2,0-22.1,0.7-22.1,1.5
			C316.9,117.7,326.8,118.3,339,118.3z"/>
		<path class="st21" d="M331.5,104.7c-2-3.7,0-5.4,2.9-6c2.9-0.6,5.1,3.4,5.1,3.4L331.5,104.7z"/>
		<path class="st22" d="M321.4,114.8c-1.6-4.5-1.5-9.4,0.1-13.9c0.2-0.4,0.4-0.8,0.8-1.1c0.4-0.3,0.8-0.4,1.3-0.4h0.6
			c0.5,0,1,0.2,1.3,0.5c0.4,0.3,0.7,0.7,0.8,1.2c0.1,0.5,0.4,0.9,0.7,1.3c0.4,0.3,0.8,0.6,1.3,0.7l3.5,0.7c0.5,0.1,1,0.1,1.4-0.1
			c0.5-0.2,0.8-0.4,1.1-0.8l0.9-1.2c0.4-0.6,1.1-0.9,1.8-1.1c0.7-0.1,1.4,0,2,0.3l12,6.9c0.2,0.1,0.5,0.2,0.8,0.3l2.9,0.7
			c0.5,0.1,0.9,0.3,1.2,0.6c0.4,0.3,0.7,0.6,0.9,1c0.2,0.4,0.4,0.9,0.4,1.3c0,0.5,0,0.9-0.2,1.4l-0.4,1.6L321.4,114.8z"/>
		<path class="st23" d="M325.9,106.9l2.4,0.1c0.5,0,1,0,1.4-0.2c0.5-0.2,0.9-0.4,1.2-0.7c0.4-0.3,0.7-0.7,0.9-1.1
			c0.2-0.4,0.3-0.9,0.4-1.4c-0.1,0-0.2,0-0.4,0l-3.5-0.7c-0.5-0.1-0.9-0.3-1.3-0.7s-0.6-0.8-0.7-1.3c-0.1-0.5-0.4-0.9-0.8-1.2
			c-0.4-0.3-0.9-0.5-1.3-0.5h-0.6c-0.4,0-0.9,0.1-1.3,0.4c-0.4,0.3-0.6,0.6-0.8,1c-1.1,3-1.4,6.1-1.1,9.2l1.6,0.1
			c0.3,0,0.6-0.1,0.9-0.3c0.2-0.2,0.4-0.5,0.4-0.8c0.1-0.6,0.4-1.2,0.9-1.6C324.6,107.1,325.3,106.9,325.9,106.9z"/>
		<path class="st23" d="M337.6,103.6c0.5,0,0.9-0.4,0.9-0.9s-0.4-0.9-0.9-0.9c-0.5,0-0.9,0.4-0.9,0.9S337.1,103.6,337.6,103.6z"/>
		<path class="st23" d="M340.4,105.3c0.5,0,0.9-0.4,0.9-0.9s-0.4-0.9-0.9-0.9c-0.5,0-0.9,0.4-0.9,0.9S339.9,105.3,340.4,105.3z"/>
		<path class="st23" d="M344.1,106.1c0,0.2-0.1,0.3-0.1,0.5c-0.1,0.1-0.2,0.3-0.4,0.3c-0.2,0.1-0.3,0.1-0.5,0.1
			c-0.2,0-0.3-0.1-0.5-0.2c-0.1-0.1-0.2-0.3-0.2-0.5s0-0.3,0.1-0.5c0.1-0.2,0.2-0.3,0.3-0.4c0.1-0.1,0.3-0.1,0.5-0.1
			c0.1,0,0.2,0,0.3,0.1c0.1,0,0.2,0.1,0.3,0.2c0.1,0.1,0.1,0.2,0.2,0.3C344,105.9,344.1,106,344.1,106.1z"/>
		<path class="st23" d="M346.8,107.8c0,0.2-0.1,0.3-0.1,0.5c-0.1,0.1-0.2,0.3-0.4,0.3c-0.2,0.1-0.3,0.1-0.5,0
			c-0.2,0-0.3-0.1-0.5-0.2c-0.1-0.1-0.2-0.3-0.2-0.5c0-0.2,0-0.3,0.1-0.5c0.1-0.2,0.2-0.3,0.3-0.4c0.1-0.1,0.3-0.1,0.5-0.1
			c0.1,0,0.2,0,0.3,0.1c0.1,0,0.2,0.1,0.3,0.2c0.1,0.1,0.1,0.2,0.2,0.3C346.8,107.6,346.8,107.7,346.8,107.8z"/>
		<path class="st21" d="M355,114.7l-1-0.3c0.1-0.7,0.1-1.4-0.3-2c-0.3-0.6-0.8-1.1-1.5-1.3h-6.6l-11.9-7.8l0.5-0.8l11.7,7.7h6.6
			c0.9,0.3,1.6,1,2,1.8C355.2,112.8,355.3,113.8,355,114.7z"/>
		<path class="st24" d="M321.4,116.4h34.4c0.1,0,0.3,0,0.4-0.1c0.1-0.1,0.3-0.1,0.4-0.2c0.1-0.1,0.2-0.2,0.2-0.4
			c0.1-0.1,0.1-0.3,0.1-0.4V115c0-0.1,0-0.3-0.1-0.4c-0.1-0.1-0.1-0.3-0.2-0.4c-0.1-0.1-0.2-0.2-0.4-0.2c-0.1-0.1-0.3-0.1-0.4-0.1
			h-33.4c-0.1,0-0.3,0-0.4,0.1c-0.1,0.1-0.3,0.1-0.4,0.2c-0.1,0.1-0.2,0.2-0.2,0.4c-0.1,0.1-0.1,0.3-0.1,0.4
			C321.3,115.7,321.3,116.5,321.4,116.4z"/>
		<path class="st14" d="M297.2,170.1h-38c-4.3,0-7.8,3.5-7.8,7.8v38c0,4.3,3.5,7.8,7.8,7.8h38c4.3,0,7.8-3.5,7.8-7.8v-38
			C305,173.6,301.5,170.1,297.2,170.1z"/>
		<path class="st15" d="M283.9,238.7H252v5.7h31.8V238.7z"/>
		<path class="st15" d="M283.9,246H252v1.6h31.8V246z"/>
		<path class="st15" d="M273.5,248.8H252v1.6h21.5V248.8z"/>
		<path class="st16" d="M255.8,233.8l-2.4,0.9l0.1-2.6l-1.6-2l2.5-0.7l1.4-2.1l1.4,2.1l2.4,0.7l-1.6,2l0.1,2.6L255.8,233.8z"/>
		<path class="st16" d="M267,233.8l-2.4,0.9l0.1-2.6l-1.6-2l2.4-0.7l1.4-2.1l1.4,2.1l2.4,0.7l-1.6,2l0.1,2.6L267,233.8z"/>
		<path class="st16" d="M278.2,233.8l-2.4,0.9l0.1-2.6l-1.6-2l2.4-0.7l1.4-2.1l1.4,2.1l2.4,0.7l-1.6,2l0.1,2.6L278.2,233.8z"/>
		<path class="st15" d="M289.4,233.8l-2.4,0.9l0.1-2.6l-1.6-2l2.4-0.7l1.4-2.1l1.4,2.1l2.4,0.7l-1.6,2l0.1,2.6L289.4,233.8z"/>
		<path class="st15" d="M300.6,233.8l-2.4,0.9l0.1-2.6l-1.6-2l2.5-0.7l1.4-2.1l1.4,2.1l2.5,0.7l-1.6,2l0.1,2.6L300.6,233.8z"/>
		<path class="st15" d="M258.5,175.2c0-0.4-0.1-0.9-0.4-1.2c-0.3-0.4-0.6-0.6-1-0.7c-0.4-0.1-0.9-0.1-1.3,0.1
			c-0.4,0.2-0.8,0.5-1,0.8c-0.2,0.4-0.3,0.8-0.3,1.3c0.1,0.4,0.2,0.8,0.6,1.2c0.3,0.3,0.7,0.5,1.1,0.6c0.4,0.1,0.9,0,1.3-0.2
			l1.1,1.1l0.6-0.6l-1-1C258.4,176,258.5,175.6,258.5,175.2z M255.4,175.2c0-0.2,0.1-0.4,0.2-0.6c0.1-0.2,0.3-0.3,0.5-0.4
			c0.2-0.1,0.4-0.1,0.7-0.1c0.2,0,0.4,0.1,0.6,0.3c0.2,0.2,0.3,0.4,0.3,0.6c0,0.2,0,0.4-0.1,0.7c-0.1,0.2-0.2,0.4-0.4,0.5
			c-0.2,0.1-0.4,0.2-0.6,0.2c-0.3,0-0.6-0.1-0.8-0.3C255.5,175.8,255.4,175.5,255.4,175.2z"/>
		<path class="st15" d="M274,219c0.4,0,0.8-0.4,0.8-0.8c0-0.4-0.4-0.8-0.8-0.8c-0.4,0-0.8,0.4-0.8,0.8
			C273.3,218.6,273.6,219,274,219z"/>
		<path class="st17" d="M278.6,218.2c0,0.2-0.1,0.4-0.2,0.6c-0.1,0.1-0.3,0.2-0.6,0.2c-0.2,0-0.4-0.1-0.6-0.2
			c-0.1-0.1-0.2-0.3-0.2-0.6c0-0.2,0.1-0.4,0.2-0.6c0.1-0.1,0.3-0.2,0.6-0.2c0.2,0,0.4,0.1,0.6,0.2
			C278.5,217.8,278.6,218,278.6,218.2z"/>
		<path class="st17" d="M281.6,219c0.4,0,0.8-0.4,0.8-0.8c0-0.4-0.4-0.8-0.8-0.8c-0.4,0-0.8,0.4-0.8,0.8
			C280.8,218.6,281.2,219,281.6,219z"/>
		<path class="st18" d="M277.7,210.5c12.2,0,22.1-0.7,22.1-1.5c0-0.8-9.9-1.5-22.1-1.5c-12.2,0-22.1,0.7-22.1,1.5
			C255.6,209.8,265.5,210.5,277.7,210.5z"/>
		<path class="st25" d="M270.2,196.8c-2-3.7,0-5.4,2.9-6c2.9-0.6,5.1,3.4,5.1,3.4L270.2,196.8z"/>
		<path class="st2" d="M260.1,207c-1.6-4.5-1.5-9.4,0.1-13.9c0.2-0.4,0.4-0.8,0.8-1s0.8-0.4,1.3-0.4h0.6c0.5,0,1,0.2,1.3,0.5
			c0.4,0.3,0.7,0.7,0.8,1.2c0.1,0.5,0.4,0.9,0.7,1.3c0.4,0.3,0.8,0.6,1.3,0.7l3.5,0.7c0.5,0.1,1,0.1,1.4-0.1
			c0.5-0.2,0.8-0.4,1.1-0.8l1-1.2c0.4-0.5,1.1-0.9,1.8-1.1c0.7-0.1,1.4,0,2,0.3l12,7c0.2,0.1,0.5,0.2,0.8,0.3l2.9,0.7
			c0.5,0.1,0.9,0.3,1.2,0.6c0.4,0.3,0.7,0.6,0.9,1c0.2,0.4,0.4,0.9,0.4,1.3c0,0.5,0,0.9-0.2,1.4l-0.4,1.6L260.1,207z"/>
		<path class="st22" d="M264.6,199.1l2.4,0.1c0.5,0,1,0,1.4-0.2c0.5-0.2,0.9-0.4,1.2-0.7c0.4-0.3,0.7-0.7,0.9-1.1
			c0.2-0.4,0.3-0.9,0.4-1.4c-0.1,0-0.2,0-0.4,0l-3.5-0.7c-0.5-0.1-0.9-0.3-1.3-0.7c-0.4-0.3-0.6-0.8-0.7-1.3
			c-0.1-0.5-0.4-0.9-0.8-1.2c-0.4-0.3-0.9-0.5-1.3-0.5h-0.6c-0.5,0-0.9,0.1-1.3,0.4s-0.6,0.6-0.8,1c-1.1,3-1.4,6.1-1.1,9.2l1.6,0.1
			c0.3,0,0.6-0.1,0.9-0.3c0.2-0.2,0.4-0.5,0.4-0.8c0.1-0.6,0.4-1.2,0.9-1.6C263.3,199.3,264,199.1,264.6,199.1z"/>
		<path class="st5" d="M276.3,195.8c0.5,0,0.9-0.4,0.9-0.9c0-0.5-0.4-0.9-0.9-0.9c-0.5,0-0.9,0.4-0.9,0.9
			C275.4,195.4,275.8,195.8,276.3,195.8z"/>
		<path class="st5" d="M280,196.6c0,0.2-0.1,0.3-0.1,0.5c-0.1,0.1-0.2,0.3-0.4,0.3c-0.2,0.1-0.3,0.1-0.5,0.1c-0.2,0-0.3-0.1-0.5-0.2
			c-0.1-0.1-0.2-0.3-0.2-0.5c0-0.2,0-0.3,0.1-0.5c0.1-0.2,0.2-0.3,0.3-0.4c0.1-0.1,0.3-0.1,0.5-0.1c0.2,0,0.5,0.1,0.6,0.3
			C279.9,196.1,280,196.4,280,196.6z"/>
		<path class="st5" d="M281.9,199.2c0.5,0,0.9-0.4,0.9-0.9c0-0.5-0.4-0.9-0.9-0.9c-0.5,0-0.9,0.4-0.9,0.9
			C281,198.8,281.4,199.2,281.9,199.2z"/>
		<path class="st5" d="M284.7,200.9c0.5,0,0.9-0.4,0.9-0.9c0-0.5-0.4-0.9-0.9-0.9c-0.5,0-0.9,0.4-0.9,0.9
			C283.8,200.5,284.2,200.9,284.7,200.9z"/>
		<path class="st9" d="M293.8,206.9l-1-0.3c0.1-0.7,0.1-1.4-0.3-2c-0.3-0.6-0.8-1.1-1.5-1.3h-6.6l-12-7.8l0.5-0.8l11.7,7.7h6.6
			c0.9,0.3,1.6,1,2.1,1.8C293.9,205,294,206,293.8,206.9z"/>
		<path class="st22" d="M260.2,208.6h34.4c0.1,0,0.3,0,0.4-0.1c0.1-0.1,0.3-0.1,0.4-0.2c0.1-0.1,0.2-0.2,0.2-0.4
			c0.1-0.1,0.1-0.3,0.1-0.4v-0.2c0-0.1,0-0.3-0.1-0.4c-0.1-0.1-0.1-0.3-0.2-0.4c-0.1-0.1-0.2-0.2-0.4-0.2c-0.1-0.1-0.3-0.1-0.4-0.1
			h-33.4c-0.3,0-0.6,0.1-0.8,0.3c-0.2,0.2-0.3,0.5-0.3,0.8C260,207.9,260.1,208.6,260.2,208.6z"/>
		<path class="st14" d="M357.2,170.1h-38c-4.3,0-7.8,3.5-7.8,7.8v38c0,4.3,3.5,7.8,7.8,7.8h38c4.3,0,7.8-3.5,7.8-7.8v-38
			C365,173.6,361.5,170.1,357.2,170.1z"/>
		<path class="st15" d="M343.9,238.7H312v5.7h31.8V238.7z"/>
		<path class="st15" d="M343.9,246H312v1.6h31.8V246z"/>
		<path class="st15" d="M333.5,248.8H312v1.6h21.5V248.8z"/>
		<path class="st16" d="M315.8,233.8l-2.4,0.9l0.1-2.6l-1.6-2l2.4-0.7l1.4-2.1l1.4,2.1l2.4,0.7l-1.6,2l0.1,2.6L315.8,233.8z"/>
		<path class="st16" d="M327,233.8l-2.4,0.9l0.1-2.6l-1.6-2l2.5-0.7l1.4-2.1l1.4,2.1l2.5,0.7l-1.6,2l0.1,2.6L327,233.8z"/>
		<path class="st16" d="M338.2,233.8l-2.4,0.9l0.1-2.6l-1.6-2l2.5-0.7l1.4-2.1l1.4,2.1l2.4,0.7l-1.6,2l0.1,2.6L338.2,233.8z"/>
		<path class="st16" d="M349.4,233.8l-2.4,0.9l0.1-2.6l-1.6-2l2.5-0.7l1.4-2.1l1.4,2.1l2.5,0.7l-1.6,2l0.1,2.6L349.4,233.8z"/>
		<path class="st16" d="M360.6,233.8l-2.4,0.9l0.1-2.6l-1.6-2l2.4-0.7l1.4-2.1l1.4,2.1l2.5,0.7l-1.6,2l0.1,2.6L360.6,233.8z"/>
		<path class="st15" d="M318.5,175.2c0-0.4-0.1-0.9-0.4-1.2c-0.3-0.4-0.6-0.6-1.1-0.7c-0.4-0.1-0.9-0.1-1.3,0.1
			c-0.4,0.2-0.7,0.5-1,0.9c-0.2,0.4-0.3,0.8-0.2,1.3c0.1,0.4,0.3,0.8,0.6,1.1c0.3,0.3,0.7,0.5,1.2,0.5c0.4,0,0.9-0.1,1.3-0.3l1,1.1
			l0.6-0.6l-1-1C318.4,176,318.5,175.6,318.5,175.2z M315.4,175.2c0-0.2,0.1-0.4,0.2-0.6c0.1-0.2,0.3-0.3,0.5-0.4s0.4-0.1,0.7-0.1
			c0.2,0,0.4,0.1,0.6,0.3c0.2,0.2,0.3,0.4,0.3,0.6c0,0.2,0,0.4-0.1,0.7s-0.2,0.4-0.4,0.5c-0.2,0.1-0.4,0.2-0.6,0.2
			c-0.1,0-0.3,0-0.4-0.1c-0.1-0.1-0.3-0.1-0.4-0.2c-0.1-0.1-0.2-0.2-0.3-0.4C315.4,175.5,315.4,175.4,315.4,175.2L315.4,175.2z"/>
		<path class="st15" d="M334.8,218.2c0,0.2,0,0.3-0.1,0.4c-0.1,0.1-0.2,0.2-0.4,0.3c-0.1,0.1-0.3,0.1-0.5,0c-0.2,0-0.3-0.1-0.4-0.2
			c-0.1-0.1-0.2-0.2-0.2-0.4c0-0.2,0-0.3,0-0.5c0.1-0.1,0.2-0.3,0.3-0.4c0.1-0.1,0.3-0.1,0.4-0.1c0.2,0,0.4,0.1,0.6,0.2
			C334.7,217.8,334.8,218,334.8,218.2z"/>
		<path class="st17" d="M337.8,219c0.4,0,0.8-0.4,0.8-0.8c0-0.4-0.4-0.8-0.8-0.8c-0.4,0-0.8,0.4-0.8,0.8
			C337,218.6,337.4,219,337.8,219z"/>
		<path class="st17" d="M341.6,219c0.4,0,0.8-0.4,0.8-0.8c0-0.4-0.4-0.8-0.8-0.8c-0.4,0-0.8,0.4-0.8,0.8
			C340.8,218.6,341.1,219,341.6,219z"/>
		<path class="st18" d="M339,210.5c12.2,0,22.1-0.7,22.1-1.5c0-0.8-9.9-1.5-22.1-1.5c-12.2,0-22.1,0.7-22.1,1.5
			C316.9,209.8,326.8,210.5,339,210.5z"/>
		<path class="st26" d="M331.5,196.8c-2-3.7,0-5.4,2.9-6c2.9-0.6,5.1,3.4,5.1,3.4L331.5,196.8z"/>
		<path class="st23" d="M321.4,207c-1.6-4.5-1.5-9.4,0.1-13.9c0.2-0.4,0.4-0.8,0.8-1c0.4-0.3,0.8-0.4,1.3-0.4h0.6
			c0.5,0,1,0.2,1.3,0.5c0.4,0.3,0.7,0.7,0.8,1.2c0.1,0.5,0.4,0.9,0.7,1.3c0.4,0.3,0.8,0.6,1.3,0.7l3.5,0.7c0.5,0.1,1,0.1,1.4-0.1
			c0.5-0.2,0.8-0.4,1.1-0.8l0.9-1.2c0.4-0.6,1.1-0.9,1.8-1.1c0.7-0.1,1.4,0,2,0.3l12,7c0.2,0.1,0.5,0.2,0.8,0.3l2.9,0.7
			c0.5,0.1,0.9,0.3,1.2,0.6c0.4,0.3,0.7,0.6,0.9,1c0.2,0.4,0.4,0.9,0.4,1.3c0,0.5,0,0.9-0.2,1.4l-0.4,1.6L321.4,207z"/>
		<path class="st27" d="M325.9,199.1l2.4,0.1c0.5,0,1,0,1.4-0.2c0.5-0.2,0.9-0.4,1.2-0.7c0.4-0.3,0.7-0.7,0.9-1.1
			c0.2-0.4,0.3-0.9,0.4-1.4c-0.1,0-0.2,0-0.4,0l-3.5-0.7c-0.5-0.1-0.9-0.3-1.3-0.7c-0.4-0.3-0.6-0.8-0.7-1.3
			c-0.1-0.5-0.4-0.9-0.8-1.2c-0.4-0.3-0.9-0.5-1.3-0.5h-0.6c-0.4,0-0.9,0.1-1.3,0.4c-0.4,0.3-0.6,0.6-0.8,1c-1.1,3-1.4,6.1-1.1,9.2
			l1.6,0.1c0.3,0,0.6-0.1,0.9-0.3c0.2-0.2,0.4-0.5,0.4-0.8c0.1-0.6,0.4-1.2,0.9-1.6C324.6,199.3,325.3,199.1,325.9,199.1z"/>
		<path class="st24" d="M337.6,195.8c0.5,0,0.9-0.4,0.9-0.9c0-0.5-0.4-0.9-0.9-0.9c-0.5,0-0.9,0.4-0.9,0.9
			C336.7,195.4,337.1,195.8,337.6,195.8z"/>
		<path class="st24" d="M340.4,197.5c0.5,0,0.9-0.4,0.9-0.9s-0.4-0.9-0.9-0.9c-0.5,0-0.9,0.4-0.9,0.9S339.9,197.5,340.4,197.5z"/>
		<path class="st24" d="M344.1,198.3c0,0.2,0,0.3-0.1,0.5c-0.1,0.1-0.2,0.3-0.4,0.3c-0.2,0.1-0.3,0.1-0.5,0.1
			c-0.2,0-0.3-0.1-0.5-0.2c-0.1-0.1-0.2-0.3-0.2-0.5c0-0.2,0-0.3,0-0.5c0.1-0.2,0.2-0.3,0.3-0.4c0.1-0.1,0.3-0.1,0.5-0.1
			c0.2,0,0.5,0.1,0.6,0.3C344,197.8,344.1,198,344.1,198.3z"/>
		<path class="st24" d="M346.8,200c0,0.2-0.1,0.3-0.1,0.5c-0.1,0.1-0.2,0.3-0.4,0.3c-0.2,0.1-0.3,0.1-0.5,0c-0.2,0-0.3-0.1-0.5-0.2
			c-0.1-0.1-0.2-0.3-0.2-0.5c0-0.2,0-0.3,0.1-0.5c0.1-0.2,0.2-0.3,0.3-0.4c0.1-0.1,0.3-0.1,0.5-0.1c0.1,0,0.2,0,0.3,0.1
			c0.1,0,0.2,0.1,0.3,0.2c0.1,0.1,0.1,0.2,0.2,0.3C346.8,199.7,346.8,199.9,346.8,200z"/>
		<path class="st9" d="M355,206.9l-1-0.3c0.1-0.7,0.1-1.4-0.3-2c-0.3-0.6-0.8-1.1-1.5-1.3h-6.6l-12-7.8l0.5-0.8l11.8,7.7h6.6
			c0.9,0.3,1.6,1,2,1.8C355.2,205,355.3,206,355,206.9z"/>
		<path class="st24" d="M321.4,208.6h34.4c0.1,0,0.3,0,0.4-0.1c0.1-0.1,0.3-0.1,0.4-0.2c0.1-0.1,0.2-0.2,0.2-0.4
			c0.1-0.1,0.1-0.3,0.1-0.4v-0.2c0-0.1,0-0.3-0.1-0.4c-0.1-0.1-0.1-0.3-0.2-0.4c-0.1-0.1-0.2-0.2-0.4-0.2c-0.1-0.1-0.3-0.1-0.4-0.1
			h-33.4c-0.1,0-0.3,0-0.4,0.1c-0.1,0.1-0.3,0.1-0.4,0.2c-0.1,0.1-0.2,0.2-0.2,0.4c-0.1,0.1-0.1,0.3-0.1,0.4
			C321.3,207.9,321.3,208.6,321.4,208.6z"/>
		<path class="st28" d="M335,264.3h-53.7c-3.2,0-5.7,2.6-5.7,5.7v12.5c0,3.2,2.6,5.7,5.7,5.7H335c3.2,0,5.7-2.6,5.7-5.7V270
			C340.7,266.9,338.2,264.3,335,264.3z"/>
		<path class="st9" d="M296.1,276.7h0.8c0,0.4-0.2,0.7-0.3,1c-0.2,0.3-0.4,0.5-0.8,0.7c-0.3,0.2-0.7,0.3-1.2,0.3
			c-0.4,0-0.7-0.1-1-0.2c-0.3-0.1-0.5-0.3-0.8-0.6c-0.2-0.2-0.4-0.5-0.5-0.9c-0.1-0.3-0.2-0.7-0.2-1.2v-0.6c0-0.4,0.1-0.8,0.2-1.2
			c0.1-0.3,0.3-0.6,0.5-0.9c0.2-0.2,0.5-0.4,0.8-0.6c0.3-0.1,0.6-0.2,1-0.2c0.5,0,0.9,0.1,1.2,0.3c0.3,0.2,0.6,0.4,0.7,0.7
			c0.2,0.3,0.3,0.7,0.3,1.1h-0.8c0-0.3-0.1-0.5-0.2-0.7c-0.1-0.2-0.3-0.4-0.5-0.5c-0.2-0.1-0.5-0.2-0.8-0.2c-0.3,0-0.5,0.1-0.7,0.2
			c-0.2,0.1-0.4,0.3-0.5,0.4c-0.1,0.2-0.2,0.4-0.3,0.7c-0.1,0.3-0.1,0.6-0.1,0.9v0.6c0,0.3,0,0.6,0.1,0.8c0.1,0.3,0.2,0.5,0.3,0.7
			c0.1,0.2,0.3,0.4,0.5,0.5c0.2,0.1,0.4,0.2,0.7,0.2c0.3,0,0.6-0.1,0.8-0.2c0.2-0.1,0.4-0.3,0.5-0.5
			C296,277.2,296.1,277,296.1,276.7z M297.7,276.4L297.7,276.4c0-0.4,0-0.7,0.1-1c0.1-0.3,0.2-0.5,0.4-0.7c0.2-0.2,0.4-0.4,0.7-0.5
			c0.3-0.1,0.5-0.2,0.9-0.2c0.3,0,0.6,0.1,0.9,0.2c0.3,0.1,0.5,0.3,0.7,0.5c0.2,0.2,0.3,0.5,0.4,0.7c0.1,0.3,0.1,0.6,0.1,0.9v0.1
			c0,0.3,0,0.6-0.1,0.9c-0.1,0.3-0.2,0.5-0.4,0.7c-0.2,0.2-0.4,0.4-0.7,0.5c-0.3,0.1-0.5,0.2-0.9,0.2c-0.3,0-0.6-0.1-0.9-0.2
			c-0.3-0.1-0.5-0.3-0.7-0.5c-0.2-0.2-0.3-0.5-0.4-0.7C297.8,277.1,297.7,276.8,297.7,276.4z M298.5,276.3L298.5,276.3
			c0,0.3,0,0.5,0.1,0.7c0.1,0.2,0.1,0.4,0.2,0.5c0.1,0.2,0.2,0.3,0.4,0.4c0.2,0.1,0.4,0.1,0.6,0.1c0.2,0,0.4,0,0.6-0.1
			c0.2-0.1,0.3-0.2,0.4-0.4c0.1-0.2,0.2-0.3,0.2-0.5c0.1-0.2,0.1-0.4,0.1-0.6v-0.1c0-0.2,0-0.4-0.1-0.6c-0.1-0.2-0.1-0.4-0.2-0.5
			c-0.1-0.2-0.2-0.3-0.4-0.4c-0.2-0.1-0.3-0.1-0.6-0.1c-0.2,0-0.4,0-0.6,0.1c-0.2,0.1-0.3,0.2-0.4,0.4c-0.1,0.2-0.2,0.3-0.2,0.5
			C298.5,275.9,298.5,276.1,298.5,276.3z M303.6,275v3.6h-0.8v-4.5h0.7L303.6,275z M303.4,276.2l-0.4,0c0-0.3,0-0.6,0.1-0.9
			c0.1-0.3,0.2-0.5,0.3-0.7c0.2-0.2,0.3-0.3,0.6-0.5c0.2-0.1,0.5-0.2,0.8-0.2c0.2,0,0.4,0,0.6,0.1c0.2,0.1,0.3,0.2,0.5,0.3
			c0.1,0.1,0.2,0.3,0.3,0.5c0.1,0.2,0.1,0.4,0.1,0.7v3h-0.8v-3c0-0.2,0-0.4-0.1-0.6c-0.1-0.1-0.2-0.2-0.3-0.3
			c-0.1-0.1-0.3-0.1-0.5-0.1c-0.2,0-0.4,0-0.6,0.1c-0.2,0.1-0.3,0.2-0.4,0.3c-0.1,0.1-0.2,0.3-0.2,0.5
			C303.5,275.8,303.4,276,303.4,276.2z M306.4,275.8l-0.5,0.2c0-0.2,0-0.5,0.1-0.7c0.1-0.2,0.2-0.4,0.3-0.6c0.2-0.2,0.3-0.3,0.6-0.4
			c0.2-0.1,0.5-0.2,0.8-0.2c0.2,0,0.5,0,0.6,0.1c0.2,0.1,0.3,0.2,0.5,0.3c0.1,0.1,0.2,0.3,0.3,0.5c0.1,0.2,0.1,0.5,0.1,0.7v3h-0.8
			v-3c0-0.3,0-0.5-0.1-0.6c-0.1-0.1-0.2-0.2-0.3-0.3c-0.1-0.1-0.3-0.1-0.5-0.1c-0.2,0-0.3,0-0.5,0.1c-0.1,0.1-0.2,0.1-0.3,0.2
			c-0.1,0.1-0.2,0.2-0.2,0.3C306.4,275.5,306.4,275.6,306.4,275.8z M311.1,275v5.4h-0.8v-6.3h0.7L311.1,275z M314.2,276.3
			L314.2,276.3c0,0.4,0,0.7-0.1,1c-0.1,0.3-0.2,0.5-0.3,0.7c-0.1,0.2-0.3,0.4-0.5,0.5c-0.2,0.1-0.5,0.2-0.8,0.2
			c-0.3,0-0.5,0-0.8-0.1c-0.2-0.1-0.4-0.2-0.6-0.4c-0.2-0.2-0.3-0.4-0.4-0.7c-0.1-0.3-0.2-0.5-0.2-0.9v-0.5c0-0.3,0.1-0.6,0.2-0.9
			c0.1-0.3,0.2-0.5,0.4-0.7c0.2-0.2,0.3-0.3,0.6-0.4c0.2-0.1,0.5-0.2,0.8-0.2s0.5,0.1,0.8,0.2c0.2,0.1,0.4,0.3,0.6,0.5
			c0.2,0.2,0.3,0.4,0.3,0.7C314.2,275.7,314.2,276,314.2,276.3z M313.4,276.4L313.4,276.4c0-0.3,0-0.5-0.1-0.7
			c0-0.2-0.1-0.4-0.2-0.5c-0.1-0.2-0.2-0.3-0.4-0.4c-0.2-0.1-0.3-0.1-0.5-0.1c-0.2,0-0.4,0-0.5,0.1c-0.1,0.1-0.3,0.2-0.4,0.3
			c-0.1,0.1-0.2,0.2-0.2,0.4c-0.1,0.1-0.1,0.3-0.1,0.4v1.1c0.1,0.2,0.1,0.4,0.2,0.6c0.1,0.2,0.2,0.3,0.4,0.4
			c0.2,0.1,0.4,0.2,0.6,0.2c0.2,0,0.4,0,0.5-0.1c0.2-0.1,0.3-0.2,0.4-0.4c0.1-0.2,0.2-0.3,0.2-0.5
			C313.4,276.9,313.4,276.7,313.4,276.4z M316,274.8v3.8h-0.8v-4.5h0.8L316,274.8z M317.4,274.1l0,0.7c-0.1,0-0.1,0-0.2,0
			c-0.1,0-0.1,0-0.2,0c-0.2,0-0.3,0-0.5,0.1c-0.1,0.1-0.3,0.1-0.3,0.2c-0.1,0.1-0.2,0.2-0.2,0.4c-0.1,0.1-0.1,0.3-0.1,0.5l-0.2,0.1
			c0-0.3,0-0.5,0.1-0.8c0.1-0.2,0.1-0.5,0.3-0.6c0.1-0.2,0.3-0.3,0.4-0.4c0.2-0.1,0.4-0.2,0.6-0.2c0.1,0,0.1,0,0.2,0
			C317.3,274.1,317.4,274.1,317.4,274.1z M320.6,277.9v-2.3c0-0.2,0-0.3-0.1-0.5c-0.1-0.1-0.2-0.2-0.3-0.3c-0.1-0.1-0.3-0.1-0.5-0.1
			c-0.2,0-0.4,0-0.5,0.1c-0.1,0.1-0.3,0.2-0.3,0.3c-0.1,0.1-0.1,0.2-0.1,0.4h-0.8c0-0.2,0-0.3,0.1-0.5c0.1-0.2,0.2-0.3,0.4-0.4
			c0.2-0.1,0.3-0.2,0.6-0.3c0.2-0.1,0.5-0.1,0.7-0.1c0.3,0,0.6,0.1,0.9,0.2c0.3,0.1,0.5,0.3,0.6,0.5c0.1,0.2,0.2,0.5,0.2,0.8v2.1
			c0,0.2,0,0.3,0,0.5c0,0.2,0.1,0.3,0.1,0.4v0.1h-0.8c0-0.1-0.1-0.2-0.1-0.4C320.6,278.1,320.6,278,320.6,277.9z M320.8,275.9l0,0.5
			H320c-0.2,0-0.4,0-0.6,0.1c-0.2,0-0.3,0.1-0.4,0.2c-0.1,0.1-0.2,0.2-0.3,0.3c-0.1,0.1-0.1,0.2-0.1,0.4c0,0.1,0,0.3,0.1,0.4
			c0.1,0.1,0.2,0.2,0.3,0.3c0.1,0.1,0.3,0.1,0.5,0.1c0.2,0,0.4-0.1,0.6-0.2c0.2-0.1,0.3-0.2,0.4-0.4c0.1-0.1,0.2-0.3,0.2-0.4
			l0.3,0.4c0,0.1-0.1,0.2-0.2,0.4c-0.1,0.1-0.2,0.3-0.3,0.4c-0.1,0.1-0.3,0.2-0.5,0.3c-0.2,0.1-0.4,0.1-0.7,0.1
			c-0.3,0-0.6-0.1-0.8-0.2c-0.2-0.1-0.4-0.3-0.5-0.5c-0.1-0.2-0.2-0.4-0.2-0.7c0-0.2,0-0.5,0.1-0.6c0.1-0.2,0.2-0.3,0.4-0.5
			c0.2-0.1,0.4-0.2,0.6-0.3c0.3-0.1,0.5-0.1,0.8-0.1H320.8z M323.4,274.8v3.8h-0.8v-4.5h0.8L323.4,274.8z M324.8,274.1l0,0.7
			c-0.1,0-0.1,0-0.2,0c-0.1,0-0.1,0-0.2,0c-0.2,0-0.3,0-0.5,0.1c-0.1,0.1-0.3,0.1-0.3,0.2c-0.1,0.1-0.2,0.2-0.2,0.4
			c-0.1,0.1-0.1,0.3-0.1,0.5l-0.2,0.1c0-0.3,0-0.5,0.1-0.8c0.1-0.2,0.1-0.5,0.3-0.6c0.1-0.2,0.3-0.3,0.4-0.4
			c0.2-0.1,0.4-0.2,0.6-0.2c0.1,0,0.1,0,0.2,0C324.7,274.1,324.8,274.1,324.8,274.1z"/>
		<path class="st29" d="M405.7,305.5h-51.1l3.7-57.2h43.6L405.7,305.5z"/>
		<path class="st30" d="M404.7,290.4c-15.3,12.4-34.7-10.2-48.2-13.3l-1.9,28.5h51L404.7,290.4z"/>
		<path class="st31" d="M366.4,255.2c1.1,0,1.9-0.9,1.9-1.9c0-1.1-0.9-1.9-1.9-1.9s-1.9,0.9-1.9,1.9
			C364.4,254.3,365.3,255.2,366.4,255.2z"/>
		<path class="st31" d="M393.8,255.2c1.1,0,1.9-0.9,1.9-1.9c0-1.1-0.9-1.9-1.9-1.9c-1.1,0-1.9,0.9-1.9,1.9
			C391.9,254.3,392.7,255.2,393.8,255.2z"/>
		<path class="st32" d="M366.4,253.3v-9.6c0-3.6,1.4-7.1,4-9.7c2.6-2.6,6.1-4,9.7-4l0,0c3.6,0,7.1,1.4,9.7,4c2.6,2.6,4,6.1,4,9.7
			v9.6"/>
		<path class="st23" d="M233.3,273.4h-36.2l2.6-40.6h30.9L233.3,273.4z"/>
		<path class="st33" d="M232.6,262.6c-10.9,8.8-24.6-7.2-34.2-9.5l-1.3,20.2h36.2L232.6,262.6z"/>
		<path class="st31" d="M205.4,237.7c0.8,0,1.4-0.6,1.4-1.4s-0.6-1.4-1.4-1.4s-1.4,0.6-1.4,1.4S204.6,237.7,205.4,237.7z"/>
		<path class="st31" d="M224.9,237.7c0.8,0,1.4-0.6,1.4-1.4s-0.6-1.4-1.4-1.4c-0.8,0-1.4,0.6-1.4,1.4S224.1,237.7,224.9,237.7z"/>
		<path class="st34" d="M205.5,236.4v-6.8c0-1.3,0.2-2.5,0.7-3.7c0.5-1.2,1.2-2.3,2.1-3.2c0.9-0.9,2-1.6,3.2-2.1
			c1.2-0.5,2.4-0.7,3.7-0.7l0,0c2.6,0,5.1,1,6.9,2.8c1.8,1.8,2.8,4.3,2.8,6.9v6.8"/>
	</g>
</g>
</svg>
