<?xml version="1.0" encoding="utf-8"?>
<!-- Generator: Adobe Illustrator 26.0.2, SVG Export Plug-In . SVG Version: 6.00 Build 0)  -->
<svg version="1.1" id="Capa_1" xmlns="http://www.w3.org/2000/svg" xmlns:xlink="http://www.w3.org/1999/xlink" x="0px" y="0px"
	 viewBox="0 0 492 316" style="enable-background:new 0 0 492 316;" xml:space="preserve">
<style type="text/css">
	.st0{clip-path:url(#SVGID_00000156558565248764645530000005140366084956457615_);}
	.st1{fill:#61D2E7;}
	.st2{fill:#263238;}
	.st3{fill:#FAFAFA;}
	.st4{fill:#6093CB;}
	.st5{fill:#FFFFFF;}
	.st6{opacity:0.3;}
	.st7{opacity:0.3;enable-background:new    ;}
	.st8{fill:#FFBC00;}
	.st9{fill:#C3D4FC;}
	.st10{fill:none;stroke:#C3D4FC;stroke-width:3;}
	.st11{fill:#FF5050;}
	.st12{fill:#455A64;}
	.st13{fill:#FFBE9D;}
	.st14{fill:#027273;}
	.st15{opacity:0.6;}
	.st16{opacity:0.6;fill:#FFFFFF;enable-background:new    ;}
	.st17{fill:#0D0D0D;}
	.st18{fill:#EB996E;}
	.st19{opacity:0.5;}
	.st20{opacity:0.5;enable-background:new    ;}
	.st21{fill:#7BD68A;}
	.st22{fill:#EAA253;}
</style>
<g>
	<defs>
		<rect id="SVGID_1_" x="80.2" y="-9" width="331.7" height="314"/>
	</defs>
	<clipPath id="SVGID_00000181058877057269922130000006801421721547628932_">
		<use xlink:href="#SVGID_1_"  style="overflow:visible;"/>
	</clipPath>
	<g style="clip-path:url(#SVGID_00000181058877057269922130000006801421721547628932_);">
		<path class="st1" d="M253,292.2c74.3,0,134.6-60.1,134.6-134.3c0-74.2-60.3-134.3-134.6-134.3S118.4,83.7,118.4,157.9
			C118.4,232.1,178.6,292.2,253,292.2z"/>
		<path class="st2" d="M411.8,297.8c0,0.1-74.3,0.2-165.8,0.2c-91.6,0-165.8-0.1-165.8-0.2c0-0.1,74.2-0.2,165.8-0.2
			C337.6,297.6,411.8,297.7,411.8,297.8z"/>
		<path class="st2" d="M298.1,297.8h-94.6c-11.4,0-20.7-9.8-20.7-21.2l1-238.2c0-2.7,0.6-5.4,1.6-7.9s2.6-4.8,4.5-6.7
			c1.9-1.9,4.2-3.4,6.7-4.5c2.5-1,5.2-1.6,7.9-1.5l94.7,0.4c2.7,0,5.4,0.6,7.9,1.6c2.5,1.1,4.8,2.6,6.7,4.5c1.9,1.9,3.4,4.2,4.4,6.7
			c1,2.5,1.5,5.2,1.5,7.9l-1,238.2c0,2.7-0.6,5.4-1.6,7.9c-1,2.5-2.6,4.8-4.5,6.7c-1.9,1.9-4.2,3.4-6.7,4.5S300.8,297.8,298.1,297.8
			L298.1,297.8z"/>
		<path class="st3" d="M299.1,26.4l-18.4-0.1c-1.2,0-2.4,0.5-3.2,1.4c-0.8,0.9-1.3,2-1.3,3.3v3.3c0,0.6-0.1,1.2-0.3,1.8
			c-0.2,0.6-0.5,1.1-1,1.5c-0.4,0.4-0.9,0.8-1.5,1c-0.5,0.2-1.1,0.4-1.7,0.4L236,38.9c-1.2,0-2.4-0.5-3.2-1.4
			c-0.8-0.9-1.3-2.1-1.3-3.3v-3.3c0-1.2-0.4-2.4-1.3-3.3c-0.8-0.9-2-1.4-3.2-1.4h-6.5l-16-0.1c-1.9,0-3.8,0.4-5.5,1.1
			c-1.8,0.7-3.4,1.8-4.7,3.1c-1.3,1.3-2.4,2.9-3.2,4.7c-0.7,1.8-1.1,3.6-1.1,5.5l-1,232.5c0,3.8,1.5,7.5,4.2,10.3
			c2.7,2.7,6.4,4.3,10.2,4.3l94.5,0.4c3.8,0,7.5-1.5,10.2-4.2c2.7-2.7,4.3-6.4,4.3-10.2l1-232.5c0-1.9-0.4-3.8-1.1-5.6
			c-0.7-1.8-1.8-3.4-3.1-4.7c-1.3-1.4-2.9-2.4-4.7-3.2C302.9,26.8,301,26.5,299.1,26.4z"/>
		<path class="st2" d="M217,50.2c-2.3,0.2-4.7,0.2-7.1,0.2c-2.4,0.1-4.7,0-7.1-0.2c2.3-0.2,4.7-0.3,7.1-0.2
			C212.3,50,214.6,50,217,50.2L217,50.2z"/>
		<path class="st2" d="M217,47.5c-2.3,0.2-4.7,0.3-7.1,0.2c-2.4,0.1-4.7,0-7.1-0.2c2.3-0.2,4.7-0.2,7.1-0.2
			C212.3,47.3,214.6,47.3,217,47.5L217,47.5z"/>
		<path class="st2" d="M217,44.9c-2.3,0.2-4.7,0.2-7.1,0.2c-2.4,0.1-4.7,0-7.1-0.2c2.3-0.2,4.7-0.2,7.1-0.2
			C212.3,44.6,214.6,44.7,217,44.9L217,44.9z"/>
		<path class="st4" d="M298.2,250h-93.7c-1.3,0-2.3,1-2.3,2.3v17.9c0,1.3,1,2.3,2.3,2.3h93.7c1.3,0,2.3-1,2.3-2.3v-17.9
			C300.5,251.1,299.4,250,298.2,250z"/>
		<path class="st5" d="M240.1,264.9h1.1l-2.8-7.7h-1.2l-2.8,7.7h1.1l0.6-1.7h3.4L240.1,264.9z M239.2,262.4h-2.8l1.4-3.9
			L239.2,262.4z M242,261.8c0,1.9,1.3,3.2,2.9,3.2c1.1,0,1.9-0.6,2.3-1.3v1.3c0,1.3-0.8,2-1.9,2c-1,0-1.7-0.5-2-1.2h-1
			c0.2,1.3,1.4,2.1,3,2.1c1.8,0,2.9-1.2,2.9-2.9v-6.3h-1v1.1c-0.4-0.7-1.2-1.2-2.3-1.2C243.3,258.7,242,259.9,242,261.8z
			 M247.2,261.9c0,1.4-1,2.3-2.1,2.3c-1.1,0-2.1-0.8-2.1-2.3s1-2.3,2.1-2.3C246.2,259.6,247.2,260.4,247.2,261.9z M250.9,261.6
			c0-1.4,0.7-1.9,1.7-1.9h0.3v-1.1c-1,0-1.6,0.4-2,1.1v-1h-1v6.1h1V261.6z M256.7,259.6c1.1,0,1.9,0.7,1.9,1.9h-3.9
			C254.9,260.2,255.7,259.6,256.7,259.6z M259.6,263h-1.1c-0.2,0.7-0.8,1.1-1.7,1.1c-1,0-1.9-0.7-2-1.9h4.9c0-0.2,0-0.4,0-0.6
			c0-1.7-1.2-2.9-2.9-2.9c-1.8,0-3,1.2-3,3.2c0,1.9,1.3,3.2,3,3.2C258.3,265,259.3,264.2,259.6,263z M260.7,261.8
			c0,1.9,1.3,3.2,2.9,3.2c1.1,0,1.9-0.6,2.3-1.3v1.3c0,1.3-0.8,2-1.9,2c-1,0-1.7-0.5-2-1.2h-1c0.2,1.3,1.4,2.1,3,2.1
			c1.8,0,2.9-1.2,2.9-2.9v-6.3h-1v1.1c-0.4-0.7-1.2-1.2-2.3-1.2C261.9,258.7,260.7,259.9,260.7,261.8z M265.8,261.9
			c0,1.4-1,2.3-2.1,2.3s-2.1-0.8-2.1-2.3s1-2.3,2.1-2.3S265.8,260.4,265.8,261.9z M268.2,261.8c0,1.9,1.3,3.2,2.9,3.2
			c1.1,0,1.9-0.6,2.3-1.2v1.1h1v-6.1h-1v1.1c-0.4-0.6-1.1-1.2-2.3-1.2C269.5,258.7,268.2,259.9,268.2,261.8z M273.4,261.9
			c0,1.4-1,2.3-2.1,2.3c-1.1,0-2.1-0.8-2.1-2.3s1-2.3,2.1-2.3C272.4,259.6,273.4,260.4,273.4,261.9z M277.2,261.6
			c0-1.4,0.7-1.9,1.7-1.9h0.3v-1.1c-1,0-1.6,0.4-2,1.1v-1h-1v6.1h1V261.6z"/>
		<g class="st6">
			<path class="st7" d="M224.6,254.6h-9.5c-1.2,0-2.2,1-2.2,2.2v9.5c0,1.2,1,2.2,2.2,2.2h9.5c1.2,0,2.2-1,2.2-2.2v-9.5
				C226.8,255.6,225.8,254.6,224.6,254.6z"/>
		</g>
		<path class="st5" d="M219.8,265.6c-0.1,0-0.2,0-0.3-0.1c-0.1-0.1-0.1-0.2-0.1-0.3v-7.4c0-0.1,0-0.2,0.1-0.3
			c0.1-0.1,0.2-0.1,0.3-0.1c0.1,0,0.2,0,0.3,0.1c0.1,0.1,0.1,0.2,0.1,0.3v7.4c0,0,0,0.1,0,0.1c0,0,0,0.1-0.1,0.1
			c0,0-0.1,0.1-0.1,0.1C219.9,265.6,219.9,265.6,219.8,265.6z"/>
		<path class="st5" d="M223.4,262h-7.2c-0.1,0-0.2,0-0.3-0.1c-0.1-0.1-0.1-0.2-0.1-0.3c0-0.1,0-0.2,0.1-0.3s0.2-0.1,0.3-0.1h7.2
			c0.1,0,0.2,0,0.3,0.1c0.1,0.1,0.1,0.2,0.1,0.3c0,0.1,0,0.2-0.1,0.3C223.6,261.9,223.5,262,223.4,262z"/>
		<path class="st8" d="M210,207.2l1.2,2.5l2.7,0.4l-2,1.9l0.5,2.7l-2.4-1.3l-2.4,1.3l0.5-2.7l-2-1.9l2.7-0.4L210,207.2z"/>
		<path class="st8" d="M220,207.2l1.2,2.5l2.7,0.4l-2,1.9l0.5,2.7l-2.4-1.3l-2.4,1.3l0.5-2.7l-2-1.9l2.7-0.4L220,207.2z"/>
		<path class="st8" d="M230,207.2l1.2,2.5l2.7,0.4l-2,1.9l0.5,2.7l-2.4-1.3l-2.4,1.3l0.5-2.7l-2-1.9l2.7-0.4L230,207.2z"/>
		<path class="st8" d="M240,207.2l1.2,2.5l2.7,0.4l-2,1.9l0.5,2.7l-2.4-1.3l-2.4,1.3l0.5-2.7l-2-1.9l2.7-0.4L240,207.2z"/>
		<path class="st9" d="M250,207.2l1.2,2.5l2.7,0.4l-2,1.9l0.5,2.7l-2.4-1.3l-2.4,1.3l0.5-2.7l-2-1.9l2.7-0.4L250,207.2z"/>
		<path class="st10" d="M210.1,95.5l82.2-0.1c2.4,0,4.4,2,4.4,4.4l0.1,77.6c0,2.5-2,4.5-4.4,4.5l-82.2,0.1c-2.4,0-4.4-2-4.4-4.4
			l-0.1-77.6C205.7,97.5,207.7,95.5,210.1,95.5z"/>
		<path class="st2" d="M238.2,148l-1.6,0l0,14.1l1.6,0L238.2,148z"/>
		<path class="st2" d="M243.9,148l-1.6,0l0,7.2l1.6,0L243.9,148z"/>
		<path class="st2" d="M259.9,148l-1.6,0l0,7.2l1.6,0L259.9,148z"/>
		<path class="st2" d="M267,148l-1.6,0l0,14.1l1.6,0L267,148z"/>
		<path class="st11" d="M232.2,133.3l4.5,15.5l30.3,0l4.8-14.8c0,0-3.2-1-5.2-0.6l-0.6-16.4c0-0.4-0.1-0.7-0.3-1
			c-0.2-0.3-0.4-0.6-0.8-0.8s-0.7-0.3-1-0.3c-0.4,0-0.7,0-1.1,0.2l-2.9,1.3h-17.1l-2-1c-0.3-0.2-0.7-0.3-1.1-0.2
			c-0.4,0-0.8,0.1-1.1,0.3c-0.3,0.2-0.6,0.5-0.8,0.8c-0.2,0.3-0.3,0.7-0.3,1.1l0.1,16.3C235.9,133,234,132.9,232.2,133.3
			L232.2,133.3z"/>
		<path class="st2" d="M243.1,139.8c-0.1,0-0.2-5.3-0.2-11.8c0-6.5,0.1-11.8,0.2-11.8s0.2,5.3,0.2,11.8
			C243.3,134.5,243.2,139.8,243.1,139.8z"/>
		<path class="st2" d="M260.2,139.7c-0.1,0-0.2-5.3-0.2-11.8c0-6.5,0.1-11.8,0.2-11.8s0.2,5.3,0.2,11.8
			C260.4,134.5,260.3,139.7,260.2,139.7z"/>
		<path class="st2" d="M266.5,133.3c-0.3,0.1-0.5,0.2-0.8,0.2l-0.4,0.1l-0.5,0.2l-0.6,0.2l-0.6,0.3c-1,0.6-1.8,1.4-2.4,2.4
			c-0.7,1.3-1,2.8-0.8,4.3v0.2h-0.2l-8.1,0H243h-0.2v-0.2c0-1.4-0.4-2.7-1.1-3.9c-0.5-0.9-1.2-1.8-2-2.4c-0.7-0.6-1.5-1.1-2.4-1.5
			c0.2,0,0.5,0.1,0.7,0.2c0.6,0.3,1.3,0.6,1.8,1.1c0.9,0.7,1.6,1.5,2.1,2.5c0.7,1.2,1.1,2.6,1.2,4.1L243,141h9.1h8.1l-0.2,0.2
			c-0.1-1.6,0.2-3.1,0.9-4.5c0.6-1.1,1.5-1.9,2.6-2.5l0.6-0.3l0.6-0.2l0.5-0.2l0.4-0.1C266,133.3,266.3,133.3,266.5,133.3z"/>
		<path class="st2" d="M242.7,141.2c0,0.1-0.6,0.2-1.4,0.6c-1.1,0.5-2,1.2-2.8,2.2c-0.7,1-1.2,2.1-1.3,3.3c-0.1,0.9-0.1,1.5-0.1,1.5
			c-0.2-0.5-0.2-1-0.2-1.5c0.1-1.3,0.5-2.5,1.3-3.5c0.8-1,1.8-1.8,3-2.2C241.6,141.3,242.2,141.2,242.7,141.2L242.7,141.2z"/>
		<path class="st2" d="M266.7,149c-0.1,0-0.1-0.7-0.3-1.6c-0.3-1.3-0.9-2.5-1.8-3.5c-0.9-1-2-1.8-3.2-2.3c-0.9-0.4-1.6-0.5-1.6-0.6
			c0.6,0,1.2,0.1,1.7,0.3c1.3,0.5,2.5,1.3,3.4,2.3c0.9,1.1,1.5,2.3,1.8,3.7C266.8,147.8,266.8,148.4,266.7,149L266.7,149z"/>
		<path class="st1" d="M290.7,231.6L290.7,231.6h-0.1c0,0-0.1,0-0.1-0.1l-2.5-2.6c-0.4-0.4-0.7-0.9-0.8-1.4c-0.1-0.5-0.1-1.1,0-1.7
			c0.1-0.3,0.3-0.6,0.5-0.9c0.3-0.2,0.6-0.4,0.9-0.5c0.3-0.1,0.7-0.1,1,0s0.6,0.2,0.9,0.5c0.1,0.1,0.2,0.2,0.2,0.3
			c0.1-0.1,0.1-0.2,0.2-0.3c0.2-0.2,0.4-0.3,0.7-0.4c0.2-0.1,0.5-0.1,0.8-0.1c0.4,0,0.9,0.1,1.2,0.4c0.3,0.3,0.6,0.6,0.7,1.1l0,0
			c0.2,0.5,0.2,1.1,0,1.7c-0.1,0.5-0.4,1-0.8,1.4l-2.5,2.6C290.9,231.6,290.8,231.6,290.7,231.6L290.7,231.6z M289.1,225
			c-0.3,0-0.6,0.1-0.8,0.2c-0.2,0.2-0.4,0.4-0.4,0.7c-0.1,0.4-0.1,0.9,0,1.3c0.1,0.4,0.3,0.8,0.6,1.1l2.3,2.3l2.3-2.3
			c0.3-0.3,0.5-0.7,0.6-1.1c0.1-0.4,0.1-0.9,0-1.3c-0.1-0.3-0.2-0.5-0.5-0.7c-0.2-0.2-0.5-0.3-0.8-0.2c-0.2,0-0.3,0-0.5,0.1
			c-0.2,0.1-0.3,0.1-0.4,0.3c-0.2,0.3-0.4,0.7-0.4,1.1c0,0.1,0,0.1,0,0.2c0,0.1-0.1,0.1-0.2,0.2c-0.1,0-0.2,0-0.2,0
			c-0.1,0-0.1-0.1-0.2-0.1c-0.1-0.1-0.1-0.1-0.1-0.2l0,0v0c0-0.4-0.1-0.7-0.4-1c-0.1-0.1-0.3-0.2-0.4-0.3
			C289.4,225.1,289.3,225,289.1,225z"/>
		<path class="st2" d="M300.7,50.5c-0.9,0.1-1.8,0.2-2.7,0.1c-1.7,0-4,0.1-6.6,0.1h-0.2v-0.2c-0.1-0.4-0.1-0.7-0.1-1.1
			c-0.4-3.2-0.8-6.1-1-8l0.1,0.1c-0.8,0-1.6,0-2.4-0.1c0.8-0.1,1.6-0.1,2.4-0.1h0.1v0.1c0.3,1.9,0.7,4.7,1.2,7.9
			c0.1,0.4,0.1,0.7,0.1,1.1l-0.2-0.2c2.6,0,4.9,0,6.6,0.1C299,50.3,299.8,50.3,300.7,50.5L300.7,50.5z"/>
		<path class="st2" d="M291.2,48.5c0.2,0,0.5-0.1,0.7-0.1l2-0.1c1.7,0,4.1-0.1,6.8-0.1l-0.2,0.2c0.2-1.2,0.4-2.4,0.6-3.7
			c0.1-0.7,0.2-1.3,0.3-1.9l0.2,0.2c-3.2,0-6,0-8.1-0.1l-2.4-0.1c-0.3,0-0.6,0-0.9-0.1c0.3-0.1,0.6-0.1,0.9-0.1l2.4-0.1
			c2,0,4.9-0.1,8.1-0.1h0.2l0,0.2c-0.1,0.6-0.2,1.3-0.3,1.9c-0.2,1.3-0.5,2.5-0.7,3.7v0.2h-0.2c-2.8,0-5.2,0-6.8-0.1l-2-0.1
			C291.7,48.6,291.4,48.6,291.2,48.5z"/>
		<path class="st2" d="M293.8,53c-0.1,0-0.1-0.4-0.5-0.6c-0.1-0.1-0.2-0.1-0.3-0.1c-0.1,0-0.2,0-0.4,0c-0.2,0-0.3,0.1-0.4,0.3
			c-0.1,0.1-0.1,0.3-0.1,0.4c0,0.2,0.1,0.3,0.1,0.4c0.1,0.1,0.2,0.2,0.4,0.3c0.1,0,0.2,0.1,0.4,0c0.1,0,0.2-0.1,0.3-0.1
			C293.7,53.3,293.7,53,293.8,53c0.1,0,0.1,0.1,0.1,0.3c0,0.2-0.1,0.5-0.3,0.6c-0.1,0.1-0.3,0.2-0.5,0.2c-0.2,0-0.4,0-0.5,0
			c-0.2-0.1-0.4-0.2-0.6-0.4c-0.1-0.2-0.2-0.4-0.2-0.7c0-0.2,0.1-0.5,0.2-0.7c0.1-0.2,0.3-0.3,0.6-0.4c0.2-0.1,0.4-0.1,0.5,0
			c0.2,0,0.3,0.1,0.5,0.2c0.2,0.2,0.3,0.4,0.3,0.6C293.8,52.9,293.8,53,293.8,53z"/>
		<path class="st2" d="M299.7,53c-0.1,0-0.1-0.4-0.5-0.6c-0.1-0.1-0.2-0.1-0.3-0.1c-0.1,0-0.2,0-0.4,0c-0.2,0-0.3,0.1-0.4,0.3
			c-0.1,0.1-0.2,0.3-0.2,0.4c0,0.2,0.1,0.3,0.2,0.4c0.1,0.1,0.2,0.2,0.4,0.3c0.1,0,0.2,0.1,0.4,0c0.1,0,0.2-0.1,0.3-0.1
			C299.7,53.3,299.7,53,299.7,53c0.1,0,0.1,0.1,0.1,0.3c0,0.2-0.1,0.5-0.3,0.6c-0.1,0.1-0.3,0.2-0.5,0.2c-0.2,0-0.4,0-0.5,0
			c-0.2-0.1-0.4-0.2-0.6-0.4c-0.1-0.2-0.2-0.4-0.2-0.7c0-0.2,0.1-0.5,0.2-0.7c0.1-0.2,0.3-0.3,0.6-0.4c0.2-0.1,0.4-0.1,0.5,0
			c0.2,0,0.3,0.1,0.5,0.2c0.2,0.2,0.3,0.4,0.3,0.6C299.8,52.9,299.8,53,299.7,53z"/>
		<path class="st1" d="M305.9,42.3c0,0.8-0.2,1.6-0.7,2.2c-0.4,0.7-1.1,1.2-1.8,1.5c-0.7,0.3-1.5,0.4-2.3,0.2
			c-0.8-0.2-1.5-0.5-2-1.1c-0.6-0.6-0.9-1.3-1.1-2c-0.2-0.8-0.1-1.6,0.2-2.3c0.3-0.7,0.8-1.3,1.5-1.8c0.7-0.4,1.4-0.7,2.2-0.7
			c0.5,0,1,0.1,1.5,0.3c0.5,0.2,0.9,0.5,1.3,0.9c0.4,0.4,0.7,0.8,0.9,1.3C305.8,41.3,305.9,41.8,305.9,42.3z"/>
		<path class="st5" d="M302.3,40.7v3.2h-0.4v-2.8h-0.7v-0.4H302.3z"/>
		<path class="st12" d="M146.6,234.5h-9.4v63.2h9.4V234.5z"/>
		<path class="st12" d="M202,226.9h-71.5v8.7H202V226.9z"/>
		<path class="st12" d="M191.6,261.4h-49.2v8.7h49.2V261.4z"/>
		<path class="st12" d="M196.3,234.5h-9.4v63.2h9.4V234.5z"/>
		<path class="st2" d="M201.9,235.5c0,0.1-16,0.2-35.8,0.2c-19.8,0-35.8-0.1-35.8-0.2c0-0.1,16-0.2,35.8-0.2
			C185.9,235.3,201.9,235.4,201.9,235.5z"/>
		<path class="st2" d="M186.9,277.1c-0.1,0-0.2-4.4-0.2-9.7c0-5.4,0.1-9.7,0.2-9.7c0.1,0,0.2,4.4,0.2,9.7
			C187,272.7,187,277.1,186.9,277.1z"/>
		<path class="st2" d="M148.6,231.3c-0.6,0.4-1.3,0.7-2,0.9c-1.9,0.6-3.9,0.6-5.8,0h-0.1l0.1-0.1c1.3-1.2,2.8-2.2,4.4-2.8
			c1.9-0.7,4-0.9,6-0.7c0.7,0.1,1.3,0.2,1.9,0.4c0.6,0.2,1.2,0.4,1.8,0.8c0.3,0.2,0.5,0.4,0.6,0.7c0.1,0.3,0.2,0.6,0.1,0.9
			c-0.1,0.3-0.3,0.6-0.5,0.8c-0.2,0.2-0.5,0.4-0.8,0.5c-1.9,0.7-4,1.1-6,1.4c-1.4,0.2-2.8,0.2-4.1,0.2c-1,0-1.5-0.1-1.5-0.1h0.4
			l1.1,0c1.4,0,2.8-0.1,4.1-0.2c2-0.3,4-0.7,6-1.4c0.3-0.1,0.5-0.2,0.7-0.4c0.2-0.2,0.4-0.4,0.4-0.7c0-0.3,0-0.6-0.1-0.9
			c-0.1-0.3-0.3-0.5-0.6-0.7c-0.5-0.3-1.1-0.6-1.7-0.8c-0.6-0.2-1.3-0.3-1.9-0.4c-2-0.2-4,0-5.9,0.7c-1.6,0.6-3.1,1.5-4.4,2.7V232
			c1.9,0.6,3.8,0.6,5.7,0.1c0.5-0.1,1-0.3,1.5-0.6L148.6,231.3z"/>
		<path class="st13" d="M129.2,257l-4.1,32.2l14.1,2.3l8.7-32.7L129.2,257z"/>
		<path class="st14" d="M125.5,285l-0.2,0.9c0,0-17.1,3.6-17.8,6.5l31.5,5.3l1.6-10.4c-2.5,0.7-5.2,0.9-7.8,0.5
			C130.1,287.3,127.7,286.4,125.5,285L125.5,285z"/>
		<g class="st15">
			<path class="st16" d="M136.7,290c0.3,0.1,0.5,0.4,0.6,0.7c0.1,0.3,0.1,0.6,0,0.9c-0.1,0.3-0.4,0.5-0.7,0.6
				c-0.3,0.1-0.6,0.1-0.9,0c-0.2-0.1-0.3-0.1-0.5-0.3c-0.1-0.1-0.2-0.3-0.3-0.4c-0.1-0.2-0.1-0.3-0.1-0.5c0-0.2,0.1-0.4,0.1-0.5
				c0.1-0.2,0.2-0.3,0.3-0.4c0.1-0.1,0.3-0.2,0.5-0.2c0.2,0,0.4,0,0.5,0c0.2,0,0.3,0.1,0.5,0.2"/>
		</g>
		<g class="st15">
			<path class="st16" d="M138.9,297.6l0.4-2.5L109,291c0,0-1.5,0.4-1.5,1.4L138.9,297.6z"/>
		</g>
		<path class="st13" d="M148.8,257.3l2.3,28.2l12.9-1.9l0.9-27.7L148.8,257.3z"/>
		<path class="st14" d="M164,278.1c0,0-8.6,7-13.5,1.9l-1,2.7l-3.8,19.3c-0.1,0.6,0,1.2,0.3,1.8c0.3,0.5,0.8,0.9,1.4,1.1
			c0.5,0.1,0.9,0.1,1.4,0c0.5-0.1,0.9-0.4,1.2-0.7c3.5-3.8,16.3-17.7,16-19.4l-0.4-4.6c0-0.5-0.2-0.9-0.5-1.3
			C164.8,278.5,164.4,278.2,164,278.1z"/>
		<g class="st15">
			<path class="st16" d="M147.9,305l18-21.8l0.1,1c0.2,1.1-0.3,1.6-0.8,2.3c-1.4,2.2-5.5,7.2-15.1,17.7c-0.3,0.3-0.6,0.5-1,0.7
				C148.7,305,148.3,305,147.9,305z"/>
		</g>
		<g class="st15">
			<path class="st16" d="M162.9,280.3c-0.3,0.2-0.5,0.6-0.5,0.9c-0.1,0.4,0,0.7,0.3,1c0.2,0.3,0.6,0.5,0.9,0.5c0.4,0.1,0.7,0,1-0.2
				c0.2-0.1,0.3-0.2,0.5-0.4c0.1-0.2,0.2-0.4,0.2-0.6c0-0.2,0-0.4,0-0.6c-0.1-0.2-0.2-0.4-0.3-0.5c-0.1-0.2-0.3-0.3-0.5-0.4
				c-0.2-0.1-0.4-0.1-0.6-0.1c-0.2,0-0.4,0-0.6,0.1c-0.2,0.1-0.4,0.2-0.5,0.4"/>
		</g>
		<path class="st17" d="M203.7,198.1c0,0,6.9,24.8-12,29.1l-30.2,0.3l-18.2,48.8l-18.2-1.3l6.6-54.8c0.4-3.3,1.8-6.5,4.1-9
			c2.3-2.5,5.2-4.2,8.5-4.9l39.1-8.6L203.7,198.1z"/>
		<path class="st2" d="M147,89c-13.8-2.4-15,10.1-15,13.7c0.1,3.6,1.3,6.7,2.6,10.1c1.3,3.4,0.5,7.9-0.6,11.3
			c-1.2,4-5.2,7.7-3.8,11.6c1.1,3.1,5.2,4.6,5.7,7.9c0.4,2.6-1.7,4.8-2.4,7.3c-1.4,4.7,1.9,9.4,5,13.2c1.3,1.6,2.9,3.3,4.9,3.3
			c2.8,0,4.5-3,5.7-5.5c3.5-7,8.7-12.9,15-17.4"/>
		<path class="st2" d="M116.1,165.3l-8.1-8.2c-0.1-0.1-0.2-0.1-0.3-0.2c-0.1,0-0.2,0-0.3,0l-9.4,2.4c-0.1,0-0.2,0.1-0.3,0.1
			c-0.1,0.1-0.1,0.2-0.2,0.3s0,0.2,0,0.3c0,0.1,0.1,0.2,0.1,0.3l15.6,16.3c0,0,11.6-3.2,11.3-3.3
			C124.2,173.1,116.1,165.3,116.1,165.3z"/>
		<path class="st13" d="M105,169.7l0.2-0.5c0.1-0.2,0.3-0.4,0.5-0.6c0.2-0.1,0.5-0.2,0.7-0.2c1.9,0.1,6.2,0.4,6.2,0.5
			c0.1,0.2,0.1,0.4,0.1,0.5c0,0.2-0.1,0.4-0.2,0.5c-0.1,0.2-0.2,0.3-0.4,0.4c-0.1,0.1-0.3,0.2-0.5,0.2c-1.3,0.2-2.5,0.2-3.8,0l2,2.3
			l0.6-0.9c0.1-0.1,0.2-0.2,0.4-0.2c0.1,0,0.3-0.1,0.4,0l3.6,0.4c0,0,0.3,1.4-0.7,1.6c-0.8,0.1-1.6,0.2-2.4,0.1l-0.4,2.7l3.7,2.9
			l-1.4,2.1l-5-2.5l-0.8-2.6c-0.1-0.3-0.1-0.6,0.1-0.9l0.3-0.6l-0.9-0.7c-0.2-0.1-0.3-0.3-0.4-0.5s-0.1-0.4-0.1-0.7l0.1-0.7
			l-1.6-1.4c-0.2-0.2-0.3-0.4-0.4-0.6C104.8,170.2,104.9,169.9,105,169.7L105,169.7z"/>
		<path class="st13" d="M121.4,177.1l-2.5-2.1l-7.3-1.1l-0.4,2.6l-2.6,2.5l9.8,5L121.4,177.1z"/>
		<path class="st13" d="M117.9,165.9c0.5,0,1-0.1,1.4-0.5l0.4-0.3c0.3-0.4,0.7-0.7,1.2-0.9c0.5-0.2,1-0.2,1.5-0.1l5.6,2.2l6,4.9
			l-3,7.6l-10.4-2.7c-0.5-0.1-1.1-0.4-1.5-0.7c-0.4-0.3-0.8-0.8-1.1-1.3l-1-1.8c0,0-3.6-1.4-3.2-3.4l-7.7-1.6
			c-0.1-0.1-0.1-0.3-0.1-0.5c0-0.2,0-0.3,0.1-0.5c0.1-0.1,0.2-0.3,0.3-0.4c0.1-0.1,0.3-0.2,0.4-0.2
			C107.8,165.3,115.4,165.7,117.9,165.9z"/>
		<path class="st18" d="M119.5,170c-2.3-0.3-4.5-0.7-6.7-1.2c-2.3-0.4-4.5-0.9-6.7-1.6c2.3,0.3,4.5,0.7,6.7,1.2
			C115.1,168.9,117.3,169.4,119.5,170L119.5,170z"/>
		<path class="st18" d="M119.9,173.6c-0.1,0.1-0.7-0.3-1.4-0.6c-0.8-0.4-1.4-0.7-1.4-0.8c0.1-0.1,0.7,0,1.5,0.4
			C119.5,173.1,119.9,173.6,119.9,173.6z"/>
		<path class="st18" d="M112.8,178.4c-0.7-0.5-1.3-1.1-1.8-1.8l0-0.1v-0.1c0.1-0.7,0.2-1.4,0.4-2.3c0-0.1,0.1-0.2,0.1-0.3
			c0.1-0.1,0.2-0.2,0.2-0.2c0.2-0.1,0.3-0.1,0.5-0.1l0.9-0.1c0.3,0,0.6,0,0.8,0c0.2,0,0.4,0,0.6-0.1c0.1-0.1,0.2-0.2,0.2-0.4
			c0-0.1,0.1-0.3,0-0.5c0-0.2-0.1-0.3-0.1-0.4c0,0,0.1,0.1,0.2,0.3c0.1,0.2,0.1,0.4,0,0.6c0,0.2-0.1,0.4-0.3,0.5
			c-0.2,0.2-0.5,0.3-0.8,0.2c-0.3,0-0.5,0-0.8,0l-0.9,0.1c-0.3,0-0.5,0.1-0.6,0.4c-0.2,0.7-0.3,1.6-0.4,2.2l0-0.1
			C111.8,177,112.3,177.7,112.8,178.4L112.8,178.4z"/>
		<path class="st13" d="M107.2,169.7c0.6,0.9,4.6,1.1,5,1c0.3-0.1,0.7,0,0.9,0.2c0.1,0.1,0.1,0.1,0.2,0.2c0,0.1,0.1,0.2,0,0.3
			c0,0.1,0,0.2-0.1,0.3c-0.1,0.1-0.1,0.1-0.2,0.2l-3.6,1.5L107.2,169.7z"/>
		<path class="st18" d="M112.4,171.9c0,0-0.2,0-0.5,0.1h-0.6l-0.3,0l-0.2,0h-0.1c0,0,0,0.1,0,0v0.1c-0.2,0.4-0.5,0.8-0.8,1.2
			c-0.6,0.9-1.3,1.8-2.1,2.5c0.5-0.9,1.2-1.9,1.8-2.7l0.8-1.1v0.1c0,0,0-0.1,0-0.1s0.1-0.1,0.1-0.1l0.1-0.1l0.2-0.1
			c0.1,0,0.3,0,0.4,0c0.2,0,0.4,0,0.6,0.1C112.2,171.8,112.4,171.9,112.4,171.9z"/>
		<path class="st18" d="M112.7,170.6c-1.1,0.2-2.1,0.2-3.2,0.1c-0.4,0-0.8,0-1.2,0.1c-0.3,0.1-0.5,0.3-0.7,0.6
			c-0.3,0.5-0.5,0.8-0.5,0.8c0-0.3,0.1-0.7,0.3-0.9c0.2-0.3,0.5-0.6,0.8-0.8c0.4-0.2,0.9-0.2,1.3-0.2
			C110.6,170.4,111.6,170.4,112.7,170.6L112.7,170.6z"/>
		<g class="st6">
			<path class="st7" d="M163,187.5c1.5,0.2,3.8-0.5,4.8-1.6c1.1-1.1,2-2.4,2.8-3.7c1.4-2.9,3.9-6.7,5.1-9.1c0.1,0.7-2,7.6-2.2,11
				c-0.1,1.8,0,3.8,1.1,5.3c0.8,1,2,1.6,2.8,2.5c0.8,0.9,1.3,2.1,1.3,3.3c0.1,1.2-0.3,2.4-1,3.4c-0.7,1-2.1,1.8-3.2,1.3
				c-0.6-0.3-1.1-0.8-1.4-1.4c-0.3-0.6-0.5-1.3-0.7-1.9c-1-2.8-2.8-5.1-5.3-6.7c-1.3-0.9-2.6-1.7-4-2.5"/>
		</g>
		<path class="st14" d="M118,185.3l15.5,5.2c2.7,0.9,5.6,1.1,8.4,0.5c2.8-0.6,5.4-2,7.4-4l5.5-5.2l-16.2-4.4l-8.7,1l-8-2.6
			L118,185.3z"/>
		<path class="st14" d="M192.6,176.2c-2.7-3.1-4-7.1-3.8-11.2c0-0.3,0-0.5,0.1-0.8c1-9.3,2.8-24.4-0.8-31.9
			c-2.3-4.9-16.8-7.3-16.8-7.3l-16.8,3.5l-7.7,6.8c-1.2,1.1-2,2.6-2.3,4.2l-7.1,44.1l14.3-1l1.1-12.8l1.6,16.9
			c0,0,13.5,10.6,18,12.5c4.4,2,12.1-3.5,18-1.1c5.9,2.4,13.6,0,13.6,0C204.4,191.2,196.8,181.2,192.6,176.2z"/>
		<path class="st14" d="M179.6,130.3l-21.6,39.2l-23.3,0.4l-4,10l30.1,6.9c3.4,0.6,6.1,0.2,8.3-2.6l19.8-37.1
			C189,147.2,190.6,130.7,179.6,130.3z"/>
		<g class="st6">
			<path class="st7" d="M120.9,178.4l6.2,1.6c0.5,0.1,1,0.5,1.3,0.9c0.3,0.5,0.4,1,0.3,1.5l0,0c-0.1,0.3,0,0.6,0,0.9
				c0.1,0.3,0.2,0.5,0.4,0.8s0.4,0.4,0.6,0.6c0.2,0.1,0.5,0.2,0.8,0.3c5.3,0.7,18.3,2.5,18.6,2.3c0.2-0.2,2.5-2.6,2.5-2.6l-20.8-4.8
				l0.3-1.2l-9.4-2.4L120.9,178.4z"/>
		</g>
		<path class="st17" d="M170.9,193.4c-3.4-4.1-8.5-7.2-13.7-6.8c-3.9,0.2-9,2.1-12.3,4c-9.3,5.3-7.5,17.3-7.5,17.3l10.1,63.6
			l18.7-2.4l-2-61.1l10.3-7.9L170.9,193.4z"/>
		<path class="st13" d="M170.2,128.6c1.4-1.4,0.6-2.2,0.1-3.6l-10-30c-4.3-9.8-17.1-4-17.1-4c-6,2.2-6.9,9-5.5,13.7
			c1.5,5.1,3.6,11.4,5.6,14.9c4,7.1,10.1,5.9,10.1,5.9l2.5,6.8c0.2,0.6,0.5,1.1,1,1.5c0.4,0.4,1,0.7,1.5,0.9
			c0.6,0.2,1.2,0.2,1.8,0.2c0.6-0.1,1.2-0.3,1.7-0.6L170.2,128.6z"/>
		<path class="st18" d="M153.4,125.5c3.6-1.3,6.7-3.5,9.1-6.4c0,0-0.5,6.1-8.3,8.2L153.4,125.5z"/>
		<path class="st2" d="M175,126.1l4.9,1.1l-0.2-1.8c-0.6-5.1-2.9-9.8-6.7-13.2c-6.2-5.5,2.2-7.6-3.2-14.9c-1.7-2.4-3.8-4.5-6.3-6.2
			c-0.4-0.3-0.9-0.6-1.3-1c-1-1-2-1.9-3.1-2.8c-0.8-0.6-1.9-1-2.9-1.1l0,0c-0.6-0.3-1.3-0.4-2-0.6c-3-0.5-6,0.8-8.8,1.9
			c-2.8,1.2-10,0.9-7.7,8.3c0.1-0.4,0.4-0.7,0.6-0.9c0.3-0.3,0.6-0.4,1-0.5c0.4-0.1,0.8-0.1,1.1,0c0.4,0.1,0.7,0.2,1,0.5
			c1,0.7,1.6,1.7,1.8,2.9c0.3,1.7,0.8,3.7,2.9,4.1c0.5,0.1,1,0.1,1.6,0c1.8-0.4,3.2-3.1,6.5-2.4c0,0,3.3,1,3.4,3.1
			c0.2,2.1-0.9,5.9,1.1,7.7c2,1.8,2.3,1.8,2.3,3.3c0,0.4,0,0.6,0,0.8c-0.3,2.5,0.2,14.5,10.1,10.7L175,126.1"/>
		<path class="st1" d="M370.8,243.4c0.7-2.6,2.3-5.1,4.8-6.1c2.5-1.1,5.5-0.5,8.1,0.5c2.6,1,5.2,2.2,8,2.4c2.8,0.2,5.9-1.2,6.7-3.8
			c0.8-2.5-0.7-5.2-2.6-7c-2-1.9-4.4-3.3-7.1-4c-2.7-0.7-5.5-0.8-8.2-0.1c-2.7,0.6-5.2,2-7.2,3.8c-2,1.9-3.6,4.2-4.5,6.8"/>
		<g class="st19">
			<path class="st20" d="M370.8,243.4c0.7-2.6,2.3-5.1,4.8-6.1c2.5-1.1,5.5-0.5,8.1,0.5c2.6,1,5.2,2.2,8,2.4
				c2.8,0.2,5.9-1.2,6.7-3.8c0.8-2.5-0.7-5.2-2.6-7c-2-1.9-4.4-3.3-7.1-4c-2.7-0.7-5.5-0.8-8.2-0.1c-2.7,0.6-5.2,2-7.2,3.8
				c-2,1.9-3.6,4.2-4.5,6.8"/>
		</g>
		<path class="st21" d="M348.9,254.6c-4.1-3.9-3.9-10.6-1.8-15.9c2-5.3,6.5-9.3,11.4-11.9c4.8-2.5,10.2-4,15.6-4.1
			s10.9,0.9,15.9,3.1c-2.4,0.1-4.8,0.8-6.9,2.1c-2.1,1.2-3.9,3-5.2,5.1c-2.2,3.7-2.7,8.2-4.6,12.2c-2.1,4.4-5.8,7.9-10.3,9.7
			C358.4,256.5,353.3,256.5,348.9,254.6"/>
		<path class="st21" d="M346.9,231.3c-4.5-5.3-5.1-13.9-4.4-20.9c0.7-7,2.3-14,1.2-20.9c-0.6-4.1-2.2-8-2.8-12.1
			c-0.5-4.1,0.2-8.8,3.4-11.4c3.6-3,9.4-2.3,13.2,0.5c3.8,2.9,6,7.4,7.6,11.8c3.6,9.8,4.8,20.8,1.9,30.8c-2.9,10.1-9.7,19-19.7,22.1
			"/>
		<path class="st2" d="M344.7,275.1c0-0.2,0-0.4,0-0.6c0-0.4,0-1,0-1.8c0.1-1.5,0.2-3.7,0.5-6.4c0.4-3.2,1-6.4,1.7-9.5
			c0.9-3.8,2.4-7.5,4.3-11c3.5-6.3,8.5-11.6,14.5-15.6c1.1-0.8,2.2-1.4,3.2-1.9c0.9-0.5,1.8-0.9,2.5-1.3l1.6-0.7
			c0.2-0.1,0.4-0.2,0.6-0.2c-0.2,0.1-0.4,0.2-0.5,0.3l-1.6,0.8c-0.7,0.4-1.5,0.8-2.5,1.3c-0.9,0.5-2,1.2-3.1,2
			c-5.9,4-10.8,9.4-14.3,15.6c-4.1,7.3-5.3,14.9-6.1,20.3c-0.4,2.7-0.6,4.9-0.7,6.4c0,0.7-0.1,1.3-0.1,1.8
			C344.8,274.7,344.8,274.9,344.7,275.1L344.7,275.1z"/>
		<path class="st1" d="M305.8,210.2c-8.3,5-8.3,9.6-6.9,14c1.4,4.3,6.5,7.4,10.8,5.7c2.4-0.9,4.1-3,5.6-5.1c1.5-2.1,2.9-4.4,5-5.9
			c2.1-1.5,5.1-2.1,7.2-0.6"/>
		<g class="st19">
			<path class="st20" d="M305.8,210.2c-8.3,5-8.3,9.6-6.9,14c1.4,4.3,6.5,7.4,10.8,5.7c2.4-0.9,4.1-3,5.6-5.1c1.5-2.1,2.9-4.4,5-5.9
				c2.1-1.5,5.1-2.1,7.2-0.6"/>
		</g>
		<path class="st21" d="M299.6,215.8c2.2-3,7.6-3.9,11-2.4c3.4,1.5,5.9,4.5,8.1,7.5c2.2,3,4.4,6.1,7.5,8.2c3.1,2.1,7.4,2.9,10.5,0.7
			c1-0.7,1.8-1.7,2.4-2.7c0.6-1.1,1-2.2,1.1-3.5c0.3-2.4,0.1-4.9-0.5-7.3c-0.7-3.5-1.9-7.1-4.7-9.4c-3.1-2.5-7.4-2.6-11.4-2.5
			c-4.6,0.1-9.2,0.5-13.5,2.1C305.8,208.1,301.5,211.5,299.6,215.8"/>
		<path class="st2" d="M337.8,268.4c0-0.1,0-0.1,0-0.2c0-0.1,0-0.3,0-0.5c0-0.5,0-1.2-0.1-2.1c0-1.8-0.1-4.4-0.2-7.6
			c-0.1-3.2-0.2-7.1-0.5-11.3c-0.2-4.3-0.5-8.9-1.2-13.8c-0.3-2.4-0.7-4.7-1.4-7c-0.7-2.1-1.5-4.2-2.6-6.1c-0.9-1.8-2-3.5-3.2-5.1
			c-1.1-1.4-2.2-2.7-3.5-3.9c-1.9-1.7-4-3.2-6.2-4.3c-0.4-0.2-0.8-0.4-1.1-0.5l-0.8-0.3l-0.5-0.2c-0.1,0-0.2-0.1-0.2-0.1l0.2,0
			l0.5,0.2l0.8,0.3c0.3,0.1,0.7,0.3,1.1,0.5c2.3,1.1,4.5,2.5,6.4,4.2c1.3,1.2,2.5,2.5,3.6,3.9c1.2,1.6,2.3,3.3,3.3,5.1
			c1.1,2,1.9,4.1,2.6,6.2c0.7,2.3,1.1,4.7,1.4,7.1c0.6,4.9,1,9.6,1.2,13.8c0.2,4.3,0.3,8.1,0.4,11.3c0.1,3.2,0.1,5.8,0.1,7.6
			c0,0.9,0,1.6,0,2.1c0,0.2,0,0.4,0,0.5C337.9,268.3,337.8,268.3,337.8,268.4L337.8,268.4z"/>
		<path class="st2" d="M340.8,272.2c-0.4-1.2-0.7-2.4-0.9-3.6c-0.6-3.3-0.7-6.7-0.4-10.1c0.5-5,1.6-9.9,3.2-14.7
			c1.7-5.4,4-11.1,6-17.3c1-3,1.8-6,2.4-9.1c0.6-2.9,1-5.8,1.2-8.8c0.4-5,0.5-10,0.3-15c-0.1-4.3-0.4-7.7-0.5-10.1
			c-0.1-1.2-0.1-2.1-0.2-2.7c0-0.3,0-0.5,0-0.7c0-0.1,0-0.2,0-0.2c0,0.1,0,0.2,0,0.2c0,0.2,0,0.4,0.1,0.7c0.1,0.7,0.1,1.6,0.2,2.7
			c0.2,2.4,0.5,5.8,0.6,10.1c0.2,5,0.2,10-0.2,15c-0.2,3-0.6,5.9-1.2,8.8c-0.6,3.1-1.4,6.2-2.4,9.2c-2,6.2-4.3,12-6.1,17.3
			c-1.6,4.7-2.7,9.6-3.2,14.6c-0.3,3.3-0.3,6.7,0.3,10c0.2,1.2,0.4,2.1,0.6,2.7l0.2,0.7C340.8,272.1,340.8,272.1,340.8,272.2
			L340.8,272.2z"/>
		<path class="st22" d="M361.5,276h-39.2l-0.9-7.6h40.1V276z"/>
		<path class="st22" d="M326.5,275.1l4.9,22.7h21.3l4.6-22.7H326.5z"/>
	</g>
</g>
</svg>
