<?xml version="1.0" encoding="utf-8"?>
<!-- Generator: Adobe Illustrator 26.0.2, SVG Export Plug-In . SVG Version: 6.00 Build 0)  -->
<svg version="1.1" id="Capa_1" xmlns="http://www.w3.org/2000/svg" xmlns:xlink="http://www.w3.org/1999/xlink" x="0px" y="0px"
	 viewBox="0 0 492 316" style="enable-background:new 0 0 492 316;" xml:space="preserve">
<style type="text/css">
	.st0{clip-path:url(#SVGID_00000145739281985620815300000015247214224578245282_);}
	.st1{fill:#F5F5F5;}
	.st2{fill:#EBEBEB;}
	.st3{fill:#FAFAFA;}
	.st4{fill:#E0E0E0;}
	.st5{fill:#7BD68A;}
	.st6{fill:#263238;}
	.st7{fill:#FFFFFF;}
	.st8{fill:#61D2E7;}
	.st9{opacity:0.6;}
	.st10{opacity:0.6;fill:#FFFFFF;enable-background:new    ;}
	.st11{fill:#6093CB;}
	.st12{opacity:0.4;}
	.st13{opacity:0.4;fill:#FFFFFF;enable-background:new    ;}
	.st14{fill:#FFBE9D;}
	.st15{fill:#027273;}
	.st16{opacity:0.2;}
	.st17{opacity:0.2;fill:#026869;enable-background:new    ;}
	.st18{fill:#455A64;}
	.st19{opacity:0.4;enable-background:new    ;}
	.st20{opacity:0.6;enable-background:new    ;}
	.st21{opacity:0.3;}
	.st22{opacity:0.3;enable-background:new    ;}
	.st23{fill:#EB996E;}
</style>
<g>
	<defs>
		<rect id="SVGID_1_" x="5.2" y="19" width="481.6" height="284"/>
	</defs>
	<clipPath id="SVGID_00000133522942140661025630000006782982341742827660_">
		<use xlink:href="#SVGID_1_"  style="overflow:visible;"/>
	</clipPath>
	<g style="clip-path:url(#SVGID_00000133522942140661025630000006782982341742827660_);">
		<path class="st1" d="M47.3,210.6H119v-55.3H47.3V210.6z"/>
		<path class="st2" d="M65.3,210.2c0.1,0,0.2-12.3,0.2-27.6s-0.1-27.6-0.2-27.6c-0.1,0-0.2,12.3-0.2,27.6S65.1,210.2,65.3,210.2z"/>
		<path class="st3" d="M53.4,204.3h5.5V198h-5.5V204.3z"/>
		<path class="st2" d="M97.1,155.4H89v11.8h8.1V155.4z"/>
		<path class="st2" d="M97.1,198.7H89v11.8h8.1V198.7z"/>
		<path class="st2" d="M146.3,211.4H28v91.3h118.3V211.4z"/>
		<path class="st4" d="M116.6,302.1c-0.1,0-0.2-20.4-0.2-45.5c0-25.1,0.1-45.5,0.2-45.5s0.2,20.4,0.2,45.5
			C116.9,281.8,116.7,302.1,116.6,302.1z"/>
		<path class="st3" d="M136.2,282h-9.1v10.3h9.1V282z"/>
		<path class="st4" d="M77.5,211.6H64.1v19.5h13.4V211.6z"/>
		<path class="st4" d="M77.5,283H64.1v19.5h13.4V283z"/>
		<path class="st2" d="M238.7,50.5c-1.1,0.2-2.3,0.2-3.4,0C236.4,50.3,237.6,50.3,238.7,50.5z"/>
		<path class="st2" d="M245.6,50.5c-1.1,0.2-2.3,0.2-3.4,0C243.3,50.3,244.4,50.3,245.6,50.5z"/>
		<path class="st2" d="M252.4,50.5c-1.1,0.2-2.3,0.2-3.4,0C250.1,50.3,251.3,50.3,252.4,50.5z"/>
		<path class="st2" d="M259.3,50.5c-1.1,0.2-2.3,0.2-3.4,0C257,50.3,258.2,50.3,259.3,50.5z"/>
		<path class="st2" d="M266.2,50.5c-1.1,0.2-2.3,0.2-3.4,0C263.9,50.3,265.1,50.3,266.2,50.5z"/>
		<path class="st2" d="M273.1,50.5c-1.1,0.2-2.3,0.2-3.4,0C270.8,50.3,272,50.3,273.1,50.5z"/>
		<path class="st2" d="M280,50.5c-1.1,0.2-2.3,0.2-3.4,0C277.7,50.3,278.8,50.3,280,50.5z"/>
		<path class="st2" d="M286.8,50.5c-1.1,0.2-2.3,0.2-3.4,0C284.5,50.3,285.7,50.3,286.8,50.5z"/>
		<path class="st2" d="M293.7,50.5c-1.1,0.2-2.3,0.2-3.4,0C291.4,50.3,292.6,50.3,293.7,50.5z"/>
		<path class="st2" d="M300.6,50.5c-1.1,0.2-2.3,0.2-3.4,0C298.3,50.3,299.5,50.3,300.6,50.5z"/>
		<path class="st2" d="M307.5,50.5c-1.1,0.2-2.3,0.2-3.4,0C305.2,50.3,306.4,50.3,307.5,50.5z"/>
		<path class="st2" d="M314.4,50.5c-1.1,0.2-2.3,0.2-3.4,0C312.1,50.3,313.2,50.3,314.4,50.5z"/>
		<path class="st2" d="M321.2,50.5c-1.1,0.2-2.3,0.2-3.4,0C318.9,50.3,320.1,50.3,321.2,50.5z"/>
		<path class="st2" d="M328.1,50.5c-1.1,0.2-2.3,0.2-3.4,0C325.8,50.3,327,50.3,328.1,50.5z"/>
		<path class="st2" d="M335,50.5c-1.1,0.2-2.3,0.2-3.4,0C332.7,50.3,333.9,50.3,335,50.5z"/>
		<path class="st2" d="M341.9,50.5c-1.1,0.2-2.3,0.2-3.4,0C339.6,50.3,340.7,50.3,341.9,50.5z"/>
		<path class="st2" d="M348.8,50.5c-1.1,0.2-2.3,0.2-3.4,0C346.5,50.3,347.6,50.3,348.8,50.5z"/>
		<path class="st2" d="M355.6,50.5c-1.1,0.2-2.3,0.2-3.4,0C353.3,50.3,354.5,50.3,355.6,50.5z"/>
		<path class="st2" d="M362.5,50.5c-1.1,0.2-2.3,0.2-3.4,0C360.2,50.3,361.4,50.3,362.5,50.5z"/>
		<path class="st2" d="M369.4,50.5c-1.1,0.2-2.3,0.2-3.4,0C367.1,50.3,368.3,50.3,369.4,50.5z"/>
		<path class="st2" d="M376.3,50.5c-1.1,0.2-2.3,0.2-3.4,0C374,50.3,375.1,50.3,376.3,50.5z"/>
		<path class="st2" d="M383.2,50.5c-1.1,0.2-2.3,0.2-3.4,0C380.9,50.3,382,50.3,383.2,50.5z"/>
		<path class="st2" d="M390,50.5c-1.1,0.2-2.3,0.2-3.4,0C387.7,50.3,388.9,50.3,390,50.5z"/>
		<path class="st2" d="M391.8,55.6c-0.2-0.6-0.2-1.1-0.2-1.7c-0.1-0.6,0-1.2,0.2-1.7c0.2,0.6,0.2,1.1,0.2,1.7
			C392,54.5,392,55.1,391.8,55.6z"/>
		<path class="st2" d="M391.8,62.5c-0.2-0.6-0.2-1.1-0.2-1.7c-0.1-0.6,0-1.2,0.2-1.7c0.2,0.6,0.2,1.1,0.2,1.7
			C392,61.4,392,62,391.8,62.5z"/>
		<path class="st2" d="M391.8,69.4c-0.2-0.6-0.2-1.1-0.2-1.7c-0.1-0.6,0-1.2,0.2-1.7c0.2,0.6,0.2,1.1,0.2,1.7
			C392,68.3,392,68.8,391.8,69.4z"/>
		<path class="st2" d="M391.8,76.3c-0.2-1.1-0.2-2.3,0-3.4C392,74,392,75.1,391.8,76.3z"/>
		<path class="st2" d="M391.8,83.2c-0.2-1.1-0.2-2.3,0-3.4C392,80.9,392,82,391.8,83.2z"/>
		<path class="st2" d="M393.1,88.7c0,0.1-0.6,0.2-1.3,0.2h-0.2v-0.2c0-0.1,0-0.2,0-0.4c-0.1-0.6,0-1.2,0.2-1.7
			c0.2,0.6,0.2,1.1,0.2,1.7v0.4l-0.2-0.2C392.3,88.5,392.7,88.6,393.1,88.7z"/>
		<path class="st2" d="M400,88.7c-1.1,0.2-2.3,0.2-3.4,0C397.7,88.5,398.9,88.5,400,88.7z"/>
		<path class="st2" d="M406.9,88.7c-1.1,0.2-2.3,0.2-3.4,0C404.6,88.5,405.8,88.5,406.9,88.7z"/>
		<path class="st2" d="M413.8,88.7c-1.1,0.2-2.3,0.2-3.4,0C411.5,88.5,412.6,88.5,413.8,88.7z"/>
		<path class="st2" d="M420.7,88.7c-1.1,0.2-2.3,0.2-3.4,0C418.4,88.5,419.5,88.5,420.7,88.7z"/>
		<path class="st2" d="M427.5,88.7c-1.1,0.2-2.3,0.2-3.4,0C425.2,88.5,426.4,88.5,427.5,88.7z"/>
		<path class="st2" d="M434.4,88.7c-1.1,0.2-2.3,0.2-3.4,0C432.1,88.5,433.3,88.5,434.4,88.7z"/>
		<path class="st2" d="M441.3,88.7c-1.1,0.2-2.3,0.2-3.4,0C439,88.5,440.2,88.5,441.3,88.7z"/>
		<path class="st2" d="M448.2,88.7c-1.1,0.2-2.3,0.2-3.4,0C445.9,88.5,447,88.5,448.2,88.7z"/>
		<path class="st2" d="M450.9,92.9c-0.2-1.1-0.2-2.3,0-3.4C451.1,90.6,451.1,91.8,450.9,92.9z"/>
		<path class="st2" d="M450.9,99.8c-0.2-1.1-0.2-2.3,0-3.4C451.1,97.5,451.1,98.7,450.9,99.8z"/>
		<path class="st2" d="M450.9,106.7c-0.2-1.1-0.2-2.3,0-3.4C451.1,104.4,451.1,105.6,450.9,106.7z"/>
		<path class="st2" d="M450.9,113.6c-0.2-1.1-0.2-2.3,0-3.4C451.1,111.3,451.1,112.5,450.9,113.6z"/>
		<path class="st2" d="M450.9,120.5c-0.2-1.1-0.2-2.3,0-3.4C451.1,118.2,451.1,119.3,450.9,120.5z"/>
		<path class="st2" d="M450.9,127.4c-0.2-1.1-0.2-2.3,0-3.4C451.1,125.1,451.1,126.2,450.9,127.4z"/>
		<path class="st2" d="M450.9,134.3c-0.2-1.1-0.2-2.3,0-3.4C451.1,132,451.1,133.1,450.9,134.3z"/>
		<path class="st2" d="M450.9,141.1c-0.2-1.1-0.2-2.3,0-3.4C451.1,138.8,451.1,140,450.9,141.1z"/>
		<path class="st2" d="M450.9,148c-0.2-1.1-0.2-2.3,0-3.4C451.1,145.7,451.1,146.9,450.9,148z"/>
		<path class="st2" d="M450.9,154.9c-0.2-1.1-0.2-2.3,0-3.4C451.1,152.6,451.1,153.8,450.9,154.9z"/>
		<path class="st2" d="M450.9,161.8c-0.2-1.1-0.2-2.3,0-3.4C451.1,159.5,451.1,160.7,450.9,161.8z"/>
		<path class="st5" d="M274.8,62.2c0,0-5.3-3-10.6,9.7c-5.2,12.6-7,19.8-7,19.8s-1.4,2.7-3.3,1.2c-1.9-1.5-4.6-6.1-7.6-5
			c-3,1.1-3.8,4.6-2.8,9.6c1,5,2.8,16.1,2.9,17.1c0.1,1-0.3,2.5-1.7,1.6c-1.4-0.8-10-9-13.7-4.7c-3.6,4.3,1.4,17.8,1.9,19.3
			c0.5,1.5,0.3,2.2-0.4,2.6c-0.7,0.4-3.3-2.6-5.9-4.8c-2.5-2.2-5.9-4.4-7.8-1.7c-1.9,2.7-1.7,13.1,9.4,29.2l5.7,7.1l9-1.2
			c19.2-3.8,26.5-11.2,27-14.4c0.5-3.2-3.4-3.9-6.8-4.1c-3.4-0.1-7.4,0.2-7.6-0.6c-0.2-0.8,0.1-1.4,1.5-2.2
			c1.4-0.7,14.4-6.9,14.8-12.6c0.4-5.6-11.5-5.7-13.1-6.1c-1.6-0.4-0.9-1.8-0.1-2.4c0.8-0.6,9.7-7.3,13.9-10.3
			c4.2-2.9,6.1-6,4.7-8.9c-1.3-2.8-6.5-1.5-8.9-1.7c-2.4-0.2-1.6-3.1-1.6-3.1s3.7-6.4,8.7-19.2s-1-14.3-1-14.3"/>
		<path class="st1" d="M475,178.7c0-3.7-0.8-7.4-2.5-10.7c-1.6-3.3-4-6.3-7-8.5c-3-2.3-6.4-3.8-10-4.5c-3.6-0.7-7.4-0.6-11,0.4
			c-3.6,1-6.9,2.8-9.7,5.2c-2.8,2.5-5,5.5-6.4,9c-1.4,3.4-2,7.2-1.7,10.9c0.3,3.7,1.4,7.3,3.3,10.5l0.1,0.1c0.9,1.6,2.1,2.7,3.3,4.3
			l14,18.6c0.4,0.5,0.9,1,1.5,1.3c0.6,0.3,1.3,0.5,1.9,0.5c0.7,0,1.3-0.2,1.9-0.5c0.6-0.3,1.1-0.7,1.5-1.3l13.8-18.3
			c1.3-1.5,2.4-3,3.5-4.7l0-0.1C473.9,187.2,475,183,475,178.7z M450.9,189.2c-2.1,0-4.2-0.6-5.9-1.8c-1.8-1.2-3.1-2.8-3.9-4.8
			c-0.8-1.9-1-4.1-0.6-6.2c0.4-2.1,1.4-4,2.9-5.5c1.5-1.5,3.4-2.5,5.4-2.9c2.1-0.4,4.2-0.2,6.1,0.6c1.9,0.8,3.6,2.2,4.8,3.9
			c1.2,1.8,1.8,3.8,1.8,5.9c0,2.8-1.1,5.5-3.1,7.5C456.4,188.1,453.7,189.2,450.9,189.2z"/>
		<path class="st1" d="M360.9,71.1v28.5c0,0.3,0.1,0.6,0.3,0.8c0.2,0.2,0.5,0.3,0.8,0.3h59.6c0.1,0,0.3,0,0.4-0.1
			c0.1-0.1,0.3-0.1,0.4-0.2c0.1-0.1,0.2-0.2,0.2-0.4c0.1-0.1,0.1-0.3,0.1-0.4l-0.1-10.4c0-0.2-0.1-0.5-0.2-0.7L413.8,77
			c-0.1-0.1-0.2-0.2-0.4-0.3c-0.2-0.1-0.3-0.1-0.5-0.1l-9.9-0.1c-0.3,0-0.6-0.1-0.8-0.3s-0.3-0.5-0.3-0.8V71c0-0.3-0.1-0.6-0.3-0.8
			c-0.2-0.2-0.5-0.3-0.8-0.3H362c-0.1,0-0.3,0-0.4,0.1s-0.3,0.1-0.4,0.2c-0.1,0.1-0.2,0.2-0.2,0.4C360.9,70.8,360.9,70.9,360.9,71.1
			z"/>
		<path class="st2" d="M404.8,78.9v9.1c0,0.1,0,0.2,0,0.2c0,0.1,0.1,0.1,0.1,0.2c0.1,0.1,0.1,0.1,0.2,0.1c0.1,0,0.2,0,0.2,0
			l13.2-0.2c0.1,0,0.2,0,0.3-0.1c0.1-0.1,0.2-0.1,0.2-0.2c0.1-0.1,0.1-0.2,0.1-0.3c0-0.1,0-0.2-0.1-0.3l-6.2-9.1
			c-0.1-0.1-0.1-0.2-0.2-0.2c-0.1,0-0.2-0.1-0.3-0.1l-7,0.2c-0.2,0-0.3,0.1-0.4,0.2C404.8,78.6,404.8,78.8,404.8,78.9z"/>
		<path class="st1" d="M423.9,101.5h-64.2v2h64.2V101.5z"/>
		<path class="st2" d="M379.1,106.7c2.5-2.5,2.5-6.5,0-9c-2.5-2.5-6.5-2.5-9,0c-2.5,2.5-2.5,6.5,0,9
			C372.6,109.2,376.6,109.2,379.1,106.7z"/>
		<path class="st3" d="M378.3,102.3c0,0.7-0.2,1.5-0.6,2.1c-0.4,0.6-1,1.1-1.7,1.4c-0.7,0.3-1.4,0.4-2.2,0.2c-0.7-0.1-1.4-0.5-1.9-1
			c-0.5-0.5-0.9-1.2-1-1.9c-0.1-0.7-0.1-1.5,0.2-2.2c0.3-0.7,0.8-1.3,1.4-1.7c0.6-0.4,1.3-0.6,2.1-0.6c1,0,1.9,0.4,2.6,1.1
			C377.9,100.3,378.3,101.3,378.3,102.3z"/>
		<path class="st2" d="M401.9,100.6c-0.2,0-0.3-6.9-0.3-15.3c0-8.5,0.1-15.3,0.3-15.3c0.2,0,0.3,6.9,0.3,15.3
			C402.2,93.7,402.1,100.6,401.9,100.6z"/>
		<path class="st2" d="M413.7,106.7c2.5-2.5,2.5-6.5,0-9c-2.5-2.5-6.5-2.5-9,0c-2.5,2.5-2.5,6.5,0,9
			C407.2,109.2,411.2,109.2,413.7,106.7z"/>
		<path class="st3" d="M412.9,102.3c0,0.7-0.2,1.5-0.6,2.1c-0.4,0.6-1,1.1-1.7,1.4c-0.7,0.3-1.4,0.4-2.2,0.2c-0.7-0.1-1.4-0.5-1.9-1
			c-0.5-0.5-0.9-1.2-1-1.9c-0.1-0.7-0.1-1.5,0.2-2.2c0.3-0.7,0.8-1.3,1.4-1.7c0.6-0.4,1.3-0.6,2.1-0.6c1,0,1.9,0.4,2.6,1.1
			C412.5,100.3,412.9,101.3,412.9,102.3z"/>
		<path class="st2" d="M409.2,90.5c0,0.2-0.9,0.3-2.1,0.3c-1.2,0-2-0.1-2-0.3s0.9-0.3,2-0.3C408.3,90.2,409.2,90.4,409.2,90.5z"/>
		<path class="st6" d="M486.8,302.8c0,0.1-107.8,0.2-240.8,0.2c-133,0-240.8-0.1-240.8-0.2c0-0.1,107.8-0.2,240.8-0.2
			C379.1,302.7,486.8,302.7,486.8,302.8z"/>
		<path class="st5" d="M101.4,299.8c9.3-6.4,11.4-18.4,11.1-29.2c-0.1-1.8,0.2-3.7-0.7-5.3c-0.8-1.6-2.8-2.7-4.5-1.9
			c-1.3,0.6-1.9,2.2-2.7,3.4c-1,1.7-2.5,3.1-4.2,4c-1.1,0.6-2.6,0.9-3.7,0.3c-1.5-0.9-1.7-3-1.7-4.8c0-3.3,0.1-6.7,0.1-10
			c0.1-1.8-0.1-3.6-0.5-5.3c-0.6-1.7-1.8-3.3-3.5-3.8c-1.7-0.5-3.8,0.5-4.2,2.2c-0.1,0.7-0.1,1.5-0.1,2.2c0,0.4-0.1,0.7-0.3,1.1
			c-0.2,0.3-0.5,0.6-0.8,0.7c-0.7,0.2-1.4-0.3-2-0.8c-1.8-1.8-3.1-4.1-4.3-6.5c-1.2-2.3-2.3-4.7-4-6.7c-1.7-2-4-3.6-6.5-3.7
			c-2.6-0.2-5.3,1.4-6,3.9c-0.7,2.5,0.8,5.1,2.4,7.1c2.4,3,5.1,5.7,8.3,8c0.6,0.3,1.1,0.9,1.4,1.5c0.4,1.2-0.7,2.4-1.9,2.8
			c-1.3,0.4-2.8,0.3-4.2,0.5c-1.4,0.2-2.9,0.8-3.4,2.1c-0.7,1.8,0.8,3.8,2.3,5c3,2.5,6.4,4.5,10.1,5.9c1.4,0.4,2.6,1,3.8,1.8
			c1.1,0.9,1.7,2.5,1,3.8c-0.6,1.3-2.3,1.7-3.7,1.4c-1.4-0.3-2.6-1-3.9-1.5c-2.5-0.9-5.6-0.8-7.2,1.3c-0.5,0.7-0.8,1.6-0.9,2.4
			c-0.1,0.9,0,1.8,0.3,2.6c0.6,1.6,1.5,3.2,2.7,4.4c3.9,4.7,8.9,8.3,14.7,10.4C90.4,301.3,95.7,301.8,101.4,299.8"/>
		<path class="st6" d="M98.3,292.6c0.1-0.1,0.1-0.2,0.2-0.3c0.1-0.2,0.2-0.5,0.4-0.8c0.3-0.7,0.8-1.8,1.4-3.1
			c1.1-2.6,2.6-6.3,4.1-10.4c1.5-4.1,2.9-7.8,4-10.4l1.3-3.1c0.1-0.3,0.2-0.6,0.3-0.9c0.1-0.2,0.1-0.3,0.1-0.3
			c-0.1,0.1-0.1,0.2-0.2,0.3l-0.4,0.8c-0.3,0.7-0.8,1.8-1.4,3.1c-1.1,2.6-2.6,6.3-4.1,10.4c-1.5,4.1-2.9,7.8-4,10.5
			c-0.5,1.3-0.9,2.3-1.3,3.1c-0.1,0.3-0.2,0.6-0.3,0.9C98.4,292.4,98.4,292.5,98.3,292.6z"/>
		<path class="st6" d="M213.1,302.8h-95.7c-11.6,0-21.3-9.9-21.3-21.5l1-241.4c0-2.8,0.6-5.5,1.6-8c1.1-2.5,2.6-4.8,4.6-6.8
			c2-1.9,4.3-3.5,6.8-4.5c2.5-1,5.3-1.6,8-1.6l96.2,0.4c2.8,0,5.5,0.6,8,1.6c2.5,1.1,4.8,2.6,6.8,4.6c1.9,2,3.5,4.3,4.5,6.8
			c1,2.5,1.6,5.3,1.6,8l-1,241.4c0,2.8-0.6,5.5-1.6,8c-1.1,2.5-2.6,4.8-4.6,6.8c-2,1.9-4.3,3.5-6.8,4.5
			C218.6,302.3,215.8,302.8,213.1,302.8z"/>
		<path class="st1" d="M214.2,28.6l-18.7-0.1c-0.6,0-1.2,0.1-1.8,0.4s-1.1,0.6-1.5,1c-0.4,0.4-0.8,1-1,1.5c-0.2,0.6-0.3,1.2-0.3,1.8
			v3.4c0,1.2-0.4,2.4-1.3,3.3c-0.9,0.9-2,1.4-3.2,1.4l-36.4-0.2c-0.6,0-1.2-0.2-1.8-0.4c-0.6-0.2-1.1-0.6-1.5-1
			c-0.4-0.4-0.7-1-1-1.5c-0.2-0.6-0.3-1.2-0.3-1.8v-3.4c0-1.2-0.4-2.4-1.3-3.3c-0.8-0.9-2-1.4-3.2-1.5h-6.6l-16.3-0.1
			c-1.9,0-3.8,0.4-5.6,1.1c-1.8,0.7-3.4,1.8-4.8,3.2c-1.4,1.4-2.5,3-3.2,4.8c-0.7,1.8-1.1,3.7-1.1,5.6l-1,235.6
			c0,3.9,1.5,7.6,4.3,10.4c2.7,2.8,6.5,4.3,10.4,4.3l96,0.4c1.9,0,3.8-0.4,5.6-1.1c1.8-0.7,3.4-1.8,4.8-3.2c1.4-1.4,2.5-3,3.2-4.8
			c0.7-1.8,1.1-3.7,1.1-5.6l1-235.7c0-3.9-1.5-7.6-4.2-10.4C221.8,30.2,218,28.6,214.2,28.6z"/>
		<path class="st1" d="M173.4,249.1c-0.1,2.8-0.2,5.5-0.3,7.7h13.8l-1.7-8.5L173.4,249.1z"/>
		<path class="st1" d="M117.4,252.7l0.1,4.2h54.2c0.1-2.4,0.2-5,0.3-7.6L117.4,252.7z"/>
		<path class="st1" d="M185.9,248.3l1.7,8.5H213l-0.3-10.2L185.9,248.3z"/>
		<path class="st1" d="M174.8,129.2l4.8-27.9l-12.6-0.9v28.8H174.8z"/>
		<path class="st1" d="M116.2,237.2l-13.7,5.4l0,9.7l14.1-0.9L116.2,237.2z"/>
		<path class="st1" d="M116.2,235l-0.7-26h0v-9.2l-12.7,1.3l-0.2,39.1L116.2,235L116.2,235z"/>
		<path class="st1" d="M115.4,179.4l-12.6-1.7l-0.1,21.4l12.7-1.3V179.4z"/>
		<path class="st1" d="M209.1,200.2l-0.5,7.5l-14.8,1.6l1.1,5.9l16.9-1.3l-0.3-8.5l1.3-5.6L209.1,200.2z"/>
		<path class="st1" d="M182.4,216.1l11.8-0.9l-2.6-13.2l-10.3,1L182.4,216.1z"/>
		<path class="st1" d="M182.5,217.5l0.9,11l1.6,15.1l0.7,3.3l27-1.7l-0.9-30L182.5,217.5z"/>
		<path class="st1" d="M135.9,165.4l1,1.8l-20.9,12.2v28.9l22-1.6l42.5-4.3l-1.6-18.9l-40.5-5.3l0.3-2.1l40.1,5.2l-2.6-32.1
			l-39.7,3.8l-0.1-1.4l39.7-3.8l-1.4-16.7h-38.2l-33.5,6.1l-0.2,38.3l12.7,1.7L135.9,165.4z M118.2,205.5c0,0,0.2-23.8,0-24.7
			l17-9.1l2.2,32.6L118.2,205.5z"/>
		<path class="st1" d="M207.7,200.4l-15.4,1.6l1.2,6l13.8-1.5L207.7,200.4z"/>
		<path class="st1" d="M173.6,244c0,1.2-0.1,2.5-0.1,3.7l11.5-0.7l-0.6-3L173.6,244z"/>
		<path class="st1" d="M148.9,129.2l2-9.2h15.4v-19.7l-48.2-3.6v18.5l-15,3.4l-0.1,16.6l33.3-6.1H148.9z"/>
		<path class="st1" d="M181,74.3l-0.4-1.7l18.4-7.3l-12-24.1c-0.2,0-0.5,0.1-0.7,0.1L166,41.3l0.6,33.7L181,74.3z"/>
		<path class="st1" d="M208.9,61.4V28.6l-13.4,0c-0.6,0-1.2,0.1-1.8,0.4c-0.6,0.2-1.1,0.6-1.5,1c-0.4,0.4-0.8,1-1,1.5
			c-0.2,0.6-0.3,1.2-0.3,1.8v3.4c0,0.8-0.2,1.5-0.5,2.2c-0.3,0.7-0.8,1.3-1.4,1.7l12,24.1L208.9,61.4z"/>
		<path class="st1" d="M139.8,62.8l-1.6-34.6h-3.7l-14.5-0.1l-6.2,30.9L139.8,62.8z M136.4,31.8l0.5,28.2l-19.3-2.8l4.2-25.3H136.4z
			"/>
		<path class="st1" d="M140.5,62.9v0.3c0,2.7,0.1,7.6,0.1,12.8l25.3-1l-0.6-33.7L150,41.2c-0.6,0-1.2-0.2-1.8-0.4
			c-0.6-0.2-1.1-0.6-1.5-1c-0.4-0.4-0.7-1-1-1.5c-0.2-0.6-0.3-1.2-0.3-1.8V33c0-1.2-0.4-2.4-1.3-3.3c-0.8-0.9-2-1.4-3.2-1.5h-2.1
			L140.5,62.9L140.5,62.9z"/>
		<path class="st1" d="M111.7,58.8l6.1-30.6c-3.8,0.1-7.5,1.6-10.2,4.4c-2.7,2.7-4.2,6.4-4.2,10.2l-0.1,15.3l0.1-0.4L111.7,58.8z"/>
		<path class="st1" d="M116.1,96.6l-12.9-1l-0.1,20.9l13-2.9V96.6z"/>
		<path class="st1" d="M111.6,59.5l-8.2-1.2l-0.1,33.9l1.8,0.1L111.6,59.5z"/>
		<path class="st1" d="M137.6,234.6l0.2-27.2l-21.7,1.5l0.8,26.6L137.6,234.6z"/>
		<path class="st1" d="M141.6,228.3l30.7,14.7c0.4-9.6,0.7-18.6,0.7-19.2l0.7,0l0.3-0.6c0.4,0.2,0.4,0.2,0.2,6.8
			c-0.1,3.7-0.3,8.5-0.5,13.4h10.6l-1.6-14.8l-2.1-25.5l-40.1,4L141.6,228.3z"/>
		<path class="st1" d="M216.8,183.2l-0.3-3.6l-36.8,3.8l1.5,18.9l31.8-3.2L216.8,183.2z"/>
		<path class="st1" d="M166.3,122.1h-13.7l-1.6,7.1h15.3V122.1z"/>
		<path class="st1" d="M211.1,124.5l-34.4-2.4l-1.4,8.1l1.5,17.7l36.3-3.5L211.1,124.5z M178,130.2l1.9-5.1l29.9,1.9l1.7,14.7
			l-32.5,3.9L178,130.2z"/>
		<path class="st1" d="M214.7,161.4l-1.5-15.6l-36.3,3.5l1.4,16.6L214.7,161.4z"/>
		<path class="st1" d="M116.7,252.7l-14.1,0.9l-0.1-0.9l0,4.2h14.3L116.7,252.7z"/>
		<path class="st1" d="M228.5,53.7l0.2,0.5l0-10.8c0-3.9-1.5-7.6-4.3-10.4c-2.7-2.8-6.5-4.3-10.4-4.4h-4.6v32.6L228.5,53.7z"/>
		<path class="st1" d="M172.2,243.8l-31.3-15l-1.1-21.5l-1.3,0.1l-0.2,27.9l-21.4,1v0.6l0.4,14.4l54.8-3.4
			C172.1,246.5,172.2,245.2,172.2,243.8z M118.2,238.1l29.9-2.1l19.4,9l-49.3,2.7V238.1z"/>
		<path class="st1" d="M219.6,89.9l1.3-7.6c-11.2-4-12-15.8-12-19.3l-7.3,2.9l11,22.2L219.6,89.9z"/>
		<path class="st1" d="M179.5,181.4l15.3-1.6l-3-13.5l-13.4,1.7L179.5,181.4z"/>
		<path class="st1" d="M211.2,101.5h-28.5l-2.4-0.2l-3.2,18.7l33.9,2.3l-0.8-8.1l3.3-12L211.2,101.5z"/>
		<path class="st1" d="M210.5,98.1l0.4-9l-11.2-22.5l-17.4,6.9l6,24.6L210.5,98.1z M199,69.3l10.3,19.6l-1.5,6.1l-17.6-0.7
			l-4.4-18.5L199,69.3z"/>
		<path class="st1" d="M214.9,205.8l0.5,17.5l12.4-0.7l0,0.7l-12.4,0.7l0.6,21l11.7-0.7l0.1,1.4l-11.7,0.7l0.3,10.4h11.4l0.2-58.5
			l-11.6,1.2L214.9,205.8z"/>
		<path class="st1" d="M139.8,63.5l-26.2-3.8l-6.5,32.7l32.8,2.4C140,89.9,139.9,74.4,139.8,63.5z"/>
		<path class="st1" d="M182.9,98.1h4l-5.6-23l-14.6,0.6l0.4,21.3L182.9,98.1z"/>
		<path class="st1" d="M140.6,94.9l25.7,1.9l-0.3-21.2l-25.3,1C140.7,83.8,140.7,91.5,140.6,94.9z"/>
		<path class="st1" d="M214.9,163.5l-22.4,2.8l3,13.5l20.8-2.2L214.9,163.5z"/>
		<path class="st1" d="M221,81.5l1.4-8.5l6.2,0.5l0.1-18.4l-19.1,7.6C209.2,75.6,217.3,80.1,221,81.5z"/>
		<path class="st1" d="M213.6,114.5l0.8,8.1l14,1l0.1-16.6l-11.7-3.7L213.6,114.5z"/>
		<path class="st1" d="M220.3,183.5l-3.7,15.3l11.5-1.2l0.1-16.1c-3.5-0.9-6.6-1.7-8.3-2L220.3,183.5z"/>
		<path class="st1" d="M212.5,98.3l16,5l0-9.1l-15.7-4.1L212.5,98.3z"/>
		<path class="st1" d="M219.7,177.5c1.3,0.2,3.7,0.7,8.5,2l0.2-35.1l-11.7,1.1L219.7,177.5z"/>
		<path class="st1" d="M216.5,144.1l11.8-1.1l0.1-17.3l-13.8-1L216.5,144.1z"/>
		<path class="st1" d="M222.3,82c2.1,0.6,4.2,1.2,6.3,1.6v-8.7l-5-0.4L222.3,82z"/>
		<path class="st1" d="M220.9,90.2l7.6,2l0-7.9c-2-0.4-4.1-0.9-6.4-1.6L220.9,90.2z"/>
		<path class="st7" d="M116.7,252.7l0.1,4.1h0.7l-0.1-4.2l54.7-3.4c-0.1,2.7-0.2,5.3-0.3,7.6h1.4c0.1-2.2,0.2-4.9,0.3-7.7l11.8-0.8
			l1.7,8.5h0.7l-1.7-8.5l26.8-1.7l0.3,10.2h3.4l-0.3-10.4l11.7-0.7l-0.1-1.4l-11.7,0.7l-0.6-21l12.4-0.7l0-0.7l-12.4,0.7l-0.5-17.5
			l1.5-6.3l11.7-1.2v-0.7l-11.5,1.2l3.7-15.3l-0.4-3.9c1.7,0.3,4.7,1.1,8.3,2v-2.2c-4.7-1.3-7.2-1.8-8.5-2l-3.1-32l11.7-1.1v-1.4
			l-11.8,1.1l-1.9-19.4l13.8,1v-2.1l-14-1l-0.8-8.1l3.1-11.3l11.7,3.7v-3.6l-16-5l0.3-8.1l15.7,4.1v-2.1l-7.6-2l1.3-7.5
			c2.3,0.7,4.4,1.2,6.4,1.6v-0.7c-2.1-0.4-4.2-1-6.3-1.6l1.3-7.5l5,0.4v-1.4l-6.2-0.5l-1.4,8.5c-3.7-1.4-11.8-5.9-11.4-18.9
			l19.1-7.6v-0.9l-0.2-0.5l-18.9,7.5V28.6h-0.7v32.8l-8,3.2l-12-24.1c-0.6,0.4-1.2,0.7-1.9,0.8l12,24.1l-18.3,7.3l0.4,1.7l-14.4,0.6
			L166,41.3h-0.7l0.6,33.7l-25.3,1c0-5.2-0.1-10.1-0.1-12.8v-0.3l-1.6-34.7h-0.7l1.6,34.6l-26-3.7l6.2-30.9h-1.8h-0.3l-6.1,30.6
			l-8.3-1.2l-0.1,0.4v0.2l8.2,1.2L105,92.3l-1.8-0.1v3.4l12.9,1v17l-13,2.9v2.1l15-3.4V96.7l48.2,3.6V120h-15.4l-2,9.2h-12.5
			l-33.3,6.1v2.1l33.5-6.1h38.2l1.4,16.7l-39.7,3.8l0.1,1.4l39.7-3.8l2.6,32.1l-40.1-5.2l-0.3,2.1l40.5,5.3l1.6,18.9l-42.4,4.3
			l-22,1.6v-28.9l20.9-12.2l-1-1.8l-20.4,11.9l-12.7-1.7v2.1l12.6,1.7v18.4l-12.7,1.3v2.1l12.7-1.3v9.2l0.7,26l-13.6,5.3v2.2
			l13.7-5.4l0.4,14.2l-14.1,0.9v0.5l0.1,0.9L116.7,252.7z M173.5,247.7c0-1.2,0.1-2.5,0.1-3.7h10.7l0.6,3L173.5,247.7z M185.6,247
			l-0.7-3.3l-1.6-15.2l-0.9-11l29.3-2.2l0.9,30L185.6,247z M192.3,201.9l15.4-1.6l-0.4,6.1l-13.8,1.5L192.3,201.9z M191.6,202
			l2.6,13.2l-11.8,0.9l-1.1-13.1L191.6,202z M211.7,213.9l-16.8,1.3l-1.1-5.9l14.8-1.6l0.5-7.5l3.7-0.4l-1.3,5.6L211.7,213.9z
			 M191.8,166.3l3,13.5l-15.3,1.6l-1.1-13.5L191.8,166.3z M195.5,179.8l-3-13.5l22.5-2.8l1.4,14.1L195.5,179.8z M210.9,122.4
			L177,120l3.2-18.7l2.4,0.2h28.5l2.3,0.7l-3.3,12L210.9,122.4z M208.9,62.9c0,3.6,0.7,15.3,12,19.3l-1.2,7.7l-7-1.8l-11-22.2
			L208.9,62.9z M199.6,66.6l11.3,22.5l-0.4,9h-22.3l-6-24.6L199.6,66.6z M181.2,75l5.6,23h-3.9L167,96.9l-0.4-21.3L181.2,75z
			 M165.9,75.6l0.3,21.2l-25.7-1.9c0.1-3.4,0.1-11.1,0-18.3L165.9,75.6z M113.6,59.8l26.2,3.8c0.1,10.9,0.2,26.3,0.1,31.3L107,92.5
			L113.6,59.8z M179.6,101.3l-4.8,27.9H167v-28.9L179.6,101.3z M152.5,122.1h13.8v7.1H151L152.5,122.1z M175.2,130.2l1.4-8.1
			l34.4,2.4l1.9,19.9l-36.3,3.5L175.2,130.2z M213.1,145.8l1.5,15.6l-36.5,4.5l-1.4-16.6L213.1,145.8z M179.6,183.5l36.8-3.8
			l0.4,3.6l-3.8,15.9l-31.8,3.2L179.6,183.5z M182.6,228.6l1.6,14.8h-10.5c0.2-4.9,0.4-9.7,0.5-13.4c0.2-6.6,0.2-6.6-0.2-6.8
			l-0.3,0.6l-0.7,0c0,0.6-0.3,9.6-0.7,19.2l-30.6-14.8l-1.1-21.2l40.1-4L182.6,228.6z M137.7,207.5l-0.2,27.2l-20.7,1L116,209
			L137.7,207.5z M116.8,236.9v-0.6l21.4-1l0.2-27.9l1.3-0.1l1.1,21.5l31.3,15c0,1.3-0.1,2.7-0.2,4l-54.8,3.4L116.8,236.9z"/>
		<path class="st2" d="M148.1,236l-29.9,2.1v9.6l49.3-2.7L148.1,236z"/>
		<path class="st2" d="M209.7,127l-29.9-1.9l-1.8,5.1l1,15.3l32.5-3.9L209.7,127z"/>
		<path class="st2" d="M117,293.2l96,0.4c1.9,0,3.8-0.4,5.6-1.1c1.8-0.7,3.4-1.8,4.8-3.2c1.4-1.4,2.5-3,3.2-4.8
			c0.7-1.8,1.1-3.7,1.1-5.6l0.1-22.2H102.5l-0.1,16.8v5.3c0.1,3.8,1.7,7.4,4.4,10.1C109.6,291.7,113.2,293.2,117,293.2z"/>
		<path class="st2" d="M136.9,59.9l-0.5-28.2h-14.6l-4.2,25.3L136.9,59.9z"/>
		<path class="st2" d="M207.8,95l1.5-6.1L199,69.3l-13.2,6.5l4.4,18.5L207.8,95z"/>
		<path class="st2" d="M118.2,180.8c0.2,0.9,0,24.7,0,24.7l19.3-1.2l-2.2-32.6L118.2,180.8z"/>
		<path class="st2" d="M182.4,200.1l-1-14.8l33-4.2v2.5l-4,13.6L182.4,200.1z"/>
		<path class="st8" d="M158,77.7c0,0.8-0.2,1.6-0.7,2.2c-0.4,0.7-1.1,1.2-1.8,1.5c-0.7,0.3-1.5,0.4-2.3,0.2
			c-0.8-0.2-1.5-0.5-2.1-1.1c-0.6-0.6-0.9-1.3-1.1-2.1c-0.2-0.8-0.1-1.6,0.2-2.3c0.3-0.7,0.8-1.4,1.5-1.8c0.7-0.4,1.4-0.7,2.2-0.7
			c1.1,0,2.1,0.4,2.8,1.2C157.6,75.6,158,76.7,158,77.7z"/>
		<g class="st9">
			<path class="st10" d="M158,77.6c0,0.8-0.2,1.6-0.6,2.3c-0.4,0.7-1,1.2-1.7,1.6c-0.7,0.3-1.5,0.5-2.3,0.3c-0.8-0.1-1.5-0.5-2.1-1
				c-0.6-0.5-1-1.2-1.2-2c-0.2-0.8-0.1-1.6,0.1-2.3c0.3-0.7,0.8-1.4,1.4-1.9c0.6-0.5,1.4-0.7,2.2-0.8c1.1,0,2.1,0.3,2.9,1.1
				C157.5,75.5,157.9,76.5,158,77.6z"/>
		</g>
		<path class="st8" d="M154,80.3c1.5,0,2.7-1.2,2.7-2.7c0-1.5-1.2-2.7-2.7-2.7s-2.7,1.2-2.7,2.7C151.3,79.1,152.5,80.3,154,80.3z"/>
		<path class="st8" d="M216,238.3c0,0.3-0.1,0.7-0.3,0.9c-0.2,0.3-0.5,0.5-0.8,0.6c-0.3,0.1-0.7,0.2-1,0.1c-0.3-0.1-0.6-0.2-0.9-0.5
			c-0.2-0.2-0.4-0.5-0.5-0.9c-0.1-0.3,0-0.7,0.1-1c0.1-0.3,0.3-0.6,0.6-0.8c0.3-0.2,0.6-0.3,0.9-0.3c0.2,0,0.5,0,0.7,0.1
			c0.2,0.1,0.4,0.2,0.6,0.4c0.2,0.2,0.3,0.4,0.4,0.6C216,237.9,216,238.1,216,238.3z"/>
		<path class="st8" d="M213.3,237.8l-0.4-9.6l-29,1.4c-0.8,0-1.5-0.1-2.2-0.5l-41.1-20.8c-0.5-0.2-0.9-0.6-1.2-1
			c-0.3-0.4-0.5-0.9-0.5-1.5l-5.6-108.7c0-0.3,0-0.5,0.1-0.8c0.1-0.2,0.2-0.5,0.4-0.6c0.2-0.2,0.4-0.3,0.6-0.4
			c0.2-0.1,0.5-0.1,0.8-0.1l17.6,1.3V77.2h2.1v19.5c0,0.2,0,0.5-0.1,0.7c-0.1,0.2-0.2,0.4-0.4,0.6c-0.2,0.2-0.4,0.3-0.6,0.4
			c-0.2,0.1-0.5,0.1-0.7,0.1l-17.6-1.3l5.6,108.4c0,0.2,0.1,0.3,0.2,0.4c0.1,0.1,0.2,0.2,0.4,0.3l41.1,20.8c0.4,0.2,0.8,0.3,1.2,0.2
			l29.2-1.4c0.5,0,1,0.1,1.3,0.5c0.2,0.2,0.3,0.4,0.4,0.6c0.1,0.2,0.2,0.5,0.2,0.7l0.4,9.9L213.3,237.8z"/>
		<path class="st8" d="M136.7,149.5c2.9,0,5.2-2.3,5.2-5.2s-2.3-5.2-5.2-5.2c-2.9,0-5.2,2.3-5.2,5.2S133.9,149.5,136.7,149.5z"/>
		<path class="st3" d="M136.7,147.9c2,0,3.6-1.6,3.6-3.6c0-2-1.6-3.6-3.6-3.6c-2,0-3.6,1.6-3.6,3.6
			C133.1,146.3,134.7,147.9,136.7,147.9z"/>
		<path class="st8" d="M136.7,148.2c-0.8,0-1.5-0.2-2.2-0.7c-0.6-0.4-1.1-1-1.4-1.7c-0.3-0.7-0.4-1.5-0.2-2.2c0.1-0.8,0.5-1.4,1.1-2
			c0.5-0.5,1.2-0.9,2-1.1c0.8-0.2,1.5-0.1,2.2,0.2c0.7,0.3,1.3,0.8,1.7,1.4c0.4,0.6,0.7,1.4,0.7,2.2c0,1-0.4,2-1.1,2.7
			C138.7,147.8,137.8,148.2,136.7,148.2z M136.7,140.9c-0.7,0-1.3,0.2-1.9,0.6c-0.6,0.4-1,0.9-1.2,1.5c-0.3,0.6-0.3,1.3-0.2,1.9
			c0.1,0.7,0.4,1.3,0.9,1.7c0.5,0.5,1.1,0.8,1.7,0.9c0.7,0.1,1.3,0.1,1.9-0.2c0.6-0.3,1.1-0.7,1.5-1.2c0.4-0.6,0.6-1.2,0.6-1.9
			c0-0.9-0.4-1.7-1-2.4C138.5,141.3,137.6,140.9,136.7,140.9z"/>
		<path class="st11" d="M167.4,122.5h-24.8c-0.6,0-1.1,0.2-1.5,0.6c-0.4,0.4-0.6,1-0.6,1.5v9c0,0.6,0.2,1.1,0.6,1.5
			c0.4,0.4,1,0.6,1.5,0.6h0.3v2.1l2.5-2.1h22c0.6,0,1.1-0.2,1.5-0.6c0.4-0.4,0.6-1,0.6-1.5v-9c0-0.3-0.1-0.6-0.2-0.8
			c-0.1-0.3-0.3-0.5-0.5-0.7c-0.2-0.2-0.4-0.4-0.7-0.5C167.9,122.5,167.7,122.5,167.4,122.5z"/>
		<g class="st12">
			<path class="st13" d="M167.4,122.5h-24.8c-0.6,0-1.1,0.2-1.5,0.6c-0.4,0.4-0.6,1-0.6,1.5v9c0,0.6,0.2,1.1,0.6,1.5
				c0.4,0.4,1,0.6,1.5,0.6h0.3v2.1l2.5-2.1h22c0.6,0,1.1-0.2,1.5-0.6c0.4-0.4,0.6-1,0.6-1.5v-9c0-0.3-0.1-0.6-0.2-0.8
				c-0.1-0.3-0.3-0.5-0.5-0.7c-0.2-0.2-0.4-0.4-0.7-0.5C167.9,122.5,167.7,122.5,167.4,122.5z"/>
		</g>
		<path class="st7" d="M146,129c0-0.3,0.1-0.6,0.2-0.8c0.2-0.3,0.4-0.5,0.7-0.6c0.3-0.1,0.6-0.2,0.9-0.1c0.3,0.1,0.6,0.2,0.8,0.4
			c0.2,0.2,0.4,0.5,0.4,0.8c0.1,0.3,0,0.6-0.1,0.9c-0.1,0.3-0.3,0.5-0.5,0.7c-0.2,0.2-0.5,0.3-0.8,0.3c-0.2,0-0.4,0-0.6-0.1
			c-0.2-0.1-0.3-0.2-0.5-0.3c-0.1-0.1-0.3-0.3-0.3-0.5C146,129.4,146,129.2,146,129z M148.6,129c0-0.2-0.1-0.4-0.2-0.6
			c-0.1-0.2-0.3-0.3-0.5-0.4c-0.2-0.1-0.4-0.1-0.6-0.1c-0.2,0-0.4,0.1-0.6,0.3c-0.2,0.2-0.3,0.3-0.3,0.6c0,0.2,0,0.4,0.1,0.6
			c0.1,0.2,0.2,0.4,0.4,0.5c0.2,0.1,0.4,0.2,0.6,0.2c0.1,0,0.3,0,0.4-0.1c0.1-0.1,0.3-0.1,0.4-0.2c0.1-0.1,0.2-0.2,0.2-0.4
			C148.5,129.3,148.6,129.1,148.6,129z"/>
		<path class="st7" d="M151.7,129.3c0,0.1,0,0.3-0.1,0.4c-0.1,0.1-0.1,0.3-0.2,0.4c-0.1,0.1-0.2,0.2-0.4,0.2
			c-0.1,0.1-0.3,0.1-0.4,0.1c-0.1,0-0.3,0-0.4-0.1c-0.1-0.1-0.2-0.2-0.3-0.3v0.3h-0.4v-3h0.4v1.2c0.1-0.1,0.2-0.2,0.3-0.3
			c0.1-0.1,0.3-0.1,0.4-0.1c0.1,0,0.3,0,0.4,0.1c0.1,0.1,0.3,0.1,0.4,0.2c0.1,0.1,0.2,0.2,0.2,0.4
			C151.7,129.1,151.7,129.2,151.7,129.3z M151.3,129.3c0-0.1-0.1-0.3-0.1-0.4c-0.1-0.1-0.2-0.2-0.3-0.2c-0.1,0-0.3,0-0.4,0
			c-0.1,0-0.2,0.1-0.3,0.2c-0.1,0.1-0.2,0.2-0.2,0.4c0,0.1,0,0.3,0,0.4c0.1,0.1,0.1,0.2,0.3,0.3c0.1,0.1,0.2,0.1,0.4,0.1
			c0.1,0,0.2,0,0.3,0c0.1,0,0.2-0.1,0.2-0.2c0.1-0.1,0.1-0.2,0.2-0.2C151.3,129.5,151.3,129.4,151.3,129.3L151.3,129.3z"/>
		<path class="st7" d="M151.5,131.1l0.1-0.3c0.1,0.1,0.2,0.1,0.3,0.1c0.2,0,0.3-0.1,0.3-0.4v-2.2h0.4v2.2c0,0.1,0,0.2,0,0.3
			c0,0.1-0.1,0.2-0.1,0.2c-0.1,0.1-0.1,0.1-0.2,0.1s-0.2,0-0.3,0C151.8,131.2,151.6,131.2,151.5,131.1z M152.2,127.6
			C152.2,127.6,152.2,127.6,152.2,127.6c0-0.1,0.1-0.2,0.1-0.2c0,0,0.1,0,0.1-0.1c0,0,0.1,0,0.1,0c0,0,0.1,0,0.1,0
			c0,0,0.1,0,0.1,0.1c0,0,0,0,0.1,0.1c0,0,0,0.1,0,0.1c0,0,0,0.1,0,0.1c0,0,0,0.1-0.1,0.1c0,0-0.1,0-0.1,0.1c0,0-0.1,0-0.1,0
			c0,0-0.1,0-0.1,0c0,0-0.1,0-0.1-0.1C152.2,127.8,152.2,127.7,152.2,127.6C152.2,127.7,152.2,127.7,152.2,127.6L152.2,127.6z"/>
		<path class="st7" d="M155.3,129.5h-1.7c0,0.1,0,0.2,0.1,0.3c0,0.1,0.1,0.2,0.2,0.2c0.1,0.1,0.2,0.1,0.2,0.1c0.1,0,0.2,0,0.3,0
			c0.1,0,0.2,0,0.3-0.1c0.1,0,0.2-0.1,0.3-0.2l0.2,0.2c-0.2,0.2-0.4,0.3-0.6,0.3c-0.2,0-0.4,0-0.7,0c-0.2-0.1-0.4-0.2-0.5-0.4
			c-0.1-0.2-0.2-0.4-0.2-0.6c0-0.1,0-0.3,0.1-0.4c0.1-0.1,0.1-0.3,0.2-0.4c0.1-0.1,0.2-0.2,0.4-0.2c0.1-0.1,0.3-0.1,0.4-0.1
			c0.1,0,0.3,0,0.4,0.1c0.1,0.1,0.3,0.1,0.3,0.2c0.1,0.1,0.2,0.2,0.2,0.4s0.1,0.3,0.1,0.4C155.3,129.4,155.3,129.4,155.3,129.5z
			 M153.6,129.2h1.4c0-0.2-0.1-0.4-0.2-0.5c-0.1-0.1-0.3-0.2-0.5-0.2s-0.4,0.1-0.5,0.2C153.6,128.8,153.6,129,153.6,129.2z"/>
		<path class="st7" d="M155.6,129.3c0-0.1,0-0.3,0.1-0.4c0.1-0.1,0.1-0.3,0.2-0.4c0.1-0.1,0.2-0.2,0.4-0.2c0.1-0.1,0.3-0.1,0.4-0.1
			c0.2,0,0.3,0,0.5,0.1c0.2,0.1,0.3,0.2,0.4,0.3l-0.3,0.2c-0.1-0.1-0.1-0.2-0.2-0.2c-0.1-0.1-0.2-0.1-0.3-0.1
			c-0.2,0-0.4,0.1-0.5,0.2c-0.1,0.1-0.2,0.3-0.2,0.5s0.1,0.4,0.2,0.5c0.1,0.1,0.3,0.2,0.5,0.2c0.1,0,0.2,0,0.3-0.1
			c0.1-0.1,0.2-0.1,0.3-0.2l0.3,0.2c-0.1,0.1-0.2,0.3-0.4,0.3c-0.2,0.1-0.3,0.1-0.5,0.1c-0.1,0-0.3,0-0.4-0.1
			c-0.1-0.1-0.3-0.1-0.4-0.2c-0.1-0.1-0.2-0.2-0.2-0.4S155.6,129.5,155.6,129.3z"/>
		<path class="st7" d="M159.3,130.3c-0.1,0.1-0.3,0.1-0.5,0.1c-0.1,0-0.2,0-0.3,0c-0.1,0-0.2-0.1-0.2-0.1c-0.1-0.1-0.1-0.2-0.1-0.2
			c0-0.1,0-0.2,0-0.3v-1.2h-0.4v-0.3h0.4v-0.5h0.4v0.5h0.6v0.3h-0.6v1.2c0,0,0,0.1,0,0.1c0,0,0,0.1,0.1,0.1c0,0,0.1,0.1,0.1,0.1
			c0,0,0.1,0,0.1,0c0.1,0,0.2,0,0.3-0.1L159.3,130.3z"/>
		<path class="st7" d="M159.7,127.6C159.7,127.6,159.7,127.5,159.7,127.6c0-0.1,0.1-0.2,0.1-0.2c0,0,0.1,0,0.1-0.1c0,0,0.1,0,0.1,0
			c0,0,0.1,0,0.1,0c0,0,0.1,0,0.1,0.1c0,0,0,0.1,0.1,0.1c0,0,0,0.1,0,0.1c0,0.1,0,0.1-0.1,0.2c0,0-0.1,0.1-0.2,0.1s-0.1,0-0.2-0.1
			C159.8,127.7,159.7,127.7,159.7,127.6L159.7,127.6z M159.8,128.3h0.4v2.1h-0.4V128.3z"/>
		<path class="st7" d="M162.8,128.3l-0.9,2.1h-0.4l-0.9-2.1h0.4l0.7,1.7l0.7-1.7H162.8z"/>
		<path class="st7" d="M165,129.5h-1.7c0,0.1,0,0.2,0.1,0.3c0,0.1,0.1,0.2,0.2,0.2c0.1,0.1,0.2,0.1,0.2,0.1c0.1,0,0.2,0,0.3,0
			c0.1,0,0.2,0,0.3-0.1c0.1,0,0.2-0.1,0.3-0.2l0.2,0.2c-0.1,0.1-0.2,0.2-0.4,0.3c-0.1,0.1-0.3,0.1-0.5,0.1c-0.1,0-0.3,0-0.4-0.1
			c-0.1,0-0.3-0.1-0.4-0.2c-0.1-0.1-0.2-0.2-0.2-0.4c-0.1-0.1-0.1-0.3-0.1-0.4c0-0.1,0-0.3,0.1-0.4c0.1-0.1,0.1-0.3,0.2-0.4
			c0.1-0.1,0.2-0.2,0.4-0.2s0.3-0.1,0.4-0.1c0.1,0,0.3,0,0.4,0.1c0.1,0.1,0.3,0.1,0.3,0.2c0.1,0.1,0.2,0.2,0.2,0.4
			c0,0.1,0.1,0.3,0.1,0.4C165,129.4,165,129.4,165,129.5z M163.3,129.2h1.4c0-0.2-0.1-0.4-0.2-0.5c-0.1-0.1-0.3-0.2-0.5-0.2
			c-0.2,0-0.4,0.1-0.5,0.2C163.4,128.8,163.3,129,163.3,129.2z"/>
		<path class="st11" d="M159.2,64.2c0-0.8-0.2-1.6-0.5-2.3c-0.3-0.7-0.9-1.3-1.5-1.8c-0.6-0.5-1.4-0.8-2.1-1
			c-0.8-0.2-1.6-0.1-2.3,0.1c-0.8,0.2-1.5,0.6-2.1,1.1c-0.6,0.5-1.1,1.2-1.4,1.9c-0.3,0.7-0.4,1.5-0.4,2.3c0.1,0.8,0.3,1.6,0.7,2.2
			c0.2,0.3,0.4,0.6,0.7,0.9l3,4c0.1,0.1,0.2,0.2,0.3,0.3c0.1,0.1,0.3,0.1,0.4,0.1c0.1,0,0.3,0,0.4-0.1c0.1-0.1,0.2-0.2,0.3-0.3
			l2.9-3.9c0.3-0.3,0.5-0.6,0.7-1C158.9,66,159.2,65.1,159.2,64.2z M154,66.4c-0.4,0-0.9-0.1-1.3-0.4c-0.4-0.2-0.7-0.6-0.8-1
			c-0.2-0.4-0.2-0.9-0.1-1.3c0.1-0.4,0.3-0.8,0.6-1.2c0.3-0.3,0.7-0.5,1.2-0.6c0.4-0.1,0.9,0,1.3,0.1c0.4,0.2,0.8,0.5,1,0.8
			c0.2,0.4,0.4,0.8,0.4,1.3c0,0.6-0.2,1.2-0.7,1.6C155.2,66.2,154.6,66.4,154,66.4z"/>
		<path class="st6" d="M128.4,268.2v6.7h-1.5v-5.4h-1.3v-1.2H128.4z"/>
		<path class="st6" d="M131.3,274c0,0.3-0.1,0.7-0.3,0.9l-0.6,1.4h-0.9l0.4-1.5c-0.2-0.1-0.3-0.2-0.4-0.3c-0.1-0.1-0.1-0.3-0.1-0.5
			c0-0.2,0.1-0.5,0.3-0.7c0.2-0.2,0.4-0.3,0.7-0.3c0.2,0,0.5,0.1,0.7,0.3C131.2,273.5,131.3,273.8,131.3,274z"/>
		<path class="st6" d="M134.5,268.2v6.7h-1.6v-5.4h-1.3v-1.2H134.5z"/>
		<path class="st6" d="M135.6,271.5c0-2.2,1.2-3.4,2.9-3.4c1.6,0,2.9,1.3,2.9,3.4c0,2.2-1.2,3.4-2.9,3.4
			C136.8,275,135.6,273.7,135.6,271.5z M139.8,271.5c0-1.5-0.5-2.1-1.3-2.1c-0.8,0-1.3,0.6-1.3,2.1c0,1.5,0.5,2.1,1.3,2.1
			S139.8,273,139.8,271.5z"/>
		<path class="st6" d="M142.1,271.5c0-2.2,1.2-3.4,2.9-3.4c1.6,0,2.9,1.3,2.9,3.4c0,2.2-1.2,3.4-2.9,3.4
			C143.3,275,142.1,273.7,142.1,271.5z M146.3,271.5c0-1.5-0.5-2.1-1.3-2.1c-0.8,0-1.3,0.6-1.3,2.1c0,1.5,0.5,2.1,1.3,2.1
			S146.3,273,146.3,271.5z"/>
		<path class="st6" d="M160.3,271.9v2.9h-1.5v-2.7c0-0.8-0.4-1.2-1-1.2c-0.6,0-1.1,0.4-1.1,1.4v2.6h-1.5v-2.7c0-0.8-0.4-1.2-1-1.2
			c-0.6,0-1.1,0.4-1.1,1.4v2.6h-1.5v-5.2h1.4v0.6c0.2-0.2,0.5-0.4,0.7-0.5c0.3-0.1,0.6-0.2,0.9-0.2c0.3,0,0.7,0.1,1,0.2
			c0.3,0.1,0.5,0.4,0.7,0.6c0.2-0.3,0.5-0.5,0.8-0.6c0.3-0.1,0.7-0.2,1-0.2C159.4,269.6,160.3,270.4,160.3,271.9z"/>
		<path class="st11" d="M121.4,273.7c0.7-3.1-1.2-6.2-4.3-6.9c-3.1-0.7-6.2,1.2-6.9,4.3c-0.7,3.1,1.2,6.2,4.3,6.9
			C117.6,278.7,120.7,276.8,121.4,273.7z"/>
		<path class="st3" d="M113.5,273.5c0.5-0.1,1-0.1,1.5-0.1c0.9,0,2.3,0,3.9-0.1l-0.1,0.3c-0.5-0.5-0.9-1.1-1.5-1.7l-0.1-0.1l0.1-0.1
			l1.5-1.8l0.1,0.3h-0.7h-4.7l0.2-0.2c0,1.7,0,3.2-0.1,4.3c0,0.5,0,1.1-0.1,1.6c-0.1-0.5-0.1-1.1-0.1-1.6c0-1,0-2.5-0.1-4.3v-0.2
			h0.2h4.7h1l-0.2,0.3l-1.5,1.8v-0.2l1.4,1.7l0.2,0.3h-0.3c-1.6,0-3,0-3.9-0.1C114.4,273.6,113.9,273.5,113.5,273.5z"/>
		<path class="st11" d="M208.9,262.6h-17.4c-0.9,0-1.7,0.4-2.4,1c-0.6,0.6-1,1.5-1,2.4v13.7c0,0.9,0.4,1.7,1,2.4
			c0.6,0.6,1.5,1,2.4,1h0.4v3.3l3.8-3.3h13.2c0.9,0,1.7-0.4,2.4-1c0.6-0.6,1-1.5,1-2.4v-13.7c0-0.9-0.4-1.7-1-2.4
			C210.7,262.9,209.8,262.6,208.9,262.6z"/>
		<path class="st3" d="M193.2,268.9v7c0,0.1,0,0.1,0.1,0.2c0.1,0.1,0.1,0.1,0.2,0.1h14.7c0,0,0.1,0,0.1,0c0,0,0.1,0,0.1-0.1
			c0,0,0-0.1,0.1-0.1c0,0,0-0.1,0-0.1l0-2.6c0-0.1,0-0.1,0-0.2l-2.1-2.8c0,0-0.1-0.1-0.1-0.1c0,0-0.1,0-0.1,0h-2.4
			c-0.1,0-0.1,0-0.2-0.1c-0.1,0-0.1-0.1-0.1-0.2v-1.1c0,0,0-0.1,0-0.1c0,0,0-0.1-0.1-0.1c0,0-0.1,0-0.1-0.1c0,0-0.1,0-0.1,0h-9.6
			c-0.1,0-0.1,0-0.2,0.1C193.2,268.7,193.2,268.8,193.2,268.9z"/>
		<path class="st11" d="M204,270.8v2.3c0,0,0,0.1,0,0.1c0,0,0.1,0,0.1,0l3.3-0.1c0,0,0.1,0,0.1,0c0,0,0,0,0.1-0.1s0-0.1,0-0.1
			s0-0.1,0-0.1l-1.5-2.3c0,0,0,0-0.1-0.1c0,0,0,0-0.1,0l-1.7,0c0,0-0.1,0-0.1,0.1C204,270.7,204,270.8,204,270.8z"/>
		<path class="st3" d="M208.8,276.4h-15.9v0.5h15.9V276.4z"/>
		<path class="st11" d="M198.1,276.6c0,0.3-0.1,0.6-0.3,0.9c-0.2,0.3-0.4,0.5-0.7,0.6c-0.3,0.1-0.6,0.2-0.9,0.1s-0.6-0.2-0.8-0.4
			c-0.2-0.2-0.4-0.5-0.4-0.8c-0.1-0.3,0-0.6,0.1-0.9c0.1-0.3,0.3-0.5,0.6-0.7c0.3-0.2,0.6-0.3,0.9-0.3c0.4,0,0.8,0.2,1.1,0.5
			C198,275.8,198.1,276.2,198.1,276.6z"/>
		<path class="st3" d="M197.5,276.6c0,0.2-0.1,0.4-0.2,0.5c-0.1,0.2-0.2,0.3-0.4,0.3c-0.2,0.1-0.4,0.1-0.5,0.1
			c-0.2,0-0.3-0.1-0.5-0.3c-0.1-0.1-0.2-0.3-0.3-0.5c0-0.2,0-0.4,0.1-0.5s0.2-0.3,0.3-0.4c0.2-0.1,0.3-0.2,0.5-0.2
			c0.2,0,0.5,0.1,0.7,0.3S197.5,276.3,197.5,276.6z"/>
		<path class="st11" d="M203.3,276.2c0,0-0.1-1.7-0.1-3.8c0-2.1,0-3.8,0.1-3.8c0.1,0,0.1,1.7,0.1,3.8
			C203.4,274.5,203.4,276.2,203.3,276.2z"/>
		<path class="st11" d="M206.7,276.6c0,0.3-0.1,0.6-0.3,0.9c-0.2,0.3-0.4,0.5-0.7,0.6c-0.3,0.1-0.6,0.2-0.9,0.1
			c-0.3-0.1-0.6-0.2-0.8-0.4c-0.2-0.2-0.4-0.5-0.4-0.8c-0.1-0.3,0-0.6,0.1-0.9c0.1-0.3,0.3-0.5,0.6-0.7c0.3-0.2,0.6-0.3,0.9-0.3
			c0.4,0,0.8,0.2,1.1,0.5C206.6,275.8,206.7,276.2,206.7,276.6z"/>
		<path class="st3" d="M206,276.6c0,0.2-0.1,0.4-0.2,0.5c-0.1,0.2-0.2,0.3-0.4,0.3c-0.2,0.1-0.4,0.1-0.5,0.1c-0.2,0-0.3-0.1-0.5-0.3
			c-0.1-0.1-0.2-0.3-0.3-0.5c0-0.2,0-0.4,0.1-0.5c0.1-0.2,0.2-0.3,0.3-0.4c0.2-0.1,0.3-0.2,0.5-0.2c0.2,0,0.5,0.1,0.7,0.3
			C205.9,276.1,206,276.3,206,276.6z"/>
		<path class="st11" d="M205.1,273.7c0,0-0.2,0.1-0.5,0.1c-0.3,0-0.5,0-0.5-0.1s0.2-0.1,0.5-0.1
			C204.9,273.6,205.1,273.6,205.1,273.7z"/>
		<path class="st14" d="M369.3,158.1c0,0,11.1,1.9,12,2.1c0.9,0.2,4.4,1.9,4.6,3c0.1,1.4,0.1,2.8,0,4.2c0,0-0.6,0.5-1-0.5
			c-0.3-1-0.4-2-0.3-3.1l-2-0.8l1.1,1.9l0.2,4.5c0,0-1.4-0.1-1.6-1.2c-0.2-0.7-0.3-1.5-0.3-2.3l-1.4-1.2l1.1,1.5l0.4,3.2
			c0,0-1,0.3-1.4-0.4c-0.2-0.9-0.4-1.9-0.4-2.8l-4-1.4l-2.7,1.5l-5-2.8L369.3,158.1z"/>
		<path class="st15" d="M330.5,130.7c0.1,0.2,13.4,18.6,13.4,18.6l26.8,8.3l-1.2,10.1l-32.8-6.6l-11.6-13.4L330.5,130.7z"/>
		<g class="st16">
			<path class="st17" d="M330.5,130.7c0.1,0.2,13.4,18.6,13.4,18.6l26.8,8.3l-1.2,10.1l-32.8-6.6l-11.6-13.4L330.5,130.7z"/>
		</g>
		<path class="st1" d="M283.8,155.9h-54.7c-1.2,0-2.1,0.9-2.1,2.1v6.5c0,1.2,0.9,2.1,2.1,2.1h54.7c1.2,0,2.1-0.9,2.1-2.1V158
			C285.9,156.9,285,155.9,283.8,155.9z"/>
		<path class="st6" d="M283.8,166.6c0,0,0.1,0,0.3,0c0.4-0.1,0.8-0.3,1.1-0.6c0.3-0.3,0.5-0.7,0.5-1.2c0-0.6,0-1.4,0-2.3
			s0-1.8,0-2.9c0-0.5,0-1.1,0-1.6c0-0.3-0.1-0.6-0.2-0.8c-0.1-0.3-0.3-0.5-0.5-0.7c-0.2-0.2-0.5-0.3-0.8-0.4
			c-0.3-0.1-0.6-0.1-0.9-0.1h-2h-4.4l-47.9,0.1c-0.3,0-0.5,0.1-0.8,0.2c-0.2,0.1-0.5,0.3-0.6,0.5c-0.2,0.2-0.3,0.4-0.4,0.7
			c-0.1,0.3-0.1,0.5-0.1,0.8c0,1.2,0,2.3,0,3.4v2.6c0,0.3,0,0.5,0.1,0.8c0.1,0.4,0.3,0.7,0.6,1c0.3,0.3,0.7,0.4,1,0.5
			c0.2,0,0.5,0,0.8,0h12.7l21.5,0l14.5,0.1l3.9,0h1L283.8,166.6l-0.3,0h-1l-3.9,0l-14.5,0.1l-21.5,0h-12.8c-0.3,0-0.5,0-0.9,0
			c-0.3,0-0.6-0.1-0.9-0.3c-0.3-0.1-0.5-0.3-0.7-0.6c-0.2-0.2-0.3-0.5-0.4-0.8c-0.1-0.3-0.1-0.6-0.1-0.9v-2.6c0-1.1,0-2.3,0-3.4
			c0-0.3,0-0.6,0.1-0.9c0.1-0.3,0.3-0.6,0.5-0.8c0.2-0.2,0.5-0.4,0.8-0.6c0.3-0.1,0.6-0.2,0.9-0.2l47.9,0.1h6.4c0.3,0,0.7,0,1,0.1
			c0.3,0.1,0.6,0.2,0.9,0.5c0.2,0.2,0.4,0.5,0.6,0.7c0.1,0.3,0.2,0.6,0.2,0.9c0,0.6,0,1.1,0,1.6c0,1,0,2,0,2.9c0,0.9,0,1.6,0,2.3
			c-0.1,0.6-0.4,1.1-0.8,1.4c-0.3,0.2-0.6,0.3-0.9,0.4C284.1,166.6,284,166.6,283.8,166.6z"/>
		<path class="st6" d="M432.3,303c15.5-0.7,27.5-13.9,26.7-29.5c-0.7-15.5-13.9-27.5-29.4-26.8c-15.5,0.7-27.5,13.9-26.7,29.5
			C403.6,291.7,416.8,303.7,432.3,303z"/>
		<path class="st6" d="M402.8,274.4C402.8,274.4,402.8,274.4,402.8,274.4c-0.1,7.5,2.8,14.7,8,20c5.2,5.3,12.3,8.4,19.7,8.5
			s14.6-2.7,19.9-7.9c5.3-5.2,8.4-12.2,8.6-19.7c0,0,0,0,0-0.1L402.8,274.4z"/>
		<path class="st3" d="M411.2,274.5c-0.1,3.9,1,7.8,3.2,11c2.1,3.3,5.2,5.9,8.8,7.4c3.6,1.5,7.6,2,11.4,1.3
			c3.8-0.7,7.4-2.5,10.2-5.3c2.8-2.7,4.7-6.2,5.6-10c0.8-3.8,0.5-7.8-1-11.4c-1.4-3.6-3.9-6.8-7.1-9c-3.2-2.2-7-3.4-10.9-3.5
			c-5.2-0.1-10.3,1.9-14,5.6C413.4,264.3,411.3,269.3,411.2,274.5z"/>
		<path class="st4" d="M431.2,255.1c-5.2-0.1-10.3,1.9-14,5.6c-3.8,3.7-5.9,8.7-6,13.9l39.5,0.6c0.1-5.2-1.9-10.3-5.6-14.1
			C441.5,257.3,436.5,255.1,431.2,255.1z"/>
		<path class="st6" d="M418.9,274.7c0,2.4,0.6,4.7,1.9,6.7c1.3,2,3.1,3.6,5.3,4.5c2.2,0.9,4.6,1.2,6.9,0.8c2.3-0.4,4.5-1.5,6.2-3.2
			c1.7-1.7,2.9-3.8,3.4-6.1c0.5-2.3,0.3-4.8-0.6-7c-0.9-2.2-2.4-4.1-4.4-5.5c-2-1.4-4.3-2.1-6.7-2.1c-3.2,0-6.3,1.2-8.6,3.4
			C420.3,268.4,419,271.5,418.9,274.7z"/>
		<path class="st11" d="M417.6,233.5c0,0,28.8-8.7,40.7,22.6l-60.3,18.7L417.6,233.5z"/>
		<path class="st6" d="M258.8,303c15.5-0.7,27.5-13.9,26.7-29.5c-0.7-15.5-13.9-27.5-29.4-26.8c-15.5,0.7-27.5,13.9-26.7,29.5
			C230.1,291.7,243.2,303.7,258.8,303z"/>
		<path class="st6" d="M229.3,274.4C229.3,274.4,229.3,274.4,229.3,274.4c-0.1,7.5,2.8,14.7,8,20c5.2,5.3,12.3,8.4,19.7,8.5
			c7.4,0.1,14.6-2.7,19.9-7.9c5.3-5.2,8.4-12.2,8.6-19.7v-0.1L229.3,274.4z"/>
		<path class="st3" d="M237.7,274.5c-0.1,3.9,1,7.8,3.2,11c2.1,3.3,5.2,5.9,8.8,7.4c3.6,1.5,7.6,2,11.4,1.3
			c3.8-0.7,7.4-2.5,10.2-5.3c2.8-2.7,4.7-6.2,5.6-10c0.8-3.8,0.5-7.8-1-11.4c-1.4-3.6-3.9-6.8-7.1-9s-7-3.4-10.9-3.5
			c-5.2-0.1-10.3,1.9-14,5.6C239.9,264.3,237.8,269.3,237.7,274.5z"/>
		<path class="st4" d="M257.7,255.1c-5.2-0.1-10.3,1.9-14,5.6c-3.8,3.7-5.9,8.6-6,13.9l39.5,0.6c0-2.6-0.4-5.2-1.4-7.6
			c-1-2.4-2.4-4.6-4.2-6.5c-1.8-1.9-4-3.4-6.4-4.4C262.8,255.6,260.3,255.1,257.7,255.1z"/>
		<path class="st6" d="M245.4,274.7c0,2.4,0.6,4.7,1.9,6.7c1.3,2,3.1,3.6,5.3,4.5c2.2,0.9,4.6,1.2,6.9,0.8c2.3-0.4,4.5-1.5,6.2-3.2
			c1.7-1.7,2.9-3.8,3.4-6.1c0.5-2.3,0.3-4.8-0.6-7c-0.9-2.2-2.4-4.1-4.4-5.5c-2-1.4-4.3-2.1-6.7-2.1c-3.2,0-6.3,1.2-8.6,3.4
			C246.7,268.4,245.4,271.5,245.4,274.7z"/>
		<path class="st18" d="M297.4,263.5c-0.2,0.1-14.8-2.3-14.8-2.3c-0.8,1-1.8,1.9-3,2.5c-1.2,0.6-2.4,0.9-3.7,1
			c-6.3,0.3-12.5,0.6-17.9,0.8c-2.4,0.1-4.7,1.2-6.3,2.9c-1.6,1.8-2.5,4.1-2.4,6.5c0.1,2.3,1,4.4,2.7,6.1c1.6,1.6,3.8,2.6,6.1,2.7
			l31.2,1.2c5.1,0.2,11.9-2.9,15.1-6.9L297.4,263.5z"/>
		<path class="st11" d="M220.9,251c0,0-1.3-27.4,24.4-33.2v-3.5h90.2v8.4c0,0-13.2,16-8.9,29.2c4.3,13.3,5.7,14.6,5.7,14.6h51.4
			c4.1-5.7,6.3-12.5,6.5-19.5c0.3-11.6-4.6-31.5-8.2-44.3c-3.3-11.6-5.3-21.3-5.3-21.3l15.4-5.1c0,0,28.5,37.4,29.7,39.4
			c1.2,2.1,5.1,7,4.2,17.7c-0.9,10.7-26.6,43.8-33.3,47.6c-6.7,3.7-12.8,4-18.9,4.9c-5.3,0.8-44.1,0.3-54.3,0.1c-3.5,0-7-1-10-2.8
			c-3-1.8-5.3-4.9-7.9-9.9l-5.4-10.5L220.9,251z"/>
		<path class="st18" d="M227.8,249.2L216.4,267c-0.3,0.5-0.5,1.1-0.5,1.7c0,0.6,0.2,1.2,0.6,1.6s0.9,0.8,1.5,0.9
			c0.6,0.1,1.2,0.1,1.7-0.2c1.4-0.6,2.7-1.5,3.8-2.6c5.2-5,14.4-18,14.4-18L227.8,249.2z"/>
		<g class="st12">
			<path class="st19" d="M286.4,222.2c4.9,0.9,9.5,2.8,13.6,5.5c4.1,2.7,7.3,6.7,9.1,11.3c1.8,4.6,1.5,10.8-0.4,14.6l6.4,0.5
				c2.1-7.2-0.2-16-5.3-21.6c-3-3.3-6.6-5.9-10.6-7.7C295.2,223.1,290.8,222.1,286.4,222.2"/>
		</g>
		<path class="st18" d="M284.4,166.1h-55.8c-3.3,0-5.9,2.6-5.9,5.9v36.5c0,3.3,2.6,5.9,5.9,5.9h55.8c3.3,0,5.9-2.6,5.9-5.9V172
			C290.3,168.7,287.7,166.1,284.4,166.1z"/>
		<path class="st18" d="M335.6,214.4c0.9-1.2,1.5-2.6,1.6-4.1c0.1-2.3-0.9-5.1-3.3-5.1h-31.2c-2.4,0-4.8,1-6.5,2.7
			c-1.7,1.7-2.7,4-2.7,6.5H335.6z"/>
		<path class="st11" d="M376.6,181.6l-5.4-11.3c-0.7-1.6-0.8-3.3-0.3-5c0.5-1.6,1.6-3,3.1-3.9l16.2-9.7c0.8-0.5,1.8-0.8,2.8-0.8h3.5
			l1.4,22.9l-5.4,2.1l3.4,5.6L376.6,181.6z"/>
		<path class="st2" d="M396.5,151.8c0,0,5.5,1.3,6.2,9.8c0.7,8.6-4.9,11.2-4.9,11.2L396.5,151.8z"/>
		<path class="st6" d="M378.5,165.9c0,0-11.2,5.3-12.6,6.2c-0.9,0.6-1.8,1.7-1,3.5c1.3,3.2,6.5,0.2,6.5,0.2l10.4-5.2
			c0,0,4-1.9,2.5-4.3C382.8,163.6,378.5,165.9,378.5,165.9z"/>
		<path class="st14" d="M362.7,163.9c0,0,10.5,1.8,11.4,2.1c0.9,0.3,4.4,1.9,4.6,3c0.1,1.4,0.1,2.8,0,4.2c0,0-0.6,0.5-1-0.5
			c-0.3-1-0.4-2-0.3-3.1l-2-0.8l1.1,1.9l0.2,4.5c0,0-1.4-0.1-1.6-1.2c-0.2-0.7-0.3-1.5-0.3-2.3l-1.4-1.2l1.1,1.5l0.4,3.2
			c0,0-1,0.3-1.4-0.4c-0.2-0.9-0.4-1.9-0.4-2.8l-4-1.4l-2.7,1.5l-4.2-2.3L362.7,163.9z"/>
		<path class="st6" d="M379.1,149.2c0,4.3-2,7.7-4.4,7.7c-2.4,0-4.4-3.4-4.4-7.7c0-4.3,2-7.7,4.4-7.7
			C377.1,141.5,379.1,145,379.1,149.2z"/>
		<path class="st6" d="M375.4,154.6l2.4,8.3c0.4-0.2,0.8-0.6,1-1c0.2-0.4,0.2-1,0.1-1.4c-0.6-2.9-0.9-4.9-1.6-7.4
			C377.2,152.8,375.4,154.6,375.4,154.6z"/>
		<g class="st12">
			<path class="st19" d="M327.8,255.6c-0.2-0.7-0.5-1.4-0.7-2.1s-0.5-1.4-0.6-2.1c-0.3-1-0.5-2.1-0.6-3.1
				c-4.1,16.5,2.1,28.2,12.8,29c15.5,1.2,34.5,2.1,42.2,0.1c14-3.7,19.1-15.3,20.3-17.3c1.2-1.9,12.3-22.3,5.5-41.8
				c-6.8-19.6-18.7-40.4-18.7-40.4l-11.3,3.8c0,0,2.1,9.6,5.3,21.2c3.6,12.7,8.4,32.6,8.2,44.3c-0.2,7-2.4,13.8-6.5,19.5h-51.4
				C332.3,266.6,331.2,265.5,327.8,255.6"/>
		</g>
		<path class="st11" d="M218.8,246.8l0.4-3.9l93.8,10.8c1.3,0.1,2.5,0.5,3.6,1.2c1.1,0.6,2,1.5,2.8,2.5c0.8,1,1.3,2.2,1.6,3.4
			c0.3,1.2,0.3,2.5,0.1,3.7l-0.4,2.4l-97-14.1c-1.4-0.2-2.7-0.9-3.6-2C219.1,249.6,218.7,248.2,218.8,246.8z"/>
		<g class="st9">
			<path class="st20" d="M218.8,246.8l0.4-3.9l93.8,10.8c1.3,0.1,2.5,0.5,3.6,1.2c1.1,0.6,2,1.5,2.8,2.5c0.8,1,1.3,2.2,1.6,3.4
				c0.3,1.2,0.3,2.5,0.1,3.7l-0.4,2.4l-97-14.1c-1.4-0.2-2.7-0.9-3.6-2C219.1,249.6,218.7,248.2,218.8,246.8z"/>
		</g>
		<g class="st21">
			<path class="st22" d="M401.1,273c0,0,20.6-22.7,24.9-40.6c2.1,0,4.3,0.1,6.4,0.5C432.4,232.9,420.2,266.1,401.1,273z"/>
		</g>
		<path class="st6" d="M296.1,214.4c0,0.1-11.4,0.2-25.5,0.2s-25.5-0.1-25.5-0.2c0-0.1,11.4-0.2,25.5-0.2S296.1,214.3,296.1,214.4z"
			/>
		<path class="st18" d="M236.4,294c-0.1-0.1-0.2-0.2-0.3-0.3c-0.2-0.2-0.5-0.5-0.8-0.9c-1-1.2-1.8-2.4-2.5-3.7
			c-2.5-4.4-3.8-9.3-3.8-14.3c0-5,1.4-9.9,3.9-14.3c0.7-1.3,1.6-2.6,2.6-3.7c0.3-0.4,0.6-0.7,0.8-0.9c0.2-0.2,0.3-0.3,0.3-0.3
			c-0.1,0.1-0.2,0.2-0.2,0.3c-0.2,0.2-0.4,0.5-0.8,1c-3.5,4.5-5.7,9.9-6.1,15.6c-0.5,5.7,0.8,11.4,3.5,16.4c0.7,1.3,1.5,2.6,2.4,3.8
			c0.3,0.4,0.6,0.7,0.7,1C236.3,293.8,236.4,293.9,236.4,294z"/>
		<path class="st18" d="M334.9,241.5l-0.2,0.4l-4.2,7.8l-5.8,5.6l11.6,15.5l9.7-1.6c0,0-1.1-2.2-5.9-2.6l-1.8-9.2l6.8-10.6"/>
		<path class="st4" d="M324.8,255.3l11.6,15.5l9.7-1.6l-1.3-1.3l-7.9,0.9L326,254.1L324.8,255.3z"/>
		<path class="st6" d="M340.6,254.3c-0.1,0.1-0.5-0.4-1.1-0.7c-0.7-0.3-1.3-0.2-1.3-0.4c0-0.1,0.7-0.4,1.5,0
			C340.4,253.6,340.7,254.2,340.6,254.3z"/>
		<path class="st6" d="M341.5,252.1c0,0-0.4-0.3-1-0.9l-1-1c-0.2-0.2-0.4-0.4-0.6-0.7c0-0.1-0.1-0.2-0.1-0.3c0-0.1,0-0.2,0-0.3
			c0-0.1,0.1-0.2,0.2-0.3c0.1-0.1,0.2-0.1,0.3-0.1c0.4,0,0.7,0.1,1,0.3c0.3,0.2,0.5,0.4,0.7,0.6c0.3,0.4,0.6,0.8,0.7,1.3
			c0.2,0.4,0.2,0.9,0,1.4c-0.1-0.4-0.2-0.8-0.3-1.3c-0.2-0.4-0.4-0.8-0.7-1.1c-0.2-0.2-0.4-0.3-0.6-0.5c-0.2-0.1-0.5-0.2-0.7-0.3
			c0,0-0.1,0-0.1,0c0,0-0.1,0-0.1,0.1c0,0.1,0,0.2,0,0.3c0.1,0.2,0.3,0.4,0.5,0.6l0.9,1.1C341,251.3,341.3,251.7,341.5,252.1z"/>
		<path class="st6" d="M341.9,252.3c0,0-0.1-0.5,0.3-1.2c0.3-0.4,0.7-0.8,1.2-1c0.5-0.2,1-0.2,1.5,0c0.1,0,0.1,0.1,0.1,0.1
			c0,0.1,0.1,0.1,0.1,0.2c0,0.1,0,0.2-0.1,0.3c-0.1,0.1-0.2,0.3-0.3,0.4c-0.2,0.2-0.4,0.4-0.6,0.5c-0.4,0.2-0.8,0.4-1.2,0.6
			c-0.4,0.2-0.8,0.2-1.2,0.1c0-0.1,0.4-0.1,1.1-0.4c0.4-0.2,0.7-0.4,1.1-0.6c0.2-0.1,0.4-0.3,0.6-0.5c0.1-0.1,0.2-0.2,0.2-0.3
			c0-0.1,0-0.1,0-0.1c-0.1,0-0.2-0.1-0.3-0.1c-0.1,0-0.2,0-0.4,0c-0.2,0-0.5,0.1-0.7,0.2c-0.4,0.1-0.7,0.4-1,0.7
			C342.2,251.6,342,252,341.9,252.3z"/>
		<path class="st18" d="M370.1,248.9l3.1,20.2l25.1-3.7c-0.5-2.4-14.2-5.3-14.2-5.3l-1.5-13L370.1,248.9z"/>
		<path class="st4" d="M373.2,269.1L373,267l24.1-2.8c0,0,1.2,0.3,1.2,1.1L373.2,269.1z"/>
		<path class="st6" d="M383.9,257c0,0.1-0.6,0-1.3,0.2c-0.7,0.1-1.2,0.5-1.3,0.4c-0.1-0.1,0.4-0.6,1.2-0.8
			C383.3,256.6,383.9,256.9,383.9,257z"/>
		<path class="st6" d="M382.8,254.1c-0.4,0.2-0.8,0.2-1.3,0.2c-0.5,0-0.9-0.1-1.4-0.2c-0.3-0.1-0.5-0.2-0.8-0.3
			c-0.2-0.1-0.3-0.1-0.4-0.2c-0.1-0.1-0.2-0.2-0.2-0.3c0-0.1,0-0.2,0-0.3c0-0.1,0.1-0.2,0.2-0.2c0.1-0.1,0.2-0.1,0.3-0.1
			c0.2,0,0.3,0,0.5,0c0.3,0,0.6,0.1,0.8,0.2c0.5,0.1,0.9,0.3,1.3,0.6c0.7,0.5,0.9,0.9,0.9,0.9c0,0-0.4-0.3-1-0.7
			c-0.4-0.2-0.8-0.4-1.2-0.5c-0.2-0.1-0.5-0.1-0.8-0.1c-0.3,0-0.5,0-0.6,0.1c0,0.1,0,0.1,0,0.1c0.1,0.1,0.2,0.1,0.3,0.2
			c0.2,0.1,0.5,0.2,0.7,0.3c0.4,0.1,0.8,0.2,1.3,0.3C382,254,382.4,254,382.8,254.1z"/>
		<path class="st6" d="M382.7,254.3c0,0-0.4-0.4-0.5-1.2c-0.1-0.5-0.1-0.9,0-1.4c0-0.3,0.1-0.5,0.2-0.8c0-0.2,0.1-0.3,0.2-0.5
			c0.1-0.1,0.3-0.2,0.4-0.3c0.1,0,0.2,0,0.3,0.1c0.1,0,0.2,0.1,0.2,0.2c0.1,0.1,0.2,0.3,0.2,0.4c0.1,0.3,0.1,0.6,0.1,0.8
			c0,0.5-0.1,1-0.3,1.4c-0.4,0.7-0.9,0.9-0.9,0.9c0,0,0.3-0.4,0.6-1c0.2-0.4,0.2-0.8,0.2-1.2c0-0.2-0.1-0.5-0.1-0.7
			c-0.1-0.3-0.2-0.5-0.3-0.4c-0.1,0-0.3,0.2-0.4,0.5c-0.1,0.2-0.2,0.5-0.2,0.7c-0.1,0.4-0.1,0.9-0.1,1.3
			C382.6,253.8,382.8,254.3,382.7,254.3z"/>
		<path class="st6" d="M350.4,201.5l-21.5,46.9l14.2,8.5l29.7-56.5"/>
		<path class="st6" d="M385.9,258.1l-15.4,2.5l-9.2-55.2l-45.6,3.3c-1.2,0.1-2.4,0-3.6-0.3c-12.8-3.5-11.1-19.9-9.8-22.5l63.2-1.8
			c3.3-0.1,6.5,1,9.1,3.2c2.5,2.1,4.2,5.1,4.6,8.4L385.9,258.1z"/>
		<path class="st15" d="M301.5,188.4l0.2-23.3c0,0-3-15.2-3.9-21.1c-1.4-9.3-3.3-13.7,11.9-20.2l3.3-1.3l5.1,0.1
			c6.1,0.5,12.5,6,12.7,9.6l5.9,52.6L301.5,188.4z"/>
		<path class="st15" d="M302.4,129.1c0,0-4.3,9.2-3.4,17.6l15.9,15.3c3.6,4,8,5.7,13.8,6l33,3.6l0.9-8.6l-31.4-8.9
			c-1.3-0.2-1.9-1.5-2.8-2.4L302.4,129.1z"/>
		<path class="st14" d="M308.1,102.2l1.6,22.7c0.1,1.8,0.9,3.5,2.2,4.7s3,1.9,4.8,1.9c1,0,1.9-0.2,2.8-0.6c0.9-0.4,1.7-0.9,2.3-1.7
			c0.7-0.7,1.2-1.5,1.5-2.5c0.3-0.9,0.5-1.9,0.4-2.8c-0.1-2.2-0.3-3.9-0.3-3.9s5.5-0.9,5.6-6.4c0-3.2-0.5-10.4-1-15.9
			c-0.2-1.8-1-3.5-2.3-4.7c-1.3-1.2-3.1-1.9-4.9-1.9h-3.3c-1.4,0.1-2.7,0.4-3.9,1c-1.2,0.6-2.3,1.4-3.2,2.5c-0.9,1-1.6,2.2-2,3.5
			C308.1,99.5,308,100.8,308.1,102.2z"/>
		<path class="st23" d="M323.5,119.9c-2.5,0-5-0.7-7.2-2c0,0,1.7,4,7.2,3.4L323.5,119.9z"/>
		<path class="st14" d="M309.9,106.3c-0.1,0-3.8-1.1-3.7,2.6c0.1,3.8,3.9,2.9,3.9,2.8C310.2,111.6,309.9,106.3,309.9,106.3z"/>
		<path class="st23" d="M309,110.3c0,0-0.1,0-0.2,0.1c-0.2,0.1-0.3,0.1-0.5,0c-0.2-0.1-0.4-0.4-0.6-0.6c-0.1-0.3-0.2-0.5-0.2-0.8
			c0-0.3,0-0.6,0.2-0.9c0-0.1,0.1-0.2,0.2-0.3c0.1-0.1,0.2-0.2,0.3-0.2c0.1,0,0.2,0,0.2,0c0.1,0,0.1,0.1,0.2,0.2
			c0.1,0.1,0,0.2,0.1,0.2c0,0,0.1-0.1,0-0.2c0-0.1-0.1-0.2-0.2-0.2c-0.1,0-0.1-0.1-0.2-0.1c-0.1,0-0.1,0-0.2,0
			c-0.2,0-0.3,0.1-0.4,0.2c-0.1,0.1-0.2,0.2-0.3,0.4c-0.2,0.3-0.2,0.7-0.2,1.1c0,0.3,0.1,0.7,0.3,0.9c0.2,0.3,0.4,0.5,0.7,0.6
			c0.1,0,0.2,0,0.3,0c0.1,0,0.2-0.1,0.3-0.1C309,110.4,309,110.3,309,110.3z"/>
		<path class="st6" d="M307.8,106.2c0.4,0,0.7,0.1,1,0.2c0.3,0.2,0.6,0.4,0.8,0.7c0.2,0.5,0.3,1.1,0.5,1.7c0.1,0.3,0.3,0.5,0.5,0.7
			c0.2,0.2,0.5,0.2,0.8,0.2c0.2-0.1,0.4-0.2,0.5-0.3c0.1-0.2,0.2-0.3,0.3-0.5c0.1-0.4,0.1-0.8,0-1.2c-0.2-1.8-0.6-3.5-0.7-5.3
			c-0.1-1.8,0.2-3.6,1.1-5.1c0.4-0.8,1.1-1.4,1.9-1.8c0.8-0.4,1.6-0.7,2.5-0.6c1.2,0.1,2.2,0.7,3.4,0.9c0.7,0.1,1.4,0,2.1-0.2
			c0.7-0.2,1.3-0.6,1.8-1.1c0.2-0.2,0.4-0.4,0.7-0.5c0-0.4-0.2-0.8-0.4-1.2c-2.3-2.1-6.4-2.8-9.5-2c-1.5,0.4-3,1.1-4.2,2.1
			c-1.2,1-2.3,2.2-3,3.7C306.7,99.3,307.1,103.3,307.8,106.2"/>
		<path class="st11" d="M328.2,96.9c0,0-14.4-4.6-20.6,7.8c-0.5-1.6-0.8-3.2-0.9-4.8c0-1.1,0.7-7.8,7.5-9.9
			C314.1,90.1,324.4,86.1,328.2,96.9z"/>
		<path class="st6" d="M315.8,97.2c0.3,0.4,0.6,0.8,1,1c0.4,0.3,0.9,0.4,1.4,0.5c0.5,0,1,0,1.4-0.2c0.5-0.2,0.9-0.5,1.2-0.8
			c0.1,0.4,0.4,0.7,0.7,0.9c0.3,0.2,0.7,0.3,1.1,0.3c0.4,0,0.8-0.2,1.1-0.4c0.3-0.2,0.5-0.6,0.6-0.9c0.4,0.4,0.9,0.8,1.4,1
			c0.3,0.1,0.6,0.1,0.9,0.1c0.3-0.1,0.5-0.2,0.7-0.4c0.2-0.2,0.2-0.5,0.2-0.8c0-0.3-0.1-0.6-0.3-0.8c-0.4-0.5-0.9-0.8-1.5-1
			c-1.7-0.8-3.6-1-5.4-0.8c-1.9,0.2-3.6,1.2-4.8,2.6"/>
		<g class="st12">
			<path class="st19" d="M328.2,96.9c-1.2-1.3-2.8-2-4.6-2.1c-4.3-0.2-12.2,2.2-16.1,9.9c-0.5-1.6-0.8-3.2-0.9-4.8
				c0-1.1,0.7-7.8,7.5-9.9C314.1,90.1,324.4,86.1,328.2,96.9z"/>
		</g>
		<path class="st11" d="M308.1,103.3c2.2-3.3,5-6,8.4-8c3.3-2.1,8.8-4.1,12.6-5.1c1.1-0.4,2.3-0.5,3.5-0.4c0.6,0.1,1.1,0.3,1.6,0.7
			s0.8,0.9,1,1.4c0.4,1.4-2.2,3.6-3.4,4.5c-1.2,0.8-2.4,1.5-3.6,2.1c0,0,0-2.6-4.2-3.2C318.3,94.5,308.1,103.3,308.1,103.3z"/>
		<g class="st21">
			<path class="st22" d="M303.1,150.1c1.5,3.6,3,8,5.1,11.2c2.2,3.2,5,6.1,8.6,7.6c4.5,1.9,9.8,2.2,14.3,0.3c0.4-0.2,1.1-0.4,1-0.8
				c0,0-1.5-0.2-1.9-0.2c-9-1.5-10-2.6-14.3-6C313.1,160.1,307.2,153.6,303.1,150.1z"/>
		</g>
	</g>
</g>
</svg>
