<?xml version="1.0" encoding="utf-8"?>
<!-- Generator: Adobe Illustrator 26.0.2, SVG Export Plug-In . SVG Version: 6.00 Build 0)  -->
<svg version="1.1" id="Capa_1" xmlns="http://www.w3.org/2000/svg" xmlns:xlink="http://www.w3.org/1999/xlink" x="0px" y="0px"
	 viewBox="0 0 492 316" style="enable-background:new 0 0 492 316;" xml:space="preserve">
<style type="text/css">
	.st0{clip-path:url(#SVGID_00000128449751656199824710000001230726251679556526_);}
	.st1{fill:#F5F5F5;}
	.st2{fill:#7BD68A;}
	.st3{opacity:0.15;}
	.st4{opacity:0.15;fill:#7BD68A;enable-background:new    ;}
	.st5{fill:#37474F;}
	.st6{fill:#263238;}
	.st7{fill:#455A64;}
	.st8{fill:#FAFAFA;}
	.st9{fill:#6093CB;}
	.st10{fill:#EBEBEB;}
	.st11{fill:#27DEBF;}
	.st12{fill:#E6E6E6;}
	.st13{opacity:0.5;fill:#455A64;enable-background:new    ;}
	.st14{fill:none;stroke:#E0E0E0;stroke-width:0.75;stroke-miterlimit:10;}
	.st15{opacity:0.5;}
	.st16{opacity:0.15;enable-background:new    ;}
	.st17{opacity:0.4;fill:#FFFFFF;enable-background:new    ;}
	.st18{fill:#FFFFFF;}
	.st19{fill:#FFA8A7;}
	.st20{fill:#F0F0F0;}
	.st21{opacity:0.4;enable-background:new    ;}
	.st22{fill:#F28F8F;}
	.st23{fill:#4F78A6;}
	.st24{opacity:0.1;enable-background:new    ;}
</style>
<g>
	<defs>
		<rect id="SVGID_1_" x="76" y="10.1" width="339.9" height="295.8"/>
	</defs>
	<clipPath id="SVGID_00000137819086188038930370000013919180977594943403_">
		<use xlink:href="#SVGID_1_"  style="overflow:visible;"/>
	</clipPath>
	<g style="clip-path:url(#SVGID_00000137819086188038930370000013919180977594943403_);">
		<path class="st1" d="M259.6,305.9c86.4,0,156.4-39.9,156.4-89.1s-70-89.1-156.4-89.1c-86.4,0-156.4,39.9-156.4,89.1
			S173.2,305.9,259.6,305.9z"/>
		<path class="st2" d="M111.9,166.5c-0.4-5.4-1.7-10.7-3.7-15.8c-3.3-8.1-9.6-16.3-16.9-17.9c-7.3-1.5-10.3,3.4-8.8,8.2
			c1.3,4.1,6.7,7.6,10.8,11.2s11.8,12.4,13.9,20.8l4.1,0.5L111.9,166.5z"/>
		<g class="st3">
			<path class="st4" d="M111.9,166.5c-0.4-5.4-1.7-10.7-3.7-15.8c-3.3-8.1-9.6-16.3-16.9-17.9c-7.3-1.5-10.3,3.4-8.8,8.2
				c1.3,4.1,6.7,7.6,10.8,11.2s11.8,12.4,13.9,20.8l4.1,0.5L111.9,166.5z"/>
		</g>
		<path class="st2" d="M109.1,170.3c-0.1,0-0.2,0-0.3-0.1c-0.1-0.1-0.1-0.2-0.1-0.3c-0.8-21.2-21.5-33.1-21.7-33.2
			c-0.1-0.1-0.2-0.2-0.2-0.3c0-0.1,0-0.2,0-0.3c0.1-0.1,0.2-0.2,0.3-0.2s0.2,0,0.3,0c0.2,0.1,21.4,12.3,22.2,34c0,0.1,0,0.2-0.1,0.3
			C109.4,170.2,109.2,170.3,109.1,170.3L109.1,170.3z"/>
		<path class="st2" d="M115.2,203.9c0,0-4.2,2.7-10.9,1.5c-2.1-0.3-4.1-1.2-5.7-2.7c-1.7-1.8-2-3.5-2.5-5.9c-0.1-1-0.5-1.9-1-2.8
			c-1.5-2-4.2-1.9-6.6-2.4c-3.3-0.7-6.4-3.1-7.4-6.4c-1-3.3,0.6-7.3,3.8-8.6l-3.9-2.5c-1.2-0.7-2.3-1.6-3.3-2.6
			c-1-1-1.6-2.3-1.7-3.8c0-2.1,1.5-3.9,3.4-4.8c1.9-0.7,4-1,6.1-0.6c2.1,0.3,4.1,0.7,6.1,1.5c0.5,0.2,1.1,0.4,1.7,0.4
			c0.8-0.1,1.5-0.5,2.1-1c4.5-2.9,11.7-2.7,14.1,2.8c0.3,0.8,0.6,1.7,0.9,2.5c1.4,3,5.3,2.1,7.8,3.5c0.8,0.5,1.5,1.2,2,2
			s0.8,1.7,0.9,2.6c0.5,3-0.3,6.3-0.9,9.3c-0.5,2.9-1.2,5.6-2,8.4c-0.6,2.3-1.4,4.6-2.1,6.8C116,201.6,115.6,203.6,115.2,203.9z"/>
		<path class="st2" d="M117.8,197.1c-2.2-6.1-5.9-11.6-10.6-16c0-0.1-0.1-0.2-0.2-0.2c-1.4-1.3-2.8-2.5-4.3-3.6
			c-0.6-3.9-0.1-8,1.5-11.6c0.1-0.1,0.1-0.2,0-0.3c0-0.1-0.1-0.2-0.2-0.3c-0.1-0.1-0.2-0.1-0.3,0c-0.1,0-0.2,0.1-0.3,0.2
			c-1.5,3.5-2.1,7.4-1.7,11.2c-6.1-4.4-12.9-7.8-20-10.1c-0.1,0-0.2,0-0.3,0c-0.1,0.1-0.2,0.2-0.2,0.3c0,0.1,0,0.1,0,0.2
			c0,0.1,0,0.1,0.1,0.2c0,0.1,0.1,0.1,0.1,0.1c0,0,0.1,0.1,0.2,0.1c0.2,0.1,13.1,3.7,23.8,13.1c-6.5-1.1-14.4,2-14.7,2.2
			c-0.1,0-0.2,0.1-0.2,0.2c-0.1,0.1-0.1,0.2,0,0.3c0,0.1,0.1,0.2,0.2,0.3c0.1,0.1,0.2,0.1,0.3,0.1c0.1,0,0.1,0,0.2,0
			c0.1,0,9.3-3.8,15.7-1.7c4.7,4.3,8.3,9.7,10.5,15.7c0,0.1,0.1,0.2,0.2,0.2c0.1,0.1,0.2,0.1,0.3,0.1h0.2c0.1,0,0.1-0.1,0.2-0.1
			c0,0,0.1-0.1,0.1-0.1c0-0.1,0-0.1,0-0.2C117.9,197.2,117.9,197.1,117.8,197.1z"/>
		<path class="st5" d="M115.3,203.3c0.1,1.1,0.4,2.1,1,3c0.6,0.9,1.3,1.7,2.2,2.3l88.7,51.3c1,0.5,2.1,0.8,3.2,0.8
			c1.1,0,2.2-0.3,3.2-0.8l121.4-70.2c1-0.5,1.8-1.3,2.3-2.2c0.6-0.9,0.9-2,0.9-3.1s-0.3-2.1-0.9-3.1c-0.6-0.9-1.4-1.7-2.3-2.2
			l-88.7-51.3c-1-0.5-2.1-0.8-3.2-0.8c-1.1,0-2.2,0.3-3.2,0.8L118.5,198c-0.9,0.6-1.7,1.3-2.2,2.3
			C115.7,201.2,115.4,202.2,115.3,203.3z"/>
		<path class="st6" d="M210.4,253.8v6.9c-1.1,0-2.2-0.2-3.2-0.7l-88.8-51.4c-0.9-0.5-1.7-1.2-2.3-2.1c-0.6-0.9-0.9-1.9-0.9-3
			c0-1.1,0.2-2.1,0.7-3c0.5-0.9,1.2-1.7,2.1-2.2c-1.4,1-1.3,2.5,0.3,3.5l88.8,51.3C208.2,253.5,209.3,253.8,210.4,253.8z"/>
		<path class="st7" d="M112.4,198.1c-0.9-0.6-1.6-1.4-2.1-2.3c-0.5-0.9-0.8-2-0.8-3V86.6c0.1-1.1,0.4-2.2,0.9-3.1s1.3-1.8,2.2-2.4
			l121.4-70.2c0.9-0.5,2-0.8,3.1-0.8c1.1,0,2.1,0.2,3.1,0.7c0.9,0.6,1.6,1.4,2.1,2.3c0.5,0.9,0.8,2,0.8,3v106.1
			c-0.1,1.1-0.4,2.2-0.9,3.1c-0.6,1-1.3,1.8-2.2,2.4L118.5,198c-0.9,0.5-2,0.8-3.1,0.8C114.4,198.8,113.3,198.6,112.4,198.1z"/>
		<path class="st6" d="M118.1,198.2c-0.9,0.4-1.9,0.6-2.9,0.6c-1,0-2-0.2-2.9-0.7c-0.9-0.6-1.6-1.4-2.1-2.3c-0.5-0.9-0.8-2-0.8-3
			V86.6c0-1.1,0.4-2.2,0.9-3.1l5.9,3.4c-0.6,0.9-0.9,2-0.9,3.1v106.1C115.3,198.1,116.6,198.9,118.1,198.2z"/>
		<path class="st5" d="M115.3,90.1v106.1c0,2,1.5,2.8,3.2,1.8l121.4-70.3c0.9-0.6,1.7-1.4,2.2-2.4c0.6-1,0.9-2,0.9-3.1V16.2
			c0-2-1.4-2.8-3.2-1.8L118.5,84.6c-0.9,0.6-1.7,1.4-2.2,2.4C115.7,87.9,115.4,89,115.3,90.1z"/>
		<path class="st7" d="M118.5,201.7l88.7,51.3c1,0.5,2.1,0.8,3.2,0.8c1.1,0,2.2-0.3,3.2-0.8l121.4-70.2c1.8-1,1.8-2.7,0-3.6
			l-88.7-51.3c-1-0.5-2.1-0.8-3.2-0.8s-2.2,0.3-3.2,0.8L118.5,198C116.7,199,116.7,200.7,118.5,201.7z"/>
		<path class="st8" d="M120.2,90.5l117-67.7c1-0.6,1.9-0.1,1.9,1.1v91.9c0,0.7-0.2,1.3-0.6,1.9c-0.3,0.6-0.8,1.1-1.3,1.4l-117,67.7
			c-1.1,0.6-1.9,0.1-1.9-1.1V93.7c0-0.7,0.2-1.3,0.6-1.9C119.2,91.3,119.7,90.8,120.2,90.5z"/>
		<path class="st5" d="M128.8,198.9l112.7-65.2c0.5-0.3,1-0.4,1.6-0.4c0.6,0,1.1,0.1,1.6,0.4l5.8,3.3c0.2,0.1,0.4,0.2,0.5,0.4
			c0.1,0.2,0.2,0.4,0.2,0.6s-0.1,0.4-0.2,0.6c-0.1,0.2-0.3,0.3-0.5,0.4l-112.7,65.2c-0.5,0.3-1,0.4-1.6,0.4c-0.6,0-1.1-0.1-1.6-0.4
			l-5.7-3.3c-0.2-0.1-0.4-0.2-0.5-0.4c-0.1-0.2-0.2-0.4-0.2-0.6c0-0.2,0.1-0.4,0.2-0.6C128.4,199.1,128.6,199,128.8,198.9z"/>
		<path class="st6" d="M143.6,207.5l112.7-65.2c0.5-0.2,1-0.4,1.6-0.4c0.5,0,1.1,0.1,1.6,0.4l35.4,20.5c0.2,0.1,0.4,0.2,0.5,0.4
			c0.1,0.2,0.2,0.4,0.2,0.6c0,0.2-0.1,0.4-0.2,0.6c-0.1,0.2-0.3,0.3-0.5,0.4l-112.5,65.1c-0.5,0.2-1,0.4-1.6,0.4s-1.1-0.1-1.6-0.4
			l-35.6-20.4c-0.2-0.1-0.4-0.2-0.5-0.3c-0.1-0.2-0.2-0.4-0.2-0.6c0-0.2,0.1-0.4,0.2-0.6C143.3,207.7,143.5,207.6,143.6,207.5z"/>
		<path class="st7" d="M244.7,171.6l3.5-2c0.2-0.1,0.1-0.2,0-0.3l-4.1-2.4c-0.1,0-0.2-0.1-0.3-0.1s-0.2,0-0.3,0.1l-3.5,2
			c-0.2,0.1-0.1,0.2,0,0.3l4.1,2.4c0.1,0,0.2,0.1,0.3,0.1C244.5,171.7,244.6,171.7,244.7,171.6z M237.7,163.5l-3.5,2.1
			c-0.2,0.1-0.1,0.2,0,0.3l4.1,2.4c0.1,0,0.2,0.1,0.3,0.1c0.1,0,0.2,0,0.3-0.1l3.5-2c0.1-0.1,0.1-0.2,0-0.3l-4.1-2.4
			c-0.1,0-0.2-0.1-0.3-0.1C237.9,163.5,237.8,163.5,237.7,163.5L237.7,163.5z M226.3,170.2l-6,3.4c-0.2,0.1-0.1,0.2,0,0.3l4.1,2.4
			c0.1,0,0.2,0.1,0.3,0.1c0.1,0,0.2,0,0.3-0.1l6-3.4c0.2-0.1,0.1-0.2,0-0.3l-4.1-2.4c-0.1,0-0.2-0.1-0.3-0.1
			C226.5,170.1,226.4,170.1,226.3,170.2z M232.5,166.5l-3.5,2c-0.1,0.1-0.1,0.2,0,0.3l4.1,2.4c0.1,0,0.2,0.1,0.3,0.1
			c0.1,0,0.2,0,0.3-0.1l3.5-2c0.1-0.1,0.1-0.2,0-0.3l-4.1-2.4c-0.1,0-0.2-0.1-0.3-0.1C232.7,166.5,232.6,166.5,232.5,166.5z
			 M218.7,174.6l-3.5,2c-0.1,0.1-0.1,0.2,0,0.3l4.1,2.4c0.1,0,0.2,0.1,0.3,0.1c0.1,0,0.2,0,0.3-0.1l3.5-2c0.1-0.1,0.1-0.2,0-0.3
			l-4.1-2.4c-0.1,0-0.2-0.1-0.3-0.1S218.8,174.5,218.7,174.6L218.7,174.6z M213.5,177.5l-3.5,2c-0.2,0.1-0.1,0.2,0,0.3l4.1,2.4
			c0.1,0,0.2,0.1,0.3,0.1c0.1,0,0.2,0,0.3-0.1l3.5-2c0.2-0.1,0.1-0.2,0-0.3l-4.1-2.4c-0.1,0-0.2-0.1-0.3-0.1
			C213.7,177.5,213.6,177.5,213.5,177.5L213.5,177.5z M229.6,187.1l3.5-2c0.1-0.1,0.1-0.2,0-0.3l-4.1-2.4c-0.1,0-0.2-0.1-0.3-0.1
			s-0.2,0-0.3,0.1l-3.5,2c-0.2,0.1-0.1,0.2,0,0.3l4.1,2.4c0.1,0,0.2,0.1,0.3,0.1C229.4,187.2,229.5,187.2,229.6,187.1L229.6,187.1z
			 M224.4,190.1l3.5-2c0.2-0.1,0.1-0.2,0-0.3l-4.1-2.4c-0.1,0-0.2-0.1-0.3-0.1c-0.1,0-0.2,0-0.3,0.1l-3.5,2c-0.1,0.1-0.1,0.2,0,0.3
			l4.1,2.4c0.1,0,0.2,0.1,0.3,0.1C224.2,190.2,224.3,190.2,224.4,190.1L224.4,190.1z M219.3,193.1l3.5-2c0.2-0.1,0.1-0.2,0-0.3
			l-4.1-2.4c-0.1,0-0.2-0.1-0.3-0.1c-0.1,0-0.2,0-0.3,0.1l-3.5,2c-0.2,0.1-0.1,0.2,0,0.3l4.1,2.4c0.1,0,0.2,0.1,0.3,0
			C219.1,193.2,219.2,193.1,219.3,193.1L219.3,193.1z M214.1,196.1l3.5-2c0.1-0.1,0.1-0.2,0-0.3l-4.1-2.4c-0.1,0-0.2-0.1-0.3-0.1
			s-0.2,0-0.3,0.1l-3.5,2c-0.2,0.1-0.1,0.2,0,0.3l4.1,2.4c0.1,0.1,0.2,0.1,0.3,0.1C213.9,196.1,214,196.1,214.1,196.1L214.1,196.1z
			 M239.5,174.7l3.5-2c0.1-0.1,0.1-0.2,0-0.3l-4.1-2.4c-0.1,0-0.2-0.1-0.3-0.1c-0.1,0-0.2,0-0.3,0.1l-3.5,2c-0.1,0.1-0.1,0.2,0,0.3
			l4.1,2.4c0.1,0,0.2,0.1,0.3,0.1C239.3,174.7,239.4,174.7,239.5,174.7L239.5,174.7z M234.7,184.1l7.9-4.6c0.2-0.1,0.1-0.2,0-0.3
			l-9.9-5.7c-0.1,0-0.2-0.1-0.3-0.1s-0.2,0-0.3,0.1l-4.1,2.4c-0.2,0.1-0.1,0.2,0,0.3l5.2,3c0.2,0.1,0.2,0.2,0,0.3l-3.3,1.9
			c-0.2,0.1-0.1,0.2,0,0.3l4.1,2.4c0.1,0.1,0.2,0.1,0.3,0.1C234.5,184.2,234.6,184.2,234.7,184.1L234.7,184.1z M208.4,180.5l-3.5,2
			c-0.2,0.1-0.1,0.2,0,0.3l4.1,2.4c0.1,0,0.2,0.1,0.3,0.1c0.1,0,0.2,0,0.3-0.1l3.5-2c0.2-0.1,0.1-0.2,0-0.3l-4.1-2.4
			c-0.1,0-0.2-0.1-0.3-0.1C208.6,180.4,208.5,180.5,208.4,180.5L208.4,180.5z M203.2,183.5l-3.5,2c-0.1,0.1-0.1,0.2,0,0.3l4.1,2.4
			c0.1,0,0.2,0.1,0.3,0.1c0.1,0,0.2,0,0.3-0.1l3.5-2c0.1-0.1,0.1-0.2,0-0.3l-4.1-2.4c-0.1,0-0.2-0.1-0.3-0.1
			C203.4,183.4,203.3,183.4,203.2,183.5L203.2,183.5z M177.5,216.9c0.1,0,0.2,0.1,0.3,0.1s0.2,0,0.3-0.1l3.5-2
			c0.2-0.1,0.1-0.2,0-0.3l-4.1-2.4c-0.1,0-0.2-0.1-0.3-0.1c-0.1,0-0.2,0-0.3,0.1l-3.5,2c-0.2,0.1-0.1,0.2,0,0.3L177.5,216.9z
			 M162,207.4l-3.5,2c-0.1,0.1-0.1,0.2,0,0.3l4.1,2.4c0.1,0,0.2,0.1,0.3,0.1s0.2,0,0.3-0.1l3.5-2c0.1-0.1,0.1-0.2,0-0.3l-4.1-2.4
			c-0.1,0-0.2-0.1-0.3-0.1C162.2,207.3,162.1,207.3,162,207.4z M170.3,214.4c0.1,0,0.2,0.1,0.3,0.1s0.2,0,0.3-0.1l3.5-2
			c0.1-0.1,0.1-0.2,0-0.3l-4.1-2.4c-0.1,0-0.2-0.1-0.3-0.1c-0.1,0-0.2,0-0.3,0.1l-3.5,2c-0.1,0.1-0.1,0.2,0,0.3L170.3,214.4z
			 M186.6,218.8l3.5-2c0.2-0.1,0.1-0.2,0-0.3L186,214c-0.1,0-0.2-0.1-0.3-0.1c-0.1,0-0.2,0-0.3,0.1l-3.5,2c-0.1,0.1-0.1,0.2,0,0.3
			l4.1,2.4c0.1,0,0.2,0.1,0.3,0.1C186.4,218.8,186.5,218.8,186.6,218.8L186.6,218.8z M180.8,221.7c0.1,0,0.2,0.1,0.3,0.1
			s0.2,0,0.3-0.1l3.5-2c0.2-0.1,0.1-0.2,0-0.3l-4.1-2.4c-0.1,0-0.2-0.1-0.3-0.1s-0.2,0-0.3,0.1l-3.5,2c-0.2,0.1-0.1,0.2,0,0.3
			L180.8,221.7z M167.1,204.4l-3.5,2c-0.2,0.1-0.1,0.2,0,0.3l4.1,2.4c0.1,0,0.2,0.1,0.3,0.1c0.1,0,0.2,0,0.3-0.1l3.5-2
			c0.2-0.1,0.1-0.2,0-0.3l-4.1-2.4c-0.1,0-0.2-0.1-0.3-0.1C167.3,204.3,167.2,204.3,167.1,204.4L167.1,204.4z M192.9,189.5l-3.5,2
			c-0.2,0.1-0.1,0.2,0,0.3l4.1,2.4c0.1,0,0.2,0.1,0.3,0.1c0.1,0,0.2,0,0.3-0.1l3.5-2c0.1-0.1,0.1-0.2,0-0.3l-4.1-2.4
			c-0.1,0-0.2-0.1-0.3-0.1C193.1,189.4,193,189.4,192.9,189.5L192.9,189.5z M172.3,201.4l-3.5,2c-0.1,0.1-0.1,0.2,0,0.3l4.1,2.4
			c0.1,0,0.2,0.1,0.3,0.1c0.1,0,0.2,0,0.3-0.1l3.5-2c0.2-0.1,0.1-0.2,0-0.3l-4.1-2.4c-0.1,0-0.2-0.1-0.3-0.1
			C172.5,201.3,172.4,201.4,172.3,201.4z M198.1,186.5l-3.5,2c-0.2,0.1-0.1,0.2,0,0.3l4.1,2.4c0.1,0,0.2,0.1,0.3,0.1s0.2,0,0.3-0.1
			l3.5-2c0.2-0.1,0.1-0.2,0-0.3l-4.1-2.4c-0.1,0-0.2-0.1-0.3-0.1C198.3,186.4,198.2,186.4,198.1,186.5L198.1,186.5z M187.8,192.4
			l-3.5,2c-0.1,0.1-0.1,0.2,0,0.3l4.1,2.4c0.1,0,0.2,0.1,0.3,0.1s0.2,0,0.3-0.1l3.5-2c0.2-0.1,0.1-0.2,0-0.3l-4.1-2.3
			c-0.1,0-0.2-0.1-0.3-0.1S187.8,192.4,187.8,192.4L187.8,192.4z M182.6,195.4l-3.5,2c-0.2,0.1-0.1,0.2,0,0.3l4.1,2.4
			c0.1,0,0.2,0.1,0.3,0.1c0.1,0,0.2,0,0.3-0.1l3.5-2c0.2-0.1,0.1-0.2,0-0.3l-4.1-2.4c-0.1,0-0.2-0.1-0.3-0.1
			C182.8,195.4,182.7,195.4,182.6,195.4L182.6,195.4z M177.5,198.4l-3.5,2c-0.2,0.1-0.1,0.2,0,0.3l4.1,2.4c0.1,0,0.2,0.1,0.3,0.1
			s0.2,0,0.3-0.1l3.5-2c0.1-0.1,0.1-0.2,0-0.3l-4.1-2.4c-0.1,0-0.2-0.1-0.3-0.1S177.5,198.4,177.5,198.4L177.5,198.4z M203.8,202.1
			l3.5-2c0.2-0.1,0.1-0.2,0-0.3l-4.1-2.4c-0.1,0-0.2-0.1-0.3-0.1c-0.1,0-0.2,0-0.3,0.1l-3.5,2c-0.2,0.1-0.1,0.2,0,0.3l4.1,2.4
			c0.1,0,0.2,0.1,0.3,0.1C203.6,202.1,203.7,202.1,203.8,202.1L203.8,202.1z M249.1,157l-3.5,2c-0.1,0.1-0.1,0.2,0,0.3l4.1,2.4
			c0.1,0,0.2,0.1,0.3,0.1c0.1,0,0.2,0,0.3-0.1l3.5-2c0.2-0.1,0.1-0.2,0-0.3l-4.1-2.4c-0.1,0-0.2-0.1-0.3-0.1
			C249.3,156.9,249.2,156.9,249.1,157L249.1,157z M242.9,160.6l-3.5,2c-0.2,0.1-0.1,0.2,0,0.3l4.1,2.4c0.1,0,0.2,0.1,0.3,0.1
			s0.2,0,0.3-0.1l3.5-2c0.2-0.1,0.1-0.2,0-0.3l-4.1-2.4c-0.1-0.1-0.2-0.1-0.3-0.1C243,160.5,242.9,160.5,242.9,160.6L242.9,160.6z
			 M254.3,154l-3.5,2c-0.2,0.1-0.1,0.2,0,0.3l4.1,2.4c0.1,0,0.2,0.1,0.3,0.1c0.1,0,0.2,0,0.3-0.1l3.5-2c0.1-0.1,0.1-0.2,0-0.3
			l-4.1-2.4c-0.1-0.1-0.2-0.1-0.3-0.1C254.4,153.9,254.3,153.9,254.3,154L254.3,154z M227.6,181.6l3.5-2c0.1-0.1,0.1-0.2,0-0.3
			l-4.1-2.4c-0.1,0-0.2-0.1-0.3-0.1c-0.1,0-0.2,0-0.3,0.1l-3.5,2c-0.1,0.1-0.1,0.2,0,0.3l4.1,2.4c0.1,0,0.2,0,0.3,0
			C227.4,181.6,227.5,181.6,227.6,181.6L227.6,181.6z M260,151c-0.1,0-0.2-0.1-0.3-0.1c-0.1,0-0.2,0-0.3,0.1l-3.5,2
			c-0.2,0.1-0.1,0.2,0,0.3l4.1,2.4c0.1,0,0.2,0.1,0.3,0.1s0.2,0,0.3-0.1l3.5-2c0.2-0.1,0.1-0.2,0-0.3L260,151z M209,199.1l3.5-2
			c0.2-0.1,0.1-0.2,0-0.3l-4.1-2.4c-0.1,0-0.2-0.1-0.3-0.1c-0.1,0-0.2,0-0.3,0.1l-3.5,2c-0.1,0.1-0.1,0.2,0,0.3l4.1,2.4
			c0.1,0,0.2,0.1,0.3,0.1C208.8,199.1,208.9,199.1,209,199.1L209,199.1z M272.2,162.5l3.5-2c0.2-0.1,0.1-0.2,0-0.3l-4.1-2.4
			c-0.1,0-0.2-0.1-0.3-0.1s-0.2,0-0.3,0.1l-3.5,2c-0.2,0.1-0.1,0.2,0,0.3l4.1,2.4c0.1,0,0.2,0,0.3,0
			C272,162.5,272.1,162.5,272.2,162.5L272.2,162.5z M261.2,162.1l3.5-2c0.1-0.1,0.1-0.2,0-0.3l-4.1-2.4c-0.1,0-0.2-0.1-0.3-0.1
			s-0.2,0-0.3,0.1l-3.5,2c-0.2,0.1-0.1,0.2,0,0.3l4.1,2.4c0.1,0,0.2,0,0.3,0C261,162.2,261.1,162.1,261.2,162.1L261.2,162.1z
			 M265.8,154.4c-0.1,0-0.2-0.1-0.3-0.1c-0.1,0-0.2,0-0.3,0.1l-3.5,2c-0.2,0.1-0.1,0.2,0,0.3l4.1,2.4c0.1,0,0.2,0.1,0.3,0.1
			c0.1,0,0.2,0,0.3-0.1l3.5-2c0.2-0.1,0.1-0.2,0-0.3L265.8,154.4z M266.9,153.8l9.9,5.7c0.1,0,0.2,0.1,0.3,0.1s0.2,0,0.3-0.1l3.5-2
			c0.1-0.1,0.1-0.2,0-0.3l-9.9-5.7c-0.1,0-0.2-0.1-0.3-0.1c-0.1,0-0.2,0-0.3,0.1l-3.5,2C266.7,153.5,266.7,153.7,266.9,153.8
			L266.9,153.8z M254.9,160.3l-3.5,2c-0.1,0.1-0.1,0.2,0,0.3l4.1,2.4c0.1,0,0.2,0.1,0.3,0.1c0.1,0,0.2,0,0.3-0.1l3.5-2
			c0.2-0.1,0.1-0.2,0-0.3l-4.1-2.4c-0.1-0.1-0.2-0.1-0.3-0.1C255.1,160.3,255,160.3,254.9,160.3L254.9,160.3z M216.1,182.8l-3.5,2
			c-0.2,0.1-0.1,0.2,0,0.3l4.1,2.4c0.1,0,0.2,0.1,0.3,0.1c0.1,0,0.2,0,0.3-0.1l3.5-2c0.2-0.1,0.1-0.2,0-0.3l-4.1-2.4
			c-0.1,0-0.2-0.1-0.3-0.1C216.3,182.7,216.2,182.7,216.1,182.8z M266.5,165.4c0.1,0,0.2,0.1,0.3,0.1c0.1,0,0.2,0,0.3-0.1l3.5-2
			c0.1-0.1,0.1-0.2,0-0.3l-4.1-2.4c-0.1,0-0.2-0.1-0.3-0.1s-0.2,0-0.3,0.1l-3.5,2c-0.2,0.1-0.1,0.2,0,0.3L266.5,165.4z M221.3,179.8
			l-3.5,2c-0.2,0.1-0.1,0.2,0,0.3l4.1,2.4c0.1,0,0.2,0.1,0.3,0.1c0.1,0,0.2,0,0.3-0.1l3.5-2c0.2-0.1,0.1-0.2,0-0.3l-4.1-2.4
			c-0.1,0-0.2-0.1-0.3-0.1C221.4,179.7,221.3,179.8,221.3,179.8z M182.6,213.9c0.1,0,0.2,0.1,0.3,0.1c0.1,0,0.2,0,0.3-0.1l3.5-2
			c0.1-0.1,0.1-0.2,0-0.3l-4.1-2.4c-0.1,0-0.2-0.1-0.3-0.1c-0.1,0-0.2,0-0.3,0.1l-3.5,2c-0.1,0.1-0.1,0.2,0,0.3L182.6,213.9z
			 M174.9,206.7l-3.5,2c-0.2,0.1-0.1,0.2,0,0.3l4.1,2.4c0.1,0,0.2,0.1,0.3,0.1c0.1,0,0.2,0,0.3-0.1l3.5-2c0.2-0.1,0.1-0.2,0-0.3
			l-4.1-2.4c-0.1,0-0.2-0.1-0.3-0.1S174.9,206.6,174.9,206.7z M188.3,211l3.5-2c0.2-0.1,0.1-0.2,0-0.3l-4.1-2.4
			c-0.1,0-0.2-0.1-0.3-0.1s-0.2,0-0.3,0.1l-3.5,2c-0.2,0.1-0.1,0.2,0,0.3l4.1,2.4c0.1,0,0.2,0.1,0.3,0.1
			C188.1,211.1,188.2,211.1,188.3,211z M193.5,208l3.5-2c0.2-0.1,0.1-0.2,0-0.3l-4.1-2.4c-0.1,0-0.2-0.1-0.3-0.1
			c-0.1,0-0.2,0-0.3,0.1l-3.5,2c-0.1,0.1-0.1,0.2,0,0.3l4.1,2.4c0.1,0,0.2,0.1,0.3,0.1C193.3,208.1,193.4,208.1,193.5,208L193.5,208
			z M198.6,205.1l3.5-2c0.1-0.1,0.1-0.2,0-0.3l-4.1-2.4c-0.1,0-0.2-0.1-0.3-0.1c-0.1,0-0.2,0-0.3,0.1l-3.5,2c-0.2,0.1-0.1,0.2,0,0.3
			l4.1,2.4c0.1,0,0.2,0.1,0.3,0.1C198.5,205.1,198.6,205.1,198.6,205.1L198.6,205.1z M180,203.7l-3.5,2c-0.1,0.1-0.1,0.2,0,0.3
			l4.1,2.4c0.1,0,0.2,0.1,0.3,0.1s0.2,0,0.3-0.1l3.5-2c0.2-0.1,0.1-0.2,0-0.3l-4.1-2.4c-0.1,0-0.2-0.1-0.3-0.1
			C180.2,203.6,180.1,203.6,180,203.7L180,203.7z M185.1,200.7l-3.5,2c-0.2,0.1-0.1,0.2,0,0.3l4.1,2.4c0.1,0,0.2,0.1,0.3,0.1
			c0.1,0,0.2,0,0.3-0.1l3.5-2c0.1-0.1,0.1-0.2,0-0.3l-4.1-2.4c-0.1,0-0.2-0.1-0.3-0.1C185.3,200.6,185.3,200.7,185.1,200.7
			L185.1,200.7z M205.8,188.8l-3.5,2c-0.2,0.1-0.1,0.2,0,0.3l4.1,2.4c0.1,0,0.2,0.1,0.3,0.1s0.2,0,0.3-0.1l3.5-2
			c0.2-0.1,0.1-0.2,0-0.3l-4.1-2.4c-0.1,0-0.2-0.1-0.3-0.1C206,188.7,205.9,188.7,205.8,188.8z M200.6,191.7l-3.5,2
			c-0.2,0.1-0.1,0.2,0,0.3l4.1,2.4c0.1,0,0.2,0.1,0.3,0.1c0.1,0,0.2,0,0.3-0.1l3.5-2c0.1-0.1,0.1-0.2,0-0.3l-4.1-2.4
			c-0.1,0-0.2-0.1-0.3-0.1C200.8,191.7,200.7,191.7,200.6,191.7L200.6,191.7z M210.9,185.8l-3.5,2c-0.1,0.1-0.1,0.2,0,0.3l4.1,2.4
			c0.1,0,0.2,0.1,0.3,0.1c0.1,0,0.2,0,0.3-0.1l3.5-2c0.1-0.1,0.1-0.2,0-0.3l-4.1-2.4c-0.1,0-0.2-0.1-0.3-0.1S211,185.7,210.9,185.8
			L210.9,185.8z M190.3,197.7l-3.5,2c-0.2,0.1-0.1,0.2,0,0.3l4.1,2.4c0.1,0,0.2,0.1,0.3,0.1c0.1,0,0.2,0,0.3-0.1l3.5-2
			c0.2-0.1,0.1-0.2,0-0.3l-4.1-2.4c-0.1,0-0.2-0.1-0.3-0.1S190.4,197.7,190.3,197.7L190.3,197.7z M195.5,194.7l-3.5,2
			c-0.1,0.1-0.1,0.2,0,0.3l4.1,2.4c0.1,0,0.2,0.1,0.3,0.1c0.1,0,0.2,0,0.3-0.1l3.5-2c0.2-0.1,0.1-0.2,0-0.3l-4.1-2.4
			c-0.1,0-0.2-0.1-0.3-0.1S195.6,194.7,195.5,194.7L195.5,194.7z M191.7,215.8l3.5-2c0.1-0.1,0.1-0.2,0-0.3l-4.1-2.4
			c-0.1,0-0.2-0.1-0.3-0.1c-0.1,0-0.2,0-0.3,0.1l-3.5,2c-0.2,0.1-0.1,0.2,0,0.3l4.1,2.4c0.1,0,0.2,0.1,0.3,0.1
			C191.5,215.8,191.6,215.8,191.7,215.8L191.7,215.8z M161.4,212.7l-4.1-2.4c-0.1,0-0.2-0.1-0.3-0.1c-0.1,0-0.2,0-0.3,0.1l-3.5,2
			c-0.1,0.1-0.1,0.2,0,0.3l4.1,2.4c0.1,0,0.2,0.1,0.3,0.1c0.1,0,0.2,0,0.3-0.1l3.5-2C161.6,213,161.6,212.8,161.4,212.7L161.4,212.7
			z M169.2,215l-4.1-2.4c-0.1,0-0.2-0.1-0.3-0.1c-0.1,0-0.2,0-0.3,0.1l-5.4,3.1c-0.1,0.1-0.1,0.2,0,0.3l4.1,2.4
			c0.1,0,0.2,0.1,0.3,0.1s0.2,0,0.3-0.1l5.4-3.1C169.4,215.2,169.3,215.1,169.2,215L169.2,215z M155.2,208.2l-4.1-2.4
			c-0.1,0-0.2-0.1-0.3-0.1c-0.1,0-0.2,0-0.3,0.1l-4.4,2.5c-0.1,0.1-0.1,0.2,0,0.3l4.1,2.4c0.1,0,0.2,0.1,0.3,0.1
			c0.1,0,0.2,0,0.3-0.1l4.4-2.5C155.4,208.4,155.4,208.3,155.2,208.2L155.2,208.2z M158.5,206.2c0.1,0,0.2,0.1,0.3,0.1
			c0.1,0,0.2,0,0.3-0.1l3.5-2c0.1-0.1,0.1-0.2,0-0.3l-4.1-2.3c-0.1,0-0.2-0.1-0.3-0.1s-0.2,0-0.3,0.1l-3.5,2c-0.1,0.1-0.1,0.2,0,0.3
			L158.5,206.2z M176.4,217.6l-4.1-2.4c-0.1,0-0.2-0.1-0.3-0.1s-0.2,0-0.3,0.1l-6.8,3.9c-0.1,0.1-0.1,0.2,0,0.3l4.1,2.4
			c0.1,0,0.2,0.1,0.3,0.1c0.1,0,0.2,0,0.3-0.1l6.8-3.9C176.5,217.8,176.5,217.7,176.4,217.6z M179.8,222.4l-4.1-2.4
			c-0.1,0-0.2-0.1-0.3-0.1s-0.2,0-0.3,0.1l-4.4,2.5c-0.1,0.1-0.1,0.2,0,0.3l4.1,2.4c0.1,0,0.2,0.1,0.3,0.1s0.2,0,0.3-0.1l4.4-2.5
			C179.9,222.6,179.9,222.5,179.8,222.4L179.8,222.4z M196.9,184c0.1,0,0.2,0.1,0.3,0.1s0.2,0,0.3-0.1l3.5-2c0.1-0.1,0.1-0.2,0-0.3
			l-4.1-2.4c-0.1,0-0.2-0.1-0.3-0.1c-0.1,0-0.2,0-0.3,0.1l-3.5,2c-0.2,0.1-0.1,0.2,0,0.3L196.9,184z M186.6,190
			c0.1,0,0.2,0.1,0.3,0.1s0.2,0,0.3-0.1l3.5-2c0.2-0.1,0.1-0.2,0-0.3l-4.1-2.4c-0.1,0-0.2-0.1-0.3-0.1s-0.2,0-0.3,0.1l-3.5,2
			c-0.2,0.1-0.1,0.2,0,0.3L186.6,190z M163.7,203.2c0.1,0,0.2,0.1,0.3,0.1c0.1,0,0.2,0,0.3-0.1l3.5-2c0.2-0.1,0.1-0.2,0-0.3
			l-4.1-2.4c-0.1,0-0.2-0.1-0.3-0.1s-0.2,0-0.3,0.1l-3.5,2c-0.2,0.1-0.1,0.2,0,0.3L163.7,203.2z M191.7,187c0.1,0,0.2,0.1,0.3,0.1
			c0.1,0,0.2,0,0.3-0.1l3.5-2c0.2-0.1,0.1-0.2,0-0.3l-4.1-2.4c-0.1,0-0.2-0.1-0.3-0.1c-0.1,0-0.2,0-0.3,0.1l-3.5,2
			c-0.1,0.1-0.1,0.2,0,0.3L191.7,187z M181.4,193c0.1,0,0.2,0.1,0.3,0.1s0.2,0,0.3-0.1l3.5-2c0.1-0.1,0.1-0.2,0-0.3l-4.1-2.4
			c-0.1,0-0.2-0.1-0.3-0.1c-0.1,0-0.2,0-0.3,0.1l-3.5,2c-0.1,0.1-0.1,0.2,0,0.3L181.4,193z M182.6,222.7c-0.1,0-0.2-0.1-0.3-0.1
			c-0.1,0-0.2,0-0.3,0.1l-5.4,3.1c-0.1,0.1-0.1,0.2,0,0.3l4.1,2.4c0.1,0,0.2,0.1,0.3,0.1s0.2,0,0.3-0.1l5.4-3.1
			c0.1-0.1,0.1-0.2,0-0.3L182.6,222.7z M174,197.3c0.1,0,0.2,0.1,0.3,0.1s0.2,0,0.3-0.1l3.5-2c0.1-0.1,0.1-0.2,0-0.3l-4.1-2.4
			c-0.1,0-0.2-0.1-0.3-0.1s-0.2,0-0.3,0.1l-3.5,2c-0.1,0.1-0.1,0.2,0,0.3L174,197.3z M168.8,200.3c0.1,0,0.2,0.1,0.3,0.1
			s0.2,0,0.3-0.1l3.5-2c0.2-0.1,0.1-0.2,0-0.3l-4.1-2.4c-0.1,0-0.2-0.1-0.3-0.1s-0.2,0-0.3,0.1l-3.5,2c-0.2,0.1-0.1,0.2,0,0.3
			L168.8,200.3z M278.1,167.4c-0.1,0-0.2-0.1-0.3-0.1c-0.1,0-0.2,0-0.3,0.1l-8.7,5c-0.1,0.1-0.1,0.2,0,0.3l4.1,2.4
			c0.1,0,0.2,0.1,0.3,0.1c0.1,0,0.2,0,0.3-0.1l8.7-5c0.2-0.1,0.1-0.2,0-0.3L278.1,167.4z M266.7,174c-0.1,0-0.2-0.1-0.3-0.1
			s-0.2,0-0.3,0.1l-3.5,2c-0.1,0.1-0.1,0.2,0,0.3l4.1,2.4c0.1,0,0.2,0.1,0.3,0.1s0.2,0,0.3-0.1l3.5-2c0.1-0.1,0.1-0.2,0-0.3
			L266.7,174z M196.9,212.7l3.5-2c0.2-0.1,0.1-0.2,0-0.3l-4.1-2.3c-0.1,0-0.2-0.1-0.3-0.1c-0.1,0-0.2,0-0.3,0.1l-3.5,2
			c-0.2,0.1-0.1,0.2,0,0.3l4.1,2.4c0.1,0,0.2,0.1,0.3,0C196.7,212.9,196.8,212.9,196.9,212.7L196.9,212.7z M256.4,180
			c-0.1,0-0.2-0.1-0.3-0.1s-0.2,0-0.3,0.1l-3.5,2c-0.2,0.1-0.1,0.2,0,0.3l4.1,2.4c0.1,0,0.2,0.1,0.3,0.1c0.1,0,0.2,0,0.3-0.1l3.5-2
			c0.1-0.1,0.1-0.2,0-0.3L256.4,180z M283.3,164.4c-0.1,0-0.2-0.1-0.3-0.1c-0.1,0-0.2,0-0.3,0.1l-3.5,2c-0.1,0.1-0.1,0.2,0,0.3
			l4.1,2.4c0.1,0,0.2,0.1,0.3,0.1c0.1,0,0.2,0,0.3-0.1l3.5-2c0.2-0.1,0.1-0.2,0-0.3L283.3,164.4z M292.5,163.8l-9.9-5.7
			c-0.1,0-0.2-0.1-0.3-0.1s-0.2,0-0.3,0.1l-3.5,2c-0.2,0.1-0.1,0.2,0,0.3l9.9,5.7c0.1,0,0.2,0.1,0.3,0.1c0.1,0,0.2,0,0.3-0.1l3.5-2
			C292.7,164.1,292.7,164,292.5,163.8L292.5,163.8z M237.1,191.1c-0.1,0-0.2-0.1-0.3-0.1c-0.1,0-0.2,0-0.3,0.1l-4.4,2.5
			c-0.2,0.1-0.1,0.2,0,0.3l4.1,2.4c0.1,0,0.2,0.1,0.3,0.1s0.2,0,0.3-0.1l4.4-2.5c0.1-0.1,0.1-0.2,0-0.3L237.1,191.1z M250.2,183.7
			c-0.1,0-0.2-0.1-0.3-0.1c-0.1,0-0.2,0-0.3,0.1l-5.4,3.1c-0.1,0.1-0.1,0.2,0,0.3l4.1,2.4c0.1,0,0.2,0.1,0.3,0.1s0.2,0,0.3-0.1
			l5.4-3.1c0.1-0.1,0.1-0.2,0-0.3L250.2,183.7z M225.2,198.1c-0.1,0-0.2-0.1-0.3-0.1c-0.1,0-0.2,0-0.3,0.1l-29,16.8
			c-0.2,0.1-0.1,0.2,0,0.3l4.1,2.4c0.1,0,0.2,0.1,0.3,0.1c0.1,0,0.2,0,0.3-0.1l29-16.8c0.2-0.1,0.1-0.2,0-0.3L225.2,198.1z
			 M194.5,215.8c-0.1,0-0.2-0.1-0.3-0.1c-0.1,0-0.2,0-0.3,0.1l-4.4,2.5c-0.1,0.1-0.1,0.2,0,0.3l4.1,2.4c0.1,0,0.2,0.1,0.3,0.1
			s0.2,0,0.3-0.1l4.4-2.5c0.2-0.1,0.1-0.2,0-0.3L194.5,215.8z M231.2,194.6c-0.1,0-0.2-0.1-0.3-0.1c-0.1,0-0.2,0-0.3,0.1l-4.4,2.5
			c-0.2,0.1-0.1,0.2,0,0.3l4.1,2.4c0.1,0,0.2,0.1,0.3,0.1s0.2,0,0.3-0.1l4.4-2.5c0.2-0.1,0.1-0.2,0-0.3L231.2,194.6z M188.6,219.3
			c-0.1,0-0.2-0.1-0.3-0.1s-0.2,0-0.3,0.1l-4.4,2.5c-0.2,0.1-0.1,0.2,0,0.3l4.1,2.4c0.1,0,0.2,0.1,0.3,0.1c0.1,0,0.2,0,0.3-0.1
			l4.4-2.5c0.2-0.1,0.1-0.2,0-0.3L188.6,219.3z M243.1,187.7c-0.1,0-0.2-0.1-0.3-0.1c-0.1,0-0.2,0-0.3,0.1l-4.4,2.5
			c-0.2,0.1-0.1,0.2,0,0.3l4.1,2.4c0.1,0,0.2,0.1,0.3,0.1c0.1,0,0.2,0,0.3-0.1l4.4-2.5c0.2-0.1,0.1-0.2,0-0.3L243.1,187.7z
			 M261.6,177c-0.1,0-0.2-0.1-0.3-0.1s-0.2,0-0.3,0.1l-3.5,2c-0.2,0.1-0.1,0.2,0,0.3l4.1,2.4c0.1,0,0.2,0.1,0.3,0.1
			c0.1,0,0.2,0,0.3-0.1l3.5-2c0.2-0.1,0.1-0.2,0-0.3L261.6,177z M272.9,168.8l3.5-2c0.2-0.1,0.1-0.2,0-0.3l-4.1-2.4
			c-0.1,0-0.2-0.1-0.3-0.1c-0.1,0-0.2,0-0.3,0.1l-3.5,2c-0.2,0.1-0.1,0.2,0,0.3l4.1,2.4c0.1,0,0.2,0.1,0.3,0.1
			C272.7,168.9,272.8,168.9,272.9,168.8L272.9,168.8z M249.8,168.7l3.5-2c0.2-0.1,0.1-0.2,0-0.3l-4.1-2.4c-0.1,0-0.2-0.1-0.3-0.1
			c-0.1,0-0.2,0-0.3,0.1l-3.5,2c-0.1,0.1-0.1,0.2,0,0.3l4.1,2.4c0.1,0,0.2,0.1,0.3,0.1C249.6,168.7,249.7,168.7,249.8,168.7
			L249.8,168.7z M238.2,188.9l10.3-6c0.1-0.1,0.1-0.2,0-0.3l-4.2-2.4c-0.1,0-0.2-0.1-0.3-0.1s-0.2,0-0.3,0.1l-10.3,6
			c-0.2,0.1-0.1,0.2,0,0.3l4.1,2.4c0.1,0.1,0.2,0.1,0.3,0.1C237.9,189,238,189,238.2,188.9L238.2,188.9z M267.2,171.8
			c0.1,0,0.2,0.1,0.3,0.1c0.1,0,0.2,0,0.3-0.1l3.5-2c0.1-0.1,0.1-0.2,0-0.3l-4.1-2.4c-0.1,0-0.2-0.1-0.3-0.1s-0.2,0-0.3,0.1l-3.5,2
			c-0.1,0.1-0.1,0.2,0,0.3L267.2,171.8z M261.9,168.4l3.5-2c0.1-0.1,0.1-0.2,0-0.3l-4.1-2.4c-0.1,0-0.2-0.1-0.3-0.1s-0.2,0-0.3,0.1
			l-3.5,2c-0.1,0.1-0.1,0.2,0,0.3l4.1,2.4c0.1,0,0.2,0.1,0.2,0.1S261.8,168.5,261.9,168.4L261.9,168.4z M233,191.9l3.5-2
			c0.1-0.1,0.1-0.2,0-0.3l-4.1-2.4c-0.1,0-0.2-0.1-0.3-0.1c-0.1,0-0.2,0-0.3,0.1l-3.5,2c-0.1,0.1-0.1,0.2,0,0.3l4.1,2.4
			c0.1,0,0.2,0,0.3,0C232.8,192,232.9,191.9,233,191.9L233,191.9z M255.8,178.4c0.1,0,0.2,0.1,0.3,0.1s0.2,0,0.3-0.1l3.5-2
			c0.2-0.1,0.1-0.2,0-0.3l-4.1-2.4c-0.1,0-0.2-0.1-0.3-0.1s-0.2,0-0.3,0.1l-3.5,2c-0.2,0.1-0.1,0.2,0,0.3L255.8,178.4z M207.2,206.8
			l3.5-2c0.1-0.1,0.1-0.2,0-0.3l-4.1-2.4c-0.1,0-0.2-0.1-0.3-0.1s-0.2,0-0.3,0.1l-3.5,2c-0.2,0.1-0.1,0.2,0,0.3l4.1,2.4
			c0.1,0,0.2,0.1,0.3,0.1C207,206.9,207.1,206.9,207.2,206.8L207.2,206.8z M212.4,203.9l3.5-2c0.2-0.1,0.1-0.2,0-0.3l-4.1-2.4
			c-0.1,0-0.2-0.1-0.3-0.1s-0.2,0-0.3,0.1l-3.5,2c-0.2,0.1-0.1,0.2,0,0.3l4.1,2.4c0.1,0,0.2,0,0.2,0
			C212.2,203.9,212.2,203.9,212.4,203.9L212.4,203.9z M202.1,209.8l3.5-2c0.2-0.1,0.1-0.2,0-0.3l-4.1-2.4c-0.1,0-0.2-0.1-0.3-0.1
			c-0.1,0-0.2,0-0.3,0.1l-3.5,2c-0.1,0.1-0.1,0.2,0,0.3l4.1,2.4c0.1,0,0.2,0.1,0.3,0.1C201.9,209.9,201.9,209.9,202.1,209.8
			L202.1,209.8z M222.7,197.9l3.5-2c0.2-0.1,0.1-0.2,0-0.3l-4.1-2.4c-0.1,0-0.2-0.1-0.3-0.1s-0.2,0-0.3,0.1l-3.5,2
			c-0.2,0.1-0.1,0.2,0,0.3l4.1,2.4c0.1,0,0.2,0.1,0.3,0.1C222.5,198,222.6,197.9,222.7,197.9z M217.5,200.9l3.5-2
			c0.1-0.1,0.1-0.2,0-0.3l-4.1-2.4c-0.1,0-0.2-0.1-0.3-0.1c-0.1,0-0.2,0-0.3,0.1l-3.5,2c-0.1,0.1-0.1,0.2,0,0.3l4.1,2.4
			c0.1,0,0.2,0.1,0.3,0.1C217.3,200.9,217.4,200.9,217.5,200.9L217.5,200.9z M227.8,194.9l3.5-2c0.2-0.1,0.1-0.2,0-0.3l-4.1-2.4
			c-0.1,0-0.2-0.1-0.3-0.1c-0.1,0-0.2,0-0.3,0.1l-3.5,2c-0.2,0.1-0.1,0.2,0,0.3l4.1,2.4c0.1,0,0.2,0.1,0.3,0
			C227.6,195,227.7,194.9,227.8,194.9L227.8,194.9z M251.4,150.8c0.1,0,0.2,0.1,0.3,0.1c0.1,0,0.2,0,0.3-0.1l3.5-2
			c0.1-0.1,0.1-0.2,0-0.3l-1.1-0.6c-0.1,0-0.2-0.1-0.3-0.1c-0.1,0-0.2,0-0.3,0.1l-3.5,2c-0.1,0.1-0.1,0.2,0,0.3L251.4,150.8z
			 M226,167.2c0.1,0,0.2,0.1,0.3,0.1c0.1,0,0.2,0,0.3-0.1l3.5-2c0.1-0.1,0.1-0.2,0-0.3l-4.1-2.4c-0.1,0-0.2-0.1-0.3-0.1
			s-0.2,0-0.3,0.1l-3.5,2c-0.1,0.1-0.1,0.2,0,0.3L226,167.2z M236.3,161.2c0.1,0,0.2,0.1,0.3,0.1s0.2,0,0.3-0.1l3.5-2
			c0.2-0.1,0.1-0.2,0-0.3l-4.1-2.4c-0.1,0-0.2-0.1-0.3-0.1c-0.1,0-0.2,0-0.3,0.1l-3.5,2c-0.1,0.1-0.1,0.2,0,0.3L236.3,161.2z
			 M219.7,170.8c0.1,0,0.2,0.1,0.3,0.1c0.1,0,0.2,0,0.3-0.1l3.5-2c0.1-0.1,0.1-0.2,0-0.3l-4.1-2.4c-0.1,0-0.2-0.1-0.3-0.1
			c-0.1,0-0.2,0-0.3,0.1l-3.5,2c-0.2,0.1-0.1,0.2,0,0.3L219.7,170.8z M231.2,164.2c0.1,0,0.2,0.1,0.3,0.1c0.1,0,0.2,0,0.3-0.1l3.5-2
			c0.2-0.1,0.1-0.2,0-0.3l-4.1-2.4c-0.1,0-0.2-0.1-0.3-0.1c-0.1,0-0.2,0-0.3,0.1l-3.5,2c-0.2,0.1-0.1,0.2,0,0.3L231.2,164.2z
			 M209.4,176.8c0.1,0,0.2,0.1,0.3,0.1s0.2,0,0.3-0.1l3.5-2c0.2-0.1,0.1-0.2,0-0.3l-4.1-2.3c-0.1,0-0.2-0.1-0.3-0.1
			c-0.1,0-0.2,0-0.3,0.1l-3.5,2c-0.2,0.1-0.1,0.2,0,0.3L209.4,176.8z M214.6,173.8c0.1,0,0.2,0.1,0.3,0.1c0.1,0,0.2,0,0.3-0.1l3.5-2
			c0.2-0.1,0.1-0.2,0-0.3l-4.1-2.4c-0.1,0-0.2-0.1-0.3-0.1s-0.2,0-0.3,0.1l-3.5,2c-0.1,0.1-0.1,0.2,0,0.3L214.6,173.8z M241.1,156.8
			c0.1,0,0.2,0.1,0.3,0.1s0.2,0,0.3-0.1l3.5-2c0.2-0.1,0.1-0.2,0-0.3l-1.1-0.6c-0.1,0-0.2-0.1-0.3-0.1s-0.2,0-0.3,0.1l-3.5,2
			c-0.2,0.1-0.1,0.2,0,0.3L241.1,156.8z M256.6,147.8c0.1,0,0.2,0.1,0.3,0.1c0.1,0,0.2,0,0.3-0.1l3.5-2c0.2-0.1,0.1-0.2,0-0.3
			l-1.1-0.6c-0.1,0-0.2-0.1-0.3-0.1s-0.2,0-0.3,0.1l-3.5,2c-0.2,0.1-0.1,0.2,0,0.3L256.6,147.8z M265.1,152.8c0.1,0,0.2,0.1,0.3,0.1
			c0.1,0,0.2,0,0.3-0.1l3.5-2c0.2-0.1,0.1-0.2,0-0.3l-4.1-2.4c-0.1,0-0.2-0.1-0.3-0.1c-0.1,0-0.2,0-0.3,0.1l-3.5,2
			c-0.1,0.1-0.1,0.2,0,0.3L265.1,152.8z M278,165.9l3.5-2c0.2-0.1,0.1-0.2,0-0.3l-4.1-2.4c-0.1,0-0.2-0.1-0.3-0.1s-0.2,0-0.3,0.1
			l-3.5,2c-0.1,0.1-0.1,0.2,0,0.3l4.1,2.4c0.1,0,0.2,0.1,0.3,0C277.8,165.9,277.9,165.9,278,165.9L278,165.9z M246.2,153.8
			c0.1,0,0.2,0.1,0.3,0.1c0.1,0,0.2,0,0.3-0.1l3.5-2c0.1-0.1,0.1-0.2,0-0.3l-1.1-0.6c-0.1,0-0.2-0.1-0.3-0.1s-0.2,0-0.3,0.1l-3.5,2
			c-0.2,0.1-0.1,0.2,0,0.3L246.2,153.8z M204.3,179.8c0.1,0,0.2,0.1,0.3,0.1c0.1,0,0.2,0,0.3-0.1l3.5-2c0.1-0.1,0.1-0.2,0-0.3
			l-4.1-2.4c-0.1,0-0.2-0.1-0.3-0.1c-0.1,0-0.2,0-0.3,0.1l-3.5,2c-0.2,0.1-0.1,0.2,0,0.3L204.3,179.8z"/>
		<path class="st6" d="M227.1,210.8l34.8-20.2c0.6-0.3,1.2-0.5,1.9-0.5c0.7,0,1.3,0.2,1.9,0.5l20,11.6c1,0.6,1,1.6,0,2.2l-34.8,20.2
			c-0.6,0.3-1.2,0.5-1.9,0.5c-0.7,0-1.3-0.2-1.9-0.5l-20-11.6C226.1,212.4,226.1,211.4,227.1,210.8z"/>
		<path class="st9" d="M234.7,33.2v5.3l-79.2,45.9c-0.5,0.3-1,0.1-1-0.6l0.1-1.9c-0.5-0.2-1-0.3-1.5-0.5l-23.7,13.7
			c-0.3,0.2-0.5,0.4-0.7,0.7c-0.2,0.3-0.3,0.6-0.3,1v2c0,0.3-0.1,0.7-0.3,1c-0.2,0.3-0.4,0.6-0.7,0.7l-2.7,1.6v-5.3
			c0-0.3,0.1-0.7,0.3-1c0.2-0.3,0.4-0.6,0.7-0.7l108.1-62.6C234.3,32.3,234.7,32.6,234.7,33.2z"/>
		<path class="st10" d="M234.7,113.1c0,0.3-0.1,0.7-0.3,1c-0.2,0.3-0.4,0.6-0.7,0.7l-108.1,62.6c-0.5,0.3-1,0.1-1-0.6v-74.5l2.7-1.6
			c0.5-0.3,1.5-5.1,2-5.5l23.7-13.7c0.5-0.3,1.8,3.3,2.4,2.9l79.2-45.8L234.7,113.1L234.7,113.1z"/>
		<path class="st8" d="M129.4,122.7l47.5-27.5c0.5-0.3,1-0.1,1,0.6v46.8c0,0.3-0.1,0.7-0.3,1c-0.2,0.3-0.4,0.6-0.7,0.7l-47.5,27.5
			c-0.5,0.3-1,0.1-1-0.6v-46.8c0-0.3,0.1-0.7,0.3-1C128.8,123.1,129.1,122.9,129.4,122.7z"/>
		<path class="st7" d="M129.4,110.3L230,52.1c0.5-0.3,1-0.1,1,0.6v7c0,0.3-0.1,0.7-0.3,1c-0.2,0.3-0.4,0.6-0.7,0.7l-100.6,58.3
			c-0.5,0.3-1,0.1-1-0.6v-7c0-0.3,0.1-0.7,0.3-1C128.8,110.8,129.1,110.5,129.4,110.3z"/>
		<path class="st8" d="M193.7,78.7v1.9c0,0.4,0.3,0.5,0.6,0.4l29.3-16.9v-3.2l-29.3,16.9c-0.2,0.1-0.3,0.3-0.4,0.4
			C193.8,78.3,193.7,78.5,193.7,78.7z"/>
		<path class="st11" d="M226.7,58.9c0.3-0.2,0.6,0,0.6,0.3v1.9c0,0.2-0.1,0.4-0.2,0.6c-0.1,0.2-0.2,0.3-0.4,0.4l-3.1,1.8v-3.2
			L226.7,58.9z"/>
		<path class="st8" d="M226.5,61.4l-0.4-0.1c0-0.1,0.1-0.3,0.1-0.5c0-0.1,0-0.3-0.1-0.4c-0.1-0.1-0.1-0.2-0.3-0.3
			c-0.1,0-0.2-0.1-0.3-0.1c-0.1,0-0.2,0-0.3,0.1c-0.2,0.2-0.4,0.4-0.5,0.6c-0.1,0.3-0.2,0.5-0.2,0.8c0,0.1,0,0.3,0.1,0.4
			c0.1,0.1,0.1,0.2,0.3,0.3c0.1,0,0.1,0.1,0.2,0.1c0.1,0,0.2,0,0.3-0.1c0.3-0.2,0.5-0.4,0.6-0.7l0.4,0.1h0c0,0,0.1,0,0.1,0
			c0,0,0,0,0-0.1C226.5,61.6,226.5,61.5,226.5,61.4C226.5,61.5,226.5,61.4,226.5,61.4z M225.3,62.1c0,0-0.1,0-0.1,0c0,0-0.1,0-0.1,0
			c-0.1-0.1-0.1-0.1-0.2-0.2c0-0.1,0-0.2,0-0.3c0-0.2,0-0.5,0.1-0.7c0.1-0.2,0.2-0.4,0.4-0.6c0,0,0.1,0,0.2-0.1c0,0,0.1,0,0.1,0
			c0.1,0.1,0.2,0.3,0.2,0.5c0,0.2,0,0.5-0.1,0.7C225.7,61.8,225.5,61.9,225.3,62.1z"/>
		<path class="st12" d="M234.7,38.6V45l-110.1,63.7v-6.5l2-1.2c0.5-0.3,0.7-0.8,1-1.7l0.7-2.4c0-0.3,0.1-0.7,0.3-1
			c0.2-0.3,0.4-0.6,0.7-0.8l23.7-13.7c0.1-0.1,0.2-0.2,0.4-0.2c0.1,0,0.3,0,0.4,0c0.1,0,0.3,0.1,0.4,0.2s0.2,0.2,0.2,0.3l0.9,1.5
			c0.3,0.5,0.5,0.9,1,0.5L234.7,38.6z"/>
		<path class="st7" d="M230.1,36.6c0.7-0.4,1.3-0.1,1.3,0.7c0,0.4-0.1,0.9-0.4,1.2c-0.2,0.4-0.5,0.7-0.9,0.9
			c-0.7,0.4-1.3,0.1-1.3-0.7c0-0.4,0.1-0.9,0.4-1.2C229.4,37.1,229.7,36.8,230.1,36.6z"/>
		<path class="st7" d="M225.6,39.2c0.7-0.4,1.3-0.1,1.3,0.7c0,0.4-0.1,0.9-0.4,1.2c-0.2,0.4-0.5,0.7-0.9,0.9
			c-0.7,0.4-1.3,0.1-1.3-0.7c0-0.4,0.1-0.9,0.4-1.2C224.9,39.7,225.2,39.4,225.6,39.2z"/>
		<path class="st7" d="M221.1,41.8c0.7-0.4,1.3-0.1,1.3,0.7c0,0.4-0.1,0.9-0.4,1.2c-0.2,0.4-0.5,0.7-0.9,0.9
			c-0.7,0.4-1.3,0.1-1.3-0.7c0-0.4,0.1-0.9,0.4-1.2S220.7,42.1,221.1,41.8z"/>
		<path class="st13" d="M135.6,97.5c0-0.1-0.1-0.1-0.1,0l-0.2,0.5c-0.4,0-0.8,0.3-1.1,0.9c-0.4,0.8-0.4,1.8,0,2.2
			c0.1,0.1,0.2,0.1,0.4,0.2c0.1,0,0.3,0,0.4-0.1c0.3-0.2,0.6-0.5,0.7-0.9c0.1-0.1,0.1-0.2,0-0.3c-0.1,0-0.1,0-0.2,0.1
			c-0.3,0.6-0.7,0.9-1,0.6c-0.1-0.2-0.2-0.5-0.2-0.8s0.1-0.6,0.2-0.8c0.2-0.4,0.5-0.7,0.7-0.7l-0.2,0.4c0,0.1,0,0.2,0.1,0.2l0.6-0.4
			c0,0,0,0,0.1-0.1c0,0,0-0.1,0-0.1L135.6,97.5z"/>
		<path class="st13" d="M152.4,84.4l0.6-1.2c0-0.1,0-0.1,0-0.2c0-0.1,0-0.1,0-0.2c-0.1-0.1-0.2,0-0.2,0.1l-0.6,1.2l-0.6-0.6
			c-0.1-0.1-0.2,0-0.2,0.1c0,0.1,0,0.1,0,0.2c0,0.1,0,0.1,0,0.2l0.6,0.6l-0.6,1.2c0,0.1-0.1,0.1-0.1,0.2c0,0.1,0,0.1,0.1,0.2
			c0,0,0,0,0.1,0c0,0,0,0,0.1,0c0.1,0,0.1-0.1,0.1-0.2l0.6-1.2l0.6,0.5c0,0,0,0,0,0c0,0,0,0,0,0s0,0,0,0c0,0,0,0,0,0
			c0.1,0,0.1-0.1,0.1-0.1c0-0.1,0.1-0.1,0.1-0.2c0-0.1,0-0.1-0.1-0.2L152.4,84.4z"/>
		<path class="st8" d="M137.7,99v-2c0-0.3,0.1-0.7,0.3-1c0.2-0.3,0.4-0.6,0.7-0.7l89.5-51.7c0.5-0.3,1-0.1,1,0.6v2
			c0,0.3-0.1,0.7-0.3,1c-0.2,0.3-0.4,0.6-0.7,0.7l-89.5,51.7C138.2,99.9,137.7,99.6,137.7,99z"/>
		<path class="st14" d="M227.6,44.6l0.3,0.6c0,0,0,0,0,0c0,0,0,0,0,0l0.6-0.2c0.1,0,0.1,0.1,0.1,0.2l-0.4,0.8c0,0.1,0,0.1,0,0.2
			l0.1,0.7c0,0.1-0.1,0.3-0.2,0.3l-0.5-0.1c0,0,0,0-0.1,0c0,0,0,0,0,0l-0.5,0.7c-0.1,0.1-0.2,0.1-0.2-0.1l0.1-0.8c0,0,0,0,0-0.1
			c0,0,0,0,0-0.1l-0.4-0.3c-0.1-0.1,0-0.2,0.1-0.3l0.6-0.4c0,0,0.1-0.1,0.1-0.1l0.3-0.9C227.4,44.5,227.5,44.5,227.6,44.6z"/>
		<g class="st15">
			<path class="st13" d="M230.3,43.2c-0.1,0-0.1,0-0.2,0c-0.1,0-0.1-0.1-0.1-0.1c0-0.1-0.1-0.2,0-0.3c0-0.1,0.1-0.2,0.2-0.2l2.8-1.6
				c0.1,0,0.2,0,0.2,0c0.1,0,0.1,0.1,0.2,0.2c0,0.1,0.1,0.2,0,0.2c0,0.1-0.1,0.2-0.1,0.2l-2.8,1.6C230.5,43.2,230.4,43.2,230.3,43.2
				z"/>
			<path class="st13" d="M230.3,44.9c-0.1,0-0.1,0-0.2,0c-0.1,0-0.1-0.1-0.1-0.1c0,0,0-0.1,0-0.1c0,0,0-0.1,0-0.1c0,0,0-0.1,0.1-0.1
				c0,0,0.1-0.1,0.1-0.1l2.8-1.6c0.1,0,0.2,0,0.2,0c0.1,0,0.1,0.1,0.2,0.2c0,0.1,0.1,0.2,0,0.2c0,0.1-0.1,0.2-0.1,0.2l-2.8,1.6
				C230.5,44.8,230.4,44.9,230.3,44.9z"/>
			<path class="st13" d="M230.3,46.5c-0.1,0-0.1,0-0.2-0.1c-0.1,0-0.1-0.1-0.1-0.2c0-0.1,0-0.2,0-0.2c0-0.1,0.1-0.1,0.1-0.2l2.8-1.6
				c0,0,0.1,0,0.1,0c0,0,0.1,0,0.1,0c0,0,0.1,0,0.1,0.1c0,0,0.1,0.1,0.1,0.1c0,0.1,0.1,0.2,0,0.3c0,0.1-0.1,0.2-0.2,0.2l-2.8,1.6
				C230.5,46.5,230.4,46.5,230.3,46.5z"/>
		</g>
		<path class="st7" d="M151.1,133.7c4-4.1,5-5.9,5-7.6c0-1.6-0.7-2.7-2.8-1.5c-1.5,0.8-2.6,2.2-3.1,3.9c-0.1,0.3-0.3,0.7-0.6,0.9
			c-0.3,0.3-0.6,0.4-0.9,0.6l-2.8,0.6c-0.7,0.2-1.1-0.3-0.9-0.9c1.2-5,4.3-9.6,8.6-12c5.2-3,8.2-0.7,8.2,4.3c0,4.8-2.5,8.9-5.1,11.8
			c-0.5,0.6-0.8,1.4-0.8,2.1v1.6c0,0.4-0.1,0.7-0.3,1.1c-0.2,0.3-0.4,0.6-0.8,0.8l-3.4,2c-0.6,0.3-1.1,0.1-1.1-0.6v-5
			C150.3,135,150.6,134.3,151.1,133.7z"/>
		<path class="st7" d="M150.2,148.2c0-1,0.2-2,0.7-2.9c0.5-0.9,1.2-1.6,2.1-2.1c1.8-1.1,2.8-0.1,2.8,1.8c0,1-0.2,2-0.7,2.9
			c-0.5,0.9-1.2,1.6-2.1,2.2C151.1,151.1,150.2,150.1,150.2,148.2z"/>
		<path class="st9" d="M263,16.2l-2.7-1.6c-0.3-0.1-0.5-0.2-0.8-0.1c-0.3,0-0.6,0.1-0.8,0.3l-66.5,38.5c-0.7,0.4-1.2,1-1.6,1.7
			s-0.6,1.5-0.7,2.3v95.8c0,0.3,0,0.6,0.1,0.8c0.1,0.3,0.3,0.5,0.5,0.6l2.7,1.6l65.4-40.2c0.7-0.4,1.2-1,1.6-1.7
			c0.4-0.7,0.6-1.5,0.7-2.3L263,16.2z"/>
		<path class="st16" d="M193.3,156.1l-2.7-1.5c-0.2-0.2-0.4-0.4-0.5-0.6c-0.1-0.3-0.2-0.5-0.1-0.8V57.2c0-0.8,0.3-1.7,0.7-2.4
			l2.7,1.6c-0.4,0.7-0.7,1.5-0.7,2.4v95.8c0,0.3,0,0.5,0.1,0.8C192.9,155.7,193,155.9,193.3,156.1z"/>
		<path class="st9" d="M194.9,54.8l66.5-38.5c1.3-0.7,2.3-0.1,2.3,1.3v95.8c0,0.8-0.3,1.6-0.7,2.3c-0.4,0.7-0.9,1.3-1.6,1.7
			L194.9,156c-1.3,0.7-2.3,0.1-2.3-1.3V58.8c0-0.8,0.3-1.6,0.7-2.2C193.7,55.9,194.2,55.3,194.9,54.8z"/>
		<path class="st17" d="M260.3,14.7l2.6,1.5c-0.3-0.1-0.5-0.1-0.8-0.1c-0.3,0-0.5,0.1-0.7,0.3l-66.5,38.5c-0.6,0.4-1.2,0.9-1.5,1.6
			l-2.7-1.6c0.4-0.6,0.9-1.2,1.5-1.6l66.4-38.4c0.2-0.2,0.5-0.3,0.8-0.3C259.8,14.5,260.1,14.6,260.3,14.7L260.3,14.7z"/>
		<path class="st18" d="M202.5,58.6l53.2-30.8c1-0.6,1.7-0.1,1.7,1v82c0,0.6-0.2,1.2-0.5,1.7s-0.7,1-1.2,1.3l-53.2,30.8
			c-1,0.5-1.7,0.1-1.7-1V61.6c0-0.6,0.2-1.2,0.5-1.7C201.5,59.4,202,58.9,202.5,58.6z"/>
		<path class="st5" d="M244.6,76.7l0.5-0.4c-0.9-1-2-1.6-3.3-2l-0.2,0.7C242.8,75.2,243.8,75.8,244.6,76.7z"/>
		<path class="st9" d="M245.8,79.4l-1.1-1.1c-0.3-0.3-0.4-0.6-0.4-1c0-0.4,0.1-0.7,0.4-1c0.3-0.3,0.6-0.4,1-0.4s0.7,0.1,1,0.4
			l1.1,1.1c0.3,0.3,0.4,0.6,0.4,1c0,0.4-0.1,0.7-0.4,1c-0.3,0.3-0.6,0.4-1,0.4S246.1,79.6,245.8,79.4z"/>
		<path class="st19" d="M255.5,104.3l2.5,4.2c0,0,16.1-8.6,17-9.7c0.9-1.1,0.9-3.4,1-4.6c0.2-2-0.5-3.8-0.6-4.5
			c-0.2-1.3,1.7-1.4,2.6,0.4c0.7,1.3,0.7,2.8,1.3,2.8c0.8-0.6,1.6-1.2,2.3-1.9c1-1.1,2.8-2.9,4.2-2.7c0.2,0.1,0.4,0.2,0.6,0.4
			c0.2,0.2,0.3,0.4,0.3,0.6c0,0.8,0.2,1.5,0.5,2.2c0.2,0.3,0.4,0.6,0.5,0.9c0,0.5,0,0.9,0,1.4c0.1,0.7,0.7,1,0.8,1.6
			c0,0.5-0.1,1-0.2,1.5c0,0.3,0.1,0.6,0.1,0.9c-0.1,0.7-0.4,1.3-0.8,1.8c-1.4,1.6-3,2.9-4.8,4c-1.5,1-3.4,1.8-5.1,2.7
			c-1.7,0.9-20.6,15.5-23.2,13.8c-1-0.7-3.8-4.2-6.6-8.1"/>
		<path class="st19" d="M247.2,112.6c-2.9-4.1-5.6-8.3-8-12.6c-2.9-8.2,0.4-13.6,0.4-13.6s4.2-1.3,7.7,4.2c1.5,2.4,5.6,9.3,8.2,13.8
			"/>
		<path class="st7" d="M232.3,86.4c0,0,4.6-1.9,7.6-1.7c3,0.2,5.2,1,7.4,4.6c2.9,4.7,7.8,12.9,7.8,12.9c-2.1,4.2-5.3,7.8-9.4,10.1
			l-8.9-13.5L232.3,86.4z"/>
		<path class="st20" d="M217.7,94.6c-1.5,1.2-2.7,2.9-3.3,4.8c-0.7,2.3-1,4.7-1,7v15.4l-0.2,29.1c9.7,3.3,22.1,0.4,32.4-11.2
			c0,0-0.6-37.2-0.6-43.3c0-0.3,0-0.6,0-0.8c-0.4-8.6-7.8-12.6-15.1-8.5l-6.1,3.5L217.7,94.6L217.7,94.6z"/>
		<path class="st6" d="M221.1,59.3c0,0-4.8-0.4-5.8,4.1c-1,4,6.2,19.6,6.1,19.3C221.1,82.4,221.1,59.3,221.1,59.3z"/>
		<path class="st9" d="M237.9,50.3c0,0-1.8-4.8-10.4-1.4c-4.4,1.7-6,7.1-6,7.1L237.9,50.3z"/>
		<path class="st21" d="M237.9,50.3c0,0-1.8-4.8-10.4-1.4c-4.4,1.7-6,7.1-6,7.1L237.9,50.3z"/>
		<path class="st6" d="M224.3,63c0,6.6,4.6,10.6,10.2,9.1c5.7-1.5,10.2-8,10.2-14.6s-4.9-6.6-10.5-5C228.6,54,224.3,56.5,224.3,63z"
			/>
		<path class="st6" d="M219,73.4c0,0,1.5,7.8,2.1,9c0.2,0.3,0.4,0.6,0.8,0.9c0.3,0.2,0.7,0.3,1.1,0.4l-0.1-5.7L219,73.4z"/>
		<path class="st6" d="M220.9,61.1c-0.6,0.1-1.2,0.3-1.7,0.7c-0.5,0.3-0.9,0.8-1.2,1.3c-1.2,1.8-0.5,6.2,1,10.3l2.8-0.4L220.9,61.1z
			"/>
		<path class="st19" d="M222.7,72.8c-0.6,0.5-1.4-0.5-2.1-1.2c-0.7-0.7-3-1.2-4.1,1.9c-1.2,3.1,1,6.3,2.8,6.5
			c3.1,0.3,3.6-2.1,3.6-2.1l0.1,13.3c5.2,5.6,14.4-1,10.3-3.4v-4c1.4-0.1,2.8-0.4,4.2-0.9c2.3-1,3.7-3.5,4.4-6.6
			c1.1-4.9,1.5-8.8,0.6-17.6c-1-9.7-11-7.1-16.4-1.7C220.6,62.5,222.7,72.8,222.7,72.8z"/>
		<path class="st6" d="M222.7,73.9c-0.3,0.1-1.4-1.7-2.1-2.3c-1-0.8,0.3-10.5,0.3-10.5c-1.1-2.5,1-6.3,3.2-7.8
			c1.6-1,3.3-1.7,5.2-1.9c1.6-0.3,3.1-0.5,4.7-0.6c1.9-0.1,3.8-0.3,5.7-0.7c1.5-0.3,2.9-0.9,4.2-1.5c1.2-0.5,2.2,0.7,1.1,2.7
			c-0.9,1.9-2.3,3.5-3.9,4.9c-4.6,3.5-10,4.3-14.7,4.8c-1.1,0.1-1.3,1.4-1.9,4.8C224.1,68.7,223.6,73.6,222.7,73.9z"/>
		<path class="st6" d="M217.3,61.2l-3.4-1.2c0.5-1.3,1.7-2,2.6-1.7C217.4,58.6,217.8,59.9,217.3,61.2z"/>
		<path class="st22" d="M233.2,83.8c0,0-5.1,0.2-6.9-0.4c-1.1-0.4-2-1.2-2.5-2.2c0.2,1.1,0.7,2.1,1.4,3c1.3,1.6,8,1.2,8,1.2V83.8z"
			/>
		<path class="st6" d="M232,68.8c0,0.3-0.1,0.6-0.3,0.9c-0.2,0.3-0.4,0.5-0.7,0.6c-0.6,0.1-1-0.3-1-1c0-0.3,0.1-0.6,0.3-0.9
			c0.2-0.3,0.4-0.5,0.7-0.6C231.5,67.7,232,68.1,232,68.8z"/>
		<path class="st6" d="M230.3,64.3l-2.2,2c-0.2-0.4-0.2-0.8-0.1-1.2c0.1-0.4,0.3-0.7,0.6-1c0.1-0.1,0.2-0.2,0.4-0.3
			c0.2-0.1,0.3-0.1,0.5-0.1c0.2,0,0.3,0.1,0.5,0.2C230.1,64,230.3,64.2,230.3,64.3z"/>
		<path class="st22" d="M232.7,76.8l2.3,0.4c-0.1,0.4-0.3,0.7-0.6,0.9c-0.3,0.2-0.7,0.4-1,0.4C232.8,78.4,232.5,77.6,232.7,76.8z"/>
		<path class="st6" d="M241.4,62.4l-2-1.2c0.4-0.7,1.2-1.1,1.7-0.8c0.3,0.2,0.5,0.6,0.5,1C241.7,61.7,241.6,62.1,241.4,62.4z"/>
		<path class="st6" d="M240.5,66.2c0,0.3-0.1,0.6-0.3,0.9s-0.4,0.5-0.8,0.6c-0.6,0.1-1-0.3-1-1c0-0.3,0.1-0.6,0.3-0.9
			c0.2-0.3,0.4-0.5,0.8-0.6C240,65.1,240.5,65.5,240.5,66.2z"/>
		<path class="st22" d="M235.4,66.6l0.1,7.2l3.7-1.9L235.4,66.6z"/>
		<path class="st19" d="M202.3,138.1c2.9-29.5,7.5-40,14.8-43c2.4,1.9,2.8,10.6,0.1,17.2c0,0-6.1,19.6-6.5,26.3
			c-0.3,6.2-0.1,12.5,0.7,18.7c0,0.4,0.2,0.7,0.3,1.1c0.2,0.3,0.4,0.6,0.7,0.8c1.5,1.1,1.4,2.6,2.5,4c0.9,1.1,1.7,1.3,1.5,1.8
			c-0.2,0.4-0.5,0.7-0.9,0.9c-0.4,0.2-0.9,0.3-1.3,0.2c-0.7-0.2-1.3-0.6-1.9-1.1c0.4,1.6,1.1,3.1,1.9,4.4c2,3.2,1.8,5.3-3,5.9
			c-3,0.4-5.2-1.6-6.5-9.1c-0.4-2.2-1.3-6.1-1.7-9C201.9,149,201.8,142.9,202.3,138.1z"/>
		<path class="st7" d="M219.1,93.7c0,0-5.3,1.7-8,5.9c-2.7,4.2-5.4,11.1-7.5,23.3c0,0,3.2,4.6,11.9,1.1c0,0,4.1-15.6,4.6-21.8
			C220.7,95.5,219.1,93.7,219.1,93.7z"/>
		<path class="st9" d="M224,50.6c-4.9,3.1-7.1,6.9-7.2,11.4c0,3.1,0.1,6.2,0.4,9.3c-0.9,0.7-1.7,1.5-2.2,2.6c-0.5,1-0.9,2.1-0.9,3.3
			c0,3.1,2.5,4.9,5.5,4.1c1.5-0.5,2.9-1.4,3.9-2.6c1-1.3,1.6-2.8,1.7-4.4c0.1-1-0.2-2-0.9-2.8c-0.6-0.8-1.5-1.3-2.5-1.4
			c-0.6-4.3-0.6-8.7,0-13.1c1.1-6.6,13.3-10.3,16.1-6.6C237.1,47.1,230.9,46.2,224,50.6z"/>
		<path class="st16" d="M224,50.6c-4.9,3.1-7.1,6.9-7.2,11.4c0,3.1,0.1,6.2,0.4,9.3c-0.9,0.7-1.7,1.5-2.2,2.6
			c-0.5,1-0.9,2.1-0.9,3.3c0,3.1,2.5,4.9,5.5,4.1c1.5-0.5,2.9-1.4,3.9-2.6c1-1.3,1.6-2.8,1.7-4.4c0.1-1-0.2-2-0.9-2.8
			c-0.6-0.8-1.5-1.3-2.5-1.4c-0.6-4.3-0.6-8.7,0-13.1c1.1-6.6,13.3-10.3,16.1-6.6C237.1,47.1,230.9,46.2,224,50.6z"/>
		<path class="st9" d="M222.2,74.9c0-0.3-0.1-0.7-0.2-0.9c-0.1-0.3-0.4-0.6-0.6-0.7c-0.3-0.2-0.6-0.3-0.9-0.4c-0.3,0-0.7,0-1,0.1
			c-0.7,0.2-1.4,0.7-1.9,1.3c-0.5,0.6-0.8,1.3-0.8,2.1c0,0.3,0.1,0.6,0.2,0.9c0.1,0.3,0.4,0.5,0.6,0.7c0.3,0.2,0.6,0.3,0.9,0.4
			c0.3,0,0.6,0,1-0.1c0.7-0.2,1.4-0.7,1.9-1.3C221.9,76.4,222.2,75.7,222.2,74.9z"/>
		<path class="st9" d="M180.4,121.8c-0.1,0.1-0.2,0.2-0.3,0.4c-0.2,0.2-0.3,0.5-0.4,0.7c-0.1,0.2-0.1,0.3,0,0.5
			c0,0.1,0.1,0.2,0.2,0.3c0,0,0.1,0.1,0.1,0.1l-2.7-1.5c-0.1-0.1-0.2-0.1-0.3-0.3c0-0.1-0.1-0.2-0.1-0.3s0-0.2,0.1-0.3
			c0.1-0.2,0.1-0.4,0.2-0.5c0.1-0.2,0.3-0.4,0.5-0.6L180.4,121.8z"/>
		<path class="st9" d="M180.4,121.8c-1.4,1.5-0.9,2.4,1.1,2.2l11.2-1.3V109L180.4,121.8z"/>
		<path class="st9" d="M180.4,121.8c-0.9,0.9-1,1.6-0.5,2l-2.7-1.5c-0.6-0.4-0.4-1.1,0.5-2l12.3-12.7l2.7,1.6L180.4,121.8z"/>
		<path class="st16" d="M180.4,121.8c-0.1,0.1-0.2,0.2-0.3,0.4c-0.2,0.2-0.3,0.5-0.4,0.7c0,0.2,0,0.3,0,0.5c0,0.1,0.1,0.2,0.2,0.3
			c0,0,0.1,0.1,0.1,0.1l-2.7-1.5c-0.1-0.1-0.2-0.1-0.3-0.3c0-0.1-0.1-0.2-0.1-0.3s0-0.2,0.1-0.3c0.1-0.2,0.1-0.4,0.2-0.5
			c0.1-0.2,0.3-0.4,0.5-0.6L180.4,121.8z"/>
		<path class="st17" d="M192.6,109l-12.3,12.8l-2.7-1.6l12.3-12.7L192.6,109z"/>
		<path class="st19" d="M255.5,104.3l2.5,4.2c0,0,16.1-8.6,17-9.7c0.9-1.1,0.9-3.4,1-4.6c0.2-2-0.5-3.8-0.6-4.5
			c-0.2-1.6,2-1.2,2.7-0.6c0.5,0.5,0.9,1.1,1.2,1.7c0.3,0.6,1,2.5,1.7,2.6c0.5,0.1,1.6-0.6,2-1c1.8-1.3,2.9-3.2,4.2-4.9
			c0.2-0.4,0.6-0.7,1-0.8c0.3-0.1,0.7-0.1,1,0c0.3,0.1,0.7,0.3,0.9,0.5c0.6,0.3,1.1,0.8,1.5,1.3c0.2,0.4,0.4,0.8,0.5,1.3
			c0.7,3.1-0.9,5.7-2.7,8c-1.9,2.3-4.1,4.3-6.6,5.8c-1.5,1-3.4,1.8-5.1,2.7c-1.7,0.9-19.8,16.1-22.3,14.4c-3-2.4-5.7-5.1-8.1-8.2"/>
		<path class="st19" d="M374.3,77.9c5.8,0,8.9,1.8,11.3,7.1c2.3,5.2,9.5,20.1,9.1,23.7c-0.4,3.6-15.1,19.1-15.1,19.1l-4.2-5.1
			l9.1-15.4l-9-13.1L374.3,77.9z"/>
		<path class="st6" d="M360.2,236.7c0,0,0.7,2,1,3.7c0.3,1.4,0.7,3.7,0.2,4.7c-0.5,1-2.4,1.7-5.3,1.7c-1.9,0-4.9,1.3-6.9,2.4
			c-2,1.1-6.4,1.6-8.7,1.4c-2.6-0.3-5.3-1.8-5.7-2.9c-0.4-1.1-0.8-2.6,6.3-4.8c0.1,0,8.5-2.8,11.5-6.1L360.2,236.7z"/>
		<path class="st19" d="M360.2,236.9l-1.3-0.2l-6.2,0.1c-3,3.3-11.4,6.1-11.5,6.1l-1.1,0.4c-1.2,1-0.2,2.7,2.7,2.9
			c2.9,0.2,12-2.8,14-3.8c1.1-0.5,1.9-1.3,2.6-2.3C359.9,239.2,360.2,238,360.2,236.9z"/>
		<path class="st19" d="M360.2,234.2c0,0,0,1.7,0,2.7s-1.1,2.4-4.1,2.3c-2.1-0.1-3.5-0.6-3.5-2.4v-2.5L360.2,234.2z"/>
		<path class="st6" d="M380.1,225.5c0.5,0.2,0.6,1.3,0.7,3.3c0,1.5,0.3,4.3-1.5,4.8c-1.8,0.5-4.5,0.1-5.6-1.3
			c-1.4-1.9-2.3-3.5-4.4-5.8c-1.7-2-3.6-3.8-4.3-6.6c-0.6-2.5,0-3.5,1.7-4.2c1.7-0.7,3.2-0.1,5.5,1.8c0.6,0.4,1.3,0.8,2.1,1.1
			C375.8,219.1,379.6,225.3,380.1,225.5z"/>
		<path class="st19" d="M380.2,223.6l-0.1,2.5c0,0-1.7,3.3-6.3,0c-0.1-0.2-0.5-5.1-0.5-5.1L380.2,223.6z"/>
		<path class="st19" d="M374.3,218.6c-0.7-0.3-1.4-0.7-2.1-1.1c-1.9-0.6-5.8,0.1-4.1,2.8c1.5,2.3,3.4,4.2,5.6,5.7
			c2.1,1,2.8-0.2,2.8-0.2l-0.7-5.9C375.5,219.4,374.9,218.9,374.3,218.6z"/>
		<path class="st6" d="M383.6,188.8c-0.9-8.2-2.7-13-2.7-13s1.6-11.1,2.8-21.7c2.9-25,1-25.4-2.5-34.1c0,0-32-4.1-33.3,9.2
			c-1.7,16.6-0.9,48.8-0.6,54.7c0.3,5.9,0.7,8.5,2.5,20.9c1.3,9.4,2.6,29.9,2.6,29.9c4.2,2.4,8.2-0.4,8.2-0.4s4-25.2,3.9-32
			c-0.1-5-0.8-10-2.2-14.9c0,0,2.7-27,3.4-31.4c0,0,0.8,8.6,1.1,14.5c0.3,5.9,1.9,11.5,3.3,22.5c1.2,9.5,3.2,29.3,3.2,29.3
			c4.2,2.4,7.1,1.3,7.1,1.3S384.5,197.1,383.6,188.8z"/>
		<path class="st19" d="M360.8,72.6L362,85l10.9-0.7L372,70.5L360.8,72.6z"/>
		<path class="st9" d="M382.7,83.2c-1.1-3.3-3.4-5.2-8.4-5.3l-1.8,0.1c-0.3,1.8-5.7,3.3-11,1.5c-0.7,0.2-2.8,0.6-4,0.7l-2.5,0.4
			c-3.9,1.3-5.6,8-5.9,18.7c-0.4,10.7-2,33.5-2,33.5s8.3,4.5,21.4,2.7c11.8-1.5,16.3-8.5,15.9-7.6c-1.4-5.9-3.4-11.6-6.1-17.1
			C384.5,95.5,384.4,88.1,382.7,83.2z"/>
		<path class="st23" d="M362,135.9c2.2,0,4.3-0.1,6.5-0.4c10.7-1.4,15.5-7.3,15.9-7.7c-1.4-5.9-3.4-11.6-6.1-17
			c3.1-7.7,4.6-13.4,5.1-17.8c-0.5,3.2-5.2,15.6-11.4,19.3c0,0,3.5,0.5,6.5,4.6C381.5,121,379.1,135,362,135.9z"/>
		<path class="st19" d="M357.5,80.2c-5.1,0.6-9.5,1.6-11.4,6.6c-2.5,6.9-6.3,13.2-11.1,18.6c-3.2,3.4-16.3,10-19.2,9.5
			c-2.9-0.5-5.6-4.7-7.1-3.8c-1.5,0.9,1.8,3.9,1.6,4.6c-0.2,0.7-5.5-0.8-8-2.6c-2.5-1.8-4,3.3-0.7,7.2c3.3,3.8,9.4,4.1,16.1,2.8
			c6.7-1.3,18.8-5.3,23.7-9.8c6.3-5.9,7.5-9.2,10.3-14.3C360.3,92.1,357.5,80.2,357.5,80.2z"/>
		<path class="st6" d="M355.1,57.1c0,0-4.1-4.9-0.9-9.7c3.8-5.7,10.5-7.6,18.8-5.1c4.1,1.2,10.1,6.9,10.4,14.9
			c0.2,6.1-17,10.2-16.7,14.4L355.1,57.1z"/>
		<path class="st22" d="M352.7,58.9c0,0-2.4,3.6-2.1,4.1c0.6,0.4,1.2,0.6,1.9,0.8L352.7,58.9z"/>
		<path class="st19" d="M360.1,47.3c-2.4,1.2-6.4,3.5-7.5,12.1c-1.1,8.9,0.9,12,2.1,13.2c0.8,0.8,5,1.1,7.3,0.4
			c2.8-0.9,8.7-3.8,11.5-8.4c3.3-5.4,4-12.6,0.2-15.4C368.3,45.2,362.1,46.3,360.1,47.3z"/>
		<path class="st6" d="M359.4,47.7c0,0-2.1,8.1,0.4,13.3c0,0,1.5-3.2,4.2-2.3c2.7,0.9,2.5,4.6,0.3,6.4c-0.6,0.5-1.2,0.9-2,1.1
			c-0.8,0.2-1.5,0.1-2.3-0.2c0,0,0.1,4.5,3.9,6.3c0,0,8,3.8,15.3-3.9c6.5-7,5.7-19.7-4-22.9C365.6,42.3,359.4,47.7,359.4,47.7z"/>
		<path class="st6" d="M392,81.9c-1.5,0-3-0.3-4.4-0.9c-1.4-0.6-2.7-1.4-3.8-2.5c-1.1-1.1-1.9-2.4-2.5-3.8c-0.6-1.4-0.9-2.9-0.9-4.5
			V55.4c3.1,0,6,1.2,8.2,3.4s3.4,5.1,3.4,8.2L392,81.9z"/>
		<path class="st6" d="M353.2,44c-3.6,3.6-3.8,14.3,6.6,16.9l6.8-18.8C362.7,39.5,356.4,40.7,353.2,44z"/>
		<path class="st6" d="M358.8,63.8c-0.3-0.1-0.5-0.2-0.7-0.4c-0.2-0.2-0.4-0.4-0.5-0.7c-0.1-0.2-0.2-0.5-0.2-0.8
			c0-0.3,0-0.6,0.1-0.8c0.1-0.3,0.2-0.5,0.4-0.7c0.2-0.2,0.4-0.4,0.7-0.5c0.3-0.1,0.5-0.2,0.8-0.2c0.3,0,0.6,0,0.8,0.1L358.8,63.8z"
			/>
		<path class="st24" d="M365.7,156l1.7-11.2c3.5-0.4,6.9-1.6,9.9-3.4c0,0-2.2,3.3-7.9,4.7l-1.8,12.9l-0.7,13.5L365.7,156z"/>
	</g>
</g>
</svg>
