<svg width="492" height="316" viewBox="0 0 492 316" fill="none" xmlns="http://www.w3.org/2000/svg">
<g clip-path="url(#clip0_4_8)">
<path d="M244.203 288.26C323.994 288.26 388.677 223.731 388.677 144.13C388.677 64.5293 323.994 0 244.203 0C164.412 0 99.7288 64.5293 99.7288 144.13C99.7288 223.731 164.412 288.26 244.203 288.26Z" fill="#61D2E7"/>
<path d="M491.793 33.4963C494.824 16.6899 463.404 8.2384 462.223 17.1337L404.96 6.57478C401.57 6.17026 398.156 7.11419 395.459 9.20226C392.761 11.2903 390.997 14.3545 390.547 17.7311L345.04 268.942C343.666 276.516 348.022 283.689 354.768 284.961L417.223 297.034C417.739 298.655 418.762 300.067 420.142 301.063C437.666 304.209 444.569 299.992 447.658 294.099C448.592 292.537 491.93 36.7961 491.793 33.4963Z" fill="#4D4D4D"/>
<path d="M419.084 300.912L342.153 286.359C335.163 285.057 330.648 277.682 332.062 269.892L379.082 11.5852C379.562 8.10881 381.397 4.96168 384.188 2.82659C386.979 0.6915 390.502 -0.259186 393.992 0.180948L468.935 13.2636C472.389 14.0388 475.395 16.1425 477.303 19.1178C479.211 22.093 479.865 25.6994 479.123 29.1528L434.299 289.088C434.09 290.866 433.529 292.585 432.649 294.145C431.768 295.705 430.586 297.075 429.17 298.175C427.755 299.275 426.133 300.083 424.402 300.553C422.67 301.023 420.863 301.145 419.084 300.912Z" fill="#4D4D4D"/>
<path d="M420.972 299.31C420.491 299.289 420.013 299.233 419.539 299.144L342.67 284.472C336.662 283.347 332.748 276.888 333.974 270.093L380.909 12.0637C381.315 9.04164 382.895 6.29947 385.307 4.42761C387.72 2.55575 390.773 1.70391 393.809 2.05525L468.767 15.0165C468.941 15.0463 469.113 15.081 469.284 15.1206C470.661 15.4435 471.959 16.0388 473.102 16.8714C474.245 17.7039 475.208 18.7566 475.935 19.9673C477.528 22.5975 478.102 25.7181 477.55 28.7413L432.669 288.92C432.313 291.772 430.93 294.398 428.779 296.309C426.627 298.221 423.853 299.287 420.972 299.31Z" fill="#0D0D0D"/>
<path d="M473.475 29.3462L445.18 193.084L428.666 288.627L337.584 271.494L338.329 267.383L384.46 13.3752L473.475 29.3462Z" fill="white"/>
<path d="M363.071 276.288L428.671 288.63L442.494 208.654L363.071 276.288Z" fill="#9EFFFF"/>
<path d="M471.732 112.513C471.046 112.393 470.436 112.006 470.034 111.439C469.633 110.871 469.473 110.168 469.589 109.483L480.752 44.9056C480.871 44.2215 481.258 43.6123 481.827 43.2118C482.395 42.8112 483.099 42.6518 483.785 42.7684C484.471 42.8883 485.082 43.2744 485.483 43.8422C485.885 44.4099 486.044 45.1132 485.927 45.7981L474.765 110.376C474.645 111.06 474.259 111.668 473.69 112.069C473.122 112.469 472.418 112.629 471.732 112.513Z" fill="#0D0D0D"/>
<path d="M414.203 179.949C417.393 161.488 411.146 145.003 400.25 143.128C389.354 141.254 377.935 154.7 374.744 173.161C371.554 191.623 377.8 208.108 388.697 209.982C399.593 211.857 411.012 198.411 414.203 179.949Z" fill="#03E4E6"/>
<path d="M420.155 181.002C424.312 156.967 416.182 135.503 401.995 133.06C387.809 130.617 372.938 148.121 368.78 172.156C364.622 196.191 372.753 217.655 386.939 220.098C401.126 222.541 415.997 205.037 420.155 181.002Z" stroke="#03E4E6" stroke-width="3.01068" stroke-miterlimit="10"/>
<path d="M319.06 93.3514C319.06 93.3514 323.284 81.2331 334.433 80.9183C337.537 80.7898 340.598 81.6683 343.158 83.4223C345.719 85.1762 347.641 87.7108 348.636 90.6465C355.927 83.2858 371.498 79.7382 376.559 93.7506C381.001 92.2229 385.801 92.0702 390.332 93.313C394.862 94.5558 398.91 97.1358 401.944 100.715C412.589 113.314 406.066 128.608 394.857 131.585C391.557 141.472 375.855 148.992 367.752 140.86C359.649 132.728 359.334 128.712 359.334 128.712C359.334 128.712 352.684 136.965 342.986 132.768C333.288 128.571 332.987 115.327 332.987 115.327C332.987 115.327 316.515 109.454 319.06 93.3514Z" fill="#0D0D0D"/>
<path d="M344.514 149.45C342.223 153.459 321.487 179.637 312.414 181.147C307.967 181.891 296.35 182.406 285.65 182.749C282.37 182.853 279.19 182.934 276.308 183.009C269.392 183.182 264.33 183.257 264.33 183.257V175.125C268.39 174.698 272.414 174.059 276.308 173.357C278.241 173.008 280.149 172.643 282.01 172.279C292.079 170.313 300.94 168.401 306.97 169.39L325.789 139.762C333.355 127.678 350.564 138.892 344.514 149.45Z" fill="#E6765C"/>
<path d="M326.934 133.757L321.189 144.804L343.006 154.56C343.006 154.56 354.14 140.783 341.199 132.153C332.02 126.027 326.934 133.757 326.934 133.757Z" fill="#0386C2"/>
<path d="M384.55 195.278C380.846 190.816 372.181 178.239 372.181 178.239C372.181 178.239 339.898 174.223 331.73 167.018C327.71 162.035 326.78 155.187 326.434 145.714C326.383 144.466 326.345 143.171 326.32 141.829C325.88 123.657 335.144 120.672 344.005 122.244C349.546 123.266 354.751 125.628 359.163 129.124C361.313 131.34 385.089 154.568 385.089 154.568L397.162 160.022C404.109 170.779 396.654 200.298 384.55 195.278Z" fill="#0386C2"/>
<path d="M336.943 144.098L345.071 181.244C333.921 186.381 329.647 195.846 315.812 206.311C312.462 209.613 314.107 214.814 319.788 211.857C319.788 211.857 349.009 196.129 356.257 188.887C363.505 181.645 359.351 147.348 358.822 142.229C357.441 128.732 335.951 128.256 336.943 144.098Z" fill="#FFA794"/>
<path d="M328.445 138.034C327.63 136.794 326.513 135.004 325.311 133.051C322.043 127.711 318.164 121.151 318.164 121.151L327.702 112.667L329.31 111.236L339.408 123.665C343.953 127.936 331.496 142.68 328.445 138.034Z" fill="#FFA794"/>
<path d="M325.893 133.998C322.625 128.657 318.162 121.143 318.162 121.143L328.75 115.062C330.27 121.506 329.247 128.286 325.893 133.998Z" fill="#FA876E"/>
<path d="M337.286 152.361L361.232 147.958C361.232 147.958 360.947 125.556 344.713 129.233C331.807 132.156 337.286 152.361 337.286 152.361Z" fill="#0386C2"/>
<path d="M334.748 144.705C329.097 149.664 327.413 144.884 327.252 140.739C326.792 129.119 332.174 123.137 338.235 122.532C343.957 121.949 342.451 137.957 334.748 144.705Z" fill="#FFA794"/>
<path d="M310.586 217.628C310.586 217.628 304.317 224.882 303.718 224.369C303.119 223.856 305.575 219.19 308.803 215.107C312.336 210.639 313.817 214.4 310.586 217.628Z" fill="#DB8472"/>
<path d="M315.133 206.663C311.193 206.479 307.329 207.783 304.309 210.315C304.309 210.315 303.591 212.462 306.161 211.872C307.491 211.591 308.795 211.198 310.059 210.699C310.059 210.699 304.821 223.504 304.394 224.818C303.967 226.132 306.953 223.772 309.311 221.307C310.591 220.241 318.816 216.116 320.545 210.825C321.798 206.993 315.133 206.663 315.133 206.663Z" fill="#FFA794"/>
<path d="M309.311 221.402C309.289 221.402 309.268 221.394 309.252 221.379C309.236 221.362 309.226 221.34 309.226 221.316C309.226 221.293 309.236 221.27 309.252 221.253L314.044 215.784C314.052 215.773 314.061 215.765 314.072 215.758C314.083 215.752 314.096 215.748 314.109 215.746C314.121 215.745 314.134 215.746 314.146 215.75C314.158 215.753 314.169 215.76 314.179 215.768C314.189 215.776 314.197 215.786 314.202 215.798C314.208 215.809 314.21 215.821 314.211 215.834C314.211 215.847 314.209 215.86 314.204 215.871C314.2 215.883 314.193 215.894 314.184 215.903L309.388 221.369C309.378 221.381 309.367 221.389 309.354 221.395C309.34 221.401 309.326 221.403 309.311 221.402Z" fill="#87584C"/>
<path d="M314.057 130.439C324.362 129.728 332 118.82 331.117 106.075C330.234 93.3295 321.164 83.5738 310.859 84.2846C300.554 84.9954 292.916 95.9037 293.8 108.649C294.683 121.394 303.753 131.15 314.057 130.439Z" fill="#FFA88F"/>
<path d="M305.018 93.8744C305.05 93.4083 309.776 107.468 331.635 104.575C337.725 90.8846 320.799 70.0024 304.605 86.3031C299.789 83.6404 287.509 88.1948 290.272 100.256C282.112 106.895 287.539 115.22 293.098 111.164C293.098 111.154 304.317 105.822 305.018 93.8744Z" fill="#0D0D0D"/>
<path d="M327.511 107.118C327.91 107.762 328.49 108.272 329.179 108.586C329.869 108.9 330.636 109.003 331.384 108.881C332.132 108.76 332.828 108.42 333.382 107.904C333.937 107.389 334.325 106.721 334.498 105.985C334.672 105.249 334.624 104.478 334.359 103.769C334.094 103.061 333.624 102.447 333.009 102.005C332.393 101.564 331.661 101.314 330.903 101.287C330.146 101.261 329.398 101.459 328.753 101.857C327.89 102.391 327.274 103.245 327.041 104.232C326.809 105.218 326.978 106.256 327.511 107.118Z" fill="#FFA88F"/>
<path d="M437.273 53.8029C438.756 45.2242 433.813 37.2118 426.232 35.9067C418.65 34.6017 411.302 40.4982 409.818 49.0769C408.335 57.6557 413.278 65.6681 420.859 66.9731C428.441 68.2782 435.789 62.3817 437.273 53.8029Z" fill="#395486"/>
<path d="M434.071 44.8806C429.209 46.346 424.983 49.4027 422.076 53.5578C421.86 52.6395 421.456 51.7762 420.889 51.0217C420.322 50.2672 419.604 49.6382 418.781 49.1747L415.551 52.6332C416.704 53.3213 417.679 54.269 418.4 55.4008C419.12 56.5326 419.564 57.8171 419.698 59.1511L422.797 59.684C425.297 54.1156 429.445 49.4438 434.685 46.2963C434.546 45.7988 434.339 45.3224 434.071 44.8806Z" fill="white"/>
<path d="M390.056 72.0007L390.539 76.4458L394.477 77.1225L390.836 79.1928L391.333 83.6379L388.6 80.472L384.962 82.5421L386.913 78.5134L384.18 75.3475L388.116 76.0242L390.056 72.0007Z" fill="#FDDA6D"/>
<path d="M404.176 74.4303L404.672 78.8754L408.606 79.5521L404.971 81.6224L405.455 86.0675L402.721 82.9017L399.081 84.9717L401.032 80.943L398.299 77.7771L402.237 78.4538L404.176 74.4303Z" fill="#FDDA6D"/>
<path d="M418.295 76.8572L418.779 81.3026L422.717 81.9793L419.08 84.0494L419.576 88.4948L416.843 85.3286L413.207 87.3989L415.156 83.3702L412.422 80.2044L416.356 80.8811L418.295 76.8572Z" fill="#FDDA6D"/>
<path d="M432.42 79.2844L432.902 83.7295L436.838 84.4065L433.205 86.4766L433.691 90.9217L430.957 87.7558L427.319 89.8258L429.265 85.7971L426.531 82.6313L430.467 83.3083L432.42 79.2844Z" fill="#FDDA6D"/>
<path d="M446.532 81.7141L447.029 86.1592L450.968 86.8362L447.329 88.9062L447.812 93.3537L445.078 90.1879L441.439 92.2582L443.388 88.2319L440.655 85.0661L444.594 85.7427L446.532 81.7141Z" fill="#FDDA6D"/>
<path d="M285.653 182.749C282.373 182.853 279.18 182.934 276.305 183.011V173.342C278.244 172.993 279.286 172.79 281.155 172.425L285.653 182.749Z" fill="#994E3D"/>
<path d="M0.108972 29.7997C-2.12739 12.8693 29.6779 5.91503 30.4234 14.8649L88.127 7.02816C91.5314 6.78373 94.8955 7.88653 97.4913 10.0978C100.087 12.3091 101.706 15.4513 101.997 18.8443L135.513 271.925C136.521 279.553 131.833 286.515 125.03 287.464L62.0761 296.57C61.4828 298.163 60.3944 299.524 58.97 300.455C41.3152 302.768 32.4113 296.722 31.2011 287.526C30.3364 285.922 -0.18424 33.092 0.108972 29.7997Z" fill="#4D4D4D"/>
<path d="M60.0261 300.354L137.554 289.445C144.598 288.476 149.461 281.321 148.418 273.472L113.729 13.2315C113.416 9.73539 111.732 6.50365 109.045 4.23837C106.358 1.9731 102.883 0.857234 99.376 1.13303L23.8988 10.6555C20.4109 11.2648 17.3052 13.2239 15.2576 16.1062C13.2101 18.9886 12.3865 22.561 12.9657 26.0463L45.3755 287.809C45.4983 289.598 45.9773 291.344 46.7829 292.946C47.5886 294.548 48.7051 295.975 50.0685 297.142C51.432 298.309 53.0144 299.194 54.724 299.746C56.4335 300.297 58.2358 300.504 60.0261 300.354Z" fill="#4D4D4D"/>
<path d="M58.2165 298.666C58.6978 298.665 59.1787 298.632 59.6555 298.566L137.136 287.549C143.192 286.709 147.407 280.444 146.493 273.591L111.88 13.6306C111.617 10.5901 110.167 7.77448 107.843 5.79021C105.519 3.80594 102.507 2.81205 99.4555 3.02231L23.9661 12.4234C23.7971 12.4457 23.6207 12.4729 23.4492 12.5027C22.0578 12.7595 20.732 13.2927 19.5509 14.0703C18.3698 14.848 17.3573 15.8544 16.5734 17.0298C14.8591 19.5786 14.1347 22.6638 14.5375 25.707L47.0128 287.732C47.2334 290.601 48.4908 293.291 50.5521 295.302C52.6133 297.314 55.3375 298.509 58.2165 298.666Z" fill="#0D0D0D"/>
<path d="M18.6087 26.5247L51.0379 287.628L142.829 274.83L108.269 14.7785L18.6087 26.5247Z" fill="white"/>
<path d="M86.616 58.0923L76.4886 59.4187L38.8251 23.8769L48.9514 22.5508L86.616 58.0923Z" fill="#F13005"/>
<path d="M76.4886 59.4186L66.3696 60.745L28.7074 25.2035L38.8324 23.8771L76.4886 59.4186Z" fill="#F1E3E0"/>
<path d="M66.3653 60.7425L56.2391 62.0689L18.5769 26.5299L28.697 25.2034L66.3653 60.7425Z" fill="#F13005"/>
<path d="M96.7323 56.7635L86.6121 58.0899L48.9487 22.5508L59.0665 21.2244L96.7323 56.7635Z" fill="#F1E3E0"/>
<path d="M116.984 54.1132L106.86 55.4396L69.2005 19.8978L79.3207 18.5717L116.984 54.1132Z" fill="#F1E3E0"/>
<path d="M146.364 50.263L137.233 51.4581L99.5671 15.9187L108.692 14.7239L146.364 50.263Z" fill="#F13005"/>
<path d="M137.235 51.4604L127.112 52.7869L89.4488 17.2478L99.5726 15.9214L137.235 51.4604Z" fill="#F1E3E0"/>
<path d="M106.858 55.4371L96.733 56.7636L59.0695 21.2242L69.1982 19.898L106.858 55.4371Z" fill="#F13005"/>
<path d="M127.11 52.7844L116.983 54.1109L79.3189 18.569L89.4463 17.2426L127.11 52.7844Z" fill="#F13005"/>
<path d="M66.3647 60.7426L67.1703 66.8713C68.0276 73.3742 57.9014 74.7003 57.0416 68.1974L56.2372 62.0691L66.3647 60.7426Z" fill="#D62B04"/>
<path d="M76.4836 59.4162L77.2904 65.5449C78.1502 72.0478 68.0275 73.3739 67.1727 66.871L66.3646 60.7426L76.4836 59.4162Z" fill="#F1C5BC"/>
<path d="M86.6165 58.0924L87.4197 64.221C88.2794 70.724 78.1507 72.0501 77.2934 65.5472L76.4878 59.4188L86.6165 58.0924Z" fill="#D62B04"/>
<path d="M96.7378 56.7659L97.5397 62.8946C98.397 69.3975 88.2768 70.7237 87.422 64.2183L86.6139 58.09L96.7378 56.7659Z" fill="#F1C5BC"/>
<path d="M106.863 55.4372L107.67 61.5658C108.528 68.0687 98.4001 69.3949 97.5428 62.892L96.7348 56.7636L106.863 55.4372Z" fill="#D62B04"/>
<path d="M116.984 54.1132L117.789 60.2419C118.646 66.7448 108.525 68.0709 107.668 61.568L106.863 55.4397L116.984 54.1132Z" fill="#F1C5BC"/>
<path d="M127.107 52.7844L127.915 58.9131C128.772 65.416 118.646 66.7422 117.786 60.2392L116.982 54.1109L127.107 52.7844Z" fill="#D62B04"/>
<path d="M137.233 51.4605L138.043 57.5892C138.901 64.0921 128.777 65.4183 127.92 58.9154L127.115 52.787L137.233 51.4605Z" fill="#F1C5BC"/>
<path d="M146.365 50.2631L147.17 56.3915C147.292 57.0088 147.284 57.6445 147.15 58.2591C147.015 58.8737 146.757 59.4542 146.389 59.965C146.021 60.4758 145.552 60.9062 145.011 61.2291C144.47 61.5521 143.868 61.7609 143.243 61.8429C142.618 61.9248 141.983 61.878 141.377 61.7055C140.771 61.533 140.206 61.2385 139.718 60.8399C139.231 60.4413 138.829 59.947 138.54 59.3879C138.251 58.8288 138.08 58.2166 138.038 57.589L137.231 51.4604L146.365 50.2631Z" fill="#D62B04"/>
<path d="M56.2366 62.0688H57.0423L23.5636 66.4298L18.572 26.5273L56.2366 62.0688Z" fill="#F1E3E0"/>
<path d="M16.959 114.682C17.65 114.6 18.2793 114.249 18.711 113.704C19.1427 113.16 19.341 112.467 19.2618 111.777L11.6787 46.6857C11.5964 45.9961 11.244 45.367 10.6983 44.9359C10.1526 44.5048 9.45715 44.3069 8.76554 44.3851C8.07417 44.4678 7.44434 44.8199 7.01231 45.3647C6.58029 45.9096 6.38181 46.6028 6.46026 47.2931L14.0458 112.384C14.1287 113.073 14.4818 113.702 15.0274 114.132C15.573 114.563 16.2678 114.761 16.959 114.682Z" fill="#0D0D0D"/>
<path d="M89.6507 236.195C100.613 234.752 107.508 218.526 105.052 199.953C102.596 181.381 91.7187 167.494 80.7567 168.937C69.7947 170.38 62.8993 186.606 65.3553 205.179C67.8113 223.752 78.6887 237.638 89.6507 236.195Z" fill="#03E4E6"/>
<path d="M90.9971 246.367C105.276 244.487 114.258 223.353 111.059 199.162C107.86 174.97 93.6916 156.883 79.4125 158.763C65.1335 160.643 56.1514 181.777 59.3504 205.968C62.5494 230.16 76.7181 248.247 90.9971 246.367Z" stroke="#03E4E6" stroke-width="3.012" stroke-miterlimit="10"/>
<path d="M156.523 112.612L173.858 129.186L173.924 139.142C167.841 135.083 162.544 129.96 158.29 124.019C151.68 114.529 153.332 114.846 153.332 114.846L156.523 112.612Z" fill="#0D0D0D"/>
<path d="M167.267 133.688C174.766 142.895 191.532 159.821 191.532 159.821L227.48 167.568L229.239 177.537C229.239 177.537 198.593 178.162 188.239 176.56C178.421 175.046 153.505 161.571 145.231 154.766C129.696 141.988 148.929 111.147 167.267 133.688Z" fill="#014C4D"/>
<path d="M86.6582 178.249L81.8159 181.199C72.1672 185.661 72.2785 231.502 92.9674 228.425C107.285 224.488 114.663 217.665 119.357 211.393C120.097 207.382 96.8312 177.649 86.6582 178.249Z" fill="#0D0D0D"/>
<path d="M90.237 175.291C116.025 147.715 125.443 128.055 140.183 118.587C151.131 111.559 165.776 118.426 171.687 130.147C175.328 137.354 174.669 149.394 169.409 159.139C156.1 183.835 134.064 205.711 124.155 208.163C119.19 208.163 93.5691 191.758 90.237 175.291Z" fill="#027273"/>
<path d="M153.17 116.678L169.362 99.4005L180.457 108.44L171.31 131.97L153.17 116.678Z" fill="#FFA794"/>
<path d="M198.61 105.036C198.61 105.036 198.133 106.156 197.316 107.798C195.499 111.472 191.999 117.697 188.371 119.596C186.771 120.444 182.521 119.876 177.74 117.952C166.951 113.599 153.513 102.289 162.269 84.6146C171.098 66.7917 189.618 70.3917 194.821 78.3177C197.733 82.7802 200.502 86.2781 199.361 99.1426C204.04 104.847 200.936 105.137 198.61 105.036Z" fill="#FFA794"/>
<path d="M195.592 65.9935C164.755 49.8193 137.993 87.9123 163.192 107.999C165.227 106.164 167.352 104.432 169.561 102.81C162.603 99.3761 167.72 88.4973 174.725 91.3607C175.755 91.7418 176.668 92.383 177.376 93.2216C178.083 94.0603 178.562 95.0679 178.762 96.1457C178.762 96.0887 178.777 96.2622 178.796 96.5225C179.314 96.4975 179.83 96.4328 180.337 96.3291C180.239 90.2918 180.726 84.2591 181.791 78.3153C181.791 78.3153 191.978 81.987 196.764 82.9886C209.909 85.0439 215.777 62.0962 195.592 65.9935Z" fill="#994803"/>
<path d="M186.794 110.565C180.644 110.069 180.359 95.1637 180.359 95.1637L178.758 96.1555C179.575 103.306 178.705 110.547 176.22 117.303C178.796 119.18 181.933 120.131 185.12 120.003C185.12 120.022 185.141 120.042 185.153 120.062C185.707 120.12 186.265 120.115 186.818 120.045C184.147 114.137 190.364 108.782 196.166 110.012C196.596 109.221 196.984 108.472 197.312 107.808C195.471 107.288 193.526 107.269 191.676 107.754C189.826 108.239 188.14 109.209 186.794 110.565Z" fill="#994803"/>
<path d="M127.952 129.508C127.952 129.508 143.445 117.608 154.624 134.642C167.628 154.476 125.017 198.199 115.595 203.142L120.259 206.001C131.403 197.951 172.96 156.439 158.202 133.113C148.511 117.804 134.428 123.573 134.428 123.573L127.952 129.508Z" fill="#0D0D0D"/>
<path d="M91.2554 174.374L86.6582 178.251C86.6582 178.251 90.9332 191.428 100.386 199.431C106.123 204.278 112.509 208.305 119.359 211.396L124.165 208.173C124.165 208.173 109.562 200.678 102.813 192.683C98.2772 187.037 94.399 180.895 91.2554 174.374Z" fill="#DB6704"/>
<path d="M114.663 202.867L119.65 199.503L125.527 202.946L120.52 206.517L114.663 202.867Z" stroke="#DDC80A" stroke-width="2.326" stroke-linejoin="round"/>
<path d="M280 134.526H214.867V199.505H280V134.526Z" fill="#DB6704"/>
<path d="M251.988 134.667H242.881V150.15H251.988V134.667Z" fill="#FF851C"/>
<path d="M150.986 116.492L156.522 112.612C156.89 116.115 164.829 126.882 173.857 129.186L169.117 138.73C158.981 131.092 152.211 123.424 150.986 116.492Z" fill="#025859"/>
<path d="M213.918 175.787L226.328 177.914V184.591L213.5 185.981L213.918 175.787Z" fill="#FFA794"/>
<path d="M222.414 178.633C225.476 176.16 228.373 173.489 231.084 170.638C233.007 170.638 232.739 173.744 230.773 175.348C228.711 177.029 229.033 178.747 232.064 178.747C233.819 178.747 244.241 178.142 244.87 179.129C245.463 180.079 235.236 181.911 235.236 181.911C235.236 181.911 243.933 183.15 243.978 183.864C244.04 185.218 235.016 184.568 235.016 184.568C235.016 184.568 243.319 186.415 242.79 187.28C242.03 188.52 234.093 187.389 234.093 187.389C234.093 187.389 239.965 189.891 238.441 190.426C236.918 190.962 223.808 188.178 221.949 186.904C219.084 184.93 221.236 179.612 222.414 178.633Z" fill="#FFA794"/>
<path d="M127.157 155.505C124.903 151.827 124.122 147.436 124.968 143.209C125.815 138.981 128.227 135.227 131.725 132.696C142.047 124.252 150.989 132.086 156.148 141.909C160.099 149.438 178.606 169.852 178.606 169.852L222.657 176.821L223.077 187.93C223.077 187.93 183.628 194.195 167.966 187.085C154.121 180.805 134.206 166.569 127.157 155.505Z" fill="#027273"/>
<path d="M277.1 183.802H260.521V197.17H277.1V183.802Z" fill="#FFCFA6"/>
<path d="M219.091 176.263L222.647 176.826L223.067 188.59L219.904 190.974L219.091 176.263Z" fill="#03B1B3"/>
<path d="M249.017 136.157L247.277 134.873C247.138 134.85 246.78 134.808 246.387 134.761C241.194 134.146 234.115 133.08 232.616 130.921C232.483 130.738 232.391 130.529 232.348 130.308C232.305 130.086 232.312 129.858 232.368 129.639C232.438 129.281 232.601 128.947 232.841 128.67C233.081 128.394 233.388 128.185 233.734 128.065C237.342 126.766 246.797 133.611 247.625 134.213C247.676 134.238 247.718 134.278 247.746 134.327L249.017 136.157ZM234.803 128.62C234.517 128.615 234.234 128.658 233.963 128.749C233.732 128.832 233.526 128.974 233.367 129.161C233.209 129.348 233.101 129.574 233.058 129.815C233.029 129.935 233.028 130.059 233.054 130.18C233.081 130.3 233.134 130.412 233.21 130.509C234.181 131.903 238.49 133.073 246.032 133.98C243.023 131.9 237.626 128.608 234.803 128.608V128.62Z" fill="black"/>
<path d="M247.799 134.526H247.071V199.505H247.799V134.526Z" fill="white"/>
<path d="M247.436 134.526C247.436 134.526 264.522 124.629 266.914 129.567C269.307 134.506 247.436 134.526 247.436 134.526Z" stroke="black" stroke-width="1.506" stroke-miterlimit="10"/>
<path d="M247.436 134.526C247.436 134.526 265.688 146.805 261.297 151.662C256.906 156.519 247.436 134.526 247.436 134.526Z" stroke="white" stroke-width="1.506" stroke-miterlimit="10"/>
<path d="M279.821 157.803H214.865C214.768 157.803 214.676 157.765 214.607 157.697C214.539 157.629 214.501 157.536 214.501 157.44C214.501 157.343 214.539 157.251 214.607 157.183C214.676 157.115 214.768 157.077 214.865 157.077H279.821C279.918 157.077 280.01 157.115 280.079 157.183C280.147 157.251 280.185 157.343 280.185 157.44C280.185 157.536 280.147 157.629 280.079 157.697C280.01 157.765 279.918 157.803 279.821 157.803Z" fill="white"/>
<path d="M80.242 78.8309C80.2477 79.876 79.9511 80.9004 79.3878 81.7816C78.8245 82.6627 78.019 83.3629 77.0668 83.7983C76.1145 84.2338 75.0569 84.386 74.0202 84.2366C72.9834 84.0871 72.012 83.6424 71.2223 82.9558C70.4325 82.2692 69.8576 81.37 69.5673 80.3658C69.277 79.3617 69.2835 78.2951 69.5855 77.2944C69.8875 76.2937 70.4719 75.4012 71.2696 74.7238C72.0673 74.0465 73.0436 73.6131 74.082 73.4757C75.6092 73.3769 77.1141 73.8842 78.2679 74.8872C79.4218 75.8903 80.1311 77.308 80.242 78.8309Z" fill="#029A65"/>
<path d="M78.0313 75.8954C76.4002 76.9966 75.1892 78.6143 74.5928 80.487C74.4051 80.1712 74.1534 79.8975 73.8539 79.6841C73.5544 79.4707 73.2132 79.3221 72.8529 79.2474L72.0582 80.8983C72.5648 81.02 73.0354 81.2587 73.4329 81.5949C73.8303 81.9312 74.1433 82.3557 74.3465 82.8345L75.5561 82.676C75.8391 80.3266 76.8351 78.1198 78.4111 76.3515C78.3054 76.1831 78.178 76.0298 78.0313 75.8954Z" fill="white"/>
<path d="M48.375 124.485L50.161 128.586L54.1224 128.065L51.2699 131.122L53.0535 135.223L49.5033 133.011L46.6448 136.065L47.3085 131.642L43.7559 129.431L47.7161 128.91L48.375 124.485Z" fill="#FDDA6D"/>
<path d="M62.5752 122.616L64.3624 126.719L68.3227 126.198L65.4678 129.255L67.2574 133.356L63.7012 131.142L60.8463 134.199L61.5075 129.776L57.9538 127.564L61.9152 127.044L62.5752 122.616Z" fill="#FDDA6D"/>
<path d="M76.784 120.747L78.5736 124.847L82.5339 124.326L79.6789 127.381L81.4649 131.481L77.9124 129.27L75.0575 132.327L75.7175 127.904L72.1649 125.69L76.1252 125.169L76.784 120.747Z" fill="#FDDA6D"/>
<path d="M90.9878 118.877L92.7738 122.978L96.7377 122.457L93.8828 125.514L95.6688 129.617L92.115 127.403L89.2625 130.46L89.9238 126.037L86.37 123.826L90.3315 123.305L90.9878 118.877Z" fill="#FDDA6D"/>
<path d="M105.193 117.005L106.983 121.106L110.943 120.585L108.09 123.64L109.873 127.743L106.324 125.529L103.466 128.586L104.128 124.163L100.574 121.949L104.534 121.428L105.193 117.005Z" fill="#FDDA6D"/>
<path d="M84.7283 102.614L69.8071 104.577C69.6579 104.593 69.5063 104.561 69.3776 104.484C69.2488 104.407 69.1497 104.29 69.0937 104.151L64.9563 94.8985C64.908 94.7927 64.8823 94.6777 64.8823 94.5614C64.8823 94.4451 64.908 94.3301 64.9563 94.2243C65.0044 94.1246 65.0758 94.0382 65.165 93.9725C65.2542 93.9068 65.3587 93.864 65.4683 93.8475L86.1091 91.1201C86.2191 91.1066 86.331 91.1208 86.4342 91.161C86.5375 91.2013 86.6295 91.2664 86.7011 91.3508C86.7773 91.4388 86.8336 91.542 86.8662 91.6537C86.8987 91.7653 86.9073 91.8827 86.8904 91.9978L85.3022 102.001C85.2857 102.152 85.2213 102.293 85.1178 102.403C85.0143 102.513 84.8775 102.587 84.7283 102.614ZM70.1116 103.035L84.027 101.203L85.3689 92.7341L66.6064 95.2133L70.1116 103.035Z" fill="#0D0D0D"/>
<path d="M84.0452 106.85L71.3177 108.524C71.12 108.55 70.9199 108.496 70.762 108.374C70.604 108.253 70.5013 108.074 70.4756 107.877C70.4499 107.68 70.5032 107.48 70.6249 107.323C70.7465 107.165 70.9258 107.062 71.1235 107.037L83.3512 105.427C83.6875 105.377 83.9916 105.197 84.1969 104.927C84.4021 104.656 84.4932 104.316 84.4505 103.98C84.4626 103.731 84.4054 103.484 84.2867 103.266C84.1679 103.047 83.9923 102.865 83.7771 102.74L86.1491 87.617C86.1685 87.4679 86.2361 87.3289 86.3408 87.2209C86.4455 87.1128 86.5828 87.0412 86.7315 87.0169L91.177 86.4319C91.3747 86.4062 91.5735 86.46 91.7315 86.5814C91.8895 86.7027 91.9934 86.8817 92.0191 87.0789C92.0448 87.2762 91.9902 87.4754 91.8686 87.633C91.747 87.7907 91.5677 87.8937 91.37 87.9193L87.4267 88.4375L85.2731 102.46C85.5428 102.811 85.7264 103.219 85.8106 103.653C85.8948 104.087 85.8763 104.535 85.7572 104.961C85.6381 105.387 85.4223 105.779 85.1251 106.107C84.8279 106.435 84.458 106.69 84.0452 106.85Z" fill="#0D0D0D"/>
<path d="M75.8244 110.45C75.841 110.758 75.7684 111.064 75.6133 111.331C75.4582 111.598 75.2282 111.814 74.9521 111.953C74.6759 112.091 74.365 112.147 74.0579 112.112C73.7507 112.077 73.4599 111.954 73.2219 111.757C72.9839 111.56 72.8084 111.299 72.7172 111.004C72.6259 110.709 72.6234 110.394 72.7087 110.098C72.7939 109.801 72.9636 109.536 73.1976 109.335C73.4316 109.133 73.7199 109.003 74.0263 108.963C74.4622 108.924 74.8954 109.059 75.2323 109.337C75.5692 109.616 75.7816 110.016 75.8244 110.45Z" fill="#0D0D0D"/>
<path d="M83.7297 109.412C83.7463 109.72 83.6725 110.026 83.5173 110.293C83.3622 110.56 83.1324 110.776 82.8561 110.915C82.5798 111.053 82.2692 111.108 81.9619 111.074C81.6546 111.039 81.3639 110.915 81.1259 110.718C80.8879 110.521 80.7122 110.259 80.6212 109.964C80.5302 109.669 80.527 109.354 80.6127 109.058C80.6983 108.761 80.8697 108.496 81.1041 108.295C81.3385 108.093 81.6262 107.964 81.9328 107.924C82.3685 107.885 82.8021 108.019 83.1388 108.298C83.4755 108.577 83.6881 108.977 83.7297 109.412Z" fill="#0D0D0D"/>
<path d="M77.6411 103.546C77.4517 103.562 77.264 103.503 77.1182 103.381C76.9724 103.259 76.8804 103.085 76.8634 102.896L75.5882 93.2669C75.5697 93.1744 75.5708 93.0794 75.5906 92.9873C75.6105 92.8951 75.6497 92.8079 75.7047 92.7312C75.7597 92.6545 75.8299 92.5897 75.9109 92.5412C75.992 92.4926 76.0818 92.4613 76.1754 92.4489C76.2691 92.4365 76.3636 92.4434 76.4545 92.4691C76.5454 92.4949 76.6301 92.5389 76.7032 92.5987C76.7764 92.6584 76.8371 92.7325 76.8804 92.8163C76.9237 92.9001 76.9493 92.9918 76.9556 93.0859L78.2247 102.713C78.258 102.9 78.2153 103.094 78.1058 103.25C77.9963 103.406 77.8292 103.513 77.6411 103.546Z" fill="#0D0D0D"/>
<path d="M73.829 104.049C73.6663 104.066 73.5028 104.025 73.3667 103.935C73.2307 103.844 73.1311 103.71 73.084 103.553L69.7887 94.1919C69.7189 94.0125 69.7213 93.8129 69.796 93.6354C69.8706 93.4579 70.0119 93.316 70.1891 93.2399C70.2769 93.2083 70.3701 93.1951 70.4633 93.2008C70.5564 93.2065 70.6469 93.2311 70.7302 93.2731C70.8135 93.3152 70.8876 93.3736 70.9474 93.445C71.0072 93.5165 71.0518 93.5994 71.0784 93.6887L74.3738 103.05C74.4437 103.229 74.4406 103.429 74.3665 103.606C74.2924 103.784 74.1526 103.926 73.9758 104.002C73.9291 104.024 73.8796 104.04 73.829 104.049Z" fill="#0D0D0D"/>
<path d="M81.2938 103.065C81.2599 103.068 81.2258 103.068 81.1919 103.065C81.0012 103.05 80.8238 102.963 80.6957 102.821C80.5675 102.68 80.4989 102.495 80.5039 102.304L80.5294 92.5036C80.5258 92.4101 80.54 92.3169 80.5731 92.2294C80.6062 92.1419 80.6565 92.0617 80.7211 91.994C80.7858 91.9262 80.8645 91.8724 80.9504 91.8351C81.0364 91.7978 81.1285 91.7779 81.2222 91.777C81.4125 91.7921 81.5897 91.8796 81.7173 92.0212C81.8448 92.1628 81.9128 92.3478 81.9077 92.5381L81.8859 102.336C81.8943 102.509 81.8385 102.678 81.7294 102.813C81.6203 102.947 81.4649 103.037 81.2938 103.065Z" fill="#0D0D0D"/>
<path d="M85.5314 97.6702L67.7662 100.008C67.6683 100.021 67.5691 100.014 67.4738 99.9884C67.3785 99.9627 67.29 99.9186 67.2118 99.8585C67.1335 99.7984 67.0668 99.7236 67.0176 99.6382C66.9684 99.5528 66.9369 99.4587 66.9242 99.361C66.9115 99.2633 66.9179 99.164 66.9436 99.069C66.9693 98.9739 67.0144 98.8846 67.0747 98.8066C67.1349 98.7285 67.2099 98.6632 67.2955 98.6141C67.381 98.565 67.4754 98.533 67.5733 98.5203L85.3349 96.1824C85.5326 96.1568 85.7326 96.2106 85.8906 96.3319C86.0486 96.4533 86.1512 96.6322 86.1769 96.8294C86.2026 97.0267 86.1493 97.2263 86.0277 97.3839C85.9061 97.5415 85.7267 97.6445 85.529 97.6702H85.5314Z" fill="#0D0D0D"/>
<path d="M307.093 52.8017V63.9432L292.874 53.2208L307.093 52.8017Z" fill="#5393D0"/>
<path d="M325.445 57.6038C318.418 57.5493 304.555 57.4825 278.837 57.4825C276.918 57.4825 275.078 56.7222 273.72 55.3689C272.363 54.0156 271.6 52.18 271.598 50.2655V38.0109C271.598 37.0628 271.785 36.1238 272.149 35.2479C272.513 34.3719 273.047 33.5763 273.719 32.9061C274.391 32.2359 275.189 31.7044 276.067 31.3421C276.945 30.9797 277.887 30.7933 278.837 30.794H324.657C325.607 30.7937 326.548 30.9801 327.426 31.3427C328.304 31.7052 329.102 32.2368 329.774 32.907C330.446 33.5772 330.979 34.3727 331.343 35.2485C331.706 36.1242 331.893 37.063 331.893 38.0109V51.2176C331.894 52.0604 331.727 52.8948 331.402 53.6729C331.078 54.451 330.603 55.1571 330.003 55.7508C329.404 56.3445 328.692 56.814 327.91 57.132C327.128 57.4501 326.289 57.6104 325.445 57.6038Z" fill="#6093CB"/>
<path d="M284.958 44.2039C284.958 44.6888 284.814 45.1626 284.544 45.5658C284.274 45.9689 283.89 46.2832 283.441 46.4688C282.992 46.6545 282.498 46.7034 282.022 46.609C281.545 46.5146 281.107 46.2813 280.763 45.9386C280.42 45.596 280.185 45.1594 280.09 44.6839C279.995 44.2084 280.043 43.7153 280.228 43.2673C280.414 42.8192 280.73 42.4363 281.133 42.1666C281.537 41.8969 282.011 41.7525 282.497 41.752C282.82 41.7516 283.14 41.815 283.439 41.9381C283.737 42.0612 284.009 42.2415 284.237 42.4692C284.466 42.6969 284.646 42.9675 284.77 43.2651C284.893 43.5628 284.958 43.8817 284.958 44.2039Z" fill="white"/>
<path d="M297.789 44.2039C297.789 44.6889 297.644 45.1629 297.374 45.5661C297.104 45.9693 296.72 46.2836 296.271 46.4692C295.822 46.6547 295.328 46.7033 294.852 46.6087C294.375 46.5141 293.937 46.2806 293.594 45.9377C293.25 45.5948 293.016 45.158 292.921 44.6824C292.827 44.2068 292.875 43.7138 293.061 43.2658C293.247 42.8177 293.562 42.4348 293.966 42.1654C294.37 41.8959 294.845 41.752 295.331 41.752C295.654 41.7516 295.974 41.815 296.272 41.9381C296.571 42.0612 296.841 42.2418 297.07 42.4695C297.298 42.6973 297.479 42.9675 297.602 43.2651C297.726 43.5628 297.789 43.8818 297.789 44.2039Z" fill="white"/>
<path d="M310.618 44.2039C310.618 44.689 310.473 45.1631 310.203 45.5664C309.933 45.9697 309.549 46.2839 309.1 46.4695C308.651 46.655 308.157 46.7035 307.681 46.6087C307.204 46.5139 306.765 46.28 306.421 45.9368C306.078 45.5937 305.845 45.1567 305.75 44.6809C305.656 44.2051 305.704 43.7119 305.891 43.2639C306.077 42.816 306.393 42.4333 306.797 42.1642C307.202 41.895 307.676 41.7515 308.162 41.752C308.485 41.752 308.804 41.8154 309.102 41.9387C309.401 42.0619 309.672 42.2427 309.9 42.4704C310.128 42.6981 310.308 42.9683 310.431 43.2658C310.554 43.5632 310.618 43.882 310.618 44.2039Z" fill="white"/>
<path d="M323.45 44.2039C323.45 44.689 323.306 45.1631 323.036 45.5664C322.766 45.9697 322.381 46.2839 321.932 46.4695C321.483 46.655 320.989 46.7035 320.512 46.6087C320.035 46.5139 319.598 46.28 319.254 45.9368C318.91 45.5937 318.676 45.1567 318.582 44.6809C318.487 44.2051 318.536 43.7119 318.723 43.2639C318.909 42.816 319.224 42.4333 319.629 42.1642C320.033 41.895 320.509 41.7515 320.995 41.752C321.646 41.7526 322.271 42.0113 322.731 42.471C323.192 42.9308 323.45 43.5541 323.45 44.2039Z" fill="white"/>
<path d="M285.034 242.767H214.66V276.846H285.034V242.767Z" fill="#38BFC3"/>
<path d="M274.915 257.345H225.924V262.777H274.915V257.345Z" fill="#0E0E0E"/>
<path d="M276.446 295.016L241.566 295.343C232.59 295.343 241.377 259.807 232.591 259.807H267.471C276.444 259.812 269.307 295.016 276.446 295.016Z" fill="white"/>
<path d="M253.114 280.463C251.688 280.463 249.635 282.471 248.778 287.249C247.394 295.098 241.572 295.343 241.572 295.343C241.572 295.343 275.721 294.989 281.898 294.989C285.583 294.989 284.251 287.512 284.775 284.12C284.859 283.304 285.172 282.529 285.678 281.882C286.183 281.235 286.86 280.744 287.632 280.463H253.114Z" fill="#0E0E0E"/>
<path d="M294.749 316H259.87C259.291 297.017 258.2 280.23 253.113 280.466C253.735 279.97 273.844 280.186 287.871 280.344C294.503 280.322 294.749 303.314 294.749 316Z" fill="white"/>
<path d="M288.393 286.188H261.378C261.273 286.188 261.173 286.146 261.098 286.072C261.024 285.998 260.983 285.898 260.983 285.793C260.983 285.689 261.024 285.589 261.098 285.515C261.173 285.441 261.273 285.399 261.378 285.399H288.393C288.498 285.399 288.598 285.441 288.672 285.515C288.746 285.589 288.789 285.689 288.789 285.793C288.789 285.898 288.746 285.998 288.672 286.072C288.598 286.146 288.498 286.188 288.393 286.188Z" fill="#0E0E0E"/>
<path d="M289.343 289.215H262.327C262.223 289.215 262.122 289.173 262.048 289.1C261.974 289.026 261.932 288.925 261.932 288.821C261.932 288.716 261.974 288.616 262.048 288.542C262.122 288.468 262.223 288.426 262.327 288.426H289.343C289.448 288.426 289.548 288.468 289.622 288.542C289.696 288.616 289.737 288.716 289.737 288.821C289.737 288.925 289.696 289.026 289.622 289.1C289.548 289.173 289.448 289.215 289.343 289.215Z" fill="#0E0E0E"/>
<path d="M289.958 292.232H262.941C262.836 292.232 262.736 292.191 262.662 292.117C262.587 292.043 262.546 291.942 262.546 291.838C262.546 291.733 262.587 291.633 262.662 291.559C262.736 291.485 262.836 291.444 262.941 291.444H289.958C290.063 291.444 290.163 291.485 290.238 291.559C290.312 291.633 290.354 291.733 290.354 291.838C290.354 291.942 290.312 292.043 290.238 292.117C290.163 292.191 290.063 292.232 289.958 292.232Z" fill="#0E0E0E"/>
<path d="M290.361 295.738H263.341C263.236 295.738 263.136 295.696 263.062 295.622C262.987 295.548 262.946 295.448 262.946 295.343C262.946 295.239 262.987 295.139 263.062 295.065C263.136 294.991 263.236 294.949 263.341 294.949H290.361C290.466 294.949 290.566 294.991 290.64 295.065C290.714 295.139 290.756 295.239 290.756 295.343C290.756 295.448 290.714 295.548 290.64 295.622C290.566 295.696 290.466 295.738 290.361 295.738Z" fill="#0E0E0E"/>
</g>
<defs>
<clipPath id="clip0_4_8">
<rect width="492" height="316" fill="white"/>
</clipPath>
</defs>
</svg>
