<?xml version="1.0" encoding="utf-8"?>
<!-- Generator: Adobe Illustrator 26.0.2, SVG Export Plug-In . SVG Version: 6.00 Build 0)  -->
<svg version="1.1" id="Capa_1" xmlns="http://www.w3.org/2000/svg" xmlns:xlink="http://www.w3.org/1999/xlink" x="0px" y="0px"
	 viewBox="0 0 492 316" style="enable-background:new 0 0 492 316;" xml:space="preserve">
<style type="text/css">
	.st0{clip-path:url(#SVGID_00000167375241598419662910000008492267635444784277_);}
	.st1{fill:#EBEBEB;}
	.st2{fill:#F5F5F5;}
	.st3{fill:#E0E0E0;}
	.st4{fill:#FAFAFA;}
	.st5{fill:#FFFFFF;}
	.st6{fill:#263238;}
	.st7{fill:#61D2E7;}
	.st8{fill-rule:evenodd;clip-rule:evenodd;fill:#FFFFFF;}
	.st9{fill:#455A64;}
	.st10{fill:#FFBE9D;}
	.st11{fill:#EB996E;}
	.st12{opacity:0.6;}
	.st13{opacity:0.6;fill:#FFFFFF;enable-background:new    ;}
	.st14{fill:#027273;}
	.st15{opacity:0.3;}
	.st16{opacity:0.3;enable-background:new    ;}
	.st17{fill:#AA6550;}
	.st18{fill:#6093CB;}
	.st19{fill:#724940;}
</style>
<g>
	<defs>
		<rect id="SVGID_1_" x="16.5" y="5.5" width="459" height="305"/>
	</defs>
	<clipPath id="SVGID_00000110454990576906961530000017429800026483149199_">
		<use xlink:href="#SVGID_1_"  style="overflow:visible;"/>
	</clipPath>
	<g style="clip-path:url(#SVGID_00000110454990576906961530000017429800026483149199_);">
		<path class="st1" d="M64.5,252.1l-1.6,0.4l-4.7-3.8l-0.9-3.1c0,0-2.5,0.5-1,4.5c1.4,4,0.8,3,0.8,3s-5.1,1.4-5.4,2
			c-0.2,0.4,1.1,5.5,1.8,8.3c0.2,0.7,0.5,1.3,1.1,1.7c0.5,0.4,1.2,0.7,1.9,0.7c0.2,0,0.4,0,0.6-0.1c1.3-0.4,7.5-3.2,7.5-3.2l2.7-0.8
			L64.5,252.1z"/>
		<path class="st1" d="M68.8,250l2,10.9l-2.7,0.7l-2.9-10.4L68.8,250z"/>
		<path class="st2" d="M345.4,286.9v12.5h-2.1v1.4h2.1v8.4h39v-7.6h-2.9v-1.7h2.9v-2.5h1.3v-1.1h-1.5v-9.3H345.4z"/>
		<path class="st3" d="M374.1,286.9v22h10.4v-7.6h-2.9v-1.5l2.9,0v-2.5h1.3l0-1.3l-1.5,0v-9.2L374.1,286.9z"/>
		<path class="st3" d="M374.8,300.5c0,0.1-7.1,0.1-15.8,0.1s-15.8-0.1-15.8-0.1c0-0.1,7.1-0.1,15.8-0.1S374.8,300.5,374.8,300.5z"/>
		<path class="st3" d="M374.8,299.3c0,0.1-7.1,0.1-15.8,0.1s-15.8-0.1-15.8-0.1c0-0.1,7.1-0.1,15.8-0.1S374.8,299.2,374.8,299.3z"/>
		<path class="st3" d="M376.8,295.9c0,0.1-7.1,0.1-15.8,0.1c-8.7,0-15.8-0.1-15.8-0.1c0-0.1,7.1-0.1,15.8-0.1
			S376.8,295.8,376.8,295.9z"/>
		<path class="st3" d="M377,305.2c0,0.1-7.1,0.1-15.8,0.1s-15.8-0.1-15.8-0.1c0-0.1,7.1-0.1,15.8-0.1S377,305.1,377,305.2z"/>
		<path class="st2" d="M417.2,272h-8.7v10.3h8.7V272z"/>
		<path class="st3" d="M408.8,271.3h-39.3V283h39.3V271.3z"/>
		<path class="st3" d="M417.4,272.3h-9.7v-1h9.7c0.1,0,0.3,0.1,0.3,0.1c0.1,0.1,0.1,0.2,0.1,0.3c0,0.1,0,0.1,0,0.2
			c0,0.1-0.1,0.1-0.1,0.2c0,0-0.1,0.1-0.2,0.1C417.6,272.3,417.5,272.3,417.4,272.3z"/>
		<path class="st3" d="M417.4,283h-9.7v-1h9.7c0.1,0,0.1,0,0.2,0c0.1,0,0.1,0.1,0.2,0.1c0,0,0.1,0.1,0.1,0.2c0,0.1,0,0.1,0,0.2
			c0,0.1,0,0.1,0,0.2c0,0.1-0.1,0.1-0.1,0.2c0,0-0.1,0.1-0.2,0.1C417.6,283,417.5,283,417.4,283z"/>
		<path class="st1" d="M405.7,271.3H401V283h4.6V271.3z"/>
		<path class="st1" d="M377.8,271.5h-4.6v11.7h4.6V271.5z"/>
		<path class="st3" d="M417.2,273.7c0,0-1.9,0-4.2,0c-2.3,0-4.2,0-4.2,0s1.9-0.1,4.2-0.1C415.3,273.7,417.2,273.7,417.2,273.7z"/>
		<path class="st3" d="M417.2,275.3c0,0-1.9,0-4.2,0c-2.3,0-4.2,0-4.2,0c0-0.1,1.9-0.1,4.2-0.1C415.3,275.2,417.2,275.3,417.2,275.3
			z"/>
		<path class="st3" d="M417.2,277.2c0,0-1.9,0.1-4.2,0.1c-2.3,0-4.2,0-4.2-0.1c0,0,1.9,0,4.2,0C415.3,277.1,417.2,277.2,417.2,277.2
			z"/>
		<path class="st3" d="M417.2,279.1c0,0-1.9,0-4.2,0c-2.3,0-4.2,0-4.2,0s1.9,0,4.2,0C415.3,279,417.2,279.1,417.2,279.1z"/>
		<path class="st3" d="M417.2,281c0,0-1.9,0.1-4.2,0.1c-2.3,0-4.2,0-4.2-0.1c0,0,1.9-0.1,4.2-0.1C415.3,281,417.2,281,417.2,281z"/>
		<path class="st1" d="M398.5,276.1h-17.7v2.1h17.7V276.1z"/>
		<path class="st4" d="M417.1,283.2h-8.8v6.3h8.8V283.2z"/>
		<path class="st2" d="M408.3,283h-37.6v6.8h37.6V283z"/>
		<path class="st2" d="M408.1,283.5h9.5c0.1,0,0.1,0,0.2-0.1c0,0,0.1-0.1,0.1-0.2c0-0.1,0-0.1-0.1-0.2c0,0-0.1-0.1-0.2-0.1h-9.5
			V283.5z"/>
		<path class="st2" d="M408.1,289.8h9.5c0.1,0,0.1,0,0.2-0.1c0,0,0.1-0.1,0.1-0.2c0-0.1,0-0.1-0.1-0.2c0,0-0.1-0.1-0.2-0.1h-9.5
			V289.8z"/>
		<path class="st3" d="M417.1,284.5c0,0-2,0.1-4.4,0.1c-2.4,0-4.4,0-4.4-0.1s2,0,4.4,0C415.1,284.4,417.1,284.4,417.1,284.5z"/>
		<path class="st3" d="M417.1,285.6c0,0-2,0-4.4,0c-2.4,0-4.4,0-4.4,0s2,0,4.4,0C415.1,285.6,417.1,285.6,417.1,285.6z"/>
		<path class="st3" d="M417.1,286.8c0,0-2,0.1-4.4,0.1c-2.4,0-4.4,0-4.4-0.1c0,0,2,0,4.4,0C415.1,286.8,417.1,286.8,417.1,286.8z"/>
		<path class="st3" d="M417.1,288c0,0-2,0-4.4,0c-2.4,0-4.4,0-4.4,0c0-0.1,2-0.1,4.4-0.1C415.1,288,417.1,288,417.1,288z"/>
		<path class="st1" d="M418.4,290.4h-9v17.1h9V290.4z"/>
		<path class="st3" d="M409.4,289.8h-42.3v18.5h42.3V289.8z"/>
		<path class="st3" d="M419.1,308.3h-10.9v-1.2h10.9c0.2,0,0.3,0.1,0.4,0.2c0.1,0.1,0.2,0.3,0.2,0.4c0,0.1,0,0.2,0,0.2
			c0,0.1-0.1,0.1-0.1,0.2c-0.1,0.1-0.1,0.1-0.2,0.1C419.3,308.3,419.2,308.3,419.1,308.3z"/>
		<path class="st3" d="M419.1,291h-10.9v-1.2h10.9c0.1,0,0.2,0,0.2,0c0.1,0,0.1,0.1,0.2,0.1c0.1,0.1,0.1,0.1,0.1,0.2
			c0,0.1,0,0.2,0,0.2c0,0.2-0.1,0.3-0.2,0.4C419.4,290.9,419.3,291,419.1,291z"/>
		<path class="st3" d="M418.4,292.6c0,0-2,0.1-4.5,0.1s-4.5,0-4.5-0.1c0-0.1,2-0.1,4.5-0.1C416.4,292.6,418.4,292.6,418.4,292.6z"/>
		<path class="st3" d="M418.4,294.8c0,0-2,0.1-4.5,0.1s-4.5,0-4.5-0.1c0,0,2,0,4.5,0C416.4,294.8,418.4,294.8,418.4,294.8z"/>
		<path class="st3" d="M418.4,297c0,0-2,0-4.5,0s-4.5,0-4.5,0c0-0.1,2-0.1,4.5-0.1C416.4,297,418.4,297,418.4,297z"/>
		<path class="st3" d="M418.4,299.2c0,0-2,0.1-4.5,0.1s-4.5,0-4.5-0.1c0-0.1,2-0.1,4.5-0.1C416.4,299.2,418.4,299.2,418.4,299.2z"/>
		<path class="st3" d="M418.4,301.4c0,0-2,0-4.5,0s-4.5,0-4.5,0c0-0.1,2-0.1,4.5-0.1C416.4,301.4,418.4,301.4,418.4,301.4z"/>
		<path class="st3" d="M418.4,303.6c0,0-2,0.1-4.5,0.1s-4.5,0-4.5-0.1c0,0,2-0.1,4.5-0.1C416.4,303.5,418.4,303.6,418.4,303.6z"/>
		<path class="st3" d="M418.4,305.8c0,0-2,0.1-4.5,0.1s-4.5,0-4.5-0.1c0-0.1,2,0,4.5,0C416.4,305.7,418.4,305.8,418.4,305.8z"/>
		<path class="st1" d="M381.5,300v1c0,1.2-0.6,1.9-1.8,1.9c-1.2,0-1.8-0.7-1.8-1.9v-4c0-1.2,0.6-1.9,1.8-1.9c1.2,0,1.8,0.7,1.8,1.9
			v0.8h-1.2V297c0-0.6-0.2-0.8-0.6-0.8c-0.4,0-0.6,0.2-0.6,0.8v4.2c0,0.6,0.2,0.8,0.6,0.8s0.6-0.2,0.6-0.8V300H381.5z"/>
		<path class="st1" d="M382.2,297c0-0.2,0-0.5,0.1-0.7c0.1-0.2,0.2-0.4,0.4-0.6c0.2-0.2,0.4-0.3,0.6-0.4c0.2-0.1,0.5-0.1,0.7-0.1
			s0.5,0,0.7,0.1c0.2,0.1,0.4,0.2,0.6,0.4c0.2,0.2,0.3,0.4,0.4,0.6c0.1,0.2,0.1,0.5,0.1,0.7v4c0,0.2,0,0.5-0.1,0.7
			c-0.1,0.2-0.2,0.4-0.4,0.6c-0.2,0.2-0.4,0.3-0.6,0.4c-0.2,0.1-0.5,0.1-0.7,0.1s-0.5,0-0.7-0.1c-0.2-0.1-0.4-0.2-0.6-0.4
			c-0.2-0.2-0.3-0.4-0.4-0.6c-0.1-0.2-0.1-0.5-0.1-0.7V297z M383.4,301.1c0,0.6,0.2,0.8,0.6,0.8s0.6-0.2,0.6-0.8V297
			c0-0.6-0.2-0.8-0.6-0.8s-0.6,0.2-0.6,0.8V301.1z"/>
		<path class="st1" d="M386.7,295.2h1.2v6.6h2v1.1h-3.2L386.7,295.2z"/>
		<path class="st1" d="M390.3,297c0-0.2,0-0.5,0.1-0.7c0.1-0.2,0.2-0.4,0.4-0.6c0.2-0.2,0.4-0.3,0.6-0.4c0.2-0.1,0.5-0.1,0.7-0.1
			c0.2,0,0.5,0,0.7,0.1c0.2,0.1,0.4,0.2,0.6,0.4c0.2,0.2,0.3,0.4,0.4,0.6c0.1,0.2,0.1,0.5,0.1,0.7v4c0,0.2,0,0.5-0.1,0.7
			c-0.1,0.2-0.2,0.4-0.4,0.6c-0.2,0.2-0.4,0.3-0.6,0.4c-0.2,0.1-0.5,0.1-0.7,0.1c-0.2,0-0.5,0-0.7-0.1c-0.2-0.1-0.4-0.2-0.6-0.4
			c-0.2-0.2-0.3-0.4-0.4-0.6c-0.1-0.2-0.1-0.5-0.1-0.7V297z M391.6,301.1c0,0.6,0.2,0.8,0.6,0.8c0.4,0,0.6-0.2,0.6-0.8V297
			c0-0.6-0.2-0.8-0.6-0.8c-0.4,0-0.6,0.2-0.6,0.8V301.1z"/>
		<path class="st1" d="M396,295.2v6c0,0.5,0.2,0.7,0.6,0.7c0.4,0,0.6-0.2,0.6-0.7v-6h1.2v5.9c0,1.2-0.6,1.9-1.8,1.9
			c-1.2,0-1.8-0.7-1.8-1.9v-5.9H396z"/>
		<path class="st1" d="M401.8,302.9c-0.1-0.3-0.1-0.6-0.1-1v-1.2c0-0.7-0.2-1-0.8-1h-0.4v3.2h-1.2v-7.8h1.8c1.3,0,1.8,0.6,1.8,1.8
			v0.6c0,0.3,0,0.6-0.2,0.9c-0.1,0.3-0.4,0.5-0.6,0.7c0.6,0.3,0.8,0.8,0.8,1.6v1.2c0,0.3,0,0.6,0.1,0.9H401.8z M400.5,296.3v2.4h0.5
			c0.4,0,0.7-0.2,0.7-0.8v-0.8c0-0.6-0.2-0.8-0.6-0.8H400.5z"/>
		<path class="st3" d="M381.3,285.7h-0.9l0-0.2h2l-0.1,0.2h-0.9l-0.5,2.3h-0.3L381.3,285.7z"/>
		<path class="st3" d="M384.2,286.1l-1.4,2.1c-0.2,0.4-0.4,0.5-0.7,0.5c-0.1,0-0.2,0-0.2,0c-0.1,0-0.1-0.1-0.2-0.1l0.1-0.2
			c0,0,0.1,0.1,0.2,0.1c0.1,0,0.1,0,0.2,0c0.2,0,0.3-0.1,0.4-0.3l0.1-0.2l-0.5-1.9h0.3l0.4,1.6l1-1.6L384.2,286.1z"/>
		<path class="st3" d="M386.3,286.9c0,0.1,0,0.3-0.1,0.4c0,0.1-0.1,0.3-0.2,0.4c-0.1,0.1-0.2,0.2-0.4,0.2c-0.1,0.1-0.3,0.1-0.4,0.1
			c-0.1,0-0.3,0-0.4-0.1c-0.1-0.1-0.2-0.2-0.3-0.3l-0.2,1.1H384l0.5-2.6h0.2l-0.1,0.3c0.1-0.1,0.2-0.2,0.3-0.2
			c0.1-0.1,0.3-0.1,0.4-0.1c0.1,0,0.2,0,0.3,0c0.1,0,0.2,0.1,0.3,0.2c0.1,0.1,0.1,0.2,0.2,0.3C386.3,286.6,386.3,286.7,386.3,286.9z
			 M386,286.9c0-0.1,0-0.2,0-0.2c0-0.1-0.1-0.1-0.1-0.2c-0.1-0.1-0.1-0.1-0.2-0.1c-0.1,0-0.2,0-0.2,0c-0.1,0-0.2,0-0.3,0.1
			c-0.1,0-0.2,0.1-0.3,0.2c-0.1,0.1-0.1,0.2-0.2,0.3c0,0.1-0.1,0.2,0,0.3c0,0.1,0,0.2,0,0.2c0,0.1,0.1,0.1,0.1,0.2
			c0.1,0.1,0.1,0.1,0.2,0.1s0.2,0,0.2,0c0.1,0,0.2,0,0.3-0.1c0.1,0,0.2-0.1,0.3-0.2c0.1-0.1,0.1-0.2,0.2-0.3
			C386,287.1,386,287,386,286.9L386,286.9z"/>
		<path class="st3" d="M386.6,287.2c0-0.1,0-0.3,0.1-0.4c0.1-0.1,0.1-0.3,0.2-0.4c0.1-0.1,0.2-0.2,0.4-0.2c0.1-0.1,0.3-0.1,0.4-0.1
			c0.1,0,0.2,0,0.3,0c0.1,0,0.2,0.1,0.3,0.2c0.1,0.1,0.1,0.2,0.2,0.3c0,0.1,0.1,0.2,0.1,0.3c0,0.1,0,0.3-0.1,0.4s-0.1,0.3-0.2,0.4
			c-0.1,0.1-0.2,0.2-0.4,0.2c-0.1,0.1-0.3,0.1-0.4,0.1c-0.1,0-0.2,0-0.3,0c-0.1,0-0.2-0.1-0.3-0.2c-0.1-0.1-0.1-0.2-0.2-0.3
			C386.6,287.4,386.6,287.3,386.6,287.2z M388.3,286.9c0-0.1,0-0.2,0-0.2c0-0.1-0.1-0.1-0.1-0.2c-0.1-0.1-0.1-0.1-0.2-0.1
			c-0.1,0-0.2,0-0.2,0c-0.1,0-0.2,0-0.3,0.1c-0.1,0-0.2,0.1-0.3,0.2c-0.1,0.1-0.1,0.2-0.2,0.3c0,0.1-0.1,0.2,0,0.3
			c0,0.1,0,0.2,0,0.2c0,0.1,0.1,0.1,0.1,0.2c0.1,0.1,0.1,0.1,0.2,0.1c0.1,0,0.2,0,0.2,0c0.1,0,0.2,0,0.3-0.1c0.1,0,0.2-0.1,0.3-0.2
			c0.1-0.1,0.1-0.2,0.2-0.3C388.3,287.1,388.3,287,388.3,286.9z"/>
		<path class="st3" d="M391,286.1l-0.3,1.7c0,0.1,0,0.3-0.1,0.4c-0.1,0.1-0.1,0.2-0.2,0.3c-0.1,0.1-0.2,0.2-0.4,0.2s-0.3,0.1-0.4,0
			c-0.3,0-0.6-0.1-0.8-0.3l0.1-0.2c0.1,0.1,0.2,0.2,0.3,0.2c0.1,0,0.3,0.1,0.4,0.1c0.1,0,0.2,0,0.3,0c0.1,0,0.2-0.1,0.3-0.1
			c0.1-0.1,0.1-0.1,0.2-0.2c0-0.1,0.1-0.2,0.1-0.3l0-0.2c-0.1,0.1-0.2,0.2-0.3,0.2s-0.3,0.1-0.4,0.1c-0.1,0-0.2,0-0.3,0
			c-0.1,0-0.2-0.1-0.3-0.2c-0.1-0.1-0.1-0.2-0.2-0.3c0-0.1-0.1-0.2-0.1-0.3c0-0.1,0-0.3,0.1-0.4c0.1-0.1,0.1-0.3,0.2-0.4
			c0.1-0.1,0.2-0.2,0.4-0.2s0.3-0.1,0.4-0.1c0.1,0,0.3,0,0.4,0.1c0.1,0.1,0.2,0.2,0.3,0.3l0.1-0.4H391z M390.6,286.8
			c0-0.3-0.2-0.6-0.6-0.6c-0.1,0-0.2,0-0.3,0.1c-0.1,0-0.2,0.1-0.3,0.2s-0.1,0.2-0.2,0.3c0,0.1-0.1,0.2-0.1,0.3
			c0,0.3,0.2,0.5,0.6,0.5c0.1,0,0.2,0,0.3-0.1c0.1,0,0.2-0.1,0.3-0.2c0.1-0.1,0.1-0.2,0.2-0.3C390.6,287,390.6,286.9,390.6,286.8z"
			/>
		<path class="st3" d="M392.7,286l0,0.2h-0.1c-0.1,0-0.2,0-0.3,0c-0.1,0-0.2,0.1-0.2,0.2c-0.1,0.1-0.1,0.1-0.2,0.2s-0.1,0.2-0.1,0.3
			l-0.2,1h-0.2l0.4-1.9h0.2l-0.1,0.3c0.1-0.1,0.2-0.2,0.3-0.3C392.4,286.1,392.5,286,392.7,286z"/>
		<path class="st3" d="M394.8,286.1l-0.4,1.9h-0.2l0.1-0.3c-0.1,0.1-0.2,0.2-0.3,0.2c-0.1,0.1-0.3,0.1-0.4,0.1c-0.1,0-0.2,0-0.3,0
			c-0.1,0-0.2-0.1-0.3-0.2c-0.1-0.1-0.1-0.2-0.2-0.3c0-0.1-0.1-0.2-0.1-0.3c0-0.1,0-0.3,0.1-0.4c0.1-0.1,0.1-0.3,0.2-0.4
			c0.1-0.1,0.2-0.2,0.4-0.2c0.1-0.1,0.3-0.1,0.4-0.1c0.1,0,0.3,0,0.4,0.1c0.1,0.1,0.2,0.2,0.3,0.3l0.1-0.4H394.8z M394.4,286.9
			c0-0.1,0-0.2,0-0.2c0-0.1-0.1-0.1-0.1-0.2c-0.1-0.1-0.1-0.1-0.2-0.1s-0.2,0-0.2,0c-0.1,0-0.2,0-0.3,0.1c-0.1,0-0.2,0.1-0.3,0.2
			c-0.1,0.1-0.1,0.2-0.2,0.3c0,0.1-0.1,0.2,0,0.3c0,0.1,0,0.2,0,0.2s0.1,0.1,0.1,0.2c0.1,0.1,0.1,0.1,0.2,0.1c0.1,0,0.2,0,0.2,0
			c0.1,0,0.2,0,0.3-0.1c0.1,0,0.2-0.1,0.3-0.2c0.1-0.1,0.1-0.2,0.2-0.3C394.4,287.1,394.4,287,394.4,286.9z"/>
		<path class="st3" d="M397.3,286.8c0,0.1,0,0.3-0.1,0.4c-0.1,0.1-0.1,0.3-0.2,0.4c-0.1,0.1-0.2,0.2-0.4,0.2
			c-0.1,0.1-0.3,0.1-0.4,0.1c-0.1,0-0.3,0-0.4-0.1c-0.1-0.1-0.2-0.2-0.3-0.3l-0.2,1.1H395l0.5-2.6h0.2l-0.1,0.3
			c0.1-0.1,0.2-0.2,0.3-0.2c0.1-0.1,0.3-0.1,0.4-0.1c0.1,0,0.2,0,0.3,0c0.1,0,0.2,0.1,0.3,0.2c0.1,0.1,0.1,0.2,0.2,0.3
			C397.3,286.6,397.3,286.7,397.3,286.8z M397,286.8c0-0.1,0-0.2,0-0.2c0-0.1-0.1-0.1-0.1-0.2c-0.1-0.1-0.1-0.1-0.2-0.1
			c-0.1,0-0.2,0-0.2,0c-0.1,0-0.2,0-0.3,0.1s-0.2,0.1-0.3,0.2c-0.1,0.1-0.1,0.2-0.2,0.3c0,0.1-0.1,0.2,0,0.3c0,0.1,0,0.2,0,0.2
			c0,0.1,0.1,0.1,0.1,0.2c0.1,0.1,0.1,0.1,0.2,0.1c0.1,0,0.2,0,0.2,0c0.1,0,0.2,0,0.3-0.1c0.1,0,0.2-0.1,0.3-0.2
			c0.1-0.1,0.1-0.2,0.2-0.3C397,287.1,397,287,397,286.8L397,286.8z"/>
		<path class="st3" d="M399.6,286.7c0,0.1,0,0.1,0,0.2l-0.2,1.1h-0.3l0.2-1.1c0-0.1,0-0.1,0-0.2c0-0.3-0.2-0.4-0.5-0.4
			c-0.1,0-0.2,0-0.3,0c-0.1,0-0.2,0.1-0.2,0.1c-0.1,0.1-0.1,0.1-0.2,0.2c0,0.1-0.1,0.2-0.1,0.3l-0.2,1h-0.3l0.5-2.7h0.3l-0.2,1.1
			c0.1-0.1,0.2-0.2,0.3-0.2c0.1-0.1,0.3-0.1,0.4-0.1c0.1,0,0.2,0,0.3,0c0.1,0,0.2,0.1,0.2,0.1c0.1,0.1,0.1,0.1,0.1,0.2
			C399.6,286.5,399.6,286.6,399.6,286.7z"/>
		<path class="st3" d="M402,286.1l-1.4,2.1c-0.2,0.4-0.4,0.5-0.7,0.5c-0.1,0-0.2,0-0.2,0c-0.1,0-0.1-0.1-0.2-0.1l0.1-0.2
			c0,0,0.1,0.1,0.2,0.1c0.1,0,0.1,0,0.2,0c0.2,0,0.3-0.1,0.4-0.3l0.1-0.2l-0.5-1.9h0.3l0.4,1.6l1-1.6L402,286.1z"/>
		<path class="st1" d="M104.6,152.4c-5.4,0-10.7-2.2-14.5-6s-6-9.1-6-14.5c0-5.4,2.2-10.6,6-14.5c3.8-3.8,9.1-6,14.5-6
			c5.4,0,10.7,2.2,14.5,6c3.8,3.8,6,9,6,14.5c0,5.4-2.2,10.6-6,14.5C115.2,150.2,110,152.4,104.6,152.4z"/>
		<path class="st5" d="M104.6,118.9c-2.6,0-5.1,0.8-7.3,2.2c-2.1,1.4-3.8,3.5-4.8,5.9c-1,2.4-1.2,5-0.7,7.5c0.5,2.5,1.8,4.9,3.6,6.7
			c1.8,1.8,4.2,3.1,6.7,3.6c2.5,0.5,5.2,0.2,7.6-0.7c2.4-1,4.4-2.7,5.9-4.8c1.4-2.1,2.2-4.7,2.2-7.3c0-1.7-0.3-3.4-1-5
			c-0.7-1.6-1.6-3-2.8-4.2c-1.2-1.2-2.7-2.2-4.2-2.8C108,119.2,106.3,118.9,104.6,118.9z M104.6,121.1c2.4,0,4.7,0.8,6.6,2.2
			c-1.4,1.8-3.3,3.2-5.4,4c-1.1-2.1-2.4-4-3.8-5.9C102.8,121.2,103.7,121.1,104.6,121.1z M99.7,122.3c1.4,1.9,2.7,3.8,3.9,5.9
			c-3.1,0.8-6.3,1.2-9.5,1.2c0.4-1.5,1.1-2.9,2-4.1C97.1,124,98.3,123,99.7,122.3z M93.8,131.9c0-0.1,0-0.2,0-0.3
			c3.7,0.1,7.3-0.4,10.8-1.4c0.3,0.5,0.5,1,0.7,1.6c-3.7,1.2-6.9,3.7-9,7C94.7,136.9,93.8,134.4,93.8,131.9z M104.6,142.7
			c-2.4,0-4.7-0.8-6.6-2.3c1.8-3.1,4.8-5.5,8.3-6.6c1,2.6,1.7,5.3,2.2,8.1C107.2,142.5,105.9,142.7,104.6,142.7z M110.6,140.9
			c-0.5-2.6-1.2-5.1-2.1-7.5c2.2-0.3,4.5-0.2,6.8,0.2c-0.2,1.5-0.8,2.9-1.6,4.1C112.9,139,111.8,140.1,110.6,140.9L110.6,140.9z
			 M107.6,131.2c-0.3-0.6-0.5-1.2-0.8-1.8c2.4-1,4.4-2.5,6-4.4c1.5,1.8,2.4,4,2.5,6.3C112.8,130.9,110.2,130.8,107.6,131.2z"/>
		<path class="st1" d="M36.3,107l-2.4,1.3l-9.2-4.4l-2.6-4.8c0,0-3.8,1.8,0,7.8c3.9,6,2.5,4.7,2.5,4.7s-7.9,4.3-8.1,5.4
			c-0.2,0.7,3.9,8.7,6.1,12.9c0.5,1.1,1.3,1.9,2.4,2.4c1,0.5,2.2,0.7,3.4,0.4c0.3-0.1,0.6-0.2,0.9-0.3c2-1.1,11.1-8.1,11.1-8.1
			l4.1-2.3L36.3,107z"/>
		<path class="st1" d="M42.4,101.9l7.5,17.1l-4.1,2.2l-8.8-16L42.4,101.9z"/>
		<path class="st2" d="M299.8,59.9c13.7-0.8,24.1-12.5,23.3-26.2c-0.8-13.7-12.6-24.1-26.3-23.3c-13.7,0.8-24.1,12.5-23.3,26.2
			C274.4,50.2,286.1,60.7,299.8,59.9z"/>
		<path class="st3" d="M289.8,28.8c0.9-0.1,1.8,1,1.9,2.3c0.1,1.4-0.6,2.5-1.5,2.6c-0.9,0.1-1.8-1-1.9-2.3
			C288.2,30.1,288.8,28.9,289.8,28.8z"/>
		<path class="st3" d="M292,22.6c0,0.2-2.1,0-4.4,0.9c-2.3,0.9-3.8,2.3-3.9,2.2c-0.1-0.1,1.2-1.9,3.7-2.9
			C289.8,21.9,292,22.4,292,22.6z"/>
		<path class="st3" d="M305.6,28.5c-0.9,0-1.8,1-1.8,2.4c-0.1,1.4,0.7,2.5,1.6,2.5c0.9,0,1.7-1.1,1.8-2.4
			C307.3,29.7,306.5,28.6,305.6,28.5z"/>
		<path class="st3" d="M303.1,22.3c-0.1-0.2,2.1-0.8,4.7,0s4,2.6,3.8,2.7c-0.2,0.1-1.7-1.3-4-2S303.2,22.5,303.1,22.3z"/>
		<path class="st3" d="M310.6,34.8c0,0.4,0,0.9-0.2,1.3c-0.3,1.2-0.8,2.3-1.4,3.4c-1,1.6-2.3,2.9-3.8,3.9c-1.9,1.3-4,2.1-6.3,2.2
			c-2.3,0.1-4.5-0.4-6.5-1.5c-1.6-0.9-3-2.1-4.2-3.5c-0.8-1-1.4-2-1.8-3.2c-0.2-0.4-0.3-0.9-0.3-1.3c0.1-0.1,0.5,1.9,2.5,4.2
			c1.1,1.3,2.5,2.4,4.1,3.2c1.9,1,4,1.5,6.2,1.4c2.1-0.1,4.2-0.8,6-2c1.5-1,2.7-2.2,3.7-3.6C310.3,36.8,310.5,34.8,310.6,34.8z"/>
		<path class="st2" d="M471.5,93.7c5.5-5.8,5.3-15.1-0.6-20.6c-5.9-5.5-15.1-5.3-20.6,0.6c-5.5,5.8-5.3,15.1,0.6,20.6
			C456.8,99.8,466,99.6,471.5,93.7z"/>
		<path class="st3" d="M455.9,80c0.6,0,1.1,0.6,1.1,1.4c0.1,0.8-0.3,1.5-0.9,1.5c-0.6,0-1.1-0.6-1.1-1.4
			C455.1,80.8,455.3,80.1,455.9,80z"/>
		<path class="st3" d="M457.2,76.4c0,0.1-1.2,0-2.6,0.5c-0.8,0.4-1.6,0.8-2.3,1.3c0.5-0.8,1.3-1.3,2.2-1.7
			C455.3,76.2,456.3,76.1,457.2,76.4z"/>
		<path class="st3" d="M465.2,79.9c-0.6,0-1,0.6-1.1,1.4c0,0.8,0.4,1.5,0.9,1.5c0.5,0,1-0.6,1.1-1.4
			C466.1,80.5,465.7,79.9,465.2,79.9z"/>
		<path class="st3" d="M463.7,76.2c0.9-0.3,1.9-0.3,2.8,0c0.9,0.3,1.7,0.8,2.2,1.6c-0.8-0.5-1.5-0.9-2.4-1.2
			C465,76.2,463.8,76.4,463.7,76.2z"/>
		<path class="st3" d="M468.1,83.6c0,0.3,0,0.5-0.1,0.8c-0.2,0.7-0.5,1.4-0.9,2c-0.6,0.9-1.3,1.7-2.2,2.3c-1.1,0.8-2.4,1.2-3.7,1.3
			c-1.3,0.1-2.7-0.2-3.8-0.9c-0.9-0.5-1.8-1.2-2.4-2.1c-0.5-0.6-0.8-1.2-1-1.9c-0.1-0.2-0.2-0.5-0.2-0.8c0.4,0.9,0.8,1.7,1.4,2.5
			c0.7,0.8,1.5,1.4,2.4,1.9c1.1,0.6,2.4,0.9,3.6,0.8c1.3-0.1,2.5-0.5,3.5-1.2c0.9-0.6,1.6-1.3,2.2-2.1
			C467.4,85.3,467.8,84.5,468.1,83.6z"/>
		<path class="st1" d="M90.1,176.7l-1.6-0.2l-2.6-5.3l0.5-3.1c0,0-2.4-0.5-2.8,3.6c-0.4,4.1-0.5,3-0.5,3s-5.1-0.8-5.6-0.4
			c-0.4,0.3-1.3,5.3-1.8,8c-0.1,0.7-0.1,1.3,0.2,1.9s0.8,1.1,1.4,1.4c0.2,0.1,0.4,0.1,0.5,0.2c1.3,0.2,7.9,0.2,7.9,0.2l2.7,0.4
			L90.1,176.7z"/>
		<path class="st1" d="M94.7,176.6L92,187l-2.7-0.4l1.7-10.4L94.7,176.6z"/>
		<path class="st1" d="M433.5,19.8l-1.6-0.3l-2.6-5.3l0.5-3.1c0,0-2.4-0.5-2.8,3.6c-0.4,4.1-0.5,3-0.5,3s-5.1-0.8-5.6-0.4
			c-0.4,0.3-1.3,5.3-1.8,8c-0.1,0.6-0.1,1.3,0.2,1.9c0.3,0.6,0.8,1.1,1.4,1.4c0.2,0.1,0.4,0.1,0.5,0.2c1.3,0.2,7.9,0.2,7.9,0.2
			l2.7,0.4L433.5,19.8z"/>
		<path class="st1" d="M438,19.7l-2.7,10.4l-2.7-0.4l1.7-10.4L438,19.7z"/>
		<path class="st4" d="M285,106.7l-64.1,0.3l0.3,51.2l64.1-0.3L285,106.7z"/>
		<path class="st6" d="M285,106.7h-0.3h-0.9l-3.5,0l-13.1,0.1l-46.3,0.3l0.2-0.2c0.1,15.2,0.2,32.7,0.3,51.2l-0.2-0.2l64.1-0.3
			l-0.2,0.1c0-15.4-0.1-28.2-0.1-37.1c0-4.5,0-8,0-10.4v-2.7C285,107,285,106.6,285,106.7c0,0,0,0.3,0,0.9s0,1.5,0,2.7
			c0,2.4,0.1,5.9,0.1,10.3c0.1,9,0.2,21.8,0.3,37.2v0.2h-0.2l-64.1,0.4H221v-0.2c-0.1-18.5-0.2-36-0.2-51.2v-0.2h0.2l46.4-0.2h13.1
			H285L285,106.7z"/>
		<path class="st1" d="M282.7,109.9l-59.6,0.3l0.2,44.8l59.6-0.3L282.7,109.9z"/>
		<path class="st3" d="M223.4,154.9l20.7-27.9l13,17.3l8.7-9.3l17.3,19.6L223.4,154.9z"/>
		<path class="st3" d="M262.4,123.5c0,0.9-0.3,1.8-0.8,2.6c-0.5,0.8-1.2,1.4-2.1,1.7c-0.9,0.4-1.8,0.5-2.7,0.3
			c-0.9-0.2-1.8-0.6-2.4-1.3c-0.7-0.7-1.1-1.5-1.3-2.4c-0.2-0.9-0.1-1.9,0.3-2.7c0.4-0.9,0.9-1.6,1.7-2.1c0.8-0.5,1.7-0.8,2.6-0.8
			c1.2,0,2.4,0.5,3.3,1.4C261.9,121.1,262.4,122.3,262.4,123.5z"/>
		<path class="st6" d="M466,308.8c0,0.1-99,0.2-221.1,0.2c-122.1,0-221.1-0.1-221.1-0.2c0-0.1,99-0.2,221.1-0.2
			C367.1,308.6,466,308.7,466,308.8z"/>
		<path class="st7" d="M107.2,273.8c-2.3,0-4.6-0.5-6.7-1.3c-2.1-0.9-4.1-2.2-5.7-3.8c-1.6-1.6-2.9-3.5-3.8-5.7
			c-0.9-2.1-1.3-4.4-1.3-6.7c0-4.6,1.8-9.1,5.1-12.4c3.3-3.3,7.7-5.1,12.4-5.1c2.3,0,4.6,0.5,6.7,1.3c2.1,0.9,4,2.2,5.7,3.8
			c1.6,1.6,2.9,3.5,3.8,5.7s1.3,4.4,1.3,6.7c0,2.3-0.5,4.6-1.3,6.7c-0.9,2.1-2.2,4-3.8,5.7c-1.6,1.6-3.6,2.9-5.7,3.8
			C111.8,273.3,109.5,273.8,107.2,273.8z"/>
		<path class="st8" d="M116.8,255.8c-0.1-2.4-1.1-4.7-2.8-6.4c-1.7-1.7-4.1-2.7-6.5-2.7c-2.4,0-4.8,0.9-6.6,2.6
			c-1.8,1.7-2.8,4-2.9,6.4c0,0.1,0,0.3,0,0.4c0,1.7,0.5,3.4,1.4,4.8l-1.7,5l5.2-1.7c1.4,0.8,3,1.2,4.7,1.2c1.6,0,3.2-0.5,4.6-1.3
			c1.4-0.8,2.6-2,3.4-3.4c0.8-1.4,1.3-3,1.3-4.6L116.8,255.8z M107.4,263.9c-1.5,0-3.1-0.4-4.4-1.3l-3,1l1-2.9
			c-1-1.3-1.5-2.9-1.5-4.6c0-0.3,0-0.5,0-0.8c0.2-2,1.1-3.8,2.6-5.1c1.5-1.3,3.4-2,5.3-2c2,0,3.9,0.8,5.3,2.1
			c1.4,1.3,2.3,3.2,2.5,5.1c0,0.2,0,0.4,0,0.6c0,2.1-0.9,4.1-2.3,5.5C111.5,263.1,109.5,263.9,107.4,263.9z"/>
		<path class="st8" d="M111.7,258c-0.2-0.1-1.4-0.7-1.6-0.7c-0.2,0-0.4-0.1-0.5,0.1c-0.2,0.2-0.6,0.7-0.7,0.9
			c-0.1,0.2-0.3,0.2-0.5,0.1c-0.7-0.3-1.3-0.7-1.9-1.1c-0.5-0.5-0.9-1-1.3-1.6c-0.1-0.2,0-0.4,0.1-0.5c0.1-0.1,0.2-0.3,0.4-0.4
			l0.1-0.1c0.1-0.1,0.1-0.2,0.2-0.3c0-0.1,0.1-0.1,0.1-0.2c0-0.1,0-0.1-0.1-0.2c-0.1-0.1-0.5-1.2-0.7-1.7s-0.4-0.4-0.5-0.4
			c-0.1,0-0.3,0-0.4,0c-0.1,0-0.2,0-0.3,0.1c-0.1,0-0.2,0.1-0.3,0.2c-0.3,0.2-0.5,0.5-0.6,0.9c-0.1,0.3-0.2,0.7-0.2,1
			c0,0.3,0,0.5,0.1,0.8c0.2,0.6,0.5,1.1,0.8,1.6c0.1,0.2,1.6,2.5,3.9,3.5c2.3,0.9,2.4,0.6,2.8,0.6c0.3-0.1,0.6-0.2,0.9-0.4
			c0.3-0.2,0.5-0.4,0.7-0.7c0.2-0.3,0.2-0.7,0.1-1.1C112.1,258.1,112,258,111.7,258z"/>
		<path class="st7" d="M59.5,161.7c-1.8,0-3.5-0.3-5.2-1c-1.6-0.7-3.1-1.7-4.4-2.9c-1.3-1.2-2.2-2.7-2.9-4.4c-0.7-1.6-1-3.4-1-5.2
			c0-1.8,0.3-3.5,1-5.2c0.7-1.6,1.7-3.1,2.9-4.4c1.3-1.3,2.7-2.2,4.4-2.9c1.6-0.7,3.4-1,5.2-1c3.6,0,7,1.4,9.5,3.9
			c2.5,2.5,3.9,6,3.9,9.5c0,3.6-1.4,7-3.9,9.5C66.5,160.3,63.1,161.7,59.5,161.7z"/>
		<path class="st5" d="M55.2,149.5c0,0,0.1,0,0.1,0c0,0,0.1,0,0.1,0c0,0,0.1-0.1,0.1-0.1c0,0,0-0.1,0.1-0.1c0-0.2,0.1-0.6,0.2-0.7
			c0-0.1,0-0.2,0-0.3c0-0.1-0.1-0.2-0.2-0.2c-0.4-0.5-0.6-1.1-0.6-1.8c0-0.6,0.1-1.2,0.3-1.7c0.2-0.5,0.6-1,1-1.4
			c0.4-0.4,0.9-0.7,1.5-0.9s1.1-0.3,1.7-0.3c2.5,0,3.8,1.5,3.8,3.5c0,2.6-1.2,4.9-2.9,4.9c-0.2,0-0.4,0-0.6-0.1
			c-0.2-0.1-0.4-0.2-0.5-0.4c-0.1-0.2-0.2-0.4-0.3-0.6c0-0.2,0-0.4,0-0.7c0.3-1.2,0.8-2.4,0.8-3.3c0-0.2,0-0.4-0.1-0.5
			c-0.1-0.2-0.1-0.3-0.3-0.5c-0.1-0.1-0.3-0.2-0.4-0.3c-0.2-0.1-0.3-0.1-0.5-0.1c-1,0-1.8,1-1.8,2.4c0,0.5,0.1,1,0.3,1.4
			c0,0-1,4.3-1.2,5c-0.2,1.2-0.2,2.3,0,3.5c0,0,0,0,0,0.1c0,0,0,0,0.1,0c0,0,0,0,0.1,0c0,0,0,0,0.1,0c0.7-0.9,1.3-1.9,1.7-3
			c0.1-0.4,0.6-2.5,0.6-2.5c0.2,0.4,0.6,0.7,1,0.9c0.4,0.2,0.8,0.3,1.3,0.3c3,0,5-2.7,5-6.3c0-2.7-2.3-5.3-5.8-5.3
			c-4.4,0-6.6,3.1-6.6,5.7C53.3,147.6,53.9,149,55.2,149.5z"/>
		<path class="st9" d="M43.3,226.1c-4.9,0-9.6-1.9-13-5.4c-3.5-3.5-5.4-8.1-5.4-13s1.9-9.6,5.4-13c3.5-3.5,8.2-5.4,13-5.4
			c4.9,0,9.6,1.9,13,5.4c3.5,3.5,5.4,8.1,5.4,13s-1.9,9.6-5.4,13C52.9,224.1,48.2,226.1,43.3,226.1z"/>
		<path class="st5" d="M43.3,199.3c2.7,0,3,0,4.1,0.1c0.6,0,1.3,0.1,1.9,0.4c0.4,0.2,0.8,0.4,1.2,0.8c0.3,0.3,0.6,0.7,0.8,1.2
			c0.2,0.6,0.3,1.2,0.3,1.9c0,1.1,0.1,1.4,0.1,4.1s0,3-0.1,4.1c0,0.6-0.1,1.3-0.3,1.9c-0.2,0.4-0.4,0.8-0.8,1.2
			c-0.3,0.3-0.7,0.6-1.2,0.8c-0.6,0.2-1.2,0.3-1.9,0.3c-1.1,0.1-1.4,0.1-4.1,0.1s-3,0-4.1-0.1c-0.6,0-1.3-0.1-1.9-0.3
			c-0.4-0.2-0.8-0.4-1.2-0.8c-0.3-0.3-0.6-0.7-0.8-1.2c-0.2-0.6-0.3-1.2-0.4-1.9c0-1.1-0.1-1.4-0.1-4.1s0-3,0.1-4.1
			c0-0.6,0.1-1.3,0.4-1.9c0.2-0.4,0.4-0.8,0.8-1.2c0.3-0.3,0.7-0.6,1.2-0.8c0.6-0.2,1.2-0.3,1.9-0.4
			C40.3,199.4,40.6,199.3,43.3,199.3z M43.3,197.5c-2.8,0-3.1,0-4.2,0.1c-0.8,0-1.7,0.2-2.5,0.5c-0.7,0.3-1.3,0.7-1.8,1.2
			c-0.5,0.5-0.9,1.1-1.2,1.8c-0.3,0.8-0.5,1.6-0.5,2.5c-0.1,1.1-0.1,1.4-0.1,4.2s0,3.1,0.1,4.2c0,0.8,0.2,1.7,0.5,2.4
			c0.3,0.7,0.7,1.3,1.2,1.8c0.5,0.5,1.1,0.9,1.8,1.2c0.8,0.3,1.6,0.5,2.5,0.5c1.1,0.1,1.4,0.1,4.2,0.1s3.1,0,4.2-0.1
			c0.8,0,1.7-0.2,2.5-0.5c0.7-0.3,1.3-0.7,1.8-1.2c0.5-0.5,0.9-1.1,1.2-1.8c0.3-0.8,0.5-1.6,0.5-2.4c0-1.1,0.1-1.4,0.1-4.2
			s0-3.1-0.1-4.2c0-0.8-0.2-1.7-0.5-2.5c-0.3-0.7-0.6-1.3-1.2-1.8c-0.5-0.5-1.1-0.9-1.8-1.2c-0.8-0.3-1.6-0.5-2.5-0.5
			C46.4,197.5,46.1,197.5,43.3,197.5z"/>
		<path class="st5" d="M43.3,202.4c-1,0-2,0.3-2.9,0.9c-0.9,0.6-1.5,1.4-1.9,2.3c-0.4,0.9-0.5,2-0.3,3s0.7,1.9,1.4,2.7
			c0.7,0.7,1.7,1.2,2.7,1.4c1,0.2,2.1,0.1,3-0.3c0.9-0.4,1.8-1.1,2.3-1.9c0.6-0.9,0.9-1.9,0.9-2.9c0-0.7-0.1-1.4-0.4-2
			c-0.3-0.6-0.6-1.2-1.1-1.7c-0.5-0.5-1.1-0.9-1.7-1.1C44.7,202.6,44,202.4,43.3,202.4z M43.3,211c-0.7,0-1.3-0.2-1.9-0.6
			c-0.6-0.4-1-0.9-1.2-1.5c-0.3-0.6-0.3-1.3-0.2-1.9c0.1-0.7,0.5-1.3,0.9-1.7c0.5-0.5,1.1-0.8,1.7-0.9c0.7-0.1,1.3-0.1,1.9,0.2
			c0.6,0.3,1.1,0.7,1.5,1.2c0.4,0.6,0.6,1.2,0.6,1.9c0,0.9-0.4,1.8-1,2.4C45.1,210.7,44.2,211,43.3,211z"/>
		<path class="st5" d="M49.9,202.2c0,0.2-0.1,0.5-0.2,0.7c-0.1,0.2-0.3,0.4-0.5,0.4c-0.2,0.1-0.5,0.1-0.7,0.1
			c-0.2,0-0.5-0.2-0.6-0.3c-0.2-0.2-0.3-0.4-0.3-0.6c0-0.2,0-0.5,0.1-0.7c0.1-0.2,0.2-0.4,0.5-0.5c0.2-0.1,0.4-0.2,0.7-0.2
			c0.3,0,0.6,0.1,0.9,0.4C49.8,201.6,49.9,201.9,49.9,202.2z"/>
		<path class="st9" d="M88.3,107.9c-2.9,0-5.8-1.2-7.9-3.3c-2.1-2.1-3.3-4.9-3.3-7.9c0-2.9,1.2-5.8,3.3-7.9c2.1-2.1,4.9-3.3,7.9-3.3
			c2.9,0,5.8,1.2,7.9,3.3c2.1,2.1,3.3,4.9,3.3,7.9c0,2.9-1.2,5.8-3.3,7.9C94.1,106.7,91.2,107.9,88.3,107.9z"/>
		<path class="st5" d="M86.6,103.5h2.7v-6.8h1.9l0.2-2.3h-2.1v-1.3c0-0.5,0.1-0.7,0.6-0.7h1.5v-2.4h-1.9c-2,0-2.9,0.9-2.9,2.6v1.8
			h-1.4v2.3h1.4V103.5z"/>
		<path class="st5" d="M366.4,56.6c8.8-1.1,15-9.1,14-17.8c-1.1-8.8-9.1-15-17.9-14c-8.8,1.1-15,9.1-14,17.8
			C349.6,51.4,357.6,57.6,366.4,56.6z"/>
		<path class="st6" d="M380.4,40.7c0,0,0-0.3-0.1-1c0-0.4-0.1-0.8-0.1-1.2c-0.1-0.6-0.2-1.1-0.3-1.6c-0.4-1.5-1-3-1.8-4.3
			c-1.9-3.2-4.9-5.6-8.3-6.9c-3.5-1.2-7.3-1.2-10.8,0c-1.4,0.5-2.8,1.2-4,2.1c-1.3,0.9-2.4,2.1-3.4,3.4c-2,2.7-3.1,6-3.1,9.4
			c0,3.4,1.1,6.7,3.1,9.4c0.5,0.6,1,1.3,1.6,1.8c0.6,0.6,1.2,1.1,1.8,1.5c1.2,0.9,2.6,1.6,4,2.1c3.5,1.3,7.3,1.3,10.8,0
			c3.5-1.2,6.4-3.7,8.4-6.8c0.8-1.3,1.4-2.8,1.8-4.3c0.2-0.5,0.3-1.1,0.3-1.6c0.1-0.4,0.1-0.8,0.1-1.2c0-0.7,0.1-1,0.1-1s0,0.3,0,1
			c0,0.4,0,0.8-0.1,1.2c-0.1,0.6-0.2,1.1-0.3,1.7c-0.4,1.5-1,3-1.8,4.3c-1.9,3.2-4.9,5.7-8.4,6.9c-3.5,1.3-7.4,1.3-10.9,0
			c-1.5-0.5-2.8-1.2-4.1-2.2c-0.6-0.5-1.3-1-1.8-1.5c-0.6-0.6-1.1-1.2-1.6-1.9c-2-2.8-3.1-6.1-3.1-9.5c0-3.4,1.1-6.8,3.1-9.5
			c0.5-0.7,1-1.3,1.6-1.9c0.6-0.6,1.2-1.1,1.8-1.5c1.2-0.9,2.6-1.7,4.1-2.2c2.7-1,5.6-1.2,8.5-0.7c2.2,0.4,4.4,1.3,6.2,2.6
			c1.9,1.3,3.4,3,4.6,5c0.8,1.3,1.4,2.8,1.8,4.3c0.1,0.5,0.3,1.1,0.3,1.7c0.1,0.4,0.1,0.8,0.1,1.2C380.4,40.3,380.4,40.7,380.4,40.7
			z"/>
		<path class="st7" d="M364.4,30.2c0.9-0.1,1.7,0,2.6,0.2c2.3,0.6,4.4,1.9,5.9,3.8c1,1.3,1.7,2.8,2,4.5c0.4,1.9,0.2,3.8-0.4,5.6
			c-0.7,2-2,3.7-3.7,5c-1.8,1.4-4,2.1-6.3,2.1c-2.3,0-4.5-0.7-6.3-2.1c-0.9-0.6-1.6-1.4-2.3-2.3c-0.6-0.8-1.1-1.7-1.4-2.7
			c-0.5-1.4-0.7-2.9-0.6-4.4c0.1-1.5,0.5-2.9,1.2-4.2c0.7-1.3,1.7-2.5,2.9-3.4c1.2-0.9,2.5-1.6,4-1.9
			C362.7,30.2,363.6,30.2,364.4,30.2c-0.8,0.1-1.7,0.3-2.5,0.4c-1.9,0.5-3.6,1.5-5,3c-1.3,1.4-2.3,3.2-2.6,5.2
			c-0.3,1.8-0.2,3.7,0.5,5.4c0.3,0.9,0.8,1.8,1.4,2.6c0.6,0.8,1.3,1.5,2.2,2.1c1.8,1.3,3.9,2,6,2s4.3-0.7,6-2
			c1.6-1.2,2.9-2.8,3.6-4.7c0.6-1.6,0.8-3.3,0.5-5c-0.2-1.7-0.9-3.3-2-4.7c-1.4-1.9-3.4-3.2-5.7-3.8
			C366.1,30.4,365.3,30.3,364.4,30.2z"/>
		<path class="st7" d="M364.4,37.3c0.3-0.1,0.6-0.1,0.8,0c0.8,0.2,1.5,0.6,1.9,1.2c0.4,0.5,0.6,1,0.7,1.6c0.1,0.6,0,1.2-0.2,1.7
			c-0.2,0.7-0.7,1.3-1.3,1.7c-0.6,0.4-1.3,0.7-2,0.7c-0.7,0-1.4-0.2-2-0.7c-0.6-0.4-1-1-1.3-1.7c-0.2-0.6-0.3-1.1-0.2-1.7
			c0.1-0.6,0.3-1.1,0.7-1.6c0.5-0.6,1.2-1,1.9-1.1C363.9,37.3,364.1,37.3,364.4,37.3c0,0.1-0.3,0.1-0.8,0.2
			c-0.7,0.2-1.3,0.6-1.7,1.2c-0.3,0.4-0.5,0.9-0.6,1.4c-0.1,0.5,0,1,0.2,1.5c0.2,0.4,0.4,0.8,0.7,1.1c0.3,0.3,0.7,0.6,1.1,0.7
			c0.4,0.2,0.9,0.2,1.3,0.2c0.4,0,0.9-0.2,1.3-0.4c0.4-0.2,0.7-0.5,1-0.9c0.3-0.4,0.5-0.8,0.6-1.2c0.1-0.4,0.1-0.9,0-1.3
			c-0.1-0.4-0.3-0.8-0.6-1.2c-0.4-0.6-1-1-1.7-1.2C364.7,37.4,364.4,37.4,364.4,37.3z"/>
		<path class="st2" d="M347.3,52.2c5.5-3.9,11.5-7.7,17.1-11.5L347.3,52.2z"/>
		<path class="st6" d="M364.4,40.7c0,0-3.8,2.7-8.5,5.8c-4.7,3.2-8.6,5.7-8.6,5.7s3.8-2.7,8.5-5.9C360.6,43.2,364.4,40.6,364.4,40.7
			z"/>
		<path class="st6" d="M349.2,51.1c-0.7,0.1-1.3,0.1-2,0c-0.7,0-1.3,0-2-0.2c0.7-0.1,1.3-0.1,2,0C347.9,50.9,348.6,51,349.2,51.1z"
			/>
		<path class="st6" d="M348.6,53.7c0-0.5,0.1-0.9,0.2-1.4c0.1-0.5,0.2-0.9,0.4-1.3c0,0.5-0.1,0.9-0.2,1.4
			C348.9,52.8,348.8,53.3,348.6,53.7z"/>
		<path class="st6" d="M349.5,53.4c0-0.5,0-1,0.2-1.4c0.1-0.5,0.2-0.9,0.3-1.4c0,0.5,0,1-0.2,1.4C349.8,52.5,349.7,52.9,349.5,53.4z
			"/>
		<path class="st6" d="M347.2,49.9c0.5,0,0.9,0.1,1.4,0.2c0.5,0.1,0.9,0.2,1.3,0.4c-0.5,0-0.9-0.1-1.4-0.2
			C348.1,50.3,347.7,50.1,347.2,49.9z"/>
		<path class="st7" d="M431.2,125.1c0,0.1,0.1,0.1,0.1,0.2c0,0.2,0.1,0.4,0.1,0.6c0,0.8-0.2,1.6-0.6,2.2c-0.6,1-1.4,2-2.2,2.8
			l-3.2,3.3l-0.1,0.1l-0.1-0.1c-1.1-0.9-2.2-1.8-3.4-2.7c-1.2-1-2.6-2-3.3-3.6c-0.2-0.5-0.4-1-0.4-1.6c0-0.5,0.1-1.1,0.3-1.6
			c0.2-0.5,0.5-0.9,0.9-1.2c0.4-0.3,0.9-0.6,1.4-0.7c0.5-0.1,1-0.1,1.4-0.1s0.9,0.3,1.3,0.6c0.7,0.5,1.2,1.3,1.4,2.1h-0.3
			c0.1-0.7,0.3-1.3,0.7-1.8c0.4-0.5,1-0.9,1.6-1.1c0.5-0.2,1-0.2,1.5-0.1c0.5,0.1,1,0.2,1.4,0.5c0.5,0.3,1,0.8,1.2,1.4
			c0.1,0.1,0.1,0.3,0.2,0.5C431.1,125,431.2,125.1,431.2,125.1c-0.1,0-0.1-0.2-0.3-0.6c-0.3-0.5-0.7-1-1.2-1.3
			c-0.4-0.3-0.8-0.4-1.3-0.5c-0.5,0-0.9,0-1.4,0.2c-0.6,0.2-1.1,0.6-1.4,1.1c-0.4,0.5-0.6,1-0.7,1.6l-0.1,1l-0.2-1
			c-0.2-0.8-0.7-1.5-1.3-1.9c-0.4-0.3-0.8-0.4-1.2-0.5c-0.4-0.1-0.9-0.1-1.3,0.1c-0.4,0.1-0.9,0.4-1.2,0.7c-0.4,0.3-0.6,0.7-0.8,1.1
			c-0.2,0.5-0.3,0.9-0.3,1.4c0,0.5,0.1,1,0.4,1.4c0.7,1.5,2,2.5,3.2,3.4l3.4,2.8h-0.2l3.2-3.3c0.9-0.8,1.6-1.7,2.3-2.7
			c0.4-0.7,0.6-1.4,0.6-2.1C431.2,125.4,431.2,125.1,431.2,125.1z"/>
		<path class="st7" d="M413.3,116c0,0,0,0.2,0,0.4c0,0.3,0,0.7,0.1,1.2c0.1,1.1,0.2,2.7,0.3,4.8c0.2,4.1,0.5,10.1,0.9,17.4l-0.1-0.1
			l15.4-0.8h0.2v0.2c0.1,2.3,0.2,4.8,0.4,7.3l-0.3-0.1l6.9-7.7l0-0.1h0.1l16.9-0.8l5.2-0.3l-0.2,0.2c-0.4-8.5-0.8-16.5-1.2-23.9
			l0.2,0.2l-32.2,1.5l-9.2,0.4l-2.5,0.1h-0.6L413.3,116l0.2,0l0.6,0l2.4-0.1l9.2-0.5l32.3-1.7h0.2v0.2c0.4,7.4,0.8,15.5,1.2,23.9
			v0.2h-0.2l-5.2,0.3l-16.8,0.8l0.1-0.1c-2.4,2.6-4.7,5.2-6.9,7.7l-0.3,0.3v-0.4c-0.1-2.5-0.2-5-0.4-7.3l0.2,0.2l-15.4,0.7h-0.2
			v-0.1c-0.3-7.4-0.6-13.4-0.8-17.5c-0.1-2-0.2-3.6-0.2-4.7c0-0.5,0-0.9-0.1-1.2C413.3,116.1,413.3,116,413.3,116z"/>
		<path class="st6" d="M438.5,127.1l-1.9,0.1l0.1,1.8h-0.4l-0.1-1.8l-1.9,0.1v-0.4l1.9-0.1l-0.1-1.8h0.4l0.1,1.8l1.9-0.1
			L438.5,127.1z"/>
		<path class="st6" d="M441.2,123.3l0.4,6.9H441l-0.3-6.5l-1.7,0.1v-0.5L441.2,123.3z"/>
		<path class="st6" d="M443.1,126.7c-0.1-2.1,0.9-3.6,2.5-3.7c1.6-0.1,2.8,1.2,2.9,3.4c0.1,2.2-0.9,3.6-2.5,3.7
			C444.4,130.2,443.2,128.9,443.1,126.7z M448,126.4c-0.1-1.9-1.1-3-2.4-2.9c-1.3,0.1-2.1,1.2-2.1,3.2c0.1,1.9,1.1,3,2.4,2.9
			C447.3,129.5,448.1,128.4,448,126.4z"/>
		<path class="st6" d="M449.6,126.4c-0.1-2.1,0.9-3.6,2.5-3.7s2.8,1.2,2.9,3.4c0.1,2.2-0.9,3.6-2.5,3.7
			C450.9,129.8,449.8,128.5,449.6,126.4z M454.6,126.1c-0.1-1.9-1-3-2.4-2.9c-1.3,0.1-2.1,1.2-2.1,3.2c0.1,1.9,1.1,3,2.4,2.9
			C453.8,129.2,454.7,128.1,454.6,126.1z"/>
		<path class="st7" d="M424.9,63.7h-4.8v19.3h4.8V63.7z"/>
		<path class="st7" d="M416.9,62.2h-4.8v20.7h4.8V62.2z"/>
		<path class="st7" d="M409.2,64.8h-4.8v18.1h4.8V64.8z"/>
		<path class="st7" d="M401.4,67.6h-4.8v15.3h4.8V67.6z"/>
		<path class="st6" d="M428.6,83c0,0.1-8,0.2-17.8,0.2c-9.8,0-17.8-0.1-17.8-0.2c0-0.1,8-0.2,17.8-0.2
			C420.6,82.8,428.6,82.9,428.6,83z"/>
		<path class="st6" d="M426.6,64.9c0,0-0.6-0.1-1.6,0c-1.4,0.1-2.8,0.5-4,1.2c-0.8,0.5-1.6,1.1-2.2,1.8c-0.7,0.8-1.3,1.7-2,2.7
			c-0.7,1-1.7,1.9-2.9,2.4c-1.3,0.5-2.6,0.8-4,0.8c-1.4,0.1-2.7,0-4,0c-1.2,0-2.4,0.2-3.6,0.5c-2,0.4-3.8,1.6-5.2,3.2
			c-0.9,1.1-1.4,2.4-1.4,3.8c0,0.5,0.1,1,0.1,1.5c-0.2-0.5-0.3-1-0.3-1.5c0-1.4,0.5-2.8,1.4-4c0.6-0.8,1.3-1.5,2.1-2
			c1-0.6,2-1,3.1-1.3c1.2-0.3,2.5-0.5,3.7-0.5c1.3-0.1,2.6,0,4,0c1.3,0,2.6-0.2,3.8-0.7c1.1-0.5,2-1.3,2.8-2.3
			c0.7-0.9,1.4-1.9,2.1-2.6c0.7-0.7,1.4-1.4,2.3-1.8c1.3-0.7,2.7-1.1,4.1-1.1c0.4,0,0.8,0,1.2,0.1C426.3,64.8,426.4,64.8,426.6,64.9
			z"/>
		<path class="st6" d="M393.7,60.3c0.1,0,0.2,5.2,0.2,11.5c0,6.4-0.1,11.5-0.2,11.5s-0.2-5.2-0.2-11.5
			C393.5,65.5,393.6,60.3,393.7,60.3z"/>
		<path class="st6" d="M350.9,107.1c-0.5,0.3-1.1,0.5-1.7,0.6c-0.6,0.2-1.2,0.3-1.8,0.3c0.5-0.4,1.1-0.6,1.7-0.7
			C349.7,107.1,350.3,107,350.9,107.1z"/>
		<path class="st6" d="M358,106.5c-0.6,0.2-1.2,0.2-1.8,0.2c-0.6,0.1-1.2,0-1.8-0.1C355.6,106.2,356.8,106.2,358,106.5z"/>
		<path class="st6" d="M365.1,107.5c-1.2-0.1-2.4-0.3-3.5-0.7C362.8,106.8,364,107,365.1,107.5z"/>
		<path class="st6" d="M371.7,110.2c-0.6-0.1-1.2-0.3-1.7-0.6c-0.6-0.2-1.1-0.5-1.6-0.9c0.6,0,1.2,0.2,1.7,0.5
			C371.1,109.6,371.7,110.1,371.7,110.2z"/>
		<path class="st6" d="M377.5,114.3c-0.5-0.3-1-0.6-1.5-1c-0.8-0.6-1.4-1.1-1.3-1.2c0.6,0.2,1.1,0.5,1.5,0.9
			C377,113.6,377.6,114.2,377.5,114.3z"/>
		<path class="st7" d="M414.2,190.9c-0.2,0.6-0.7,1.2-1.2,1.6c-0.6,0.4-1.2,0.6-1.9,0.6s-1.3-0.2-1.9-0.5c-0.6-0.4-1-0.9-1.3-1.5
			c-0.3-0.6-0.4-1.3-0.2-2c0.1-0.7,0.4-1.3,0.9-1.8c0.5-0.5,1.1-0.8,1.7-1s1.3-0.1,2,0.2c0.8,0.3,1.5,1,1.9,1.8
			C414.5,189.1,414.5,190.1,414.2,190.9z"/>
		<path class="st7" d="M425.5,188.1c-0.2,0.6-0.7,1.2-1.2,1.6c-0.6,0.4-1.2,0.6-1.9,0.6s-1.3-0.2-1.9-0.5c-0.6-0.4-1-0.9-1.3-1.5
			c-0.3-0.6-0.4-1.3-0.2-2c0.1-0.7,0.4-1.3,0.9-1.8c0.5-0.5,1.1-0.8,1.7-1c0.7-0.1,1.3-0.1,2,0.2c0.4,0.2,0.8,0.4,1.1,0.7
			s0.6,0.7,0.8,1.1c0.2,0.4,0.3,0.9,0.3,1.3C425.8,187.2,425.7,187.6,425.5,188.1z"/>
		<path class="st7" d="M420.3,201.5c-0.3,0.6-0.8,1.1-1.3,1.4c-0.6,0.3-1.2,0.5-1.9,0.5c-0.7,0-1.3-0.2-1.8-0.6
			c-0.5-0.4-1-0.9-1.2-1.5c-0.2-0.6-0.3-1.3-0.2-1.9c0.1-0.6,0.5-1.2,0.9-1.7c0.5-0.5,1.1-0.8,1.7-0.9c0.6-0.1,1.3-0.1,1.9,0.2
			c0.9,0.4,1.5,1.1,1.9,2C420.7,199.6,420.6,200.6,420.3,201.5z"/>
		<path class="st7" d="M416.3,199.5c-0.2,0.1-1.9-1.9-3.7-4.5c-1.8-2.6-3.1-4.9-2.9-5c0.2-0.1,1.9,1.9,3.7,4.5
			C415.3,197.1,416.5,199.3,416.3,199.5z"/>
		<path class="st7" d="M421.8,186.3c0.1,0.2-2.1,1.1-5,1.9c-2.8,0.8-5.1,1.3-5.2,1s2.1-1.1,5-1.9C419.4,186.5,421.7,186,421.8,186.3
			z"/>
		<path class="st7" d="M372.3,222.2c-0.1-0.3-0.1-0.5-0.1-0.8c0-0.3-0.1-0.7-0.1-1c-0.1-0.5-0.1-0.9-0.3-1.3
			c-0.3-1.2-0.8-2.4-1.4-3.4c-1.5-2.6-3.8-4.6-6.6-5.6c-2.8-1-5.8-1.1-8.6-0.2c-1.2,0.4-2.3,0.9-3.3,1.7c-0.5,0.4-1,0.8-1.4,1.2
			c-0.5,0.4-0.9,0.9-1.3,1.4c-1.7,2.1-2.6,4.7-2.6,7.4c-0.1,2.7,0.7,5.3,2.3,7.6c0.4,0.5,0.8,1,1.2,1.5c0.4,0.5,0.9,0.9,1.4,1.3
			c1,0.8,2,1.4,3.2,1.8c2,0.8,4.1,1.1,6.3,0.8c2.1-0.3,4.1-1,5.9-2.3c1.3-1,2.5-2.1,3.4-3.5c0.7-1,1.2-2.2,1.6-3.4
			c0.1-0.4,0.3-0.9,0.3-1.3c0-0.3,0.1-0.6,0.1-0.9C372.2,222.8,372.2,222.5,372.3,222.2c0,0.3,0,0.6,0,0.9c0,0.3,0,0.7-0.1,1
			c-0.1,0.5-0.1,0.9-0.3,1.4c-0.3,1.2-0.8,2.4-1.5,3.5c-1,1.6-2.3,3-3.9,4c-1.6,1-3.3,1.8-5.2,2.1c-2.4,0.4-4.8,0.1-7-0.7
			c-1.2-0.5-2.3-1.1-3.3-1.9c-0.5-0.4-1-0.8-1.5-1.3c-0.5-0.5-0.9-1-1.3-1.6c-1.6-2.3-2.5-5.1-2.4-8c0.1-2.8,1.1-5.6,2.8-7.8
			c0.4-0.5,0.9-1,1.4-1.5c0.5-0.5,1-0.9,1.5-1.3c1-0.7,2.2-1.3,3.4-1.7c2.3-0.8,4.7-0.9,7-0.4c1.8,0.4,3.6,1.2,5.1,2.3
			c1.5,1.1,2.8,2.6,3.7,4.2c0.6,1.1,1.1,2.3,1.3,3.6c0.1,0.5,0.2,0.9,0.2,1.4c0,0.3,0.1,0.7,0,1
			C372.4,221.6,372.4,221.9,372.3,222.2z"/>
		<path class="st7" d="M369.7,214c0,0-0.2,0.2-0.7,0.6l-0.8,0.6c-0.2,0.1-0.3,0.2-0.5,0.4l-0.6,0.3c-2.3,1.3-5,2-7.7,1.9l-1.2-0.1
			l-1.1-0.2l-0.5-0.1l-0.5-0.1c-0.3-0.1-0.7-0.2-1-0.3c-1.1-0.4-2.2-0.9-3.3-1.5c-1.8-1.1-2.6-2-2.5-2.1c0.1-0.1,1,0.7,2.8,1.6
			c1,0.5,2.1,1,3.2,1.3l1,0.2l0.5,0.1l0.5,0.1l1.1,0.2l1.1,0c2.6,0.1,5.1-0.5,7.4-1.7l0.7-0.3c0.2-0.1,0.4-0.2,0.5-0.3l0.9-0.5
			C369.4,214.1,369.7,214,369.7,214z"/>
		<path class="st7" d="M348.8,229.9c0,0,0.2-0.2,0.7-0.6l0.8-0.6c0.2-0.1,0.3-0.2,0.5-0.4l0.6-0.3c2.3-1.3,5-2,7.7-1.9l1.2,0.1
			l1.1,0.2c0.2,0,0.4,0,0.5,0.1l0.5,0.1c0.3,0.1,0.7,0.2,1,0.3c1.1,0.4,2.2,0.9,3.3,1.5c1.7,1.1,2.6,2,2.5,2.1s-1-0.7-2.8-1.6
			c-1-0.5-2.1-1-3.2-1.3c-0.3-0.1-0.6-0.2-1-0.2l-0.5-0.1l-0.5-0.1l-1.1-0.2l-1.1-0.1c-2.6-0.1-5.1,0.5-7.4,1.7l-0.6,0.3l-0.6,0.3
			l-0.9,0.5C349.1,229.8,348.9,229.9,348.8,229.9z"/>
		<path class="st7" d="M372.3,222.5c0,0.2-5.9,0.2-13.1,0s-13-0.5-13-0.7s5.9-0.2,13.1,0C366.5,222,372.3,222.3,372.3,222.5z"/>
		<path class="st7" d="M358.6,234.9c-0.2,0-0.2-5.8,0-13c0.2-7.2,0.5-13,0.7-13c0.2,0,0.2,5.8,0,13
			C359.2,229.1,358.8,234.9,358.6,234.9z"/>
		<path class="st7" d="M358.7,234.9c-0.1,0.1-1.5-0.9-3.2-3.1c-1-1.3-1.8-2.7-2.3-4.2c-0.7-1.9-1-3.8-1-5.8c0-2,0.5-4,1.3-5.8
			c0.7-1.5,1.5-2.9,2.6-4.1c1.8-2.1,3.2-3.1,3.3-3c0,0.1-1.2,1.1-2.9,3.3c-0.9,1.2-1.7,2.6-2.3,4c-0.8,1.8-1.2,3.6-1.2,5.5
			c0,1.9,0.3,3.8,0.9,5.6c0.5,1.5,1.3,2.9,2.1,4.2C357.4,233.7,358.7,234.8,358.7,234.9z"/>
		<path class="st7" d="M359.6,208.8c0-0.1,1.5,0.9,3.1,3.1c1,1.3,1.8,2.7,2.3,4.2c0.7,1.9,1.1,3.8,1,5.8c-0.1,2-0.5,4-1.3,5.8
			c-0.7,1.5-1.5,2.9-2.5,4.1c-1.8,2.1-3.2,3.1-3.3,3c0-0.1,1.2-1.2,2.9-3.3c0.9-1.3,1.7-2.6,2.3-4c0.8-1.8,1.2-3.6,1.2-5.5
			c0-1.9-0.3-3.8-0.9-5.6c-0.5-1.5-1.3-2.9-2.1-4.2C360.8,210,359.5,208.9,359.6,208.8z"/>
		<path class="st6" d="M359,68.2c-0.1,0-0.2-0.4-0.1-0.9c0-0.5,0.2-0.9,0.3-0.9c0.1,0,0.2,0.4,0.1,0.9
			C359.2,67.9,359.1,68.2,359,68.2z"/>
		<path class="st6" d="M358.3,75.6c-0.2-1.2,0-2.5,0.3-3.7C358.8,73.2,358.7,74.4,358.3,75.6z"/>
		<path class="st6" d="M357.7,82.9c-0.1-1.2,0-2.5,0.3-3.7c0.1,0.6,0.1,1.2,0,1.9C358.1,81.8,357.9,82.4,357.7,82.9z"/>
		<path class="st6" d="M357.1,90.3c-0.1-1.2,0-2.5,0.3-3.7c0.1,0.6,0.1,1.2,0,1.8C357.4,89.1,357.3,89.7,357.1,90.3z"/>
		<path class="st6" d="M356.4,97.7c-0.1-1.2,0-2.5,0.3-3.7c0.1,0.6,0.1,1.2,0,1.8C356.8,96.5,356.7,97.1,356.4,97.7z"/>
		<path class="st6" d="M355.9,103.1c-0.1,0-0.1-0.4-0.1-0.9c0.1-0.5,0.2-0.9,0.3-0.9c0.1,0,0.1,0.4,0.1,0.9
			C356.1,102.7,356,103.1,355.9,103.1z"/>
		<path class="st6" d="M377.9,106.1c-0.2,0.6-0.5,1.1-0.9,1.5c-0.6,0.8-1.2,1.4-1.2,1.3c-0.1-0.1,0.3-0.8,0.9-1.5
			C377.2,106.7,377.8,106.1,377.9,106.1z"/>
		<path class="st6" d="M382.2,100.5c-0.2,0.6-0.5,1.1-0.9,1.5c-0.6,0.8-1.2,1.4-1.2,1.3c0.2-0.6,0.5-1.1,0.9-1.5
			C381.6,101,382.2,100.4,382.2,100.5z"/>
		<path class="st6" d="M386.6,94.8c-0.2,0.6-0.5,1.1-0.9,1.5c-0.6,0.8-1.1,1.4-1.2,1.3c0.2-0.6,0.5-1.1,0.9-1.5
			C385.9,95.3,386.5,94.7,386.6,94.8z"/>
		<path class="st6" d="M390.9,89.1c0.1,0.1-0.3,0.7-0.9,1.5c-0.6,0.8-1.2,1.4-1.2,1.3c0.2-0.6,0.5-1.1,0.9-1.5
			C390.3,89.6,390.8,89,390.9,89.1z"/>
		<path class="st6" d="M391.2,129.5c-0.4-0.5-0.7-1-0.9-1.6c-0.3-0.5-0.5-1.1-0.7-1.7c0.4,0.4,0.8,0.9,1,1.5
			C391,128.3,391.2,128.9,391.2,129.5z"/>
		<path class="st6" d="M393.1,136.4c-0.3-0.5-0.4-1.1-0.5-1.7c-0.2-0.6-0.3-1.2-0.2-1.8c0.3,0.5,0.5,1.1,0.6,1.7
			C393.1,135.2,393.2,135.8,393.1,136.4z"/>
		<path class="st6" d="M393.3,143.5c-0.2-0.6-0.2-1.2-0.1-1.8c0-0.6,0-1.2,0.2-1.8c0.2,0.6,0.2,1.2,0.1,1.8
			C393.6,142.3,393.5,142.9,393.3,143.5z"/>
		<path class="st6" d="M392.1,150.5c-0.1-0.6,0-1.2,0.2-1.8c0.1-0.6,0.3-1.2,0.6-1.7C392.9,148.3,392.6,149.4,392.1,150.5z"/>
		<path class="st6" d="M389.7,157.3c0.1-0.6,0.2-1.2,0.5-1.7c0.2-0.6,0.5-1.1,0.8-1.6c0,0.6-0.2,1.2-0.5,1.7
			C390.4,156.3,390.1,156.8,389.7,157.3z"/>
		<path class="st6" d="M386.2,163.5c0.2-0.6,0.4-1.1,0.8-1.6c0.5-0.8,1-1.5,1.1-1.4c-0.2,0.6-0.4,1.1-0.8,1.6
			C386.8,162.9,386.3,163.5,386.2,163.5z"/>
		<path class="st6" d="M381.6,168.9c-0.1-0.1,0.4-0.7,1.1-1.4s1.3-1.2,1.4-1.2c0.1,0.1-0.4,0.7-1.1,1.4
			C382.3,168.4,381.7,169,381.6,168.9z"/>
		<path class="st6" d="M375.9,173.3c0-0.1,0.6-0.6,1.4-1.2c0.5-0.4,1-0.7,1.6-0.9c0.1,0.1-0.5,0.6-1.4,1.2
			C377.1,172.8,376.5,173.1,375.9,173.3z"/>
		<path class="st6" d="M369.5,176.4c0.5-0.4,1-0.7,1.6-0.9c0.5-0.3,1.1-0.5,1.7-0.5c-0.5,0.4-1,0.7-1.6,0.9
			C370.7,176.2,370.2,176.4,369.5,176.4z"/>
		<path class="st6" d="M362.7,178.3c1.1-0.5,2.3-0.8,3.5-0.8c-0.5,0.3-1.1,0.5-1.7,0.6C363.9,178.3,363.3,178.4,362.7,178.3z"/>
		<path class="st6" d="M355.5,178.8c1.2-0.3,2.4-0.3,3.6-0.1C357.9,179,356.7,179.1,355.5,178.8z"/>
		<path class="st6" d="M348.5,177.9c0.6-0.1,1.2,0,1.8,0.1c0.6,0.1,1.2,0.2,1.7,0.5C350.8,178.6,349.6,178.3,348.5,177.9z"/>
		<path class="st6" d="M396.1,135.4c-1.2,0.2-2.4,0.2-3.6,0C393.7,135.1,394.9,135.1,396.1,135.4z"/>
		<path class="st6" d="M403.2,135.4c-1.2,0.2-2.4,0.2-3.6,0C400.8,135.1,402,135.1,403.2,135.4z"/>
		<path class="st6" d="M409.3,135.4c0,0.1-0.6,0.2-1.3,0.2c-0.7,0-1.2-0.1-1.2-0.2c0-0.1,0.6-0.2,1.2-0.2
			C408.8,135.2,409.3,135.3,409.3,135.4z"/>
		<path class="st6" d="M385.9,169.6c-0.6-0.2-1.1-0.6-1.5-1c-0.8-0.6-1.3-1.2-1.3-1.3c0.1-0.1,0.7,0.4,1.5,1
			C385.4,168.9,386,169.5,385.9,169.6z"/>
		<path class="st6" d="M391.4,174.2c-0.6-0.2-1.1-0.6-1.5-1c-0.8-0.6-1.3-1.2-1.3-1.3c0.1-0.1,0.7,0.4,1.5,1
			C390.9,173.5,391.5,174.1,391.4,174.2z"/>
		<path class="st6" d="M396.9,178.7c-0.6-0.2-1.1-0.6-1.5-1c-0.8-0.6-1.3-1.2-1.3-1.3c0.6,0.2,1.1,0.6,1.5,1
			C396.4,178.1,396.9,178.7,396.9,178.7z"/>
		<path class="st6" d="M401.8,182.8c-0.1,0.1-0.6-0.3-1.2-0.7s-1-1-0.9-1c0.1-0.1,0.6,0.3,1.2,0.7
			C401.4,182.2,401.8,182.7,401.8,182.8z"/>
		<path class="st6" d="M357.6,182.1c-0.2-1.2-0.2-2.4,0-3.6C357.8,179.7,357.8,180.9,357.6,182.1z"/>
		<path class="st6" d="M357.6,189.2c-0.2-1.2-0.2-2.4,0-3.6C357.8,186.8,357.8,188,357.6,189.2z"/>
		<path class="st6" d="M357.6,196.3c-0.2-1.2-0.2-2.4,0-3.6C357.8,193.9,357.8,195.2,357.6,196.3z"/>
		<path class="st6" d="M357.6,201.1c-0.1,0-0.2-0.3-0.2-0.6s0.1-0.6,0.2-0.6s0.2,0.3,0.2,0.6S357.7,201.1,357.6,201.1z"/>
		<path class="st4" d="M66.5,22.4l13-16.7l3.2,21l17.2-0.6L87.1,42.8l16.9,13l-21.6-8l-3,21L65,54.8L46.7,67.5l4-18.4L30,45.8
			l16.1-9.5l-9.4-16.2l16.3,9.2l1.7-22.9L66.5,22.4z"/>
		<path class="st6" d="M87.1,42.8l1.2,0.9l3.4,2.6l12.8,9.8l0.4,0.3l-0.5-0.2c-3-1.2-6.3-2.4-10-3.7c-3.7-1.3-7.7-2.6-11.8-4.3
			l0.1-0.1l-3.2,20.8v0.2l-0.2-0.2L64.8,54.8H65L47,67.3l-0.3,0.2l0.1-0.3c1.2-5.7,2.5-11.9,3.8-18.1l0.1,0.2L30.1,46l-0.4-0.1
			l0.4-0.2l14-8.1l2.1-1.3l0,0.2c-1.8-2.6-3.4-5.3-4.9-8c-1.5-2.7-3-5.4-4.4-8.1L36.6,20l0.4,0.2l16.4,9.2l-0.2,0.1
			c0.3-4,0.5-7.9,0.8-11.8c0.1-1.9,0.2-3.8,0.4-5.7c0.1-0.9,0.1-1.9,0.1-2.9c0-0.5,0-0.9,0.1-1.4V7V6.7c0-0.1,0-0.2,0-0.3l0.2-0.2
			l0.1,0.1l11.9,16.3h-0.2L79.3,5.7l0.2-0.2l0,0.3c1.2,7.7,2.4,14.6,3.4,20.8l-0.1-0.1L99.9,26h0.2l-0.1,0.1l-9.5,12.4L88,41.7
			L87.1,42.8l0.8-1.1l2.4-3.2L99.8,26l0.1,0.1l-17.1,0.6h-0.1v-0.1c-1-6.2-2.1-13.1-3.4-20.8l0.2,0L66.7,22.7l-0.1,0.1l-0.1-0.1
			c-3.8-5.2-7.8-10.6-11.9-16.2l0.2-0.2c0.1,0.1,0.1,0.3,0.1,0.4v0.3v0.7c0,0.5,0,0.9,0,1.4c-0.1,0.9-0.1,1.9-0.1,2.9
			c-0.1,1.9-0.2,3.8-0.4,5.7c-0.3,3.9-0.5,7.8-0.8,11.8v0.2l-0.2-0.1l-16.4-9.2l0.2-0.2c1.4,2.7,2.9,5.4,4.4,8.1s3.1,5.4,4.9,8
			l0.1,0.1l-0.1,0.1l-2.1,1.3l-14,8.1l-0.1-0.3l20.6,3.2h0.2V49l-3.8,18.1L46.9,67l18-12.4l0.1-0.1l0.1,0.1c5.1,5,9.9,9.7,14.4,14.2
			l-0.2,0.1c1.2-7.5,2.3-14.6,3.2-20.8v-0.1l0.1,0c4.2,1.7,8.2,3.1,11.8,4.4c3.7,1.3,7,2.5,10,3.7l-0.1,0.1l-12.7-9.9l-3.3-2.6
			L87.1,42.8z"/>
		<path class="st6" d="M64.9,39.3c0,0.3-0.1,0.7-0.3,1c-0.2,0.3-0.5,0.5-0.8,0.6c-0.3,0.1-0.7,0.2-1,0.1c-0.3-0.1-0.6-0.2-0.9-0.5
			c-0.2-0.2-0.4-0.5-0.5-0.9c-0.1-0.3,0-0.7,0.1-1c0.1-0.3,0.3-0.6,0.6-0.8c0.3-0.2,0.6-0.3,1-0.3c0.2,0,0.4,0,0.7,0.1
			c0.2,0.1,0.4,0.2,0.6,0.4c0.2,0.2,0.3,0.3,0.4,0.6C64.8,38.8,64.9,39.1,64.9,39.3z"/>
		<path class="st6" d="M70.1,39.3c0,0.3-0.1,0.7-0.3,1c-0.2,0.3-0.5,0.5-0.8,0.6c-0.3,0.1-0.7,0.2-1,0.1c-0.3-0.1-0.6-0.2-0.9-0.5
			c-0.2-0.2-0.4-0.5-0.5-0.9c-0.1-0.3,0-0.7,0.1-1c0.1-0.3,0.3-0.6,0.6-0.8c0.3-0.2,0.6-0.3,1-0.3c0.2,0,0.4,0,0.7,0.1
			c0.2,0.1,0.4,0.2,0.6,0.4c0.2,0.2,0.3,0.3,0.4,0.6C70.1,38.8,70.1,39.1,70.1,39.3z"/>
		<path class="st6" d="M75.4,39.3c0,0.3-0.1,0.7-0.3,1c-0.2,0.3-0.5,0.5-0.8,0.6C74,41,73.6,41,73.3,41c-0.3-0.1-0.6-0.2-0.9-0.5
			C72.2,40.3,72,40,72,39.6c-0.1-0.3,0-0.7,0.1-1c0.1-0.3,0.3-0.6,0.6-0.8c0.3-0.2,0.6-0.3,1-0.3c0.2,0,0.4,0,0.7,0.1
			c0.2,0.1,0.4,0.2,0.6,0.4c0.2,0.2,0.3,0.3,0.4,0.6C75.3,38.8,75.4,39.1,75.4,39.3z"/>
		<path class="st6" d="M301,71.8c-1.2-2.9-2.2-5.8-2.9-8.8c-0.7-3-0.6-6.2,0.2-9.2c0.1-0.4,1.4-3.5,1.8-3.5c0.3,0-0.4,2.8-0.2,3.1
			c1.7,2.8,2.5,6,2.3,9.2C302.3,65.6,301.8,68.7,301,71.8"/>
		<path class="st10" d="M317.9,106.7c-4.8,0.2-15.9-13-16.2-17.8l-1.7-28.9c-0.7-7.7,3.2-14.6,11-15.1h0.7c3.5,0,6.9,1.3,9.5,3.7
			c2.6,2.4,4.2,5.6,4.5,9.1c0.6,6.7,1.1,14.1,1.1,17.8c-0.1,7.5-7.5,8.7-7.5,8.7s0.1,1.7,0.2,3.9c0.2,4.9,3.1,18.6-1.8,18.7
			L317.9,106.7z"/>
		<path class="st11" d="M319.3,84c-3.5,0-6.8-1-9.7-2.9c0,0,2.4,5.6,9.8,4.9L319.3,84z"/>
		<path class="st6" d="M323.6,63.4c0,0.3-0.1,0.5-0.3,0.7c-0.2,0.2-0.5,0.3-0.7,0.3c-0.1,0-0.3,0-0.4,0c-0.1,0-0.2-0.1-0.4-0.2
			c-0.1-0.1-0.2-0.2-0.2-0.3c-0.1-0.1-0.1-0.3-0.1-0.4c0-0.3,0.1-0.5,0.3-0.7c0.2-0.2,0.5-0.3,0.7-0.3c0.1,0,0.3,0,0.4,0
			c0.1,0,0.2,0.1,0.4,0.2s0.2,0.2,0.2,0.3C323.5,63.1,323.5,63.2,323.6,63.4z"/>
		<path class="st6" d="M324.1,60.9c-0.1,0.1-0.9-0.4-2.1-0.4c-1.2,0-2,0.6-2.1,0.4c-0.1-0.1,0.1-0.3,0.4-0.6
			c0.5-0.3,1.1-0.5,1.7-0.5c0.6,0,1.2,0.2,1.7,0.5C324.1,60.6,324.2,60.8,324.1,60.9z"/>
		<path class="st6" d="M313,63.8c0,0.3-0.1,0.5-0.3,0.7c-0.2,0.2-0.5,0.3-0.7,0.3c-0.1,0-0.3,0-0.4,0c-0.1,0-0.2-0.1-0.4-0.2
			c-0.1-0.1-0.2-0.2-0.2-0.3c-0.1-0.1-0.1-0.3-0.1-0.4c0-0.3,0.1-0.5,0.3-0.7s0.5-0.3,0.7-0.3c0.1,0,0.3,0,0.4,0
			c0.1,0,0.3,0.1,0.4,0.2c0.1,0.1,0.2,0.2,0.2,0.3C313,63.5,313,63.7,313,63.8z"/>
		<path class="st6" d="M312.8,61.2c-0.1,0.1-0.9-0.4-2.1-0.4c-1.1,0-2,0.6-2.1,0.4c-0.2-0.1,0.1-0.3,0.4-0.6
			c0.5-0.3,1.1-0.5,1.7-0.5c0.6,0,1.2,0.2,1.7,0.5C312.8,60.9,312.9,61.2,312.8,61.2z"/>
		<path class="st6" d="M317,70c0.6-0.2,1.2-0.3,1.9-0.3c0.3,0,0.6-0.1,0.6-0.3c0-0.3,0-0.6-0.2-0.9c-0.3-0.7-0.6-1.4-0.9-2.2
			c-1.2-3.2-2.1-5.8-2-5.8c0.1-0.1,1.2,2.5,2.4,5.7l0.8,2.2c0.2,0.4,0.2,0.8,0.2,1.1c0,0.1-0.1,0.2-0.2,0.3
			c-0.1,0.1-0.2,0.1-0.3,0.2c-0.2,0-0.3,0.1-0.5,0.1C318.3,70.1,317.6,70.1,317,70z"/>
		<path class="st6" d="M312.8,56.9c-0.2,0.3-1.3,0-2.6,0c-1.4,0-2.5,0.2-2.6-0.1c-0.1-0.1,0.2-0.4,0.6-0.6c0.6-0.3,1.3-0.4,2-0.4
			c0.7,0,1.4,0.2,2,0.5C312.6,56.5,312.8,56.8,312.8,56.9z"/>
		<path class="st6" d="M323.8,58.2c-0.2,0.3-1.2,0-2.3,0c-1.1,0-2.1,0.2-2.3-0.1c-0.1-0.1,0-0.4,0.5-0.6c0.6-0.3,1.2-0.5,1.9-0.5
			c0.6,0,1.3,0.2,1.9,0.5C323.8,57.8,323.9,58.1,323.8,58.2z"/>
		<path class="st10" d="M300.7,65.5c-0.1-0.1-5.1-1.5-5,3.6c0.2,5.1,5.3,3.9,5.3,3.7S300.7,65.5,300.7,65.5z"/>
		<path class="st11" d="M299.4,70.9c0,0-0.1,0.1-0.2,0.1c-0.2,0.1-0.5,0.1-0.7,0c-0.3-0.2-0.6-0.5-0.8-0.8c-0.2-0.3-0.3-0.7-0.3-1.1
			c0-0.4,0-0.9,0.2-1.3c0-0.2,0.1-0.3,0.2-0.4c0.1-0.1,0.3-0.2,0.4-0.3c0.1,0,0.2,0,0.3,0c0.1,0,0.2,0.1,0.2,0.2
			c0.1,0.1,0,0.2,0.1,0.3c0,0,0.1-0.1,0.1-0.3c0-0.1-0.1-0.2-0.2-0.3c-0.1-0.1-0.3-0.1-0.5-0.1c-0.2,0-0.4,0.2-0.6,0.3
			c-0.2,0.1-0.3,0.3-0.3,0.5c-0.2,0.4-0.3,0.9-0.3,1.4c0.1,1,0.6,2,1.4,2.1c0.1,0,0.3,0,0.4,0c0.1,0,0.3-0.1,0.4-0.2
			C299.4,71.1,299.4,70.9,299.4,70.9z"/>
		<path class="st6" d="M322,49.3c0.8-0.5-1.8-3.1-3.9-3.9c-3.1-1.3-7.9-1.9-10.6-1c-3.4,1.1-6.1,2.9-7.7,6.1
			c-1.5,3.2-2.1,6.8-1.8,10.3c0,1.1,0.3,2.2,0.9,3.1c0.8,1.1,2.1,1.7,2.1,3.3c0,0.6,0.2,1.1,0.6,1.5c1,1,2.1,0,2.6-1
			c1-2,1-4.4,1-6.7c0.1-1.6-0.1-3.3-0.5-4.8c-0.3-0.8-0.7-1.6-1-2.5c-0.1-0.4-0.2-0.9-0.2-1.3c0-0.4,0.2-0.9,0.4-1.3
			c0.1-0.2,0.3-0.3,0.4-0.4c0.7-0.7,1.5-1.1,2.4-1.3c0.9-0.2,1.9-0.2,2.8,0.1c2.9,0.9,7.9,2.2,9.1,1.2c0.9-0.6,1.6-1.5,2.2-2.4
			L322,49.3z"/>
		<path class="st6" d="M313.9,70.8c-0.1,0-0.1,0.3,0,0.7c0.2,0.6,0.5,1.1,1,1.4c0.5,0.4,1,0.6,1.5,0.8c0.4,0.1,0.7,0.2,0.7,0.1
			c0-0.1-0.2-0.2-0.6-0.4c-0.5-0.3-0.9-0.5-1.3-0.9C314.3,71.8,314.1,70.7,313.9,70.8z"/>
		<path class="st10" d="M365.3,151.9l-35.8,2.4l-1.2-11.9l43.3,1.6L365.3,151.9z"/>
		<path class="st9" d="M390.7,112.9c0,0,0.4,0.9,0.4,0.9c-2.9,6.1-13.2,28.2-13.2,28.2l-13.6,7.4l-33.4,0.2l-0.1-1.8l16.8-7.6
			l21.4-0.4l10.5-23.3c0.1-0.3,0.3-0.6,0.6-0.8c0.2-0.2,0.5-0.3,0.9-0.4L390.7,112.9z"/>
		<path class="st6" d="M364.3,149.4c0.3-0.4,0.6-0.9,0.8-1.4c0.5-0.9,1.1-2.1,1.8-3.5s1.3-2.6,1.7-3.5c0.3-0.5,0.5-1,0.6-1.5
			c-0.3,0.4-0.6,0.9-0.8,1.4c-0.5,0.9-1.1,2.1-1.8,3.5c-0.7,1.4-1.3,2.6-1.7,3.5C364.6,148.3,364.4,148.8,364.3,149.4z"/>
		<path class="st6" d="M361,146.6l-14.3,0.2l10.5-6.1l11.5-0.3L361,146.6z"/>
		<path class="st6" d="M330.8,147.7c0.1,0,0.2,0,0.4,0h1l3.7-0.1c3.1-0.1,7.4-0.1,12.1-0.1c4.7,0,9-0.1,12.2-0.2
			c1.6-0.1,2.8-0.1,3.7-0.2l1-0.1c0.1,0,0.2,0,0.4-0.1c-0.1,0-0.2,0-0.4,0h-1l-3.7,0.1c-3.1,0.1-7.4,0.1-12.1,0.1s-9,0.1-12.1,0.2
			c-1.6,0.1-2.8,0.1-3.7,0.2l-1,0.1C331,147.7,330.9,147.7,330.8,147.7z"/>
		<path class="st6" d="M366.3,148.3c0.1-0.1,0.2-0.3,0.2-0.4c0.2-0.3,0.3-0.7,0.6-1.2l2.1-4.4l6.7-14.7l5-11.1l-0.1,0.1l7.6-1.9
			l2.1-0.5c0.2-0.1,0.5-0.1,0.7-0.2c-0.3,0-0.5,0.1-0.8,0.1l-2.1,0.5l-7.5,1.8h-0.1v0.1l-5.1,11.1l-6.6,14.8c-0.8,1.9-1.5,3.4-2,4.5
			l-0.5,1.2C366.4,148,366.3,148.1,366.3,148.3z"/>
		<path class="st10" d="M374.4,139.9c0,0-0.6-0.6-1.7,1c-1.1,1.6-2.9,6.1-2.9,6.1l-2.1,1.1c0,0,1.8-2.3,1.8-3.2
			c0-0.9-1.5-0.9-2.2,0.5c-0.9,1.4-1.9,2.7-2.9,4c0,0,0.9,2.6,1,2.5c0.2-0.1,3.8-0.5,3.8-0.5l1-0.5c0,0,2.4-0.1,2.5-0.8
			c0.1-0.7,4-3.6,4-4.2c0-0.6-0.2-3.8-0.2-3.8s1.6-4.6,1.2-5C377.3,136.6,375.6,135.7,374.4,139.9z"/>
		<path class="st11" d="M374.2,139.9c0,0,0.1,0,0.2,0c0.1,0,0.1,0.1,0.2,0.1c0,0.1,0.1,0.1,0.1,0.2c-0.1,0.5-0.3,1.2-0.4,2.1
			c-0.2,0.9-0.3,2-0.6,3.2c-0.2,0.8-0.6,1.5-1.1,2.1l-1.1,1.6c-0.4,0.5-0.7,1-1,1.5c0.4-0.4,0.8-0.9,1.2-1.4l1.2-1.6
			c0.2-0.3,0.5-0.6,0.7-1c0.2-0.4,0.4-0.8,0.5-1.2c0.3-1.1,0.4-2.1,0.6-3.2c0.1-0.8,0.2-1.6,0.3-2.2c0-0.1,0-0.2-0.1-0.3
			c-0.1-0.1-0.2-0.1-0.3-0.2C374.2,139.8,374.2,139.9,374.2,139.9z"/>
		<path class="st11" d="M375.1,147.6c0.7-1.8,1.1-3.6,1.3-5.5c-0.4,0.9-0.7,1.8-0.8,2.7C375.3,145.7,375.1,146.6,375.1,147.6z"/>
		<path class="st11" d="M368.2,144.4c0,0,0.1,0,0.3,0c0.2,0,0.4,0.1,0.6,0.2c0.2,0.2,0.1,0.5,0,0.9c-0.2,0.4-0.3,0.8-0.5,1.2
			l-0.5,1.2c-0.2,0.4-0.4,0.7-0.5,0.9c-0.2,0.3-0.3,0.6-0.4,0.9c0,0,0.2-0.3,0.6-0.8c0.2-0.3,0.4-0.6,0.6-0.9
			c0.2-0.4,0.4-0.8,0.6-1.2c0.2-0.4,0.3-0.8,0.5-1.2c0.1-0.2,0.1-0.4,0.1-0.6c0-0.1,0-0.2-0.1-0.3c0-0.1-0.1-0.2-0.2-0.2
			c-0.1-0.1-0.2-0.1-0.4-0.2c-0.1,0-0.3,0-0.4,0C368.3,144.3,368.2,144.3,368.2,144.4z"/>
		<path class="st9" d="M317.8,282l-3.4,14.1c0,0,13.2,8.2,12.8,10.8l-27.5-5.6l4.4-22.1L317.8,282z"/>
		<path class="st3" d="M306.1,293.1c-0.3,0-0.5,0.2-0.7,0.4c-0.2,0.2-0.3,0.5-0.3,0.8c0,0.3,0.1,0.5,0.3,0.7
			c0.2,0.2,0.5,0.3,0.8,0.3c0.3,0,0.6-0.2,0.8-0.4c0.2-0.2,0.3-0.5,0.3-0.8c0-0.3-0.2-0.6-0.4-0.7c-0.2-0.2-0.5-0.3-0.8-0.2"/>
		<g class="st12">
			<path class="st13" d="M299.7,301.3l0.5-2.2l26.2,6.2c0,0,1.1,0.8,0.8,1.6L299.7,301.3z"/>
		</g>
		<path class="st9" d="M308.4,285.6v14.5c0,0,14.7,4.8,15,7.5l-28.1,1l-0.9-22.5L308.4,285.6z"/>
		<g class="st12">
			<path class="st13" d="M295.3,308.7v-2.3l26.9-0.1c0,0,1.3,0.5,1.2,1.4L295.3,308.7z"/>
		</g>
		<path class="st6" d="M286.3,180.7l0.5,11.4l5.1,44.4c0,0-0.9,21.7-1.6,33.9c-0.5,10.6,2,29,2,29l17.9-0.8l3.6-61.7l2.2-38.5
			l6.1-17.8L286.3,180.7z"/>
		<path class="st6" d="M334.4,180.6l-1.6,62.2l-16,47.3l-0.7,2.8l-10.8-2.1l3-110.3L334.4,180.6z"/>
		<path class="st14" d="M316.3,91.8L300.9,80l-2.9,4.9c0,0-12.5,10.1-14.9,12.9l5.2,42.9c0,0-2.4,22.8-2.6,24.6
			c-0.1,1.8-1.5,17.5-1.5,17.5c-0.1,3,2.5,6.4,3,6.4c0,0,2.4-3.1,5.1-3s21.1,4.2,21.1,4.2l21.9-5.9l-4.3-43.4l-2.1-29.1l-2.4-11.1
			l-4.6-4.1l-2.4-7.3c0,0-0.6,9.2-0.7,8.9C318.7,98.1,316.3,91.8,316.3,91.8z"/>
		<g class="st15">
			<path class="st16" d="M331.4,145.1c-1.6,0.9-3.6,1.3-5.2,2.3c-1.1,0.7-2.2,1.6-3.1,2.6c-6.8,6.4-15.4,11.1-24.7,11.7
				c-3.2,0.2-6.6-0.2-9.1-2.2c-1.4-1.1-2.4-2.9-1.9-4.6c0.5-2.1,2.8-3.1,4.8-3.8l18.8-6.8c3.9-1.5,8-2.8,12.1-3.7
				c2.8-0.6,5.6-0.9,8.4-0.9"/>
		</g>
		<g class="st15">
			<path class="st16" d="M303.2,138.3c-1.9-6.1-2-13.2-2.1-19.5c-0.9,4.4-1.9,11.1-2.6,15.7l2,4.3L303.2,138.3z"/>
		</g>
		<g class="st15">
			<path class="st16" d="M318.8,98.4c-0.3-0.1-0.5-0.3-0.7-0.5c-0.7-0.9-1.1-1.9-1.7-2.8c-1.7,1.7-3.2,3.4-4.6,5.3
				c-2.3-2.2-4.7-4.4-6.8-6.8c-1.7-1.9-3.3-4-4.7-6.1L311.1,98l5.3-6.2L318.8,98.4z"/>
		</g>
		<path class="st6" d="M319.3,92.8c0.3,0.8,0.7,1.6,1.1,2.3c0.3,0.8,0.9,1.5,1.6,2c0.1-0.1-0.6-0.9-1.3-2.2
			C320.3,94.1,319.9,93.4,319.3,92.8z"/>
		<path class="st10" d="M325.9,134.6l-0.1,8.7c0,0-12.6,6.6-20.9,9.1c-8.3,2.5-18.2,2.6-18.2,2.6l2.9-14.2L325.9,134.6z"/>
		<path class="st10" d="M350.9,135.3c0-0.4-0.1-0.7-0.3-1c-0.2-0.3-0.4-0.6-0.8-0.7c-1.1-0.6-3.6-2.1-3.6-2.1l-7.1-0.3l-13.3,3.5
			l-0.1,8.7c0,0,6.8,0.1,8.4-0.1c1.6-0.1,5.9-1.7,5.9-1.7s7.4,0.6,7.8,0.2c0.3-0.4,0.8-0.9,0.3-1.2c-0.5-0.3-6.2-1.5-6.2-1.5
			l3.8-0.5c0,0,5.6,0.9,6,0.7c0.4-0.2,0.9-0.9,0.5-1.4l-0.4-0.5c0.1-0.3,0.1-0.6-0.1-0.8s-0.3-0.5-0.6-0.6l-0.5-0.1L350.9,135.3z"/>
		<path class="st11" d="M340.8,135.6c0.6,0.2,1.1,0.2,1.7,0.2c1.4-0.1,2.8,0,4.1,0.2c0.7,0.2,1.4,0.5,2.1,0.8
			c0.6,0.2,1.2,0.4,1.8,0.6c0.6,0.2,1.1,0.3,1.7,0.3c-0.5-0.2-1.1-0.4-1.7-0.5c-0.5-0.2-1.1-0.4-1.8-0.6c-0.7-0.3-1.4-0.6-2.1-0.8
			c-0.8-0.2-1.5-0.2-2.3-0.2c-0.7,0-1.3,0.1-1.9,0.1C341.4,135.7,340.8,135.6,340.8,135.6z"/>
		<path class="st11" d="M341.3,133.6c0.5,0.2,1,0.2,1.5,0.1c1.2-0.2,2.4-0.1,3.6,0.3c1.4,0.5,2.6,1,3.5,1.3c0.5,0.2,1,0.3,1.5,0.4
			c-0.4-0.3-0.9-0.5-1.4-0.7c-0.9-0.4-2.1-0.9-3.5-1.4c-0.7-0.2-1.4-0.4-2.1-0.4c-0.6,0-1.1,0.1-1.7,0.1
			C341.9,133.6,341.3,133.6,341.3,133.6z"/>
		<path class="st14" d="M283.1,97.8c0,0-3.6,6.3-4,9.2c-0.4,3-0.5,34.3,0.1,34.9c0.5,0.5,1.1,0.9,1.7,1.3c0,0-3.4,0.9-2.3,2.6
			c0.7,1.1,1.4,2.1,2.2,3c0,0,0.8,5.8,1.4,5.9c0.7,0.1,4.3,2,4.3,2s10.1-6.1,10.9-9.1c0.8-3,2.8-9,2.8-9l-2-4.1l4.2-25.4
			c0,0,2.5-8.2-2.8-11.3C294.5,94.7,285,94.3,283.1,97.8z"/>
		<g class="st15">
			<path class="st16" d="M292.8,136.6c-0.7,1-1.5,2-2.4,2.8l-4.3,4c-0.8,0.8-1.8,1.6-2.9,1.5c-0.6-0.1-1.1-0.3-1.6-0.7
				c-0.4-0.3-0.9-0.7-0.8-1.2c0.6,0.2,1.3,0.2,1.9,0.1c0.6-0.1,1.3-0.3,1.8-0.7c0.5-0.4,0.9-0.7,1.3-1.2
				C288,139.6,290.3,138,292.8,136.6"/>
		</g>
		<path class="st11" d="M325.2,143.4c0.3,0,0.6,0.1,0.9,0.1h2.4h3.6h2.1c0.4,0,0.8-0.1,1.1-0.2l1.1-0.3c1.5-0.4,3-0.9,4.3-1.3h-0.1
			c2,0.1,3.7,0.2,4.8,0.2h1.4c0.2,0,0.3,0,0.5,0c-0.2,0-0.3-0.1-0.5-0.1l-1.4-0.1c-1.2-0.1-2.9-0.2-4.8-0.3l-4.3,1.3l-1.1,0.3
			c-0.3,0.1-0.7,0.2-1,0.2h-2.1l-3.6,0.1l-2.4,0.1C325.8,143.3,325.5,143.3,325.2,143.4z"/>
		<path class="st6" d="M238,10.5h-96c-8.3,0-14.9,6.7-14.9,14.9v268.3c0,8.2,6.7,14.9,14.9,14.9h96c8.3,0,14.9-6.7,14.9-14.9V25.5
			C252.9,17.2,246.2,10.5,238,10.5z"/>
		<path class="st9" d="M226.6,10.6H133c-8.9,0-16.1,7.2-16.1,16.1v266c0,8.9,7.2,16.1,16.1,16.1h93.6c8.9,0,16.1-7.2,16.1-16.1v-266
			C242.8,17.9,235.5,10.6,226.6,10.6z"/>
		<path class="st5" d="M223.8,15.4h-17.1c-2.3,0-4.2,2.3-4.1,5.1v3.7c0,2.9-1.9,5.1-4.2,5.1l-33.3,0c-2.3,0-4.2-2.3-4.2-5.1v-3.7
			c0-2.9-1.9-5.1-4.2-5.1h-6h-15c-7.4,0-13.5,7.1-13.5,15.9l0.1,255.4c0,8.8,6,15.9,13.5,15.9l88,0.1c7.4,0,13.4-7.1,13.4-15.9
			l-0.1-255.4C237.2,22.5,231.2,15.4,223.8,15.4z"/>
		<path class="st6" d="M223.8,15.4h0.5c0.5,0,1,0.1,1.5,0.2c2,0.4,3.9,1.3,5.5,2.5c1.2,1,2.2,2.1,3,3.3c1,1.5,1.8,3.1,2.3,4.9
			c0.3,1,0.5,2,0.6,3c0.1,1.1,0.2,2.2,0.1,3.2c0,2.2,0,4.6,0,7.1c0,20.2,0.1,49.5,0.1,85.6c0,36.1,0.1,79.2,0.1,127c0,6,0,12,0,18.1
			c0,3.1,0,6.1,0,9.2v4.7c0,1.6,0,3.1-0.1,4.7c-0.2,1.6-0.5,3.1-1.1,4.6c-0.6,1.5-1.4,2.9-2.4,4.1c-1,1.3-2.2,2.4-3.5,3.2
			c-1.4,0.9-2.9,1.5-4.5,1.7c-1.6,0.2-3.2,0.2-4.8,0.2h-4.8h-9.7l-39.7-0.1h-20.3h-10.3c-1.7,0-3.5-0.3-5.1-1c-1.6-0.7-3-1.7-4.2-3
			c-2.4-2.6-3.9-5.8-4.4-9.3c-0.2-1.7-0.3-3.4-0.2-5.2v-5.2c0-6.8,0-13.6,0-20.3c0-13.4,0-26.7,0-39.7c0-26,0-51.1,0-75
			s0-46.6,0-67.8V31.1c0-4.7,1.9-9.5,5.3-12.5c1.7-1.6,3.7-2.6,5.9-3.1c0.5-0.1,1.1-0.2,1.7-0.2c0.6,0,1.1,0,1.6,0h3.3h12.6h3
			c0.5,0,1,0,1.5,0c0.5,0,1,0.2,1.4,0.4c0.9,0.5,1.6,1.3,2,2.2c0.4,0.9,0.6,1.9,0.6,2.9v2.9c-0.1,0.9,0.1,1.9,0.4,2.7
			c0.3,0.9,0.9,1.6,1.6,2.1c0.4,0.3,0.8,0.5,1.2,0.6c0.4,0.1,0.9,0.2,1.3,0.1l20,0h8.8h4.1c0.6,0,1.3-0.2,1.8-0.6
			c0.5-0.3,1-0.8,1.3-1.4c0.6-1,0.9-2.2,0.9-3.4c0-1.2,0-2.3,0-3.5c0-1.1,0.3-2.2,0.9-3.1c0.5-0.9,1.4-1.5,2.4-1.8
			c0.5-0.1,0.9-0.1,1.4-0.1h4h4.5h6.1L223.8,15.4l-2.1-0.1h-14.5c-0.5,0-1,0-1.4,0.1c-1,0.3-1.8,1-2.3,1.9c-0.6,0.9-0.9,2-0.9,3v3.5
			c0.1,1.3-0.2,2.5-0.9,3.6c-0.3,0.6-0.8,1.1-1.4,1.4c-0.6,0.3-1.2,0.6-1.9,0.6h-13h-20c-0.5,0-0.9,0-1.4-0.1
			c-0.5-0.1-0.9-0.3-1.3-0.6c-0.8-0.6-1.3-1.4-1.7-2.2c-0.3-0.9-0.5-1.8-0.4-2.8c0-0.9,0-1.9,0-2.9c0-1-0.1-1.9-0.5-2.8
			c-0.4-0.9-1-1.6-1.9-2.1c-0.4-0.2-0.9-0.4-1.4-0.4c-0.5,0-1,0-1.5,0h-3h-12.6h-3.3c-0.5,0-1.1,0-1.6,0c-0.5,0-1.1,0.1-1.6,0.2
			c-2.2,0.5-4.2,1.5-5.8,3c-3.3,3-5.1,7.7-5.2,12.4c0,4.7,0,9.6,0,14.5c0,9.9,0,20.1,0,30.8c0,21.3,0,44,0.1,67.8c0,23.9,0,49,0,75
			c0,13,0,26.2,0,39.7c0,6.7,0,13.5,0,20.3v5.1c-0.1,1.7,0,3.4,0.2,5.1c0.5,3.4,2,6.6,4.3,9.1c1.2,1.2,2.6,2.2,4.1,2.9
			c1.6,0.7,3.2,1,4.9,1h10.3h20.3l39.7,0.1h9.7h4.8c1.6,0.1,3.2,0,4.8-0.2c1.6-0.3,3-0.8,4.4-1.7c1.3-0.9,2.5-1.9,3.4-3.2
			c1-1.2,1.8-2.6,2.3-4c0.6-1.4,1-3,1.1-4.5c0.1-1.5,0.2-3.1,0.1-4.7c0-1.6,0-3.1,0-4.7v-9.1c0-6.1,0-12.2,0-18.1
			c0-47.8,0-90.8,0-127c0-36.1,0-65.4,0-85.6c0-2.5,0-4.9,0-7.1c0.1-1.1,0-2.2,0-3.2c-0.1-1-0.3-2-0.6-3c-0.5-1.7-1.2-3.4-2.2-4.9
			c-0.8-1.2-1.8-2.3-3-3.3c-1.6-1.3-3.4-2.1-5.4-2.5c-0.5-0.1-1-0.2-1.5-0.2L223.8,15.4z"/>
		<path class="st17" d="M152.2,276l-1.9,27.8l12,1.5l5.8-28.4L152.2,276z"/>
		<path class="st18" d="M150.5,300.1l-0.1,0.8c0,0-14.2,3.6-14.7,6.2l26.8,3.5l0.8-9c-2.1,0.7-4.3,0.9-6.6,0.7
			C154.6,302,152.4,301.2,150.5,300.1z"/>
		<path class="st5" d="M162.5,310.5l0.2-2.1l-25.8-2.5c0,0-1.3,0.4-1.2,1.2L162.5,310.5z"/>
		<path class="st6" d="M200.7,52.3c0.3-1.9,2-3.4,3.9-3.9c1.9-0.4,3.9-0.2,5.7,0.6c2.1,0.7,4,1.9,5.5,3.4c0.8,0.8,1.4,1.7,1.8,2.7
			c0.4,1,0.6,2.1,0.6,3.2c-0.1,2-1.1,4.1-0.6,6c0.4,1.5,1.7,2.6,3,3.5c1.3,0.9,2.6,1.7,3.5,3c0.9,1.3,1,3.2-0.2,4.3
			c-1,0.9-2.9,1-3.3,2.3c-0.3,0.8,0.2,1.7,0.4,2.5c0.2,0.9,0.3,1.8,0.1,2.7c-0.1,0.9-0.5,1.8-1,2.5c-1,1.5-2.4,2.7-4,3.6
			c-2.8,1.6-6.2,2.3-9.1,1c-1.4-0.6-2.7-1.7-3.6-3c-1.5-2.2-2.3-4.7-2.4-7.4c-0.1-2.6,0.1-5.2,0.5-7.8"/>
		<path class="st6" d="M178.2,53.1c0.1,1.8-1,3.3-2.2,4.6c-1.2,1.3-2.5,2.7-2.7,4.4c-0.5,3.1,2.6,6,2,9c-0.3,1.6-1.7,3-1.9,4.6
			c-0.2,1.7,0.6,3.2,1.7,4.4s2.4,2.2,3.3,3.6c0,0,2,3.2,8,1.2"/>
		<path class="st6" d="M205.3,55.8c0.1-1.6-1.4-2.9-2.9-3.4c-1.5-0.6-3.1-0.8-4.5-1.7c-1.2-0.8-2-2-3-3c-1.2-1.2-2.8-2.1-4.4-2.6
			c-1.7-0.5-3.5-0.5-5.1,0c-1.7,0.5-3.2,1.4-4.4,2.6c-1.2,1.2-2.1,2.8-2.5,4.5c-0.6,2.3-0.2,5,1.6,6.5c2.1,1.7,5.2,1.4,7.9,0.8
			c2.7-0.5,5.7-1.1,7.9,0.5c1.3,0.9,2.1,2.5,2.9,3.9c0.8,1.4,1.8,2.9,3.4,3.4c1.6,0.5,3.7-0.4,3.7-2"/>
		<path class="st17" d="M199,56.1c0.7,0.1,1.3,0.4,1.7,0.9c0.4,0.5,0.7,1.1,0.7,1.8l-1.6,36c-0.1,4.3-6.3,6.6-10.9,6.5
			c-4.6-0.1-4.8-2.4-4.8-6.4c-0.1-6.8-0.1-9.3-0.1-9.3s-5.8-1-7-8.6c-0.6-3.8-0.4-10-0.1-15c0.3-4.6,3.3-10.1,7.9-9.6L199,56.1z"/>
		<path class="st6" d="M178.3,67.1c0,0.2,0.1,0.5,0.3,0.7c0.2,0.2,0.4,0.3,0.6,0.3c0.1,0,0.2,0,0.4,0c0.1,0,0.2-0.1,0.3-0.2
			c0.1-0.1,0.2-0.2,0.2-0.3c0.1-0.1,0.1-0.2,0.1-0.4c0-0.3-0.1-0.5-0.3-0.7c-0.2-0.2-0.4-0.3-0.7-0.3c-0.1,0-0.2,0-0.4,0.1
			s-0.2,0.1-0.3,0.2c-0.1,0.1-0.2,0.2-0.2,0.3C178.3,66.9,178.3,67,178.3,67.1z"/>
		<path class="st6" d="M178,64.5c0.1,0.1,0.9-0.4,1.9-0.4c1.1,0,1.8,0.5,1.9,0.4s-0.1-0.3-0.4-0.5c-0.4-0.3-1-0.5-1.5-0.5
			s-1.1,0.2-1.5,0.5C178.1,64.2,178,64.5,178,64.5z"/>
		<path class="st6" d="M188,67.3c0,0.3,0.1,0.5,0.3,0.7c0.2,0.2,0.4,0.3,0.7,0.3c0.1,0,0.2,0,0.4,0c0.1,0,0.2-0.1,0.3-0.2
			s0.2-0.2,0.2-0.3c0.1-0.1,0.1-0.2,0.1-0.4c0-0.3-0.1-0.5-0.3-0.7c-0.2-0.2-0.4-0.3-0.7-0.3c-0.1,0-0.2,0-0.4,0
			c-0.1,0-0.2,0.1-0.3,0.2c-0.1,0.1-0.2,0.2-0.2,0.3C188.1,67.1,188,67.2,188,67.3z"/>
		<path class="st6" d="M188.6,65c0.1,0.1,0.9-0.4,1.9-0.4c1,0,1.8,0.5,1.9,0.4c0.1-0.1-0.1-0.3-0.4-0.5c-0.5-0.3-1-0.5-1.5-0.5
			c-0.5,0-1.1,0.2-1.5,0.5C188.6,64.8,188.5,65,188.6,65z"/>
		<path class="st6" d="M184.8,73.3c-0.6-0.2-1.1-0.3-1.7-0.3c-0.3,0-0.5-0.1-0.6-0.3c0-0.3,0-0.6,0.2-0.8l0.8-2
			c1.1-2.9,1.9-5.3,1.8-5.3c-0.1,0-1.1,2.3-2.2,5.2c-0.3,0.7-0.5,1.4-0.8,2c-0.2,0.3-0.2,0.7-0.1,1c0,0.1,0.1,0.2,0.2,0.2
			c0.1,0.1,0.2,0.1,0.3,0.1c0.1,0,0.3,0.1,0.5,0.1C183.6,73.4,184.2,73.4,184.8,73.3z"/>
		<path class="st19" d="M184,85.7c3.6,0.1,7.1-0.9,10.2-2.7c0,0-2.6,5.2-10.2,4.5L184,85.7z"/>
		<path class="st6" d="M188.1,62.5c0.1,0.3,1.2,0.1,2.4,0.3c1.2,0.1,2.2,0.5,2.4,0.2c0.1-0.1-0.1-0.4-0.5-0.7
			c-0.5-0.3-1.1-0.6-1.8-0.6c-0.6-0.1-1.3,0-1.9,0.2C188.3,62.1,188.1,62.4,188.1,62.5z"/>
		<path class="st6" d="M178.2,62.2c0.2,0.2,1,0,2,0c1,0,1.8,0.2,2-0.1c0.1-0.1-0.1-0.4-0.4-0.6c-0.5-0.3-1.1-0.4-1.6-0.4
			c-0.6,0-1.1,0.2-1.6,0.5C178.2,61.8,178.1,62.1,178.2,62.2z"/>
		<path class="st6" d="M204.3,81.1c-1,0.2-2.1,0.2-3.2-0.1c-1-0.3-2-0.8-2.8-1.5s-1.4-1.6-1.7-2.6c-0.4-1-0.5-2.1-0.4-3.1
			c0.2-1.9,1.2-3.8,0.6-5.5c-0.9-2.3-4.1-3-5-5.4c-0.5-1.4-0.1-2.9-0.6-4.3c-0.6-1.3-1.9-2-3.1-2.4c-1.3-0.5-2.7-0.8-3.7-1.6
			c-1.1-0.8-1.7-2.4-1.1-3.6c5.7,0.7,11.2,2,16.6,4c1.2,0.5,2.5,1,3.3,2.1c0.7,1.1,0.7,2.7,0.7,4.1c-0.3,6.8-0.6,13.6-1,20.4"/>
		<path class="st19" d="M185.2,75.9c0.2,0.5,0.4,0.9,0.7,1.3c0.1,0.2,0.3,0.4,0.5,0.5c0.2,0.1,0.4,0.2,0.7,0.2
			c0.3,0,0.5-0.1,0.7-0.2c0.2-0.1,0.4-0.3,0.6-0.5c0.3-0.4,0.4-1,0.4-1.5c0-0.5-0.2-1-0.7-1.1c-0.2,0-0.4,0-0.6,0.1l-2.4,1"/>
		<path class="st6" d="M186.1,77.9c0.4,0,0.9,0,1.3-0.2c0.4-0.2,0.8-0.5,1-0.9c0.1-0.3,0.2-0.7,0.2-1c0-0.3-0.2-0.7-0.4-0.9
			c-0.1-0.1-0.1-0.1-0.2-0.1c-0.1,0-0.3,0.1-0.4,0.2l-0.4,0.2c-0.5,0.2-1,0.4-1.4,0.5c-0.4,0.2-0.9,0.3-1.3,0.4
			c0.4-0.3,0.8-0.5,1.2-0.7c0.4-0.2,0.8-0.4,1.3-0.6l0.4-0.2c0.1-0.1,0.3-0.1,0.4-0.2c0.1,0,0.2,0,0.4,0c0.1,0,0.2,0.1,0.3,0.2
			c0.1,0.1,0.2,0.3,0.3,0.5c0.1,0.3,0.2,0.6,0.2,1c0,0.3-0.1,0.7-0.3,1c-0.3,0.5-0.7,0.8-1.2,1c-0.3,0.1-0.7,0.1-1.1,0
			C186.2,78,186.1,77.9,186.1,77.9z"/>
		<path class="st6" d="M213,170.5c0,0.1,0,0.2,0,0.3C213,170.4,213,170.2,213,170.5z"/>
		<path class="st17" d="M220.1,177l1.1,9.5l8.7,7.9c0.2-0.3,0.3-0.7,0.4-1.1c0.1-0.4,0-0.8-0.1-1.1c-0.4-1,2,1.3,2,1.3v5.4
			c0,0,1.5,0.6,2-0.7c0.5-1.3,0.8-5.9,0.8-5.9l-0.7-0.5c0.3-0.3,0.5-0.6,0.6-1c0.1-0.4,0.2-0.8,0.1-1.2c0.5-1.3,0.7-2.6,0.5-4
			c-0.1-1.2-0.4-2.4-0.9-3.5l-7.1-7.9L220.1,177z"/>
		<path class="st19" d="M224.5,186.1c0.7,1.2,1.6,2.2,2.6,3.2c0.9,1,2,1.9,3.1,2.6c0.1-0.1-1.3-1.3-2.9-2.9
			C225.7,187.4,224.6,186,224.5,186.1z"/>
		<path class="st19" d="M230.6,187.8c0.6,0.9,1.3,1.7,2.1,2.4c0.7,0.8,1.5,1.5,2.3,2.1c-0.6-0.9-1.3-1.7-2.1-2.4
			C232.2,189.1,231.4,188.4,230.6,187.8z"/>
		<path class="st19" d="M231.7,185.6c0.5,0.7,1.1,1.3,1.6,2c0.5,0.7,1,1.4,1.6,2c-0.3-0.8-0.7-1.6-1.3-2.2
			C233.1,186.6,232.5,186.1,231.7,185.6z"/>
		<path class="st19" d="M232.7,183.4c0.4,0.6,0.8,1.1,1.3,1.6c0.7,0.8,1.3,1.6,1.4,1.5c-0.2-0.7-0.6-1.2-1.1-1.7
			C233.9,184.2,233.3,183.7,232.7,183.4z"/>
		<path class="st9" d="M168.9,70c-1.1-0.3-2.2-0.7-3.2-1.2c-1.1-0.4-2.1-0.9-3-1.6c1.1,0.3,2.2,0.7,3.2,1.2
			C167,68.8,168,69.4,168.9,70z"/>
		<path class="st17" d="M158.9,84.6c-0.7,0-2.4,1-3.8,2.9l-0.1,0.1c-1,1.3-1.9-2.4-2.1-3.8c0-0.2-0.1-0.4-0.2-0.6
			c-0.1-0.2-0.3-0.3-0.5-0.4c-0.2-0.1-0.4-0.2-0.6-0.2c-0.2,0-0.4,0-0.6,0.1l-4.6,2.1l-1.3,0c-0.3,0.1-0.6,0.3-0.8,0.6
			c-0.2,0.3-0.2,0.7-0.1,1l2.2,7.3l0,2l9.2,1.2l0.1-5c0.1-0.6,0.3-1.2,0.6-2c0.2-0.7,0.6-1.4,1-1.9c0.5-0.7,1-1.3,1.7-1.8
			c0,0,0.1-0.1,0.1-0.1c0.1-0.1,0.2-0.1,0.3-0.2c0.1-0.1,0.2-0.2,0.2-0.4c0-0.1,0-0.3,0-0.4c0-0.1-0.1-0.3-0.3-0.4
			C159.2,84.6,159.1,84.6,158.9,84.6z"/>
		<path class="st7" d="M158.7,62.2c0,0-5.4-1-13.1-8c-7.7-7-11.5-16.5-12.4-16.4c-0.9,0.1-5-1.7-12.2,15.1
			c-7.1,16.8-4,20.6-2.5,20.5s11.8-3.2,18.2-2.7c6.5,0.5,14.9,3.7,14.9,3.7L158.7,62.2z"/>
		<path class="st6" d="M170.3,70.9l-1.7,3.5l-0.8,1.6c-0.5,1-1.4,1.8-2.5,2.2c-1.1,0.4-2.3,0.4-3.3-0.1l-11.6-3.7l6.2-15.4l11.6,5.8
			c1.1,0.5,1.9,1.5,2.3,2.6C171,68.6,170.9,69.9,170.3,70.9z"/>
		<path class="st6" d="M163.9,76.7l-3.4,7.2l-1.8-0.5l-11.6,10l-3.5-6.4c0,0,7-3.2,8.2-5.8c1.2-2.5-0.3-3.1-0.3-3.1l3.2-3.9
			L163.9,76.7z"/>
		<path class="st6" d="M121.7,53.2c-3.8,9.1-5.3,17.1-3.3,18c2,0.9,6.7-5.9,10.5-15c3.8-9.1,5.3-17.1,3.3-18S125.5,44.1,121.7,53.2z
			"/>
		<path class="st9" d="M171.5,75.9l-3.1-0.9l1.8-3.7l2.4,1.4L171.5,75.9z"/>
		<g class="st15">
			<path class="st16" d="M153.5,75.7l8.5,5.1l1-2.1L153.5,75.7z"/>
		</g>
		<path class="st4" d="M129.9,51c0,0-4.7-2.7-7.1,3.6c-2.4,6.3,2.6,7.2,2.6,7.2C127.4,58.4,128.9,54.7,129.9,51z"/>
		<path class="st6" d="M134.6,43.3c0,0.4-0.1,0.8-0.1,1.2c-0.1,0.8-0.3,1.9-0.6,3.3c-0.2,0.7-0.4,1.4-0.6,2.2
			c-0.1,0.4-0.2,0.8-0.3,1.2l-0.2,0.6c-0.1,0.2-0.1,0.4-0.2,0.6c-0.3,0.9-0.6,1.8-1,2.7l-0.3,0.7c-0.1,0.2-0.2,0.5-0.3,0.7l-0.6,1.4
			l-0.7,1.4c-0.1,0.2-0.2,0.5-0.3,0.7l-0.4,0.7l-1.4,2.5c-0.1,0.2-0.2,0.4-0.3,0.6l-0.4,0.5c-0.2,0.4-0.5,0.7-0.7,1.1
			c-0.5,0.7-0.9,1.3-1.3,1.9c-0.9,1.1-1.6,2-2.1,2.6c-0.2,0.3-0.5,0.6-0.8,0.9c0.2-0.4,0.4-0.7,0.7-1l2-2.6l1.2-1.9l0.7-1.1l0.4-0.5
			c0.1-0.2,0.2-0.4,0.3-0.6c0.4-0.8,0.9-1.7,1.4-2.5c0.1-0.2,0.2-0.4,0.4-0.7c0.1-0.2,0.2-0.5,0.3-0.7l0.6-1.4l0.7-1.4
			c0.1-0.2,0.2-0.5,0.3-0.7l0.3-0.7l1-2.7c0.1-0.2,0.2-0.4,0.2-0.6c0.1-0.2,0.1-0.4,0.2-0.6c0.1-0.4,0.2-0.8,0.3-1.2l0.6-2.2
			c0.3-1.3,0.5-2.4,0.7-3.2C134.4,44.1,134.5,43.7,134.6,43.3z"/>
		<path class="st17" d="M149.4,81.3c-0.2,0.1-0.4,0.3-0.5,0.5c-0.1,0.2-0.1,0.5,0,0.8c0.4,1,0.9,2.6,1.4,3.5
			c0.1,0.3,0.3,0.6,0.5,0.8c0.1,0.1,0.3,0.2,0.4,0.3c0.2,0,0.3,0,0.5,0c0.2-0.1,0.3-0.2,0.4-0.4c0.1-0.1,0.1-0.3,0.2-0.5
			c0-0.4-0.1-0.7-0.2-1c-0.3-0.9-0.8-2.3-1.3-3.5c0-0.1-0.1-0.2-0.2-0.3c-0.1-0.1-0.2-0.2-0.3-0.2c-0.1-0.1-0.3-0.1-0.4-0.1
			C149.6,81.2,149.5,81.3,149.4,81.3z"/>
		<path class="st17" d="M148,83.2c-0.2,0.1-0.4,0.3-0.5,0.6c-0.1,0.2-0.1,0.5,0,0.8c0.4,1,0.9,2.6,1.4,3.5c0.1,0.3,0.3,0.6,0.5,0.8
			c0.1,0.1,0.3,0.2,0.4,0.2c0.2,0,0.3,0,0.5,0c0.2-0.1,0.3-0.2,0.4-0.3c0.1-0.2,0.1-0.3,0.1-0.5c0-0.4-0.1-0.7-0.2-1
			c-0.3-0.9-0.8-2.3-1.3-3.5c0-0.1-0.1-0.2-0.2-0.3c-0.1-0.1-0.2-0.2-0.3-0.2c-0.1-0.1-0.3-0.1-0.4-0.1
			C148.2,83.1,148.1,83.1,148,83.2z"/>
		<path class="st17" d="M146.6,84.3c-0.2,0.1-0.4,0.3-0.5,0.5s-0.1,0.5,0,0.7c0.3,0.9,0.8,2.2,1.2,3c0.1,0.3,0.3,0.5,0.5,0.7
			c0.1,0.1,0.2,0.2,0.4,0.2c0.1,0,0.3,0,0.4,0c0.1-0.1,0.3-0.2,0.3-0.3c0.1-0.1,0.1-0.3,0.1-0.4c0-0.3-0.1-0.6-0.2-0.9
			c-0.3-0.8-0.7-2-1.2-3c0-0.1-0.1-0.2-0.2-0.3c-0.1-0.1-0.2-0.2-0.3-0.2c-0.1,0-0.2-0.1-0.3-0.1C146.8,84.3,146.7,84.3,146.6,84.3z
			"/>
		<path class="st17" d="M144.9,84.7c-0.2,0.1-0.4,0.3-0.5,0.5c-0.1,0.2-0.1,0.5,0,0.7c0.3,0.9,0.8,2.2,1.2,3.1
			c0.1,0.3,0.3,0.5,0.5,0.7c0.1,0.1,0.2,0.2,0.4,0.2c0.1,0,0.3,0,0.4,0c0.1-0.1,0.3-0.2,0.3-0.3c0.1-0.1,0.1-0.3,0.1-0.4
			c0-0.3-0.1-0.6-0.2-0.9c-0.3-0.8-0.8-2-1.2-3c-0.1-0.2-0.3-0.4-0.5-0.5C145.4,84.6,145.1,84.6,144.9,84.7z"/>
		<path class="st19" d="M150.6,87c-0.4-0.5-0.7-1.1-0.9-1.8c-0.3-0.6-0.5-1.2-0.6-1.9c0.4,0.5,0.7,1.1,0.9,1.7
			C150.3,85.7,150.5,86.4,150.6,87z"/>
		<path class="st19" d="M149.1,88.6c-0.8-1.3-1.3-2.7-1.7-4.2c0.4,0.6,0.8,1.3,1,2C148.8,87.1,149,87.8,149.1,88.6z"/>
		<path class="st19" d="M147.5,88.8c-0.5-0.5-0.8-1.1-1-1.7c-0.3-0.6-0.5-1.3-0.5-1.9c0.4,0.6,0.7,1.2,0.9,1.8
			C147.1,87.5,147.4,88.1,147.5,88.8z"/>
		<path class="st6" d="M214.5,229l-4.9-38.9c3.2-7.4,4.3-14.7,3.4-19.3c0.1,0.5,0.1,1.1,0-0.3c-0.8-8.1-7.8-14.1-7.8-14.1l-2.3-9.8
			l-30,4.2l1.1,16.5l-19.4,68.3l-3.5,57.7l15.7,1.8c0,0,6.1-28.9,7.8-40.9c0.9-6.5,1.4-13.1,1.6-19.7l14.7-22
			c1.7,9.1,3.7,20.3,4.7,26.2c0.5,2.6,1.6,5.1,3.3,7.1l38.5,30.3v-18.3C233.7,249,214.5,229,214.5,229z"/>
		<path class="st6" d="M202.2,101.9c0.1,0,0.1-0.7,0.3-1.9c0.3-1.5,0.8-3,1.6-4.4c0.7-1.4,1.8-2.5,3.2-3.2c0.6-0.2,1.2-0.3,1.9-0.3
			c-0.2-0.1-0.3-0.1-0.5-0.1c-0.5,0-1,0-1.4,0.2c-1.5,0.7-2.7,1.8-3.4,3.3c-0.8,1.4-1.3,2.9-1.5,4.5
			C202.1,100.6,202.1,101.3,202.2,101.9z"/>
		<path class="st18" d="M199.7,90.3L184,92.8l-2.8,2.4c0,0-9.9,19.2-10.1,23.1c-0.2,4.3,2.1,11.7,2.1,11.7l-2.3,17
			c-0.3,1.9,0.9,3.8,1.8,3.8l27.2-3.6c3.5-0.7,5-2.5,4.8-4.6l-0.4-3.8l11.6-38.8c0.7,2.3-0.4-6.2-5.6-8.1
			C208.1,91.1,203,89.6,199.7,90.3z"/>
		<path class="st18" d="M182.6,94.1c0,0-4.8,3.7-9.4,8c-4.6,4.2-16.8,12.7-16.8,12.7L155.6,97l-9.2-1.2c0,0-4.5,22.1-1.6,28.2
			c2.9,6.1,6.3,6.4,15.8,3.3c9.5-3.1,12.2-4.4,12.2-4.4L182.6,94.1z"/>
		<path class="st18" d="M207.4,91.9c0,0-4.9,6.4-5.2,12.3c-0.3,5.8,8.8,41.1,8.8,41.1l7.9,32.1l9.9-3.6c0,0-2.3-22.9-2.7-25.7
			c-0.9-5.9-4.8-17.5-5.4-24.1c-0.5-6.7-3-19.5-4.2-22.5C215.2,98.4,215.2,91.8,207.4,91.9z"/>
		<g class="st15">
			<path class="st16" d="M201.9,146.6c-1.6-1.6-1.9-3.9-2.1-6.1c-0.8-7-1.5-13.9-2.3-20.9c-0.5-4.3-0.9-8.9,0.7-13
				c0.1-0.3,0.2-0.6,0.5-0.9c0.2-0.2,0.5-0.4,0.8-0.6c0.3-0.1,0.6,0,0.9,0.1c0.3,0.1,0.5,0.3,0.7,0.6c0.4,0.5,1.4,1.2,1.6,1.8
				c1.6,6.2,2.3,12.3,3.9,18.6c0.4,1.6,1,1.6,0.6,3.2c-0.5,2.4-2.8,9.3-2.8,9.3s0.3,2.5,0.4,4c0,0.9-0.2,1.7-0.7,2.4
				C203.5,145.9,202.7,146.4,201.9,146.6"/>
		</g>
		<g class="st15">
			<path class="st16" d="M177,101.4c-7.4,7.4-13.8,15.7-16.5,25.9c4.2-1.4,8.2-2.7,10.9-3.8c0,0-0.8-4.2-0.3-6.6
				C171.7,113.8,171.7,111.2,177,101.4z"/>
		</g>
		<path class="st4" d="M113.5,135.9l-5.1,42.7l53.5,6.3l5.1-42.7L113.5,135.9z"/>
		<path class="st6" d="M167,142.2c-0.1,0-0.2,0-0.3,0l-0.8-0.1l-2.9-0.3l-10.9-1.3l-38.6-4.5l0.2-0.1c-1.5,12.7-3.2,27.3-5,42.7
			l-0.1-0.2l53.5,6.3l-0.1,0.1c1.5-12.9,2.9-23.5,3.7-31c0.5-3.7,0.8-6.6,1.1-8.6c0.1-1,0.2-1.8,0.3-2.3
			C167,142.5,167,142.3,167,142.2c0,0,0,0.3-0.1,0.8c-0.1,0.5-0.1,1.3-0.2,2.3c-0.2,2-0.6,4.9-1,8.6c-0.9,7.5-2.1,18.2-3.6,31.1v0.1
			h-0.1l-53.5-6.3h-0.2v-0.2c1.8-15.4,3.6-30,5.1-42.7v-0.1h0.1l38.7,4.6l10.9,1.3l2.9,0.4l0.7,0.1L167,142.2z"/>
		<path class="st1" d="M115,138.8l-4.4,37.3l49.7,5.9l4.4-37.3L115,138.8z"/>
		<path class="st3" d="M110.6,176.2l20.1-21.2l9,15.8l8.2-6.9l12.3,18.1L110.6,176.2z"/>
		<path class="st3" d="M146.4,154c-0.1,0.8-0.4,1.5-0.9,2.1c-0.5,0.6-1.2,1-1.9,1.2c-0.7,0.2-1.5,0.2-2.3,0
			c-0.7-0.2-1.4-0.7-1.9-1.3c-0.5-0.6-0.8-1.4-0.8-2.1c-0.1-0.8,0.1-1.6,0.5-2.2c0.4-0.7,1-1.2,1.6-1.6s1.5-0.5,2.2-0.4
			c0.5,0.1,1,0.2,1.5,0.5c0.5,0.3,0.9,0.6,1.2,1s0.6,0.9,0.7,1.4C146.4,152.9,146.4,153.5,146.4,154z"/>
		<path class="st4" d="M236.7,158.1h-15.9V107h15.9"/>
		<path class="st6" d="M236.7,107h-0.3h-0.8l-3.2,0l-11.6,0.1l0.2-0.2c0,7,0,15.9,0,25.6s0,18.6,0,25.6l-0.2-0.1l11.6,0.1h3.2h0.8
			h0.3c-0.1,0-0.2,0-0.3,0h-0.8l-3.2,0l-11.6,0.1h-0.1V158c0-7,0-15.9,0-25.6c0-9.7,0-18.6,0-25.6v-0.1h0.1l11.6,0.1h3.2h0.8
			C236.5,106.8,236.6,106.9,236.7,107z"/>
		<path class="st1" d="M236.7,154.7l-13.2,0.2v-45l13.2-0.2V154.7z"/>
		<path class="st3" d="M223.5,154.8l13.1,0.1l0.1-18.2L223.5,154.8z"/>
		<path class="st4" d="M121.6,193.4l-45.4,4l3.2,36.3l45.4-4L121.6,193.4z"/>
		<path class="st6" d="M121.6,193.4h-0.2l-0.6,0.1l-2.5,0.2l-9.3,0.9l-32.8,3l0.1-0.1c1,10.8,2.1,23.2,3.2,36.3l-0.2-0.1l45.4-4
			l-0.1,0.1c-1-10.9-1.7-20-2.3-26.3c-0.3-3.2-0.5-5.7-0.6-7.4c-0.1-0.8-0.1-1.5-0.2-1.9S121.6,193.4,121.6,193.4l0.1,0.6
			c0,0.4,0.1,1.1,0.2,1.9c0.2,1.7,0.4,4.2,0.7,7.3c0.6,6.3,1.4,15.4,2.4,26.4v0.1h-0.1l-45.4,4.1h-0.1v-0.1
			c-1.2-13.1-2.3-25.5-3.2-36.3v-0.1h0.1l32.9-2.9l9.3-0.8l2.4-0.2l0.6-0.1L121.6,193.4z"/>
		<path class="st1" d="M120.2,195.8L78,199.6l2.8,31.7l42.2-3.8L120.2,195.8z"/>
		<path class="st3" d="M80.8,231.3l13-21l10.2,11.5l5.6-7.1l13.4,12.9L80.8,231.3z"/>
		<path class="st3" d="M106.6,206.7c0.1,0.7-0.1,1.3-0.4,1.9c-0.3,0.6-0.8,1.1-1.4,1.4c-0.6,0.3-1.2,0.4-1.9,0.4
			c-0.7-0.1-1.3-0.3-1.8-0.8c-0.5-0.4-0.9-1-1.1-1.6c-0.2-0.6-0.2-1.3,0-1.9c0.2-0.6,0.6-1.2,1.1-1.6c0.5-0.4,1.1-0.7,1.8-0.7
			c0.9-0.1,1.8,0.2,2.4,0.8C106.1,205,106.5,205.8,106.6,206.7z"/>
	</g>
</g>
</svg>
