<?xml version="1.0" encoding="utf-8"?>
<!-- Generator: Adobe Illustrator 26.0.2, SVG Export Plug-In . SVG Version: 6.00 Build 0)  -->
<svg version="1.1" id="Capa_1" xmlns="http://www.w3.org/2000/svg" xmlns:xlink="http://www.w3.org/1999/xlink" x="0px" y="0px"
	 viewBox="0 0 492 316" style="enable-background:new 0 0 492 316;" xml:space="preserve">
<style type="text/css">
	.st0{fill:none;stroke:#E4E4E4;stroke-width:4;stroke-miterlimit:10;stroke-dasharray:32.09,32.09;}
	.st1{fill:#F6F5F5;}
	.st2{fill:#6093CB;}
	.st3{fill:#E4E4E4;}
	.st4{fill:#FFFFFF;}
	.st5{fill:#708CD5;}
	.st6{fill:#D3DFFF;}
	.st7{fill:#FFFFFF;stroke:#708CD5;stroke-width:6;stroke-miterlimit:10;}
	.st8{fill:#EE6F57;}
	.st9{fill:#F9B384;}
	.st10{fill:#263238;}
	.st11{fill:#E28B6D;}
	.st12{fill:#102048;}
	.st13{opacity:0.6;fill:#102048;enable-background:new    ;}
	.st14{opacity:0.3;fill:#1F3C88;enable-background:new    ;}
	.st15{opacity:0.6;fill:#E28B6D;enable-background:new    ;}
	.st16{fill:#6F3428;}
	.st17{fill:#FBC343;}
	.st18{opacity:0.3;fill:none;stroke:#6F3428;stroke-width:8;stroke-miterlimit:10;enable-background:new    ;}
	.st19{fill:#1F3C88;}
	.st20{opacity:0.4;fill:#FC8879;enable-background:new    ;}
	.st21{opacity:0.6;fill:#6F3428;enable-background:new    ;}
	.st22{fill:none;stroke:#C9CCCD;stroke-miterlimit:10;}
</style>
<path class="st0" d="M459.3,211.3c22.7,40.6-10.1,120.3-218.2,64.9c-104.3-27.8-182.3,34.8-198.3-8.9
	C5.4,165.6,158.2,48,243.1,130.1C320.7,205.2,418.1,137.4,459.3,211.3z"/>
<path class="st1" d="M458.1,300.6H33.9C47.2,202.5,137.1,126.5,246,126.5C354.9,126.5,444.8,202.5,458.1,300.6z"/>
<path class="st2" d="M402.8,43.8H243.3c-7.4,0-13.5,6-13.5,13.5v229.1c0,7.4,6,13.5,13.5,13.5h159.6c7.4,0,13.5-6,13.5-13.5V57.3
	C416.3,49.8,410.3,43.8,402.8,43.8z"/>
<path class="st1" d="M400.1,54.1H246.7v223.1h153.5V54.1z"/>
<path class="st3" d="M400.1,54.1c0,87,2.9,191.9-6.9,215.2c-43,4.2-93.4,5.5-146.6,5.8l20.2-220.3L400.1,54.1z"/>
<path class="st4" d="M386.4,262.2c-67,10.7-111.9,11.3-148.2,8.6c4.7-50.2,6.6-133.5,8.5-216.7l80.8,0.2l73.1,4.8
	C401.6,145.5,401.7,225.3,386.4,262.2z"/>
<path class="st5" d="M362.7,76.6l-80.7-1.9L281.6,87l80.7,1.9L362.7,76.6z"/>
<path class="st5" d="M378.2,106.7l-72.8-1.7l-0.1,5.6l72.8,1.7L378.2,106.7z"/>
<path class="st6" d="M354.6,118.5l-49.5-1.2l-0.1,5.6l49.5,1.2L354.6,118.5z"/>
<path class="st7" d="M282.4,104.8l-17.2-0.4l-0.4,17.3L282,122L282.4,104.8z"/>
<path class="st8" d="M268,108.9c0.5,2,1.5,10.6,5.8,8.2c1-0.5,1.8-2,2.6-2.8l4-4.5l8-9c0.7-0.8-2.3-2.7-3.2-1.7l-7.1,8l-3.5,4
	c-0.8,0.9-2.7,3.9-3.9,4.2l2,0.6c0.5,0.4-0.4-2.3-0.4-2.4c-0.3-1.3-0.7-2.5-1-3.8C270.9,108.6,267.6,107.4,268,108.9L268,108.9z"/>
<path class="st5" d="M364.6,137.8l-60-1.4l-0.1,5.6l60,1.4L364.6,137.8z"/>
<path class="st6" d="M377.9,149l-72.8-1.5l-0.1,5.6l72.8,1.5L377.9,149z"/>
<path class="st7" d="M281.7,136.2l-17.2-0.4l-0.4,17.3l17.2,0.4L281.7,136.2z"/>
<path class="st8" d="M267.3,140.8c0.5,2,1.5,10.6,5.8,8.2c1-0.5,1.8-2,2.6-2.8l4-4.5l8-9c0.7-0.8-2.3-2.7-3.2-1.7l-7.1,8l-3.5,4
	c-0.8,0.9-2.7,3.9-3.9,4.2l2,0.6c0.5,0.4-0.4-2.3-0.4-2.4c-0.3-1.3-0.7-2.5-1-3.8C270.2,140.5,266.9,139.2,267.3,140.8L267.3,140.8z
	"/>
<path class="st5" d="M376.7,169.5l-72.8-1.7l-0.1,5.6l72.8,1.7L376.7,169.5z"/>
<path class="st6" d="M336.2,180.8l-32.6-0.8l-0.1,5.6l32.6,0.8L336.2,180.8z"/>
<path class="st7" d="M281,167.5l-17.2-0.4l-0.4,17.3l17.2,0.4L281,167.5z"/>
<path class="st8" d="M266.8,172.4c0.5,2,1.5,10.6,5.8,8.2c1-0.5,1.8-2,2.6-2.8l4-4.5l8-9c0.7-0.8-2.3-2.7-3.2-1.7l-7.1,8l-3.5,4
	c-0.8,0.9-2.7,3.9-3.9,4.2l2,0.6c0.5,0.4-0.4-2.3-0.4-2.4c-0.3-1.3-0.7-2.5-1-3.8C269.6,172.1,266.4,170.8,266.8,172.4z"/>
<path class="st5" d="M376.9,199.4l-72.9-1.5l-0.1,5.6l72.9,1.5L376.9,199.4z"/>
<path class="st6" d="M360.4,212.7l-57.5-1.4l-0.1,5.6l57.5,1.4L360.4,212.7z"/>
<path class="st7" d="M280.2,198.9l-17.2-0.4l-0.4,17.3l17.2,0.4L280.2,198.9z"/>
<path class="st8" d="M266,203.5c0.5,2,1.5,10.6,5.8,8.2c1-0.5,1.8-2,2.6-2.8l4-4.5l8-9c0.7-0.8-2.3-2.7-3.2-1.7l-7.1,8l-3.5,4
	c-0.8,0.9-2.7,3.9-3.9,4.2l2,0.6c0.5,0.4-0.4-2.3-0.4-2.4c-0.3-1.3-0.7-2.5-1-3.8C268.9,203.2,265.6,202,266,203.5L266,203.5z"/>
<path class="st5" d="M331.3,230.9l-28.9-0.7l-0.1,5.6l28.9,0.7L331.3,230.9z"/>
<path class="st6" d="M375,244.2l-72.8-1.7l-0.1,5.6c28.2,0.7,64.1,2,71.4,0.9C374.5,247.7,375.1,246.2,375,244.2z"/>
<path class="st7" d="M279.7,230l-17.2-0.4l-0.4,17.3l17.2,0.4L279.7,230z"/>
<path class="st8" d="M265.3,234.4c0.5,2,1.5,10.6,5.8,8.2c1-0.5,1.8-2,2.6-2.8l4-4.5l8-9c0.7-0.8-2.3-2.7-3.2-1.7l-7.1,8l-3.5,4
	c-0.8,0.9-2.7,3.9-3.9,4.2l2,0.6c0.5,0.4-0.4-2.3-0.4-2.4c-0.3-1.3-0.7-2.5-1-3.8C268.2,234.1,264.9,232.9,265.3,234.4L265.3,234.4z
	"/>
<path class="st8" d="M357.6,45.3v17.2h-69.1V45.3c0-1.3,0.3-2.6,0.8-3.8c0.5-1.2,1.2-2.3,2.2-3.2c0.2-0.2,0.5-0.4,0.7-0.6
	c1.8-1.5,4-2.3,6.3-2.3c1.8,0,3.5-0.4,5.1-1.2c0.7-0.3,1.3-0.7,1.9-1.2c2-1.5,3.5-3.6,4.2-6c0.7-2.4,2.2-4.5,4.2-6
	c2-1.5,4.5-2.3,7-2.3h4.3c2.5,0,5,0.8,7,2.3c2,1.5,3.5,3.6,4.2,6c0.7,2.4,2.2,4.5,4.2,6c0.6,0.4,1.2,0.8,1.9,1.2
	c1.6,0.8,3.3,1.2,5.1,1.2c2.6,0,5.2,1.1,7,2.9C356.6,40.2,357.6,42.7,357.6,45.3z"/>
<path class="st3" d="M363.2,54.1v12.8h-80.4V54.1h5.6v8.5h69.1v-8.5H363.2z"/>
<path class="st4" d="M323,34.9c3.4,0,6.1-2.6,6.1-5.8c0-3.2-2.7-5.8-6.1-5.8c-3.4,0-6.1,2.6-6.1,5.8C316.9,32.3,319.7,34.9,323,34.9
	z"/>
<path class="st9" d="M190.5,109.7c-2.5-0.5-4.7-4.6-5.5-6.1c-0.2-0.4-0.3-0.8-0.2-1.2l1-5.2c0,0,2.3,0.4,2.1,3.4
	c0,0.3,0,0.6,0.2,0.9l0.9,2.3l2.5-2l-1.4-4c0,0-1.9,0.5-2.8,0.2c-2-0.6,0.6-2.2,1.4-2.4c0.8-0.2,2.6-0.8,3.5,0.6
	c0.8,1.4,1.3,2.2,1.3,2.2s0.9-3.1,0.3-10.1c0-0.3,0.8-0.3,1-0.1c0.7,0.7,1.7,2.7,1.8,9c0,0,0.1-7.3,1.4-8c1-0.6,1.5,2.9,0.8,9
	c0,0,1.3-5.2,2.3-5.2c1.6,0,0,14-4.1,18.1L190.5,109.7z"/>
<path class="st9" d="M198.2,107.5c-0.1,0.7-0.2,1.4-0.2,2c-0.2,2.1-0.6,4.1-1.1,6.2c0,0.1,0,0.2-0.1,0.2c-1.2,5.1-1.5,7.6-5.7,6.9
	l-4.3-5l0-0.1l-0.3-0.4l0.9-2.6l0.1-0.3l0.7-1.9l0.1-0.2l1.1-3.3l0.4-1.3L198.2,107.5z"/>
<path class="st10" d="M117.4,288l-1.1,3.5c-7.6,2.5-12,5.4-12.3,8.7h22l1.8-11.6C123.3,289.6,119.7,288.9,117.4,288z"/>
<path class="st9" d="M120.1,279.4l-2.8,8.6c2.3,0.9,5.9,1.6,10.3,0.6l1.1-7.5L120.1,279.4z"/>
<path class="st9" d="M157.7,287.6l0.6-8.8l-10.3,0.5l-0.6,8.1C151.8,288.9,155.4,288.3,157.7,287.6z"/>
<path class="st10" d="M170.1,300.1c-0.3-3.3-4.2-7.9-12.7-9l0.3-3.5c-2.3,0.7-5.9,1.3-10.2-0.1l-0.9,12.7L170.1,300.1z"/>
<path class="st9" d="M149.3,111.9l-12.4,0.1V93.2H149l0,1.2l0.1,6l0.1,9.6L149.3,111.9z"/>
<path class="st11" d="M149,101.2c-2.2,2.4-8.1-0.3-10.5-2.9l10.5-3.1L149,101.2z"/>
<path class="st9" d="M151.9,88.8c0,1.4-0.1,2.8-0.3,4.2c-0.6,3.8-2.2,7.1-5.9,7.2c-8.8,0.3-11.3-4.8-12.9-8.9c-1.7-4.1,1-14,1-14
	l11.3-1.1l6.2,5.1C151.7,83.9,151.9,86.3,151.9,88.8z"/>
<path class="st12" d="M133.1,89c0,0,2.5-0.1,2.9-6.6c4.5,1.5,7.7,0.1,10.3-2.8c2.2,2.9,8.4,3.8,10.5-2.1c1.5-4.3-2.6-10.7-8.7-6.9
	c-5.9-3-15-2.8-17.6,4.6c0,0-9,4.2,0.5,13.3C131.3,88.7,133.1,89,133.1,89z"/>
<path class="st10" d="M167.6,179.6l-6.9,104.1h-16.2l4-101l2.5-1.1L167.6,179.6z"/>
<path class="st10" d="M125.5,165.4l-11.3,118.3h17.6l16.8-98.3l19.1-5.8l0.8-21l-42.5-1L125.5,165.4z"/>
<path class="st13" d="M128,165.6c9.6,3.5,32.2-0.5,36.9-5.3l-3.3-6.7l-37.1,4.9L128,165.6z"/>
<path class="st4" d="M164,158.7c-0.3,0.1-0.6,0.3-1,0.4c-3.9,1.6-7.9,2.8-12.1,3.6c-2.7,0.5-5.4,0.9-8.1,1c-4.3,0.2-8.5-0.1-12.7-1
	l5.4-50.3l0.7-6.1c0,0,7.1,8.7,14.8-0.9L164,158.7z"/>
<path class="st14" d="M142.9,163.7c-4.3,0.2-8.5-0.1-12.7-1l5.4-50.3l1.9-2.8C142.3,121.2,147.2,146.8,142.9,163.7z"/>
<path class="st2" d="M136.9,104.2c5.4,22.8,7.6,46.2-0.3,72.3c-5.9,2.2-12.2,2.2-19.1,0.2l1.7-47.3l-39.8,27.3L77,141.8
	C92.3,127.2,118.7,105.1,136.9,104.2z"/>
<path class="st14" d="M163,159.1c-3.9,1.6-7.9,2.8-12.1,3.6c-2.4-13.8-2.9-36.3-1-46.5L163,159.1z"/>
<path class="st15" d="M196.9,115.7c0,0.1,0,0.2-0.1,0.2c-1.2,5.1-1.5,7.6-5.7,6.9l-4.3-5l0-0.1l0.6-3l0.1-0.3l0.7-1.9l0.1-0.2
	L196.9,115.7z"/>
<path class="st2" d="M196.2,120.3c0,0-10.7,22.6-17,23.2c-6.1,0.5-9-5.4-9-5.4l4.3,33.1c-5.1,2.4-10.7,3.6-17.1,2.4
	c-5.7-18.7-7.9-42.8-8.3-69.6c4.6,0.3,13.9,0.7,17.1,2.8c5.9,3.8,13.2,17.4,13.2,17.4l8.5-11.6L196.2,120.3z"/>
<path class="st16" d="M66,88.4c0,0,0.6-10.8,1.7-10.3c1.1,0.5,3.3,9.9,3.3,9.9l-2.4,3.8L66,88.4z"/>
<path class="st8" d="M98.5,284l0.3,3.6c0.3,3-0.7,6-2.6,8.4c-1.9,2.3-4.7,3.8-7.8,4.1l-0.9,0.1c-1.5,0.1-3,0-4.4-0.5
	c-1.4-0.4-2.8-1.2-3.9-2.1c-1.2-1-2.1-2.1-2.8-3.5c-0.7-1.3-1.1-2.8-1.3-4.3l-0.3-3.6L98.5,284z"/>
<path class="st17" d="M83,111.4l-23.7,2.1l15.5,172.6l23.7-2.1L83,111.4z"/>
<path class="st18" d="M75,108.7l-8.4,0.8l13.6,151.3l8.4-0.8L75,108.7z"/>
<path class="st12" d="M98.5,284l-23.7,2.1l-0.6-7l-0.4-4.8l-1.3-14.9l23.7-2.1l1.3,14.9l0.4,4.8L98.5,284z"/>
<path class="st17" d="M97.4,272.2l-23.7,2.1l0.4,4.8l23.7-2.1L97.4,272.2z"/>
<path class="st8" d="M59.3,113.6l6.6-26.4c0,0,2.3,1,5-0.7l12.1,25L59.3,113.6z"/>
<path class="st9" d="M134.4,88c-0.1-0.4-1.9-0.9-2.3-1c-0.6-0.2-1.3-0.2-1.8,0c-2.1,1-1.9,4-0.7,5.6c0.6,0.9,1.5,1.6,2.6,1.9
	c0.4,0.1,4.1,0.2,3.9-0.4L134.4,88z"/>
<path class="st9" d="M67.1,149.5c-0.1-0.4-0.3-0.8-0.6-1.1c-0.3-0.3-0.6-0.6-1-0.8c-0.4-0.2-0.8-0.3-1.2-0.3c-0.4,0-0.9,0-1.3,0.2
	c-2.7,0.9-5,2.5-5.4,5.2c-0.3,2.4,0.9,10.3,6.4,11.3l-0.4-4c0,0,3.3-0.8,4-2.2C68,156.6,68,152.3,67.1,149.5z"/>
<path class="st19" d="M168.4,122.6c0.3,1.7,0.5,3.4,0.8,5.1c0.2,1.7,0.4,3.4,0.7,5.2l0.6,5.2c0.2,1.7,0.3,3.4,0.4,5.2l-0.3,0
	c-0.3-1.7-0.5-3.4-0.8-5.1l-0.6-5.2c-0.2-1.7-0.4-3.4-0.5-5.2c-0.2-1.7-0.3-3.5-0.4-5.2L168.4,122.6z"/>
<path class="st19" d="M119.7,122.3c0,1.9-0.1,3.8-0.1,5.8c-0.1,1.9-0.1,3.8-0.2,5.8l-0.3,5.7c-0.1,1.9-0.3,3.8-0.4,5.7l-0.3,0
	c0-1.9,0-3.8,0.1-5.8l0.2-5.8c0.1-1.9,0.2-3.8,0.3-5.7c0.1-1.9,0.3-3.8,0.4-5.7L119.7,122.3z"/>
<path class="st20" d="M151.9,88.4c0,1.6-0.1,3.2-0.4,4.7c-0.4-0.1-0.8-0.4-1.1-0.8s-0.4-0.8-0.4-1.3
	C150.1,89.9,150.9,88.5,151.9,88.4z"/>
<path class="st11" d="M132.9,90.3c-0.4-0.3-0.9-0.6-1.3-0.9c-0.2-0.1-0.4-0.2-0.6-0.1c-0.2,0-0.4,0.1-0.6,0.3l-0.2-0.2
	c0-0.2,0.1-0.3,0.3-0.5c0.1-0.1,0.3-0.2,0.4-0.3c0.2-0.1,0.4-0.1,0.5,0s0.4,0.1,0.5,0.2c0.5,0.3,1,0.8,1.2,1.3L132.9,90.3z"/>
<path class="st21" d="M67.5,157.6l-3.4,10.2l-0.7-8C65.6,159.4,66.7,158.5,67.5,157.6z"/>
<path class="st22" d="M12,300.2h468"/>
</svg>
