<svg width="356" height="337" viewBox="0 0 356 337" fill="none" xmlns="http://www.w3.org/2000/svg">
<g clip-path="url(#clip0_158_60)">
<path d="M185.474 323.26C265.265 323.26 329.948 258.731 329.948 179.13C329.948 99.5293 265.265 35 185.474 35C105.683 35 41 99.5293 41 179.13C41 258.731 105.683 323.26 185.474 323.26Z" fill="#61D2E7"/>
<path d="M355.992 329.279C355.992 329.387 276.298 329.479 178.008 329.479C79.7171 329.479 0 329.387 0 329.279C0 329.172 79.6789 329.08 178.008 329.08C276.336 329.08 355.992 329.164 355.992 329.279Z" fill="#263238"/>
<path d="M233.881 329.279H132.393C120.153 329.226 110.155 318.765 110.209 306.501L111.287 50.8673C111.298 47.9497 111.882 45.0628 113.006 42.3718C114.13 39.6808 115.771 37.2384 117.837 35.1842C119.902 33.13 122.351 31.5044 125.042 30.4002C127.734 29.296 130.617 28.735 133.525 28.7491L235.166 29.2249C238.072 29.238 240.947 29.8252 243.627 30.9531C246.307 32.081 248.74 33.7274 250.786 35.7984C252.831 37.8694 254.45 40.3244 255.551 43.0231C256.651 45.7219 257.21 48.6117 257.197 51.5274L256.118 307.161C256.107 310.079 255.523 312.966 254.399 315.657C253.276 318.348 251.634 320.79 249.569 322.844C247.504 324.898 245.055 326.524 242.363 327.628C239.671 328.732 236.789 329.293 233.881 329.279Z" fill="#263238"/>
<path d="M235.021 38.0354L215.315 37.9433C214.017 37.9675 212.782 38.5071 211.88 39.4436C210.978 40.3802 210.483 41.6373 210.503 42.9395V46.5235C210.516 47.1686 210.401 47.8097 210.166 48.4103C209.931 49.0109 209.581 49.5592 209.135 50.0239C208.688 50.4886 208.156 50.8605 207.566 51.1185C206.977 51.3764 206.342 51.5154 205.699 51.5274L167.26 51.3509C165.963 51.3167 164.732 50.7672 163.838 49.8232C162.945 48.8792 162.461 47.6178 162.494 46.3163V42.7246C162.527 41.4224 162.044 40.1602 161.15 39.2149C160.257 38.2697 159.026 37.7185 157.728 37.6824H150.798L133.601 37.5749C131.565 37.5648 129.546 37.9575 127.661 38.7306C125.776 39.5036 124.061 40.6418 122.615 42.0802C121.168 43.5185 120.018 45.2287 119.231 47.1131C118.444 48.9975 118.035 51.0191 118.027 53.0623L116.956 302.579C116.939 306.705 118.556 310.668 121.451 313.597C124.345 316.527 128.281 318.185 132.393 318.205L233.82 318.673C237.933 318.691 241.885 317.07 244.807 314.166C247.729 311.262 249.382 307.312 249.402 303.186L250.45 53.6686C250.461 51.6254 250.071 49.6001 249.301 47.7083C248.531 45.8166 247.398 44.0956 245.965 42.6438C244.532 41.1919 242.828 40.0376 240.95 39.2468C239.072 38.4561 237.057 38.0444 235.021 38.0354Z" fill="#FAFAFA"/>
<path d="M146.858 63.5381C144.336 63.7359 141.806 63.8025 139.277 63.7377C136.749 63.8023 134.218 63.7357 131.697 63.5381C134.218 63.3359 136.749 63.2693 139.277 63.3386C141.806 63.2691 144.337 63.3357 146.858 63.5381Z" fill="#263238"/>
<path d="M146.858 60.6602C144.337 60.8626 141.806 60.9292 139.277 60.8597C136.749 60.929 134.218 60.8624 131.697 60.6602C134.218 60.4626 136.749 60.396 139.277 60.4606C141.806 60.3958 144.336 60.4624 146.858 60.6602Z" fill="#263238"/>
<path d="M146.858 57.7898C144.336 57.9876 141.806 58.0542 139.277 57.9894C136.749 58.054 134.218 57.9874 131.697 57.7898C134.218 57.5922 136.749 57.5256 139.277 57.5903C141.806 57.5254 144.336 57.592 146.858 57.7898Z" fill="#263238"/>
<path d="M233.98 278.028H133.433C132.073 278.028 130.97 279.135 130.97 280.499V299.763C130.97 301.128 132.073 302.234 133.433 302.234H233.98C235.341 302.234 236.443 301.128 236.443 299.763V280.499C236.443 279.135 235.341 278.028 233.98 278.028Z" fill="#6093CB"/>
<path d="M171.636 294H172.788L169.776 285.684H168.516L165.492 294H166.644L167.316 292.14H170.964L171.636 294ZM170.652 291.252H167.628L169.14 287.028L170.652 291.252ZM173.698 290.688C173.698 292.728 175.054 294.108 176.818 294.108C178.018 294.108 178.87 293.472 179.266 292.764V294.144C179.266 295.548 178.39 296.292 177.226 296.292C176.146 296.292 175.366 295.752 175.126 294.96H174.046C174.262 296.364 175.498 297.24 177.226 297.24C179.158 297.24 180.37 295.956 180.37 294.144V287.424H179.266V288.624C178.882 287.916 178.018 287.316 176.818 287.316C175.054 287.316 173.698 288.636 173.698 290.688ZM179.266 290.7C179.266 292.248 178.234 293.148 177.034 293.148C175.834 293.148 174.814 292.236 174.814 290.688C174.814 289.14 175.834 288.264 177.034 288.264C178.234 288.264 179.266 289.176 179.266 290.7ZM183.307 290.424C183.307 288.9 184.099 288.432 185.143 288.432H185.431V287.304C184.387 287.304 183.679 287.76 183.307 288.492V287.424H182.215V294H183.307V290.424ZM189.488 288.24C190.616 288.24 191.576 288.948 191.564 290.232H187.412C187.532 288.948 188.42 288.24 189.488 288.24ZM192.56 291.972H191.384C191.144 292.68 190.52 293.184 189.536 293.184C188.42 293.184 187.484 292.452 187.4 291.12H192.656C192.68 290.892 192.692 290.7 192.692 290.46C192.692 288.66 191.444 287.316 189.536 287.316C187.616 287.316 186.284 288.624 186.284 290.7C186.284 292.788 187.664 294.108 189.536 294.108C191.168 294.108 192.224 293.172 192.56 291.972ZM193.725 290.688C193.725 292.728 195.081 294.108 196.845 294.108C198.045 294.108 198.897 293.472 199.293 292.764V294.144C199.293 295.548 198.417 296.292 197.253 296.292C196.173 296.292 195.393 295.752 195.153 294.96H194.073C194.289 296.364 195.525 297.24 197.253 297.24C199.185 297.24 200.397 295.956 200.397 294.144V287.424H199.293V288.624C198.909 287.916 198.045 287.316 196.845 287.316C195.081 287.316 193.725 288.636 193.725 290.688ZM199.293 290.7C199.293 292.248 198.261 293.148 197.061 293.148C195.861 293.148 194.841 292.236 194.841 290.688C194.841 289.14 195.861 288.264 197.061 288.264C198.261 288.264 199.293 289.176 199.293 290.7ZM201.834 290.688C201.834 292.728 203.19 294.108 204.942 294.108C206.154 294.108 207.006 293.484 207.402 292.776V294H208.506V287.424H207.402V288.624C207.018 287.94 206.178 287.316 204.954 287.316C203.19 287.316 201.834 288.636 201.834 290.688ZM207.402 290.7C207.402 292.248 206.37 293.148 205.17 293.148C203.97 293.148 202.95 292.236 202.95 290.688C202.95 289.14 203.97 288.264 205.17 288.264C206.37 288.264 207.402 289.176 207.402 290.7ZM211.444 290.424C211.444 288.9 212.236 288.432 213.28 288.432H213.568V287.304C212.524 287.304 211.816 287.76 211.444 288.492V287.424H210.352V294H211.444V290.424Z" fill="white"/>
<g opacity="0.3">
<path opacity="0.3" d="M154.982 282.94H144.823C143.505 282.94 142.437 284.012 142.437 285.334V295.526C142.437 296.849 143.505 297.921 144.823 297.921H154.982C156.3 297.921 157.369 296.849 157.369 295.526V285.334C157.369 284.012 156.3 282.94 154.982 282.94Z" fill="black"/>
</g>
<path d="M149.903 294.774C149.801 294.774 149.704 294.734 149.632 294.662C149.561 294.59 149.52 294.492 149.52 294.391V286.47C149.52 286.369 149.561 286.271 149.632 286.199C149.704 286.127 149.801 286.087 149.903 286.087C150.004 286.087 150.102 286.127 150.173 286.199C150.245 286.271 150.285 286.369 150.285 286.47V294.368C150.288 294.42 150.281 294.472 150.263 294.521C150.245 294.571 150.218 294.616 150.182 294.654C150.146 294.692 150.103 294.722 150.055 294.743C150.007 294.764 149.955 294.774 149.903 294.774Z" fill="white"/>
<path d="M153.781 290.814H146.024C145.923 290.814 145.826 290.774 145.754 290.702C145.682 290.63 145.642 290.532 145.642 290.43C145.642 290.329 145.682 290.231 145.754 290.159C145.826 290.087 145.923 290.047 146.024 290.047H153.781C153.883 290.047 153.98 290.087 154.052 290.159C154.123 290.231 154.164 290.329 154.164 290.43C154.164 290.532 154.123 290.63 154.052 290.702C153.98 290.774 153.883 290.814 153.781 290.814Z" fill="white"/>
<path d="M139.385 231.988L140.685 234.628L143.592 235.05L141.488 237.107L141.985 240.016L139.385 238.642L136.784 240.016L137.281 237.107L135.177 235.05L138.084 234.628L139.385 231.988Z" fill="#FFBC00"/>
<path d="M150.109 231.988L151.41 234.628L154.317 235.05L152.213 237.107L152.71 240.016L150.109 238.642L147.516 240.016L148.006 237.107L145.91 235.05L148.809 234.628L150.109 231.988Z" fill="#FFBC00"/>
<path d="M160.834 231.988L162.135 234.628L165.042 235.05L162.938 237.107L163.435 240.016L160.834 238.642L158.241 240.016L158.738 237.107L156.635 235.05L159.541 234.628L160.834 231.988Z" fill="#FFBC00"/>
<path d="M171.567 231.988L172.859 234.628L175.766 235.05L173.663 237.107L174.16 240.016L171.567 238.642L168.966 240.016L169.463 237.107L167.359 235.05L170.266 234.628L171.567 231.988Z" fill="#FFBC00"/>
<path d="M182.292 231.988L183.592 234.628L186.491 235.05L184.395 237.107L184.885 240.016L182.292 238.642L179.691 240.016L180.188 237.107L178.084 235.05L180.991 234.628L182.292 231.988Z" fill="#C3D4FC"/>
<path d="M139.509 112.115L227.741 111.975C230.363 111.971 232.5 114.102 232.504 116.744L232.635 200.051C232.639 202.693 230.508 204.83 227.887 204.834L139.654 204.974C137.033 204.978 134.895 202.847 134.891 200.205L134.761 116.898C134.757 114.256 136.887 112.119 139.509 112.115Z" stroke="#C3D4FC" stroke-width="3"/>
<path d="M169.68 168.493L167.967 168.495L167.99 183.591L169.704 183.589L169.68 168.493Z" fill="#263238"/>
<path d="M175.7 168.506L173.987 168.509L173.999 176.214L175.712 176.212L175.7 168.506Z" fill="#263238"/>
<path d="M192.95 168.464L191.237 168.466L191.249 176.172L192.962 176.169L192.95 168.464Z" fill="#263238"/>
<path d="M200.562 168.459L198.848 168.462L198.872 183.558L200.585 183.555L200.562 168.459Z" fill="#263238"/>
<path d="M163.16 152.686L168.025 169.271L200.559 169.218L205.661 153.293C205.661 153.293 202.242 152.211 200.069 152.679L199.427 135.027C199.412 134.632 199.301 134.246 199.104 133.903C198.907 133.56 198.63 133.27 198.296 133.059C197.962 132.848 197.582 132.722 197.188 132.692C196.795 132.662 196.4 132.728 196.038 132.886L192.886 134.275H174.527L172.416 133.216C172.05 133.032 171.643 132.945 171.234 132.964C170.826 132.983 170.429 133.107 170.081 133.324C169.734 133.542 169.448 133.845 169.252 134.205C169.055 134.565 168.954 134.97 168.958 135.38L169.111 152.848C167.162 152.361 165.132 152.306 163.16 152.686Z" fill="#FF5050"/>
<path d="M174.841 159.655C174.711 159.655 174.596 154.006 174.588 147.03C174.581 140.054 174.672 134.406 174.802 134.406C174.932 134.406 175.047 140.062 175.055 147.03C175.062 153.999 174.971 159.655 174.841 159.655Z" fill="#263238"/>
<path d="M193.223 159.632C193.093 159.632 192.978 153.976 192.963 147.007C192.947 140.039 193.047 134.375 193.177 134.375C193.307 134.375 193.422 140.031 193.437 147C193.452 153.968 193.345 159.624 193.223 159.632Z" fill="#263238"/>
<path d="M200.046 152.679C199.773 152.792 199.488 152.877 199.197 152.932L198.738 153.055L198.21 153.254L197.598 153.492L196.948 153.845C195.869 154.466 194.982 155.375 194.386 156.47C193.657 157.888 193.351 159.487 193.506 161.075V161.313H193.269L184.571 161.351H174.825H174.619V161.152C174.584 159.678 174.187 158.236 173.464 156.954C172.911 155.956 172.183 155.066 171.314 154.329C170.53 153.701 169.675 153.168 168.767 152.74C169.031 152.791 169.288 152.873 169.532 152.986C170.225 153.282 170.875 153.669 171.467 154.137C172.39 154.868 173.169 155.766 173.762 156.785C174.546 158.107 174.983 159.607 175.032 161.144L174.825 160.937H184.571H193.269L193.062 161.175C192.907 159.497 193.253 157.811 194.057 156.332C194.699 155.197 195.652 154.27 196.803 153.661L197.484 153.323L198.126 153.109L198.669 152.932L199.144 152.84C199.438 152.756 199.741 152.702 200.046 152.679Z" fill="#263238"/>
<path d="M174.489 161.244C174.489 161.32 173.885 161.443 172.959 161.858C171.782 162.382 170.759 163.199 169.986 164.232C169.214 165.265 168.718 166.48 168.545 167.759C168.4 168.749 168.461 169.379 168.384 169.386C168.186 168.858 168.128 168.287 168.216 167.729C168.304 166.364 168.785 165.054 169.599 163.958C170.414 162.862 171.528 162.025 172.806 161.551C173.331 161.304 173.911 161.198 174.489 161.244Z" fill="#263238"/>
<path d="M200.215 169.563C200.138 169.563 200.123 168.865 199.848 167.798C199.51 166.408 198.849 165.119 197.918 164.035C196.987 162.952 195.813 162.106 194.493 161.566C193.483 161.144 192.795 161.029 192.81 160.952C193.427 160.91 194.045 161.012 194.615 161.251C196.03 161.741 197.288 162.6 198.262 163.739C199.235 164.879 199.888 166.259 200.153 167.736C200.314 168.332 200.335 168.957 200.215 169.563Z" fill="#263238"/>
<path d="M226.017 258.228H225.933H225.872C225.822 258.21 225.778 258.181 225.742 258.143L223.011 255.342C222.581 254.915 222.274 254.379 222.125 253.791C221.975 253.203 221.988 252.585 222.162 252.004C222.276 251.648 222.478 251.328 222.748 251.07C223.018 250.813 223.347 250.628 223.707 250.531C224.066 250.434 224.444 250.429 224.806 250.516C225.168 250.603 225.503 250.779 225.78 251.029C225.868 251.121 225.947 251.222 226.017 251.328C226.09 251.215 226.174 251.109 226.269 251.014C226.474 250.823 226.715 250.675 226.978 250.578C227.241 250.482 227.52 250.44 227.799 250.453C228.265 250.438 228.722 250.581 229.096 250.86C229.469 251.139 229.738 251.537 229.857 251.988C230.032 252.57 230.046 253.188 229.896 253.776C229.747 254.365 229.439 254.901 229.008 255.327L226.277 258.128C226.206 258.192 226.113 258.228 226.017 258.228ZM224.265 251.19C223.958 251.17 223.654 251.262 223.408 251.447C223.163 251.633 222.992 251.901 222.927 252.203C222.791 252.653 222.782 253.131 222.899 253.586C223.017 254.041 223.256 254.454 223.592 254.782L226.048 257.299L228.503 254.782C228.838 254.454 229.078 254.041 229.196 253.586C229.315 253.132 229.308 252.654 229.176 252.203C229.11 251.902 228.938 251.635 228.693 251.449C228.448 251.264 228.144 251.172 227.838 251.19C227.656 251.175 227.473 251.198 227.3 251.257C227.128 251.317 226.97 251.411 226.836 251.535C226.574 251.853 226.43 252.252 226.43 252.664C226.437 252.728 226.423 252.792 226.392 252.848C226.354 252.926 226.292 252.988 226.214 253.026C226.137 253.064 226.049 253.074 225.965 253.055C225.881 253.037 225.806 252.99 225.751 252.923C225.697 252.856 225.666 252.773 225.665 252.687V252.641C225.665 252.238 225.522 251.848 225.26 251.543C225.128 251.417 224.971 251.321 224.8 251.26C224.629 251.199 224.446 251.176 224.265 251.19Z" fill="#61D2E7"/>
<path d="M236.742 63.7991C235.788 63.9256 234.827 63.9769 233.865 63.9526C232.075 63.9526 229.582 64.0216 226.774 64.0216H226.583V63.8221C226.529 63.446 226.476 63.0546 226.422 62.6479C225.94 59.1866 225.543 56.1014 225.313 54.0984L225.451 54.2211C224.594 54.2412 223.737 54.1924 222.888 54.0753C223.738 53.9639 224.594 53.9177 225.451 53.9372H225.573V54.0677C225.902 56.0554 226.338 59.1329 226.843 62.5941C226.897 62.9932 226.95 63.3616 227.004 63.7684L226.782 63.5765C229.589 63.5765 232.083 63.5765 233.873 63.6456C234.832 63.6314 235.79 63.6826 236.742 63.7991Z" fill="#263238"/>
<path d="M226.491 61.7269C226.743 61.675 226.999 61.6518 227.256 61.6578L229.39 61.5888C231.211 61.5888 233.774 61.5274 236.742 61.512L236.535 61.6885C236.749 60.4453 236.979 59.1022 237.224 57.7131C237.354 56.9994 237.476 56.2933 237.591 55.6256L237.813 55.8865C234.363 55.8865 231.326 55.8865 229.146 55.8098L226.575 55.7484C226.262 55.7556 225.949 55.7273 225.642 55.664C225.949 55.6014 226.262 55.5756 226.575 55.5872L229.146 55.5182C231.326 55.5182 234.363 55.4491 237.813 55.4414H238.08L238.035 55.7023C237.912 56.3777 237.79 57.0761 237.667 57.7898C237.423 59.1789 237.178 60.522 236.956 61.7653V61.9495H236.772C233.804 61.9495 231.242 61.9111 229.421 61.8727L227.287 61.8113C227.019 61.8235 226.751 61.795 226.491 61.7269Z" fill="#263238"/>
<path d="M229.268 66.5159C229.199 66.5159 229.192 66.1245 228.779 65.8482C228.666 65.7759 228.538 65.7313 228.405 65.718C228.272 65.7046 228.138 65.7229 228.014 65.7714C227.848 65.813 227.701 65.9089 227.596 66.0437C227.492 66.1786 227.435 66.3448 227.435 66.5159C227.435 66.6869 227.492 66.8531 227.596 66.988C227.701 67.1229 227.848 67.2187 228.014 67.2603C228.138 67.3088 228.272 67.3271 228.405 67.3138C228.538 67.3004 228.666 67.2558 228.779 67.1836C229.192 66.9073 229.199 66.5005 229.268 66.5159C229.337 66.5312 229.337 66.608 229.322 66.7845C229.293 67.0395 229.167 67.2733 228.97 67.4368C228.819 67.5663 228.638 67.6541 228.444 67.6918C228.249 67.7295 228.048 67.7157 227.861 67.6517C227.611 67.5802 227.392 67.4292 227.236 67.2215C227.079 67.0138 226.995 66.7607 226.995 66.5005C226.995 66.2403 227.079 65.9872 227.236 65.7795C227.392 65.5718 227.611 65.4208 227.861 65.3493C228.048 65.2853 228.249 65.2715 228.444 65.3092C228.638 65.3469 228.819 65.4348 228.97 65.5642C229.167 65.7277 229.293 65.9616 229.322 66.2166C229.337 66.4314 229.299 66.5159 229.268 66.5159Z" fill="#263238"/>
<path d="M235.686 66.5159C235.61 66.5159 235.61 66.1245 235.197 65.8482C235.084 65.7765 234.956 65.7322 234.823 65.7189C234.69 65.7056 234.556 65.7235 234.432 65.7714C234.266 65.813 234.119 65.9089 234.015 66.0437C233.91 66.1786 233.853 66.3448 233.853 66.5159C233.853 66.6869 233.91 66.8531 234.015 66.988C234.119 67.1229 234.266 67.2187 234.432 67.2603C234.556 67.3082 234.69 67.3262 234.823 67.3128C234.956 67.2995 235.084 67.2552 235.197 67.1836C235.61 66.9073 235.61 66.5005 235.686 66.5159C235.763 66.5312 235.755 66.608 235.74 66.7845C235.711 67.0395 235.585 67.2733 235.388 67.4368C235.237 67.5663 235.056 67.6541 234.862 67.6918C234.667 67.7295 234.466 67.7157 234.279 67.6517C234.029 67.5802 233.81 67.4292 233.654 67.2215C233.498 67.0138 233.413 66.7607 233.413 66.5005C233.413 66.2403 233.498 65.9872 233.654 65.7795C233.81 65.5718 234.029 65.4208 234.279 65.3493C234.466 65.2853 234.667 65.2715 234.862 65.3092C235.056 65.3469 235.237 65.4348 235.388 65.5642C235.585 65.7277 235.711 65.9616 235.74 66.2166C235.755 66.4314 235.709 66.5159 235.686 66.5159Z" fill="#263238"/>
<path d="M242.318 55.05C242.318 55.8928 242.069 56.7166 241.602 57.4172C241.136 58.1178 240.472 58.6638 239.696 58.9859C238.92 59.3081 238.065 59.392 237.242 59.227C236.418 59.062 235.662 58.6556 235.068 58.0591C234.475 57.4627 234.071 56.703 233.908 55.8763C233.745 55.0495 233.83 54.1928 234.153 53.4147C234.475 52.6365 235.021 51.9718 235.72 51.5047C236.419 51.0376 237.24 50.7891 238.08 50.7906C238.638 50.7906 239.189 50.9008 239.704 51.115C240.219 51.3291 240.686 51.643 241.08 52.0386C241.473 52.4342 241.785 52.9038 241.998 53.4206C242.211 53.9373 242.319 54.491 242.318 55.05Z" fill="#61D2E7"/>
<path d="M238.471 53.3309V56.7691H237.989V53.7607H237.224V53.3309H238.471Z" fill="white"/>
<path d="M71.2873 261.328H61.1667V329.11H71.2873V261.328Z" fill="#455A64"/>
<path d="M130.748 253.178H53.9761V262.564H130.748V253.178Z" fill="#455A64"/>
<path d="M119.603 290.231H66.8198V299.617H119.603V290.231Z" fill="#455A64"/>
<path d="M124.667 261.328H114.546V329.11H124.667V261.328Z" fill="#455A64"/>
<path d="M130.702 262.426C130.702 262.533 113.498 262.625 92.278 262.625C71.0578 262.625 53.8461 262.533 53.8461 262.426C53.8461 262.318 71.0502 262.226 92.278 262.226C113.506 262.226 130.702 262.311 130.702 262.426Z" fill="#263238"/>
<path d="M114.523 307.069C114.416 307.069 114.324 302.395 114.324 296.632C114.324 290.868 114.416 286.194 114.523 286.194C114.63 286.194 114.722 290.868 114.722 296.632C114.722 302.395 114.63 307.069 114.523 307.069Z" fill="#263238"/>
<path d="M73.498 257.936C72.8242 258.34 72.0984 258.65 71.3408 258.857C69.3192 259.461 67.1662 259.461 65.1446 258.857H65.0375L65.1216 258.78C66.481 257.457 68.1056 256.439 69.8874 255.795C71.9486 255.041 74.1562 254.779 76.336 255.027C77.0434 255.117 77.742 255.265 78.4244 255.473C79.0986 255.64 79.74 255.92 80.3215 256.301C80.6118 256.494 80.8424 256.764 80.9871 257.082C81.1318 257.399 81.1848 257.751 81.14 258.097C81.0407 258.414 80.8653 258.702 80.6292 258.935C80.3931 259.167 80.1035 259.338 79.786 259.433C77.7017 260.158 75.5444 260.652 73.3527 260.906C71.8777 261.077 70.3924 261.141 68.9082 261.098C67.8602 261.098 67.2788 260.991 67.2788 260.991H67.6996L68.9082 261.029C70.3884 261.045 71.868 260.963 73.3374 260.783C75.5152 260.503 77.6567 259.989 79.7248 259.248C80.0204 259.166 80.2911 259.011 80.5127 258.799C80.7342 258.586 80.8998 258.321 80.9947 258.028C81.0314 257.71 80.9794 257.388 80.8443 257.098C80.7092 256.808 80.4964 256.562 80.2297 256.386C79.6627 256.012 79.0368 255.737 78.3785 255.572C77.7035 255.379 77.0159 255.233 76.3207 255.135C74.1671 254.883 71.9845 255.129 69.9409 255.856C68.1767 256.497 66.5643 257.498 65.2058 258.796V258.688C67.1972 259.295 69.3196 259.322 71.3255 258.765C71.8789 258.605 72.4207 258.408 72.9472 258.174L73.498 257.936Z" fill="#263238"/>
<path d="M52.5992 285.488L48.1853 320.085L63.2857 322.526L72.6489 287.384L52.5992 285.488Z" fill="#FFBE9D"/>
<path d="M48.6366 315.511L48.4378 316.501C48.4378 316.501 30.1321 320.338 29.3136 323.447L63.0792 329.103L64.7545 317.936C62.0501 318.702 59.2144 318.882 56.4355 318.463C53.6566 318.045 50.9982 317.039 48.6366 315.511Z" fill="#027273"/>
<g opacity="0.6">
<path opacity="0.6" d="M60.6543 320.914C60.9597 321.062 61.1976 321.322 61.3198 321.64C61.4419 321.957 61.4392 322.31 61.3121 322.625C61.1595 322.936 60.8969 323.178 60.5757 323.304C60.2545 323.431 59.8979 323.432 59.5757 323.308C59.3907 323.252 59.2204 323.156 59.0768 323.026C58.9332 322.896 58.8199 322.736 58.745 322.557C58.67 322.379 58.6352 322.186 58.6431 321.992C58.6509 321.798 58.7012 321.608 58.7904 321.436C58.8795 321.264 59.0054 321.114 59.159 320.996C59.3126 320.879 59.4901 320.796 59.679 320.755C59.8679 320.714 60.0635 320.715 60.2519 320.759C60.4403 320.802 60.6168 320.887 60.769 321.006" fill="white"/>
</g>
<g opacity="0.6">
<path opacity="0.6" d="M63.0945 329.103L63.4922 326.417L30.9812 321.996C30.9812 321.996 29.3595 322.395 29.3289 323.462L63.0945 329.103Z" fill="white"/>
</g>
<path d="M73.6281 285.864L76.0836 316.087L89.9065 314.076L90.8398 284.391L73.6281 285.864Z" fill="#FFBE9D"/>
<path d="M89.9524 308.105C89.9524 308.105 80.6734 315.619 75.5022 310.1L74.4772 313.04L70.4152 333.761C70.2752 334.415 70.3824 335.097 70.716 335.676C71.0497 336.255 71.5859 336.688 72.2205 336.893C72.7131 337.042 73.2377 337.05 73.7342 336.914C74.2308 336.778 74.6791 336.505 75.0279 336.125C78.7763 332.081 92.4845 317.153 92.2014 315.289L91.773 310.315C91.7288 309.805 91.531 309.321 91.2058 308.926C90.8806 308.531 90.4435 308.245 89.9524 308.105Z" fill="#027273"/>
<g opacity="0.6">
<path opacity="0.6" d="M72.7101 336.969L92.079 313.554L92.1555 314.644C92.3468 315.81 91.8572 316.317 91.337 317.115C89.8071 319.479 85.4774 324.836 75.1044 336.117C74.802 336.441 74.4269 336.687 74.0104 336.835C73.5938 336.983 73.148 337.029 72.7101 336.969Z" fill="white"/>
</g>
<g opacity="0.6">
<path opacity="0.6" d="M88.7668 310.546C88.4543 310.79 88.2485 311.147 88.1929 311.54C88.1372 311.934 88.236 312.334 88.4685 312.656C88.7219 312.966 89.0821 313.168 89.4774 313.223C89.8727 313.279 90.2744 313.183 90.6027 312.955C90.7961 312.843 90.9624 312.688 91.09 312.504C91.2175 312.319 91.3032 312.109 91.3409 311.888C91.3787 311.667 91.3676 311.44 91.3085 311.223C91.2493 311.007 91.1436 310.806 90.9987 310.635C90.8537 310.464 90.6732 310.327 90.4697 310.233C90.2663 310.14 90.0449 310.092 89.8211 310.094C89.5974 310.096 89.3767 310.147 89.1747 310.243C88.9727 310.34 88.7943 310.48 88.6521 310.653" fill="white"/>
</g>
<path d="M132.607 222.226C132.607 222.226 140.058 248.803 119.748 253.416L87.3592 253.738L67.8143 306.079L48.3153 304.713L55.4448 245.864C55.8563 242.272 57.3768 238.899 59.7937 236.217C62.2105 233.535 65.4027 231.678 68.9235 230.906L110.874 221.697L132.607 222.226Z" fill="#0D0D0D"/>
<path d="M71.7386 105.127C56.9747 102.587 55.6054 115.979 55.6743 119.824C55.7431 123.669 57.1048 127.061 58.4588 130.676C59.8127 134.29 58.9483 139.187 57.8162 142.855C56.4851 147.161 52.2549 151.105 53.7619 155.342C54.9552 158.665 59.3385 160.3 59.8816 163.784C60.31 166.554 58.0839 168.957 57.2654 171.635C55.7355 176.677 59.262 181.735 62.6202 185.818C63.9971 187.506 65.68 189.34 67.8296 189.371C70.8359 189.409 72.6183 186.148 73.9493 183.462C77.7197 175.998 83.2565 169.577 90.0748 164.759" fill="#263238"/>
<path d="M38.5467 187.053L29.8567 178.228C29.778 178.149 29.6802 178.092 29.5729 178.062C29.4657 178.032 29.3526 178.031 29.2447 178.059L19.1548 180.668C19.0473 180.696 18.949 180.752 18.8696 180.829C18.7902 180.907 18.7326 181.005 18.7024 181.112C18.6722 181.219 18.6706 181.332 18.6976 181.44C18.7246 181.548 18.7794 181.647 18.8565 181.727L35.548 199.202C35.548 199.202 48.0323 195.795 47.6651 195.626C47.2979 195.457 38.5467 187.053 38.5467 187.053Z" fill="#263238"/>
<path d="M26.6285 191.758L26.8197 191.274C26.9192 191.02 27.0963 190.804 27.3258 190.656C27.5552 190.509 27.8252 190.438 28.0972 190.453C30.132 190.561 34.7601 190.829 34.7524 190.99C34.8205 191.174 34.8472 191.371 34.8307 191.566C34.8141 191.761 34.7547 191.95 34.6568 192.119C34.5588 192.289 34.4246 192.435 34.264 192.546C34.1033 192.657 33.92 192.731 33.7274 192.763C32.3753 192.96 31.0021 192.96 29.6501 192.763L31.8073 195.227L32.5034 194.298C32.609 194.191 32.7375 194.109 32.8793 194.058C33.021 194.007 33.1724 193.99 33.3219 194.007L37.1468 194.467C37.1468 194.467 37.4834 195.964 36.3818 196.202C35.5406 196.345 34.6851 196.383 33.8345 196.317L33.3908 199.202L37.3916 202.272L35.9228 204.575L30.5681 201.865L29.7113 199.126C29.6188 198.81 29.6432 198.472 29.7801 198.174L30.0632 197.56L29.0458 196.854C28.8426 196.711 28.6837 196.513 28.5876 196.284C28.4915 196.055 28.4621 195.802 28.5026 195.557L28.6327 194.789L26.9421 193.254C26.7405 193.069 26.6018 192.825 26.5456 192.557C26.4893 192.288 26.5183 192.009 26.6285 191.758Z" fill="#FFBE9D"/>
<path d="M44.2763 199.74L41.6295 197.476L33.8039 196.347L33.3679 199.164L30.5911 201.842L41.1476 207.199L44.2763 199.74Z" fill="#FFBE9D"/>
<path d="M40.4668 187.69C41.0224 187.722 41.5692 187.541 41.9968 187.184L42.4251 186.823C42.7655 186.375 43.2266 186.034 43.754 185.841C44.2814 185.648 44.8529 185.611 45.4008 185.733L51.4135 188.074L57.9004 193.347L54.6875 201.505L43.5267 198.588C42.9378 198.435 42.3858 198.165 41.9034 197.793C41.4211 197.421 41.0183 196.956 40.7193 196.424L39.6483 194.513C39.6483 194.513 35.8235 193.032 36.1677 190.906L27.8525 189.179C27.7796 189.019 27.7417 188.846 27.7415 188.67C27.7412 188.494 27.7786 188.32 27.8512 188.16C27.9237 188 28.0296 187.857 28.1619 187.742C28.2941 187.626 28.4494 187.541 28.6175 187.491C29.6425 187.03 37.7741 187.499 40.4668 187.69Z" fill="#FFBE9D"/>
<path d="M42.2491 192.149C39.8152 191.846 37.3994 191.41 35.0125 190.845C32.5968 190.414 30.2066 189.85 27.8524 189.156C30.2865 189.455 32.7023 189.888 35.089 190.453C37.5044 190.889 39.8946 191.455 42.2491 192.149Z" fill="#EB996E"/>
<path d="M42.647 196.01C42.5781 196.102 41.9279 195.741 41.117 195.334C40.3062 194.928 39.5871 194.613 39.6559 194.505C39.7248 194.398 40.4209 194.544 41.3006 194.974C42.1803 195.403 42.7082 195.925 42.647 196.01Z" fill="#EB996E"/>
<path d="M34.9896 201.136C34.2718 200.562 33.6154 199.913 33.0313 199.202L32.9778 199.141V199.049C33.1078 198.335 33.2149 197.514 33.4291 196.624C33.4621 196.514 33.5162 196.413 33.5884 196.324C33.6606 196.236 33.7494 196.163 33.8498 196.109C34.03 196.036 34.2216 195.994 34.4159 195.987L35.3874 195.918C35.6877 195.891 35.9898 195.891 36.2901 195.918C36.5041 195.949 36.7222 195.9 36.9021 195.779C37.0139 195.658 37.0979 195.513 37.1482 195.355C37.1984 195.197 37.2136 195.03 37.1928 194.866C37.1928 194.621 37.1086 194.498 37.1316 194.482C37.1545 194.467 37.2845 194.575 37.3457 194.843C37.403 195.041 37.4092 195.251 37.3637 195.452C37.3182 195.654 37.2225 195.84 37.0857 195.994C36.856 196.182 36.5624 196.273 36.2671 196.248C35.9832 196.244 35.6993 196.262 35.418 196.301L34.4618 196.386C34.1023 196.386 33.8957 196.478 33.8039 196.769C33.6204 197.537 33.475 198.443 33.322 199.133L33.2761 198.98C33.9162 199.641 34.4902 200.363 34.9896 201.136Z" fill="#EB996E"/>
<path d="M29.0687 191.75C29.7419 192.756 34.041 192.901 34.4235 192.817C34.7711 192.742 35.1341 192.808 35.4332 193.001C35.5183 193.059 35.5862 193.14 35.6298 193.233C35.6733 193.327 35.6909 193.431 35.6808 193.533C35.6706 193.636 35.633 193.735 35.572 193.818C35.5109 193.901 35.4286 193.966 35.3338 194.007L31.4248 195.657L29.0687 191.75Z" fill="#FFBE9D"/>
<path d="M34.5842 194.191C34.5842 194.191 34.37 194.237 34.0181 194.245H33.3908L33.0236 194.291L32.8554 194.344H32.7942C32.7942 194.344 32.7942 194.398 32.7942 194.291V194.383C32.557 194.766 32.2816 195.196 31.968 195.641C31.3449 196.647 30.5708 197.551 29.6731 198.32C30.2602 197.304 30.9198 196.332 31.6467 195.411L32.5035 194.183V194.275C32.5071 194.229 32.5223 194.184 32.5477 194.145C32.5731 194.106 32.6079 194.074 32.6488 194.053L32.7865 193.984L33.0236 193.93C33.1612 193.922 33.2991 193.922 33.4367 193.93C33.6546 193.936 33.8718 193.956 34.0869 193.991C34.3853 194.083 34.5842 194.152 34.5842 194.191Z" fill="#EB996E"/>
<path d="M34.9208 192.794C33.7807 192.979 32.6232 193.033 31.4708 192.955C31.0481 192.911 30.6209 192.955 30.2163 193.086C29.9048 193.207 29.6378 193.421 29.4513 193.7C29.1147 194.198 28.9541 194.567 28.9005 194.544C28.9076 194.188 29.0165 193.842 29.2141 193.546C29.4018 193.189 29.7035 192.905 30.0709 192.74C30.5145 192.571 30.9911 192.508 31.4631 192.556C32.6209 192.505 33.7808 192.585 34.9208 192.794Z" fill="#EB996E"/>
<g opacity="0.3">
<path opacity="0.3" d="M88.8738 210.914C90.5032 211.083 92.9205 210.43 93.9991 209.195C95.179 208.006 96.1905 206.661 97.0054 205.196C98.4894 202.073 101.159 197.974 102.505 195.403C102.582 196.171 100.348 203.569 100.142 207.161C100.035 209.126 100.142 211.259 101.373 212.809C102.215 213.884 103.469 214.544 104.387 215.542C105.249 216.534 105.758 217.786 105.833 219.101C105.907 220.415 105.544 221.717 104.8 222.802C104.035 223.892 102.597 224.72 101.343 224.237C100.659 223.935 100.113 223.388 99.8128 222.702C99.5113 222.035 99.2558 221.347 99.0478 220.645C98.0197 217.669 96.0125 215.133 93.3565 213.454C91.9927 212.476 90.5725 211.579 89.1033 210.768" fill="black"/>
</g>
<path d="M40.5968 208.55L57.2348 214.129C60.1417 215.124 63.2645 215.301 66.2647 214.643C69.2649 213.984 72.0283 212.514 74.2553 210.392L80.1302 204.805L62.7502 200.093L53.4253 201.144L44.8194 198.373L40.5968 208.55Z" fill="#027273"/>
<path d="M120.696 198.726C117.851 195.41 116.4 191.115 116.65 186.746C116.65 186.47 116.696 186.194 116.719 185.918C117.79 175.941 119.717 159.778 115.908 151.727C113.406 146.439 97.8316 143.945 97.8316 143.945L79.8166 147.667L71.5397 154.95C70.2276 156.107 69.3591 157.687 69.0842 159.417L61.511 206.769L76.8103 205.672L77.996 191.927L79.7019 210.085C79.7019 210.085 94.2362 221.443 98.979 223.546C103.722 225.649 111.983 219.786 118.317 222.387C124.651 224.989 132.944 222.387 132.944 222.387C133.318 214.851 125.187 204.083 120.696 198.726Z" fill="#027273"/>
<path d="M106.766 149.494L83.6033 191.62L58.5812 192.057L54.328 202.802L86.6784 210.261C90.3732 210.898 93.2036 210.43 95.575 207.514L116.864 167.683C116.864 167.683 118.562 149.962 106.766 149.494Z" fill="#027273"/>
<g opacity="0.3">
<path opacity="0.3" d="M43.6796 201.136L50.3501 202.901C50.911 203.047 51.3962 203.4 51.7083 203.89C52.0205 204.38 52.1365 204.97 52.033 205.542C51.9775 205.848 51.9844 206.162 52.0534 206.465C52.1223 206.769 52.2519 207.055 52.4342 207.307C52.6165 207.559 52.8478 207.771 53.1141 207.93C53.3805 208.09 53.6763 208.194 53.9837 208.235C59.675 209.003 73.6586 210.929 73.9263 210.691C74.1941 210.453 76.6573 207.913 76.6573 207.913L54.3279 202.771L54.6874 201.482L44.6281 198.857L43.6796 201.136Z" fill="black"/>
</g>
<path d="M97.4108 217.207C93.7772 212.84 88.3307 209.532 82.6699 209.87C78.4473 210.1 73.0237 212.111 69.5125 214.114C59.5679 219.77 61.4115 232.656 61.4115 232.656L72.2281 300.899L92.2473 298.305L90.0595 232.702L101.167 224.199L97.4108 217.207Z" fill="#0D0D0D"/>
<path d="M96.6306 147.698C98.1605 146.163 97.2579 145.296 96.6918 143.784L85.944 111.551C81.2777 100.99 67.5848 107.268 67.5848 107.268C61.1209 109.647 60.2029 116.938 61.7022 121.919C63.3546 127.445 65.6036 134.129 67.7302 137.921C72.0063 145.549 78.585 144.275 78.585 144.275L81.3007 151.627C81.5246 152.235 81.8829 152.783 82.3486 153.232C82.8143 153.68 83.3754 154.017 83.9895 154.216C84.6036 154.416 85.2549 154.473 85.8942 154.383C86.5335 154.294 87.1442 154.06 87.6805 153.7L96.6306 147.698Z" fill="#FFBE9D"/>
<path d="M78.5697 144.298C82.3919 142.943 85.7652 140.552 88.3154 137.391C88.3154 137.391 87.7493 143.937 79.3806 146.186L78.5697 144.298Z" fill="#EB996E"/>
<path d="M101.779 145.027L107.034 146.209L106.766 144.313C106.159 138.879 103.623 133.845 99.6216 130.131C93.0123 124.214 101.97 121.927 96.2252 114.114C94.4316 111.498 92.151 109.254 89.5088 107.506C89.0306 107.203 88.5778 106.862 88.1548 106.485C87.1064 105.418 86.0007 104.408 84.8425 103.461C83.9361 102.777 82.8468 102.379 81.7138 102.318C81.0422 102.035 80.3382 101.836 79.6178 101.727C76.3973 101.236 73.1997 102.541 70.201 103.807C67.2024 105.073 59.4915 104.743 61.9623 112.748C62.113 112.365 62.3502 112.023 62.6553 111.748C62.9604 111.473 63.3251 111.273 63.7205 111.163C64.1158 111.054 64.5312 111.038 64.9336 111.117C65.3361 111.196 65.7147 111.368 66.0396 111.62C67.0619 112.367 67.747 113.49 67.9444 114.743C68.2963 116.608 68.8394 118.68 71.096 119.156C71.6456 119.275 72.2141 119.275 72.7637 119.156C74.6455 118.734 76.1525 115.879 79.7402 116.562C79.7402 116.562 83.2361 117.644 83.4426 119.847C83.6491 122.049 82.4252 126.148 84.5824 128.097C86.7396 130.046 87.0915 129.993 87.0379 131.673C87.0379 132.057 87.0379 132.326 87.0379 132.518C86.7626 135.181 87.2751 148.105 97.8699 143.976L101.817 145.05" fill="#263238"/>
<path d="M311.999 270.929C312.764 268.159 314.493 265.488 317.132 264.352C319.771 263.216 323.045 263.838 325.853 264.859C328.66 265.879 331.414 267.253 334.39 267.437C337.365 267.622 340.731 266.202 341.626 263.347C342.46 260.661 340.861 257.798 338.826 255.841C336.691 253.78 334.073 252.291 331.213 251.512C328.354 250.733 325.345 250.689 322.464 251.383C319.582 252.077 316.922 253.488 314.727 255.484C312.532 257.481 310.873 260 309.903 262.81" fill="#61D2E7"/>
<g opacity="0.5">
<path opacity="0.5" d="M311.999 270.929C312.764 268.159 314.493 265.488 317.132 264.352C319.771 263.216 323.045 263.838 325.853 264.859C328.66 265.879 331.414 267.253 334.39 267.437C337.365 267.622 340.731 266.202 341.626 263.347C342.46 260.661 340.861 257.798 338.826 255.841C336.691 253.78 334.073 252.291 331.213 251.512C328.354 250.733 325.345 250.689 322.464 251.383C319.582 252.077 316.922 253.488 314.727 255.484C312.532 257.481 310.873 260 309.903 262.81" fill="black"/>
</g>
<path d="M288.392 282.932C284.024 278.765 284.239 271.52 286.419 265.879C288.599 260.239 293.357 255.902 298.658 253.055C303.849 250.32 309.59 248.801 315.45 248.611C321.31 248.421 327.137 249.565 332.493 251.958C329.864 252.071 327.304 252.83 325.036 254.168C322.769 255.506 320.864 257.382 319.488 259.632C317.094 263.623 316.558 268.466 314.577 272.679C312.35 277.434 308.39 281.151 303.513 283.064C298.636 284.978 293.213 284.941 288.362 282.963" fill="#7BD68A"/>
<path d="M286.296 257.905C281.454 252.18 280.811 242.978 281.523 235.503C282.234 228.028 283.963 220.499 282.785 213.086C282.089 208.688 280.391 204.49 279.817 200.085C279.243 195.68 280.054 190.683 283.466 187.805C287.382 184.536 293.548 185.311 297.625 188.381C301.703 191.451 304.059 196.286 305.78 201.098C309.605 211.666 310.966 223.393 307.853 234.183C304.74 244.974 297.434 254.628 286.717 257.882" fill="#7BD68A"/>
<path d="M283.971 304.928C283.949 304.708 283.949 304.487 283.971 304.268C283.971 303.83 283.971 303.193 283.971 302.372C284.032 300.73 284.193 298.351 284.56 295.465C284.987 292.043 285.608 288.648 286.419 285.296C287.412 281.184 288.956 277.227 291.008 273.531C294.794 266.793 300.112 261.048 306.53 256.762C307.738 255.918 308.909 255.288 309.918 254.697C310.928 254.107 311.838 253.692 312.603 253.347L314.34 252.618C314.541 252.525 314.748 252.445 314.96 252.38C314.774 252.502 314.577 252.604 314.37 252.687L312.672 253.493C311.946 253.869 311.058 254.329 310.041 254.889C309.023 255.45 307.899 256.148 306.706 256.992C300.397 261.312 295.163 267.028 291.406 273.7C286.954 281.505 285.738 289.717 284.858 295.465C284.453 298.374 284.254 300.745 284.147 302.372C284.101 303.165 284.063 303.795 284.032 304.26C284.033 304.484 284.012 304.708 283.971 304.928Z" fill="#263238"/>
<path d="M242.227 235.273C233.269 240.691 233.299 245.626 234.799 250.277C236.298 254.928 241.783 258.166 246.342 256.417C248.912 255.434 250.779 253.186 252.378 250.929C253.976 248.673 255.438 246.255 257.732 244.636C260.027 243.017 263.21 242.395 265.451 244.007" fill="#61D2E7"/>
<g opacity="0.5">
<path opacity="0.5" d="M242.227 235.273C233.269 240.691 233.299 245.626 234.799 250.277C236.298 254.928 241.783 258.166 246.342 256.417C248.912 255.434 250.779 253.186 252.378 250.929C253.976 248.673 255.438 246.255 257.732 244.636C260.027 243.017 263.21 242.395 265.451 244.007" fill="black"/>
</g>
<path d="M235.533 241.244C237.874 237.997 243.657 237.061 247.306 238.681C250.955 240.3 253.632 243.508 256.027 246.716C258.421 249.924 260.754 253.301 264.066 255.534C267.379 257.767 272.014 258.604 275.327 256.301C276.381 255.514 277.263 254.519 277.921 253.378C278.579 252.236 278.997 250.972 279.151 249.663C279.445 247.041 279.269 244.387 278.631 241.827C277.866 238.059 276.551 234.153 273.544 231.735C270.194 229.064 265.55 228.941 261.305 229.08C256.401 229.241 251.421 229.609 246.824 231.313C242.227 233.017 237.522 236.685 235.571 241.221" fill="#7BD68A"/>
<path d="M276.528 297.729C276.517 297.665 276.517 297.601 276.528 297.537C276.528 297.384 276.528 297.192 276.528 296.954C276.528 296.417 276.482 295.672 276.451 294.728C276.398 292.756 276.313 289.962 276.214 286.524C276.115 283.086 275.969 278.949 275.717 274.375C275.464 269.801 275.128 264.782 274.432 259.555C274.14 257.01 273.647 254.493 272.955 252.027C272.24 249.753 271.321 247.549 270.209 245.442C269.211 243.53 268.051 241.707 266.744 239.993C265.599 238.503 264.335 237.109 262.965 235.826C260.967 233.97 258.71 232.419 256.264 231.221C255.828 231.021 255.445 230.822 255.101 230.684L254.229 230.346L253.693 230.123C253.571 230.077 253.51 230.047 253.517 230.039L253.709 230.085L254.26 230.269L255.147 230.576C255.499 230.699 255.912 230.891 256.333 231.083C258.824 232.227 261.126 233.749 263.156 235.595C264.54 236.88 265.819 238.274 266.981 239.763C268.308 241.485 269.485 243.318 270.5 245.242C271.636 247.365 272.57 249.59 273.292 251.889C274.01 254.372 274.522 256.911 274.822 259.479C275.518 264.728 275.847 269.763 276.076 274.337C276.306 278.911 276.421 283.032 276.489 286.493C276.558 289.955 276.589 292.764 276.596 294.698C276.596 295.642 276.596 296.386 276.596 296.931C276.596 297.169 276.596 297.361 276.596 297.514C276.59 297.59 276.566 297.663 276.528 297.729Z" fill="#263238"/>
<path d="M279.748 301.789C279.326 300.536 278.999 299.253 278.769 297.952C278.148 294.374 278.011 290.729 278.364 287.115C278.906 281.746 280.05 276.455 281.775 271.344C283.611 265.565 286.105 259.387 288.232 252.74C289.286 249.532 290.144 246.261 290.802 242.948C291.398 239.842 291.822 236.706 292.072 233.554C292.482 228.212 292.579 222.851 292.362 217.499C292.202 212.894 291.965 209.225 291.812 206.67C291.735 205.411 291.682 204.421 291.636 203.723C291.636 203.408 291.636 203.155 291.636 202.955C291.626 202.869 291.626 202.781 291.636 202.694C291.659 202.779 291.672 202.867 291.674 202.955C291.674 203.147 291.72 203.4 291.75 203.723C291.812 204.421 291.888 205.411 291.995 206.662C292.194 209.218 292.485 212.917 292.676 217.499C292.937 222.87 292.868 228.252 292.47 233.615C292.228 236.783 291.812 239.934 291.223 243.055C290.551 246.394 289.68 249.69 288.614 252.925C286.48 259.586 283.971 265.764 282.12 271.52C280.394 276.588 279.227 281.83 278.639 287.153C278.273 290.745 278.368 294.369 278.922 297.936C279.144 299.195 279.343 300.17 279.519 300.822L279.702 301.589C279.724 301.654 279.739 301.721 279.748 301.789Z" fill="#263238"/>
<path d="M301.947 305.849H259.913L258.949 297.737H301.947V305.849Z" fill="#EAA253"/>
<path d="M264.426 304.928L269.681 329.279H292.523L297.442 304.928H264.426Z" fill="#EAA253"/>
</g>
<defs>
<clipPath id="clip0_158_60">
<rect width="356" height="337" fill="white"/>
</clipPath>
</defs>
</svg>
