<svg width="356" height="329" viewBox="0 0 356 329" fill="none" xmlns="http://www.w3.org/2000/svg">
<g clip-path="url(#clip0_158_682)">
<path d="M185.474 323.26C265.265 323.26 329.948 258.731 329.948 179.13C329.948 99.5293 265.265 35 185.474 35C105.683 35 41 99.5293 41 179.13C41 258.731 105.683 323.26 185.474 323.26Z" fill="#61D2E7"/>
<path d="M126.278 226.956C131.807 239.127 140.288 283.969 128.103 289.524C115.917 295.078 87.6981 259.252 82.1472 247.06C80.7537 244.15 79.9541 240.992 79.7953 237.769C79.6365 234.547 80.1216 231.325 81.2223 228.292C82.323 225.26 84.0171 222.477 86.2055 220.107C88.3939 217.738 91.0327 215.829 93.9674 214.492C96.9022 213.155 100.074 212.417 103.297 212.322C106.52 212.226 109.73 212.775 112.739 213.935C115.747 215.096 118.495 216.845 120.819 219.081C123.144 221.317 125 223.994 126.278 226.956Z" fill="#5A9378"/>
<path d="M101.387 226.16C101.387 226.16 121.291 281.237 124.973 299.426" stroke="#326A6B" stroke-width="3" stroke-linecap="round" stroke-linejoin="round"/>
<path d="M84.1926 253.411C93.7574 258.743 121.059 284.124 115.729 293.684C110.399 303.243 74.4619 293.385 64.8639 288.052C62.5762 286.793 60.5598 285.094 58.9305 283.052C57.3012 281.011 56.0913 278.667 55.3701 276.156C54.649 273.645 54.4309 271.017 54.7284 268.421C55.0259 265.826 55.8331 263.315 57.1037 261.032C58.3742 258.75 60.083 256.741 62.1319 255.122C64.1808 253.503 66.5293 252.304 69.0425 251.596C71.5557 250.888 74.1841 250.684 76.7764 250.995C79.3688 251.306 81.8741 252.127 84.1484 253.411H84.1926Z" fill="#70C09D"/>
<path d="M66.7439 264.275C84.2746 272.196 99.6201 284.259 111.461 299.426" stroke="#326A6B" stroke-width="3" stroke-linecap="round" stroke-linejoin="round"/>
<path d="M243.168 328.812H0C0 328.812 20.4566 305.489 45.2035 316.442C45.2035 316.442 49.9583 288.351 72.8476 282.321C95.7368 276.291 106.783 289.623 106.783 289.623C106.783 289.623 114.081 278.194 126.134 283.593C126.134 283.593 132.161 265.183 148.659 261.377C165.157 257.571 179.111 269.619 177.84 281.369C177.84 281.369 203.217 278.515 206.07 305.81C206.026 305.81 230.761 299.426 243.168 328.812Z" fill="#7BD68A"/>
<path d="M188.168 299.592H115.265V328.989H188.168V299.592Z" fill="#EAA253"/>
<path d="M188.167 302.502L115.276 308.41V299.592H188.167V302.502Z" fill="#CE843A"/>
<path d="M190.81 293.164H112.622V300.422H190.81V293.164Z" fill="#EAA253"/>
<path d="M306.053 21.3868H188.09C176.114 21.3868 166.406 31.1007 166.406 43.0833V307.237C166.406 319.22 176.114 328.934 188.09 328.934H306.053C318.028 328.934 327.737 319.22 327.737 307.237V43.0833C327.737 31.1007 318.028 21.3868 306.053 21.3868Z" fill="#36353D"/>
<path d="M306.053 27.8039H188.101C179.661 27.8039 172.82 34.6497 172.82 43.0944V307.237C172.82 315.682 179.661 322.528 188.101 322.528H306.053C314.493 322.528 321.334 315.682 321.334 307.237V43.0944C321.334 34.6497 314.493 27.8039 306.053 27.8039Z" fill="white"/>
<path d="M309.094 0.0221252H188.488L150.439 34.4755H347.143L309.094 0.0221252Z" fill="#F1E3E0"/>
<path d="M165.168 56.0946C168.687 56.0946 172.062 54.6958 174.55 52.2059C177.039 49.716 178.437 46.339 178.437 42.8178V34.4423H150.373L152.02 44.8868C152.514 48.0177 154.111 50.8686 156.522 52.9241C158.933 54.9797 162 56.1043 165.168 56.0946Z" fill="#D62B04"/>
<path d="M220.677 56.0836C224.41 56.0836 227.991 54.5997 230.63 51.9583C233.27 49.3169 234.753 45.7345 234.753 41.9991V34.3981H206.59V41.9991C206.59 43.8496 206.954 45.682 207.662 47.3915C208.37 49.1011 209.408 50.6542 210.716 51.9622C212.025 53.2702 213.578 54.3075 215.287 55.0146C216.996 55.7218 218.828 56.085 220.677 56.0836Z" fill="#D62B04"/>
<path d="M192.535 56.1389C194.384 56.1389 196.214 55.7746 197.922 55.0668C199.63 54.3589 201.182 53.3215 202.489 52.0136C203.796 50.7058 204.833 49.1531 205.54 47.4443C206.248 45.7355 206.612 43.904 206.612 42.0544V34.4534H178.459V42.0544C178.459 45.7898 179.942 49.3723 182.582 52.0136C185.222 54.655 188.802 56.1389 192.535 56.1389Z" fill="#F1C5BC"/>
<path d="M248.819 56.0172C250.668 56.0186 252.5 55.6554 254.209 54.9482C255.918 54.2411 257.471 53.2038 258.779 51.8958C260.087 50.5878 261.125 49.0347 261.833 47.3251C262.541 45.6156 262.906 43.7832 262.906 41.9327V34.3317H234.742V41.9327C234.742 45.6681 236.225 49.2506 238.865 51.8919C241.505 54.5333 245.085 56.0172 248.819 56.0172Z" fill="#F1C5BC"/>
<path d="M304.903 56.1389C308.646 56.1477 312.239 54.6691 314.893 52.0281C317.547 49.387 319.045 45.7996 319.056 42.0544V34.4534H290.716V42.0544C290.722 43.9117 291.093 45.7496 291.81 47.463C292.526 49.1764 293.573 50.7317 294.891 52.0398C296.208 53.348 297.771 54.3834 299.489 55.0867C301.207 55.7901 303.047 56.1476 304.903 56.1389Z" fill="#F1C5BC"/>
<path d="M276.894 56.0836C280.628 56.0836 284.21 54.6 286.851 51.959C289.493 49.3179 290.978 45.7355 290.981 41.9991V34.3981H262.817V41.9991C262.817 45.7345 264.3 49.3169 266.94 51.9583C269.58 54.5997 273.16 56.0836 276.894 56.0836Z" fill="#D62B04"/>
<path d="M319.034 34.3981V42.7403C319.034 46.2616 320.432 49.6386 322.921 52.1285C325.409 54.6184 328.784 56.0172 332.304 56.0172C335.476 56.0256 338.547 54.8963 340.959 52.8341C343.371 50.7718 344.965 47.9131 345.451 44.7761L347.099 34.3317L319.034 34.3981Z" fill="#D62B04"/>
<path d="M309.094 0.0221252H307.468C303.311 0.0221252 292.452 0.210214 291.844 0.0221252L319.057 34.3981H347.11L309.094 0.0221252Z" fill="#F13005"/>
<path d="M257.377 0L262.818 34.3981H290.981L274.627 0H257.377Z" fill="#F13005"/>
<path d="M206.589 34.3981H234.753L240.182 0H222.933L206.589 34.3981Z" fill="#F13005"/>
<path d="M150.373 34.3981H178.536L205.749 0H188.499L150.373 34.3981Z" fill="#F13005"/>
<path d="M235.085 75.1911H192.712C187.9 75.1911 183.999 79.0945 183.999 83.9096V126.307C183.999 131.122 187.9 135.025 192.712 135.025H235.085C239.897 135.025 243.798 131.122 243.798 126.307V83.9096C243.798 79.0945 239.897 75.1911 235.085 75.1911Z" stroke="#C3D4FC" stroke-width="2" stroke-miterlimit="10"/>
<path d="M220.234 151.732H184.729V158.039H220.234V151.732Z" fill="#C3D4FC"/>
<path d="M220.234 159.831H184.729V161.623H220.234V159.831Z" fill="#C3D4FC"/>
<path d="M208.668 162.951H184.729V164.743H208.668V162.951Z" fill="#C3D4FC"/>
<path d="M188.93 146.211L186.243 147.163L186.321 144.308L184.585 142.051L187.327 141.243L188.93 138.887L190.545 141.243L193.276 142.051L191.54 144.308L191.617 147.163L188.93 146.211Z" fill="#FFBC00"/>
<path d="M201.414 146.211L198.727 147.163L198.805 144.308L197.069 142.051L199.8 141.243L201.414 138.887L203.029 141.243L205.76 142.051L204.024 144.308L204.101 147.163L201.414 146.211Z" fill="#FFBC00"/>
<path d="M213.899 146.211L211.212 147.163L211.289 144.308L209.553 142.051L212.284 141.243L213.899 138.887L215.513 141.243L218.244 142.051L216.508 144.308L216.586 147.163L213.899 146.211Z" fill="#C3D4FC"/>
<path d="M226.382 146.211L223.696 147.163L223.773 144.308L222.037 142.051L224.768 141.243L226.382 138.887L227.997 141.243L230.728 142.051L228.992 144.308L229.069 147.163L226.382 146.211Z" fill="#C3D4FC"/>
<path d="M238.856 146.211L236.18 147.163L236.257 144.308L234.51 142.051L237.252 141.243L238.856 138.887L240.47 141.243L243.212 142.051L241.465 144.308L241.543 147.163L238.856 146.211Z" fill="#C3D4FC"/>
<path d="M191.938 80.9334C191.938 80.4957 191.809 80.0679 191.565 79.704C191.322 79.3401 190.977 79.0565 190.573 78.889C190.169 78.7215 189.724 78.6777 189.295 78.7631C188.866 78.8485 188.472 79.0592 188.163 79.3687C187.854 79.6781 187.643 80.0724 187.558 80.5017C187.472 80.9309 187.516 81.3758 187.683 81.7802C187.851 82.1845 188.134 82.5301 188.498 82.7732C188.862 83.0164 189.289 83.1462 189.727 83.1462C190.119 83.141 190.502 83.026 190.832 82.8143L192.005 83.987L192.657 83.3232L191.551 82.2168C191.81 81.8393 191.945 81.3909 191.938 80.9334ZM188.488 80.9334C188.488 80.6839 188.562 80.44 188.701 80.2326C188.839 80.0252 189.036 79.8635 189.266 79.7681C189.497 79.6726 189.75 79.6476 189.995 79.6963C190.239 79.745 190.464 79.8651 190.64 80.0415C190.816 80.2179 190.937 80.4426 190.985 80.6873C191.034 80.932 191.009 81.1856 190.913 81.416C190.818 81.6465 190.656 81.8435 190.449 81.9821C190.242 82.1207 189.998 82.1947 189.749 82.1947C189.414 82.1947 189.094 82.0618 188.857 81.8252C188.621 81.5887 188.488 81.2679 188.488 80.9334Z" fill="#C3D4FC"/>
<path d="M209.265 129.715C209.748 129.715 210.139 129.323 210.139 128.841C210.139 128.358 209.748 127.967 209.265 127.967C208.783 127.967 208.392 128.358 208.392 128.841C208.392 129.323 208.783 129.715 209.265 129.715Z" fill="#C3D4FC"/>
<path d="M214.352 128.841C214.352 129.014 214.301 129.182 214.205 129.326C214.109 129.47 213.972 129.582 213.813 129.648C213.653 129.714 213.477 129.732 213.308 129.698C213.138 129.664 212.983 129.581 212.861 129.459C212.738 129.336 212.655 129.181 212.622 129.011C212.588 128.842 212.605 128.666 212.671 128.506C212.737 128.346 212.849 128.21 212.993 128.114C213.137 128.018 213.306 127.967 213.478 127.967C213.71 127.967 213.932 128.059 214.096 128.223C214.26 128.387 214.352 128.609 214.352 128.841Z" fill="#DCE5F7"/>
<path d="M217.691 129.715C218.174 129.715 218.565 129.323 218.565 128.841C218.565 128.358 218.174 127.967 217.691 127.967C217.209 127.967 216.818 128.358 216.818 128.841C216.818 129.323 217.209 129.715 217.691 129.715Z" fill="#DCE5F7"/>
<path d="M213.357 120.277C226.951 120.277 237.971 119.524 237.971 118.595C237.971 117.667 226.951 116.914 213.357 116.914C199.763 116.914 188.742 117.667 188.742 118.595C188.742 119.524 199.763 120.277 213.357 120.277Z" fill="#E6F5FF"/>
<path d="M204.997 105.031C202.786 100.937 204.997 99.0452 208.237 98.3924C211.477 97.7397 213.887 102.165 213.887 102.165L204.997 105.031Z" fill="#36353D"/>
<path d="M193.718 116.338C191.985 111.315 192.016 105.851 193.807 100.849C193.979 100.376 194.292 99.968 194.703 99.6791C195.114 99.3902 195.604 99.2346 196.107 99.2333H196.726C197.267 99.2339 197.792 99.4149 198.219 99.7475C198.645 100.08 198.949 100.545 199.081 101.07C199.216 101.606 199.501 102.093 199.903 102.473C200.304 102.853 200.806 103.111 201.348 103.216L205.285 103.991C205.81 104.095 206.353 104.053 206.856 103.869C207.359 103.686 207.802 103.368 208.138 102.951L209.243 101.645C209.74 101.034 210.437 100.62 211.211 100.476C211.985 100.332 212.785 100.468 213.467 100.86L226.825 108.605C227.093 108.762 227.384 108.878 227.687 108.947L230.927 109.733C231.431 109.853 231.905 110.077 232.317 110.391C232.729 110.706 233.071 111.103 233.32 111.558C233.569 112.012 233.72 112.514 233.763 113.031C233.806 113.547 233.74 114.067 233.57 114.557L233.073 116.316L193.718 116.338Z" fill="#605D8C"/>
<path d="M198.772 107.587L201.403 107.753C201.934 107.789 202.468 107.719 202.972 107.548C203.476 107.377 203.941 107.108 204.341 106.756C204.741 106.405 205.067 105.977 205.301 105.499C205.535 105.02 205.672 104.5 205.705 103.969C205.573 103.985 205.439 103.985 205.307 103.969L201.37 103.194C200.828 103.089 200.326 102.831 199.925 102.451C199.523 102.071 199.238 101.584 199.103 101.048C198.976 100.512 198.673 100.035 198.241 99.694C197.81 99.3527 197.276 99.167 196.726 99.1669H196.085C195.582 99.1682 195.092 99.3238 194.681 99.6127C194.269 99.9016 193.957 100.31 193.785 100.782C192.61 104.081 192.187 107.6 192.546 111.083L194.304 111.216C194.655 111.244 195.003 111.135 195.275 110.912C195.547 110.69 195.722 110.37 195.764 110.021C195.861 109.308 196.226 108.659 196.785 108.206C197.344 107.754 198.055 107.532 198.772 107.587Z" fill="#9A9AD8"/>
<path d="M211.798 103.847C212.341 103.847 212.782 103.406 212.782 102.862C212.782 102.318 212.341 101.878 211.798 101.878C211.254 101.878 210.813 102.318 210.813 102.862C210.813 103.406 211.254 103.847 211.798 103.847Z" fill="#9A9AD8"/>
<path d="M215.9 104.699C215.9 104.894 215.842 105.084 215.734 105.246C215.626 105.408 215.472 105.534 215.292 105.609C215.113 105.683 214.915 105.703 214.724 105.665C214.533 105.627 214.358 105.533 214.22 105.395C214.082 105.257 213.989 105.082 213.951 104.891C213.913 104.7 213.932 104.502 214.007 104.322C214.081 104.142 214.207 103.988 214.369 103.88C214.531 103.772 214.721 103.714 214.916 103.714C215.177 103.714 215.427 103.818 215.612 104.003C215.796 104.187 215.9 104.438 215.9 104.699Z" fill="#9A9AD8"/>
<path d="M218.023 107.609C218.566 107.609 219.007 107.168 219.007 106.624C219.007 106.08 218.566 105.639 218.023 105.639C217.479 105.639 217.039 106.08 217.039 106.624C217.039 107.168 217.479 107.609 218.023 107.609Z" fill="#9A9AD8"/>
<path d="M221.141 109.501C221.685 109.501 222.125 109.06 222.125 108.516C222.125 107.972 221.685 107.531 221.141 107.531C220.598 107.531 220.157 107.972 220.157 108.516C220.157 109.06 220.598 109.501 221.141 109.501Z" fill="#9A9AD8"/>
<path d="M231.292 116.239L230.186 115.951C230.351 115.213 230.248 114.441 229.895 113.772C229.543 113.103 228.964 112.581 228.262 112.3H220.931L207.607 103.593L208.215 102.663L221.307 111.216H228.638C229.621 111.579 230.435 112.293 230.924 113.22C231.414 114.147 231.545 115.221 231.292 116.239Z" fill="white"/>
<path d="M193.785 118.109H232.11C232.276 118.109 232.439 118.076 232.591 118.012C232.744 117.949 232.882 117.856 232.998 117.738C233.114 117.621 233.206 117.482 233.268 117.329C233.33 117.176 233.361 117.012 233.36 116.847V116.615C233.361 116.45 233.33 116.286 233.268 116.133C233.206 115.98 233.114 115.841 232.998 115.724C232.882 115.606 232.744 115.513 232.591 115.45C232.439 115.386 232.276 115.354 232.11 115.354H194.913C194.577 115.357 194.257 115.492 194.021 115.73C193.785 115.968 193.652 116.29 193.652 116.626C193.663 117.389 193.696 118.197 193.785 118.109Z" fill="#36353D"/>
<path d="M301.95 75.1911H259.578C254.765 75.1911 250.864 79.0945 250.864 83.9096V126.307C250.864 131.122 254.765 135.025 259.578 135.025H301.95C306.763 135.025 310.664 131.122 310.664 126.307V83.9096C310.664 79.0945 306.763 75.1911 301.95 75.1911Z" stroke="#C3D4FC" stroke-width="2" stroke-miterlimit="10"/>
<path d="M287.1 151.732H251.594V158.039H287.1V151.732Z" fill="#C3D4FC"/>
<path d="M287.1 159.831H251.594V161.623H287.1V159.831Z" fill="#C3D4FC"/>
<path d="M275.534 162.951H251.594V164.743H275.534V162.951Z" fill="#C3D4FC"/>
<path d="M255.796 146.211L253.109 147.163L253.186 144.308L251.45 142.051L254.181 141.243L255.796 138.887L257.41 141.243L260.141 142.051L258.405 144.308L258.483 147.163L255.796 146.211Z" fill="#FFBC00"/>
<path d="M268.28 146.211L265.593 147.163L265.67 144.308L263.934 142.051L266.666 141.243L268.28 138.887L269.894 141.243L272.626 142.051L270.89 144.308L270.967 147.163L268.28 146.211Z" fill="#FFBC00"/>
<path d="M280.764 146.211L278.077 147.163L278.155 144.308L276.418 142.051L279.15 141.243L280.764 138.887L282.379 141.243L285.11 142.051L283.374 144.308L283.451 147.163L280.764 146.211Z" fill="#FFBC00"/>
<path d="M293.237 146.211L290.561 147.163L290.638 144.308L288.891 142.051L291.634 141.243L293.237 138.887L294.851 141.243L297.594 142.051L295.847 144.308L295.935 147.163L293.237 146.211Z" fill="#C3D4FC"/>
<path d="M305.721 146.211L303.034 147.163L303.111 144.308L301.375 142.051L304.106 141.243L305.721 138.887L307.335 141.243L310.078 142.051L308.33 144.308L308.408 147.163L305.721 146.211Z" fill="#C3D4FC"/>
<path d="M258.792 80.9334C258.792 80.4957 258.663 80.0679 258.42 79.704C258.177 79.3401 257.831 79.0565 257.427 78.889C257.023 78.7215 256.578 78.6777 256.149 78.7631C255.72 78.8485 255.326 79.0592 255.017 79.3687C254.708 79.6781 254.497 80.0724 254.412 80.5017C254.327 80.9309 254.37 81.3758 254.538 81.7802C254.705 82.1845 254.989 82.5301 255.352 82.7732C255.716 83.0164 256.144 83.1462 256.581 83.1462C256.973 83.141 257.356 83.026 257.687 82.8143L258.848 83.987L259.511 83.3232L258.405 82.2168C258.668 81.8413 258.804 81.3915 258.792 80.9334ZM255.354 80.9334C255.354 80.6839 255.427 80.44 255.566 80.2326C255.704 80.0252 255.901 79.8635 256.132 79.7681C256.362 79.6726 256.616 79.6476 256.86 79.6963C257.105 79.745 257.329 79.8651 257.505 80.0415C257.682 80.2179 257.802 80.4426 257.85 80.6873C257.899 80.932 257.874 81.1856 257.779 81.416C257.683 81.6465 257.522 81.8435 257.314 81.9821C257.107 82.1207 256.863 82.1947 256.614 82.1947C256.447 82.1976 256.28 82.1671 256.125 82.1051C255.969 82.043 255.828 81.9506 255.708 81.8331C255.589 81.7157 255.494 81.5757 255.429 81.4212C255.365 81.2667 255.331 81.1009 255.331 80.9334H255.354Z" fill="#C3D4FC"/>
<path d="M277.004 128.841C277.004 129.072 276.912 129.295 276.749 129.459C276.585 129.623 276.363 129.715 276.131 129.715C275.899 129.715 275.677 129.623 275.513 129.459C275.349 129.295 275.257 129.072 275.257 128.841C275.257 128.609 275.349 128.387 275.513 128.223C275.677 128.059 275.899 127.967 276.131 127.967C276.363 127.967 276.585 128.059 276.749 128.223C276.912 128.387 277.004 128.609 277.004 128.841Z" fill="#C3D4FC"/>
<path d="M280.344 129.715C280.826 129.715 281.217 129.323 281.217 128.841C281.217 128.358 280.826 127.967 280.344 127.967C279.861 127.967 279.47 128.358 279.47 128.841C279.47 129.323 279.861 129.715 280.344 129.715Z" fill="#DCE5F7"/>
<path d="M284.557 129.715C285.039 129.715 285.43 129.323 285.43 128.841C285.43 128.358 285.039 127.967 284.557 127.967C284.074 127.967 283.683 128.358 283.683 128.841C283.683 129.323 284.074 129.715 284.557 129.715Z" fill="#DCE5F7"/>
<path d="M281.671 120.277C295.265 120.277 306.285 119.524 306.285 118.595C306.285 117.667 295.265 116.914 281.671 116.914C268.077 116.914 257.056 117.667 257.056 118.595C257.056 119.524 268.077 120.277 281.671 120.277Z" fill="#E6F5FF"/>
<path d="M273.311 105.031C271.1 100.937 273.311 99.0452 276.551 98.3924C279.791 97.7397 282.201 102.165 282.201 102.165L273.311 105.031Z" fill="#D89B21"/>
<path d="M262.032 116.338C260.299 111.315 260.33 105.851 262.121 100.849C262.29 100.376 262.6 99.9674 263.01 99.6783C263.419 99.3891 263.908 99.2337 264.41 99.2333H265.062C265.602 99.2326 266.127 99.4132 266.552 99.7462C266.977 100.079 267.278 100.545 267.406 101.07C267.545 101.606 267.832 102.093 268.235 102.473C268.638 102.853 269.141 103.11 269.684 103.216L273.621 103.991C274.146 104.095 274.689 104.053 275.192 103.869C275.695 103.686 276.138 103.368 276.474 102.951L277.513 101.645C278.01 101.031 278.71 100.615 279.486 100.471C280.262 100.327 281.064 100.465 281.748 100.86L295.106 108.605C295.374 108.762 295.665 108.878 295.968 108.947L299.208 109.733C299.712 109.853 300.185 110.077 300.597 110.391C301.009 110.706 301.35 111.103 301.598 111.558C301.846 112.013 301.996 112.515 302.038 113.032C302.079 113.549 302.012 114.068 301.84 114.557L301.342 116.316L262.032 116.338Z" fill="#EDCB3A"/>
<path d="M267.075 107.587L269.717 107.753C270.249 107.789 270.782 107.719 271.286 107.548C271.79 107.377 272.255 107.108 272.655 106.756C273.055 106.405 273.381 105.977 273.615 105.499C273.849 105.02 273.986 104.5 274.019 103.969C273.887 103.985 273.753 103.985 273.621 103.969L269.684 103.194C269.141 103.088 268.638 102.831 268.235 102.451C267.832 102.071 267.545 101.584 267.406 101.048C267.284 100.516 266.987 100.041 266.561 99.6996C266.136 99.3582 265.607 99.1705 265.062 99.1669H264.41C263.909 99.1689 263.42 99.325 263.011 99.6139C262.602 99.9028 262.291 100.311 262.121 100.782C260.946 104.081 260.523 107.6 260.882 111.083L262.641 111.216C262.99 111.241 263.337 111.131 263.608 110.909C263.88 110.687 264.056 110.369 264.1 110.021C264.194 109.313 264.554 108.667 265.106 108.215C265.659 107.763 266.363 107.538 267.075 107.587Z" fill="#FF5050"/>
<path d="M280.112 103.847C280.655 103.847 281.096 103.406 281.096 102.862C281.096 102.318 280.655 101.878 280.112 101.878C279.568 101.878 279.127 102.318 279.127 102.862C279.127 103.406 279.568 103.847 280.112 103.847Z" fill="#FF5050"/>
<path d="M283.219 105.728C283.762 105.728 284.203 105.287 284.203 104.743C284.203 104.199 283.762 103.758 283.219 103.758C282.675 103.758 282.235 104.199 282.235 104.743C282.235 105.287 282.675 105.728 283.219 105.728Z" fill="#FF5050"/>
<path d="M287.321 106.635C287.321 106.83 287.263 107.02 287.155 107.182C287.047 107.344 286.893 107.47 286.714 107.545C286.534 107.619 286.336 107.639 286.145 107.601C285.954 107.563 285.779 107.469 285.641 107.331C285.503 107.194 285.41 107.018 285.372 106.827C285.334 106.636 285.353 106.438 285.428 106.258C285.502 106.078 285.628 105.925 285.79 105.816C285.952 105.708 286.142 105.65 286.337 105.65C286.467 105.649 286.595 105.673 286.715 105.722C286.835 105.771 286.944 105.844 287.036 105.936C287.128 106.027 287.2 106.136 287.249 106.257C287.298 106.377 287.323 106.505 287.321 106.635Z" fill="#FF5050"/>
<path d="M290.428 108.516C290.428 108.711 290.37 108.902 290.262 109.064C290.153 109.226 289.999 109.353 289.818 109.427C289.638 109.501 289.439 109.52 289.248 109.481C289.057 109.442 288.881 109.347 288.744 109.208C288.607 109.069 288.514 108.893 288.478 108.701C288.441 108.509 288.462 108.311 288.538 108.131C288.614 107.952 288.742 107.799 288.905 107.692C289.069 107.585 289.26 107.529 289.455 107.531C289.584 107.531 289.711 107.557 289.83 107.606C289.949 107.656 290.057 107.729 290.147 107.82C290.238 107.912 290.309 108.021 290.357 108.14C290.406 108.259 290.43 108.387 290.428 108.516Z" fill="#FF5050"/>
<path d="M299.562 116.239L298.456 115.951C298.618 115.213 298.514 114.442 298.162 113.773C297.81 113.105 297.232 112.583 296.532 112.3H289.201L275.921 103.593L276.529 102.663L289.61 111.194H296.952C297.931 111.566 298.739 112.286 299.22 113.217C299.702 114.148 299.823 115.224 299.562 116.239Z" fill="#D89B21"/>
<path d="M262.088 118.109H300.402C300.567 118.109 300.731 118.076 300.883 118.012C301.035 117.949 301.174 117.856 301.29 117.738C301.406 117.621 301.498 117.482 301.56 117.329C301.622 117.176 301.653 117.012 301.652 116.847V116.615C301.653 116.45 301.622 116.286 301.56 116.133C301.498 115.98 301.406 115.841 301.29 115.724C301.174 115.606 301.035 115.513 300.883 115.45C300.731 115.386 300.567 115.354 300.402 115.354H263.216C263.05 115.354 262.885 115.387 262.732 115.451C262.579 115.515 262.44 115.609 262.324 115.728C262.208 115.846 262.116 115.986 262.055 116.141C261.993 116.295 261.963 116.46 261.966 116.626C261.966 117.389 261.966 118.197 262.088 118.109Z" fill="#FFEA92"/>
<path d="M235.085 177.965H192.712C187.9 177.965 183.999 181.868 183.999 186.683V229.081C183.999 233.896 187.9 237.799 192.712 237.799H235.085C239.897 237.799 243.798 233.896 243.798 229.081V186.683C243.798 181.868 239.897 177.965 235.085 177.965Z" stroke="#C3D4FC" stroke-width="2" stroke-miterlimit="10"/>
<path d="M220.234 254.506H184.729V260.812H220.234V254.506Z" fill="#C3D4FC"/>
<path d="M220.234 262.605H184.729V264.397H220.234V262.605Z" fill="#C3D4FC"/>
<path d="M208.668 265.725H184.729V267.517H208.668V265.725Z" fill="#C3D4FC"/>
<path d="M188.93 248.985L186.243 249.936L186.321 247.082L184.585 244.825L187.327 244.017L188.93 241.661L190.545 244.017L193.276 244.825L191.54 247.082L191.617 249.936L188.93 248.985Z" fill="#FFBC00"/>
<path d="M201.414 248.985L198.727 249.936L198.805 247.082L197.069 244.825L199.8 244.017L201.414 241.661L203.029 244.017L205.76 244.825L204.024 247.082L204.101 249.936L201.414 248.985Z" fill="#FFBC00"/>
<path d="M213.899 248.985L211.212 249.936L211.289 247.082L209.553 244.825L212.284 244.017L213.899 241.661L215.513 244.017L218.244 244.825L216.508 247.082L216.586 249.936L213.899 248.985Z" fill="#FFBC00"/>
<path d="M226.382 248.985L223.696 249.936L223.773 247.082L222.037 244.825L224.768 244.017L226.382 241.661L227.997 244.017L230.728 244.825L228.992 247.082L229.069 249.936L226.382 248.985Z" fill="#C3D4FC"/>
<path d="M238.856 248.985L236.18 249.936L236.257 247.082L234.51 244.825L237.252 244.017L238.856 241.661L240.47 244.017L243.212 244.825L241.465 247.082L241.543 249.936L238.856 248.985Z" fill="#C3D4FC"/>
<path d="M191.938 183.707C191.951 183.218 191.801 182.738 191.512 182.343C191.224 181.948 190.812 181.66 190.342 181.523C189.872 181.387 189.37 181.411 188.915 181.591C188.46 181.771 188.077 182.097 187.827 182.517C187.577 182.938 187.473 183.43 187.532 183.916C187.591 184.402 187.809 184.855 188.153 185.203C188.497 185.552 188.946 185.776 189.431 185.842C189.916 185.908 190.409 185.811 190.832 185.566L192.005 186.739L192.657 186.075L191.551 184.968C191.805 184.597 191.94 184.157 191.938 183.707ZM188.488 183.707C188.486 183.457 188.558 183.212 188.695 183.003C188.832 182.795 189.028 182.631 189.259 182.534C189.489 182.437 189.743 182.41 189.988 182.458C190.233 182.505 190.459 182.624 190.636 182.8C190.814 182.976 190.935 183.201 190.984 183.446C191.034 183.691 191.009 183.945 190.914 184.176C190.819 184.407 190.658 184.605 190.45 184.744C190.243 184.883 189.999 184.957 189.749 184.957C189.416 184.957 189.097 184.826 188.861 184.592C188.625 184.358 188.491 184.04 188.488 183.707Z" fill="#C3D4FC"/>
<path d="M209.265 232.477C209.748 232.477 210.139 232.086 210.139 231.603C210.139 231.121 209.748 230.729 209.265 230.729C208.783 230.729 208.392 231.121 208.392 231.603C208.392 232.086 208.783 232.477 209.265 232.477Z" fill="#C3D4FC"/>
<path d="M214.352 231.614C214.352 231.846 214.26 232.069 214.096 232.232C213.932 232.396 213.71 232.488 213.478 232.488C213.247 232.488 213.024 232.396 212.861 232.232C212.697 232.069 212.605 231.846 212.605 231.614C212.605 231.383 212.697 231.16 212.861 230.996C213.024 230.832 213.247 230.74 213.478 230.74C213.71 230.74 213.932 230.832 214.096 230.996C214.26 231.16 214.352 231.383 214.352 231.614Z" fill="#DCE5F7"/>
<path d="M217.691 232.477C218.174 232.477 218.565 232.086 218.565 231.603C218.565 231.121 218.174 230.729 217.691 230.729C217.209 230.729 216.818 231.121 216.818 231.603C216.818 232.086 217.209 232.477 217.691 232.477Z" fill="#DCE5F7"/>
<path d="M213.357 223.051C226.951 223.051 237.971 222.298 237.971 221.369C237.971 220.44 226.951 219.687 213.357 219.687C199.763 219.687 188.742 220.44 188.742 221.369C188.742 222.298 199.763 223.051 213.357 223.051Z" fill="#E6F5FF"/>
<path d="M204.997 207.805C202.786 203.711 204.997 201.819 208.237 201.166C211.477 200.513 213.887 204.939 213.887 204.939L204.997 207.805Z" fill="#326A6B"/>
<path d="M193.718 219.112C191.985 214.089 192.016 208.625 193.807 203.622C193.979 203.15 194.292 202.742 194.703 202.453C195.114 202.164 195.604 202.008 196.107 202.007H196.726C197.267 202.008 197.792 202.189 198.219 202.521C198.645 202.854 198.949 203.319 199.081 203.844C199.216 204.38 199.501 204.867 199.903 205.247C200.304 205.627 200.806 205.885 201.348 205.99L205.285 206.765C205.81 206.869 206.353 206.826 206.856 206.643C207.359 206.46 207.802 206.142 208.138 205.725L209.243 204.419C209.738 203.806 210.435 203.39 211.209 203.244C211.983 203.098 212.783 203.232 213.467 203.622L226.825 211.423C227.093 211.58 227.384 211.696 227.687 211.766L230.927 212.551C231.431 212.671 231.905 212.895 232.317 213.209C232.729 213.524 233.071 213.921 233.32 214.376C233.569 214.83 233.72 215.332 233.763 215.849C233.806 216.365 233.74 216.885 233.57 217.375L233.073 219.134L193.718 219.112Z" fill="#5A9378"/>
<path d="M198.772 210.36L201.403 210.526C201.935 210.562 202.468 210.493 202.972 210.322C203.476 210.151 203.941 209.882 204.341 209.53C204.741 209.178 205.067 208.751 205.301 208.273C205.535 207.794 205.673 207.274 205.705 206.742C205.573 206.759 205.439 206.759 205.307 206.742L201.37 205.968C200.828 205.863 200.326 205.605 199.925 205.225C199.523 204.845 199.238 204.358 199.103 203.822C198.971 203.297 198.667 202.832 198.241 202.499C197.814 202.167 197.289 201.986 196.748 201.985H196.107C195.604 201.986 195.114 202.142 194.703 202.431C194.292 202.72 193.979 203.128 193.807 203.6C192.632 206.899 192.209 210.418 192.568 213.901L194.327 214.034C194.677 214.062 195.025 213.953 195.297 213.73C195.569 213.508 195.744 213.188 195.786 212.839C195.87 212.121 196.227 211.463 196.783 211.001C197.339 210.539 198.051 210.31 198.772 210.36Z" fill="#EDCB3A"/>
<path d="M211.798 206.621C212.341 206.621 212.782 206.18 212.782 205.636C212.782 205.092 212.341 204.651 211.798 204.651C211.254 204.651 210.813 205.092 210.813 205.636C210.813 206.18 211.254 206.621 211.798 206.621Z" fill="#7BD68A"/>
<path d="M215.9 207.517C215.9 207.712 215.842 207.902 215.734 208.064C215.626 208.226 215.472 208.352 215.292 208.427C215.113 208.501 214.915 208.521 214.724 208.483C214.533 208.445 214.358 208.351 214.22 208.213C214.082 208.076 213.989 207.9 213.951 207.709C213.913 207.518 213.932 207.32 214.007 207.14C214.081 206.96 214.207 206.806 214.369 206.698C214.531 206.59 214.721 206.532 214.916 206.532C215.177 206.532 215.427 206.636 215.612 206.821C215.796 207.005 215.9 207.256 215.9 207.517Z" fill="#7BD68A"/>
<path d="M218.023 210.383C218.566 210.383 219.007 209.942 219.007 209.398C219.007 208.854 218.566 208.413 218.023 208.413C217.479 208.413 217.039 208.854 217.039 209.398C217.039 209.942 217.479 210.383 218.023 210.383Z" fill="#7BD68A"/>
<path d="M221.141 212.274C221.685 212.274 222.125 211.834 222.125 211.29C222.125 210.746 221.685 210.305 221.141 210.305C220.598 210.305 220.157 210.746 220.157 211.29C220.157 211.834 220.598 212.274 221.141 212.274Z" fill="#7BD68A"/>
<path d="M231.292 219.012L230.186 218.725C230.351 217.987 230.248 217.214 229.895 216.545C229.543 215.877 228.964 215.355 228.262 215.074H220.931L207.562 206.344L208.171 205.415L221.263 213.967H228.594C229.59 214.323 230.417 215.037 230.916 215.969C231.415 216.902 231.549 217.986 231.292 219.012Z" fill="white"/>
<path d="M193.785 220.871H232.11C232.275 220.873 232.438 220.841 232.59 220.779C232.743 220.717 232.881 220.625 232.997 220.508C233.114 220.392 233.206 220.254 233.268 220.101C233.33 219.949 233.361 219.786 233.36 219.621V219.389C233.361 219.224 233.33 219.06 233.268 218.907C233.206 218.754 233.114 218.615 232.998 218.497C232.882 218.38 232.744 218.287 232.591 218.224C232.439 218.16 232.276 218.127 232.11 218.127H194.913C194.577 218.13 194.257 218.266 194.021 218.504C193.785 218.742 193.652 219.064 193.652 219.4C193.663 220.163 193.696 220.96 193.785 220.871Z" fill="#EDCB3A"/>
<path d="M301.95 177.965H259.578C254.765 177.965 250.864 181.868 250.864 186.683V229.081C250.864 233.896 254.765 237.799 259.578 237.799H301.95C306.763 237.799 310.664 233.896 310.664 229.081V186.683C310.664 181.868 306.763 177.965 301.95 177.965Z" stroke="#C3D4FC" stroke-width="2" stroke-miterlimit="10"/>
<path d="M287.1 254.506H251.594V260.812H287.1V254.506Z" fill="#C3D4FC"/>
<path d="M287.1 262.605H251.594V264.397H287.1V262.605Z" fill="#C3D4FC"/>
<path d="M275.534 265.725H251.594V267.517H275.534V265.725Z" fill="#C3D4FC"/>
<path d="M255.796 248.985L253.109 249.936L253.186 247.082L251.45 244.825L254.181 244.017L255.796 241.661L257.41 244.017L260.141 244.825L258.405 247.082L258.483 249.936L255.796 248.985Z" fill="#FFBC00"/>
<path d="M268.28 248.985L265.593 249.936L265.67 247.082L263.934 244.825L266.666 244.017L268.28 241.661L269.894 244.017L272.626 244.825L270.89 247.082L270.967 249.936L268.28 248.985Z" fill="#FFBC00"/>
<path d="M280.764 248.985L278.077 249.936L278.155 247.082L276.418 244.825L279.15 244.017L280.764 241.661L282.379 244.017L285.11 244.825L283.374 247.082L283.451 249.936L280.764 248.985Z" fill="#FFBC00"/>
<path d="M293.237 248.985L290.561 249.936L290.638 247.082L288.891 244.825L291.634 244.017L293.237 241.661L294.851 244.017L297.594 244.825L295.847 247.082L295.935 249.936L293.237 248.985Z" fill="#FFBC00"/>
<path d="M305.721 248.985L303.034 249.936L303.111 247.082L301.375 244.825L304.106 244.017L305.721 241.661L307.335 244.017L310.078 244.825L308.33 247.082L308.408 249.936L305.721 248.985Z" fill="#FFBC00"/>
<path d="M258.793 183.707C258.798 183.216 258.64 182.737 258.344 182.346C258.048 181.955 257.63 181.673 257.156 181.546C256.682 181.418 256.179 181.452 255.727 181.641C255.274 181.831 254.898 182.166 254.656 182.593C254.415 183.021 254.322 183.516 254.393 184.002C254.464 184.488 254.694 184.936 255.047 185.277C255.401 185.617 255.857 185.83 256.345 185.883C256.833 185.935 257.324 185.824 257.742 185.566L258.903 186.739L259.567 186.075L258.461 184.968C258.699 184.593 258.815 184.152 258.793 183.707ZM255.354 183.707C255.351 183.457 255.424 183.212 255.561 183.003C255.698 182.795 255.894 182.631 256.124 182.534C256.354 182.437 256.608 182.41 256.853 182.458C257.099 182.505 257.324 182.624 257.502 182.8C257.679 182.976 257.8 183.201 257.85 183.446C257.899 183.691 257.875 183.945 257.78 184.176C257.685 184.407 257.523 184.605 257.316 184.744C257.108 184.883 256.864 184.957 256.614 184.957C256.448 184.96 256.282 184.93 256.128 184.869C255.973 184.807 255.832 184.716 255.712 184.6C255.593 184.484 255.498 184.345 255.433 184.192C255.367 184.038 255.333 183.874 255.332 183.707H255.354Z" fill="#C3D4FC"/>
<path d="M277.004 231.614C277.004 231.787 276.953 231.956 276.857 232.1C276.761 232.244 276.625 232.356 276.465 232.422C276.306 232.488 276.13 232.505 275.96 232.472C275.791 232.438 275.635 232.355 275.513 232.232C275.391 232.11 275.308 231.955 275.274 231.785C275.24 231.615 275.258 231.44 275.324 231.28C275.39 231.12 275.502 230.984 275.646 230.888C275.789 230.792 275.958 230.74 276.131 230.74C276.363 230.74 276.585 230.832 276.749 230.996C276.912 231.16 277.004 231.383 277.004 231.614Z" fill="#C3D4FC"/>
<path d="M280.344 232.477C280.826 232.477 281.217 232.086 281.217 231.603C281.217 231.121 280.826 230.729 280.344 230.729C279.861 230.729 279.47 231.121 279.47 231.603C279.47 232.086 279.861 232.477 280.344 232.477Z" fill="#DCE5F7"/>
<path d="M284.557 232.477C285.039 232.477 285.43 232.086 285.43 231.603C285.43 231.121 285.039 230.729 284.557 230.729C284.074 230.729 283.683 231.121 283.683 231.603C283.683 232.086 284.074 232.477 284.557 232.477Z" fill="#DCE5F7"/>
<path d="M281.671 223.051C295.265 223.051 306.285 222.298 306.285 221.369C306.285 220.44 295.265 219.687 281.671 219.687C268.077 219.687 257.056 220.44 257.056 221.369C257.056 222.298 268.077 223.051 281.671 223.051Z" fill="#E6F5FF"/>
<path d="M273.311 207.805C271.1 203.711 273.311 201.819 276.551 201.166C279.791 200.513 282.201 204.939 282.201 204.939L273.311 207.805Z" fill="#A8456D"/>
<path d="M262.032 219.112C260.299 214.089 260.33 208.625 262.121 203.622C262.29 203.15 262.6 202.741 263.01 202.452C263.419 202.163 263.908 202.007 264.41 202.007H265.062C265.602 202.006 266.127 202.187 266.552 202.52C266.977 202.853 267.278 203.319 267.406 203.844C267.545 204.38 267.832 204.867 268.235 205.247C268.638 205.626 269.141 205.884 269.684 205.99L273.621 206.765C274.146 206.869 274.689 206.826 275.192 206.643C275.695 206.46 276.138 206.142 276.474 205.725L277.513 204.419C278.009 203.803 278.707 203.385 279.484 203.239C280.26 203.093 281.063 203.229 281.748 203.622L295.139 211.378C295.407 211.536 295.698 211.651 296.001 211.721L299.241 212.507C299.745 212.626 300.219 212.851 300.63 213.165C301.042 213.48 301.383 213.877 301.631 214.332C301.88 214.787 302.029 215.289 302.071 215.806C302.113 216.322 302.045 216.842 301.873 217.331L301.375 219.09L262.032 219.112Z" fill="#FF5050"/>
<path d="M267.075 210.36L269.717 210.526C270.249 210.562 270.782 210.493 271.286 210.322C271.79 210.151 272.255 209.882 272.655 209.53C273.055 209.178 273.381 208.751 273.615 208.273C273.849 207.794 273.986 207.274 274.019 206.742C273.887 206.759 273.753 206.759 273.621 206.742L269.684 205.968C269.141 205.862 268.638 205.604 268.235 205.224C267.832 204.845 267.545 204.358 267.406 203.822C267.278 203.297 266.977 202.831 266.552 202.498C266.126 202.165 265.602 201.984 265.062 201.985H264.41C263.909 201.987 263.42 202.143 263.011 202.432C262.602 202.721 262.291 203.129 262.121 203.6C260.946 206.899 260.523 210.418 260.882 213.901L262.641 214.034C262.99 214.059 263.337 213.949 263.608 213.727C263.88 213.505 264.056 213.187 264.1 212.839C264.181 212.122 264.536 211.464 265.09 211.002C265.644 210.54 266.355 210.31 267.075 210.36Z" fill="#323244"/>
<path d="M280.112 206.621C280.655 206.621 281.096 206.18 281.096 205.636C281.096 205.092 280.655 204.651 280.112 204.651C279.568 204.651 279.127 205.092 279.127 205.636C279.127 206.18 279.568 206.621 280.112 206.621Z" fill="#FFEA92"/>
<path d="M283.219 208.502C283.762 208.502 284.203 208.061 284.203 207.517C284.203 206.973 283.762 206.532 283.219 206.532C282.675 206.532 282.235 206.973 282.235 207.517C282.235 208.061 282.675 208.502 283.219 208.502Z" fill="#FFEA92"/>
<path d="M287.321 209.398C287.323 209.593 287.268 209.785 287.161 209.948C287.054 210.111 286.901 210.239 286.721 210.315C286.542 210.392 286.344 210.413 286.152 210.376C285.96 210.339 285.784 210.246 285.645 210.109C285.506 209.972 285.412 209.796 285.373 209.605C285.334 209.414 285.353 209.215 285.427 209.035C285.501 208.854 285.627 208.7 285.789 208.591C285.951 208.482 286.142 208.424 286.337 208.424C286.596 208.424 286.845 208.526 287.029 208.709C287.213 208.891 287.318 209.139 287.321 209.398Z" fill="#FFEA92"/>
<path d="M290.428 211.29C290.428 211.485 290.37 211.676 290.262 211.838C290.153 212 289.999 212.126 289.818 212.201C289.638 212.275 289.439 212.294 289.248 212.255C289.057 212.216 288.881 212.121 288.744 211.982C288.607 211.843 288.514 211.667 288.478 211.475C288.441 211.283 288.462 211.085 288.538 210.905C288.614 210.726 288.742 210.572 288.905 210.466C289.069 210.359 289.26 210.303 289.455 210.305C289.584 210.305 289.711 210.331 289.83 210.38C289.949 210.43 290.057 210.503 290.147 210.594C290.238 210.686 290.309 210.794 290.357 210.914C290.406 211.033 290.43 211.161 290.428 211.29Z" fill="#FFEA92"/>
<path d="M299.562 219.012L298.456 218.725C298.618 217.987 298.514 217.215 298.162 216.547C297.81 215.879 297.232 215.357 296.532 215.074H289.201L275.832 206.344L276.44 205.415L289.61 213.967H296.952C297.931 214.34 298.739 215.06 299.22 215.991C299.702 216.922 299.823 217.998 299.562 219.012Z" fill="white"/>
<path d="M262.088 220.871H300.402C300.567 220.873 300.73 220.841 300.882 220.779C301.034 220.717 301.173 220.625 301.289 220.508C301.405 220.392 301.497 220.254 301.56 220.101C301.622 219.949 301.653 219.786 301.652 219.621V219.389C301.653 219.224 301.622 219.06 301.56 218.907C301.498 218.754 301.406 218.615 301.29 218.497C301.174 218.38 301.035 218.287 300.883 218.224C300.731 218.16 300.567 218.127 300.402 218.127H263.216C263.05 218.127 262.885 218.16 262.732 218.225C262.579 218.289 262.44 218.383 262.324 218.501C262.208 218.62 262.116 218.76 262.055 218.914C261.993 219.069 261.963 219.234 261.966 219.4C261.966 220.163 261.966 220.96 262.088 220.871Z" fill="#FFEA92"/>
<path d="M277.235 283H217.369C213.852 283 211 285.853 211 289.373V303.325C211 306.844 213.852 309.698 217.369 309.698H277.235C280.753 309.698 283.604 306.844 283.604 303.325V289.373C283.604 285.853 280.753 283 277.235 283Z" fill="#6093CB"/>
<path d="M233.902 296.834H234.8C234.754 297.265 234.63 297.65 234.431 297.99C234.231 298.33 233.949 298.599 233.584 298.799C233.219 298.995 232.764 299.094 232.218 299.094C231.819 299.094 231.456 299.019 231.128 298.869C230.804 298.719 230.525 298.507 230.291 298.233C230.057 297.955 229.876 297.623 229.748 297.236C229.624 296.847 229.561 296.413 229.561 295.936V295.258C229.561 294.781 229.624 294.349 229.748 293.962C229.876 293.572 230.059 293.239 230.296 292.961C230.536 292.683 230.824 292.47 231.161 292.32C231.498 292.171 231.877 292.096 232.298 292.096C232.812 292.096 233.247 292.192 233.603 292.386C233.958 292.579 234.234 292.847 234.431 293.19C234.63 293.53 234.754 293.925 234.8 294.374H233.902C233.859 294.056 233.778 293.783 233.659 293.555C233.541 293.324 233.372 293.147 233.154 293.022C232.936 292.897 232.65 292.835 232.298 292.835C231.995 292.835 231.729 292.892 231.498 293.008C231.27 293.123 231.078 293.287 230.923 293.499C230.77 293.711 230.654 293.965 230.576 294.261C230.498 294.558 230.459 294.887 230.459 295.248V295.936C230.459 296.27 230.494 296.583 230.562 296.876C230.634 297.169 230.742 297.427 230.885 297.648C231.029 297.87 231.211 298.044 231.432 298.172C231.654 298.297 231.916 298.359 232.218 298.359C232.602 298.359 232.907 298.298 233.135 298.177C233.363 298.055 233.534 297.88 233.65 297.653C233.768 297.425 233.852 297.152 233.902 296.834ZM235.67 296.525V296.418C235.67 296.053 235.723 295.715 235.829 295.403C235.936 295.088 236.088 294.815 236.288 294.584C236.487 294.35 236.729 294.169 237.013 294.042C237.297 293.911 237.615 293.845 237.967 293.845C238.323 293.845 238.642 293.911 238.926 294.042C239.213 294.169 239.456 294.35 239.656 294.584C239.859 294.815 240.013 295.088 240.119 295.403C240.225 295.715 240.278 296.053 240.278 296.418V296.525C240.278 296.89 240.225 297.229 240.119 297.541C240.013 297.852 239.859 298.125 239.656 298.359C239.456 298.59 239.215 298.771 238.931 298.902C238.65 299.03 238.332 299.094 237.977 299.094C237.621 299.094 237.301 299.03 237.018 298.902C236.734 298.771 236.491 298.59 236.288 298.359C236.088 298.125 235.936 297.852 235.829 297.541C235.723 297.229 235.67 296.89 235.67 296.525ZM236.536 296.418V296.525C236.536 296.778 236.565 297.017 236.625 297.241C236.684 297.463 236.773 297.659 236.891 297.831C237.013 298.002 237.164 298.138 237.345 298.238C237.526 298.334 237.736 298.383 237.977 298.383C238.214 298.383 238.421 298.334 238.599 298.238C238.78 298.138 238.929 298.002 239.048 297.831C239.166 297.659 239.255 297.463 239.314 297.241C239.377 297.017 239.408 296.778 239.408 296.525V296.418C239.408 296.168 239.377 295.933 239.314 295.712C239.255 295.487 239.165 295.289 239.043 295.117C238.925 294.943 238.775 294.806 238.594 294.706C238.416 294.606 238.207 294.556 237.967 294.556C237.73 294.556 237.521 294.606 237.34 294.706C237.163 294.806 237.013 294.943 236.891 295.117C236.773 295.289 236.684 295.487 236.625 295.712C236.565 295.933 236.536 296.168 236.536 296.418ZM242.224 294.944V299H241.354V293.939H242.177L242.224 294.944ZM242.046 296.278L241.644 296.264C241.647 295.917 241.692 295.598 241.78 295.305C241.867 295.008 241.996 294.751 242.168 294.533C242.339 294.314 242.553 294.146 242.809 294.028C243.064 293.906 243.361 293.845 243.697 293.845C243.934 293.845 244.153 293.879 244.352 293.948C244.552 294.014 244.725 294.118 244.872 294.261C245.018 294.405 245.132 294.589 245.213 294.813C245.294 295.038 245.335 295.309 245.335 295.627V299H244.469V295.669C244.469 295.404 244.424 295.192 244.334 295.033C244.246 294.874 244.122 294.759 243.959 294.687C243.797 294.612 243.607 294.575 243.389 294.575C243.133 294.575 242.919 294.62 242.748 294.711C242.576 294.801 242.439 294.926 242.336 295.085C242.233 295.244 242.158 295.426 242.112 295.632C242.068 295.835 242.046 296.05 242.046 296.278ZM245.325 295.8L244.745 295.978C244.748 295.701 244.794 295.434 244.881 295.178C244.971 294.923 245.101 294.695 245.269 294.495C245.441 294.296 245.651 294.138 245.901 294.023C246.15 293.904 246.435 293.845 246.757 293.845C247.028 293.845 247.268 293.881 247.477 293.953C247.689 294.024 247.867 294.135 248.01 294.285C248.157 294.431 248.268 294.62 248.342 294.851C248.417 295.082 248.455 295.356 248.455 295.674V299H247.585V295.665C247.585 295.381 247.539 295.161 247.449 295.005C247.362 294.846 247.237 294.735 247.075 294.673C246.916 294.608 246.725 294.575 246.504 294.575C246.314 294.575 246.145 294.608 245.999 294.673C245.852 294.739 245.729 294.829 245.629 294.944C245.53 295.057 245.453 295.186 245.4 295.333C245.35 295.479 245.325 295.635 245.325 295.8ZM250.63 294.912V300.946H249.76V293.939H250.555L250.63 294.912ZM254.04 296.427V296.525C254.04 296.893 253.996 297.235 253.909 297.55C253.822 297.862 253.694 298.133 253.525 298.364C253.36 298.595 253.156 298.774 252.913 298.902C252.669 299.03 252.39 299.094 252.075 299.094C251.754 299.094 251.47 299.041 251.224 298.935C250.978 298.828 250.769 298.674 250.597 298.471C250.426 298.269 250.288 298.025 250.185 297.742C250.086 297.458 250.017 297.138 249.98 296.783V296.259C250.017 295.885 250.087 295.549 250.19 295.253C250.293 294.957 250.429 294.704 250.597 294.495C250.769 294.283 250.976 294.123 251.219 294.014C251.462 293.901 251.743 293.845 252.061 293.845C252.379 293.845 252.662 293.908 252.908 294.032C253.154 294.154 253.362 294.329 253.53 294.556C253.698 294.784 253.825 295.057 253.909 295.375C253.996 295.69 254.04 296.041 254.04 296.427ZM253.17 296.525V296.427C253.17 296.175 253.143 295.938 253.09 295.716C253.037 295.492 252.955 295.295 252.842 295.127C252.733 294.955 252.593 294.821 252.421 294.725C252.25 294.625 252.046 294.575 251.809 294.575C251.59 294.575 251.4 294.612 251.238 294.687C251.079 294.762 250.943 294.863 250.831 294.991C250.719 295.116 250.627 295.259 250.555 295.422C250.486 295.581 250.435 295.746 250.401 295.917V297.129C250.463 297.347 250.55 297.553 250.663 297.746C250.775 297.937 250.925 298.091 251.112 298.209C251.299 298.325 251.534 298.383 251.818 298.383C252.052 298.383 252.253 298.334 252.421 298.238C252.593 298.138 252.733 298.002 252.842 297.831C252.955 297.659 253.037 297.463 253.09 297.241C253.143 297.017 253.17 296.778 253.17 296.525ZM256.009 294.734V299H255.144V293.939H255.986L256.009 294.734ZM257.59 293.911L257.586 294.715C257.514 294.7 257.445 294.69 257.38 294.687C257.317 294.681 257.246 294.678 257.165 294.678C256.965 294.678 256.789 294.709 256.636 294.771C256.483 294.834 256.354 294.921 256.248 295.033C256.142 295.146 256.058 295.28 255.995 295.436C255.936 295.588 255.897 295.757 255.878 295.941L255.635 296.081C255.635 295.775 255.665 295.489 255.724 295.22C255.786 294.952 255.881 294.715 256.009 294.509C256.137 294.3 256.299 294.138 256.496 294.023C256.695 293.904 256.932 293.845 257.207 293.845C257.269 293.845 257.341 293.853 257.422 293.869C257.503 293.881 257.559 293.895 257.59 293.911ZM261.187 298.135V295.529C261.187 295.33 261.147 295.156 261.066 295.01C260.988 294.86 260.869 294.745 260.71 294.664C260.551 294.583 260.355 294.542 260.121 294.542C259.903 294.542 259.711 294.58 259.546 294.654C259.383 294.729 259.256 294.827 259.162 294.949C259.072 295.071 259.026 295.202 259.026 295.342H258.161C258.161 295.161 258.208 294.982 258.301 294.804C258.395 294.626 258.529 294.466 258.704 294.322C258.881 294.176 259.093 294.06 259.34 293.976C259.589 293.889 259.867 293.845 260.172 293.845C260.54 293.845 260.865 293.908 261.145 294.032C261.429 294.157 261.651 294.346 261.81 294.598C261.972 294.848 262.053 295.161 262.053 295.538V297.896C262.053 298.064 262.067 298.244 262.095 298.434C262.126 298.624 262.171 298.788 262.231 298.925V299H261.328C261.284 298.9 261.25 298.768 261.225 298.602C261.2 298.434 261.187 298.278 261.187 298.135ZM261.337 295.931L261.347 296.54H260.472C260.225 296.54 260.006 296.56 259.812 296.6C259.619 296.638 259.457 296.695 259.326 296.773C259.195 296.851 259.095 296.95 259.026 297.068C258.958 297.183 258.923 297.319 258.923 297.475C258.923 297.634 258.959 297.779 259.031 297.91C259.103 298.041 259.21 298.146 259.354 298.223C259.5 298.298 259.68 298.336 259.892 298.336C260.157 298.336 260.391 298.28 260.593 298.167C260.796 298.055 260.957 297.918 261.075 297.756C261.197 297.594 261.262 297.436 261.272 297.283L261.641 297.7C261.619 297.831 261.56 297.976 261.463 298.135C261.367 298.294 261.237 298.446 261.075 298.593C260.916 298.736 260.726 298.857 260.505 298.953C260.286 299.047 260.04 299.094 259.765 299.094C259.422 299.094 259.121 299.027 258.863 298.892C258.607 298.758 258.407 298.579 258.264 298.354C258.124 298.127 258.053 297.873 258.053 297.592C258.053 297.321 258.106 297.082 258.212 296.876C258.318 296.667 258.471 296.494 258.671 296.357C258.87 296.217 259.111 296.111 259.391 296.039C259.672 295.967 259.985 295.931 260.331 295.931H261.337ZM264.279 294.734V299H263.414V293.939H264.256L264.279 294.734ZM265.861 293.911L265.856 294.715C265.784 294.7 265.716 294.69 265.65 294.687C265.588 294.681 265.516 294.678 265.435 294.678C265.235 294.678 265.059 294.709 264.906 294.771C264.753 294.834 264.624 294.921 264.518 295.033C264.412 295.146 264.328 295.28 264.265 295.436C264.206 295.588 264.167 295.757 264.148 295.941L263.905 296.081C263.905 295.775 263.935 295.489 263.994 295.22C264.057 294.952 264.152 294.715 264.279 294.509C264.407 294.3 264.569 294.138 264.766 294.023C264.966 293.904 265.203 293.845 265.477 293.845C265.539 293.845 265.611 293.853 265.692 293.869C265.773 293.881 265.829 293.895 265.861 293.911Z" fill="white"/>
<path d="M356 328.934H299.075L303.222 265.194H351.853L356 328.934Z" fill="#94BBFF"/>
<path d="M354.905 312.061C337.843 325.858 316.204 300.72 301.143 297.18L299.075 328.934H355.956L354.905 312.061Z" fill="#7DA3DB"/>
<path d="M312.179 272.828C313.376 272.828 314.346 271.857 314.346 270.659C314.346 269.462 313.376 268.491 312.179 268.491C310.982 268.491 310.011 269.462 310.011 270.659C310.011 271.857 310.982 272.828 312.179 272.828Z" fill="#414193"/>
<path d="M342.775 272.828C343.972 272.828 344.943 271.857 344.943 270.659C344.943 269.462 343.972 268.491 342.775 268.491C341.578 268.491 340.608 269.462 340.608 270.659C340.608 271.857 341.578 272.828 342.775 272.828Z" fill="#414193"/>
<path d="M312.267 270.748V260.005C312.267 255.952 313.876 252.066 316.74 249.201C319.604 246.335 323.488 244.725 327.538 244.725V244.725C331.588 244.725 335.472 246.335 338.336 249.201C341.199 252.066 342.808 255.952 342.808 260.005V270.748" stroke="#9A9AE8" stroke-width="2" stroke-linecap="round" stroke-linejoin="round"/>
<path d="M163.841 293.119H123.458L126.4 247.89H160.899L163.841 293.119Z" fill="#FF5050"/>
<path d="M163.067 281.148C150.97 290.94 135.611 273.093 124.929 270.593L123.458 293.119H163.852L163.067 281.148Z" fill="#D83563"/>
<path d="M132.747 253.311C133.596 253.311 134.284 252.622 134.284 251.773C134.284 250.924 133.596 250.235 132.747 250.235C131.898 250.235 131.21 250.924 131.21 251.773C131.21 252.622 131.898 253.311 132.747 253.311Z" fill="#414193"/>
<path d="M154.464 253.311C155.313 253.311 156.001 252.622 156.001 251.773C156.001 250.924 155.313 250.235 154.464 250.235C153.615 250.235 152.927 250.924 152.927 251.773C152.927 252.622 153.615 253.311 154.464 253.311Z" fill="#414193"/>
<path d="M132.824 251.851V244.216C132.823 242.793 133.102 241.383 133.645 240.068C134.188 238.752 134.986 237.557 135.991 236.55C136.996 235.543 138.19 234.744 139.504 234.199C140.819 233.654 142.227 233.374 143.65 233.374V233.374C146.524 233.374 149.28 234.516 151.312 236.549C153.344 238.583 154.486 241.341 154.486 244.216V251.851" stroke="#9A9AE8" stroke-linecap="round" stroke-linejoin="round"/>
</g>
<defs>
<clipPath id="clip0_158_682">
<rect width="356" height="329" fill="white"/>
</clipPath>
</defs>
</svg>
